<svg width="57" height="57" viewBox="0 0 57 57" fill="none" xmlns="http://www.w3.org/2000/svg">
<path d="M42.75 42.75C50.6201 34.8799 50.6201 22.1201 42.75 14.25C34.8799 6.37994 22.1201 6.37994 14.25 14.25C6.37994 22.1201 6.37994 34.8799 14.25 42.75C22.1201 50.6201 34.8799 50.6201 42.75 42.75Z" fill="#B8B3FB"/>
<path fill-rule="evenodd" clip-rule="evenodd" d="M23.0014 16H34.9601C38.8017 16 41.9615 19.0502 41.9615 22.7584V34.2416C41.9615 37.9498 38.8017 41 34.9601 41H23.0014C19.1599 41 16 37.9498 16 34.2416V22.7584C16 19.0502 19.1599 16 23.0014 16ZM35.951 20.3662C36.7566 20.3662 37.4383 21.0243 37.4383 21.8019C37.4383 22.5795 36.7566 23.2375 35.951 23.2375C35.084 23.2375 34.4637 22.5795 34.4637 21.8019C34.4637 21.0243 35.0831 20.3662 35.951 20.3662ZM28.9496 21.6823H29.012C32.8535 21.6823 36.0758 24.7927 36.0758 28.5009C36.0758 32.2684 32.8535 35.3195 29.012 35.3195H28.9496C25.108 35.3195 21.9481 32.2693 21.9481 28.5009C21.9481 24.7927 25.108 21.6823 28.9496 21.6823ZM28.9496 24.0151H29.012C31.5525 24.0151 33.6591 26.0485 33.6591 28.5009C33.6591 31.0126 31.5525 33.046 29.012 33.046H28.9496C26.409 33.046 24.3024 31.0126 24.3024 28.5009C24.3024 26.0485 26.409 24.0151 28.9496 24.0151ZM23.0638 18.1539H34.8977C37.5621 18.1539 39.7302 20.2475 39.7302 22.8186V34.1823C39.7302 36.7542 37.5612 38.847 34.8977 38.847H23.0638C20.3994 38.847 18.2313 36.7533 18.2313 34.1823V22.8177C18.2313 20.2458 20.4003 18.153 23.0638 18.153V18.1539Z" fill="white"/>
</svg>
