<svg width="57" height="57" viewBox="0 0 57 57" fill="none" xmlns="http://www.w3.org/2000/svg">
<path d="M42.75 42.75C50.6201 34.8799 50.6201 22.1201 42.75 14.25C34.8799 6.37994 22.1201 6.37994 14.25 14.25C6.37994 22.1201 6.37994 34.8799 14.25 42.75C22.1201 50.6201 34.8799 50.6201 42.75 42.75Z" fill="#B8B3FB"/>
<path fill-rule="evenodd" clip-rule="evenodd" d="M17.4509 24.7414H22.0173V40H17.4509V24.7414ZM19.7061 17C21.2283 17 22.4682 18.2339 22.4682 19.7486C22.4682 21.2633 21.2283 22.4972 19.7061 22.4972C18.184 22.4972 17 21.2633 17 19.7486C17 18.2339 18.184 17 19.7061 17ZM24.7235 24.7414H29.2331V26.8735C30.1917 25.471 31.7697 24.5736 33.5741 24.5736H34.814C37.6888 24.5736 40 26.9301 40 29.7343V40H35.4904V38.5974V31.7533C35.4335 30.0143 34.2505 28.6683 32.5029 28.6683C30.7553 28.6683 29.2899 30.0143 29.2331 31.7533V40H24.7235V24.7414Z" fill="white"/>
</svg>
