<svg width="355" height="50" viewBox="0 0 355 50" fill="none" xmlns="http://www.w3.org/2000/svg">
<path d="M348.077 48.6569H193.326C190.188 48.6569 187.651 46.1183 187.651 42.9796V6.30039C187.651 3.16173 190.188 0.623108 193.326 0.623108H348.077C351.214 0.623108 353.752 3.16173 353.752 6.30039V42.9719C353.752 46.1106 351.214 48.6492 348.077 48.6492" fill="white"/>
<path d="M193.326 1.24623C190.534 1.24623 188.266 3.5156 188.266 6.30039V42.9719C188.266 45.7567 190.534 48.0261 193.318 48.0261H348.077C350.86 48.0261 353.129 45.7567 353.129 42.9719V6.30039C353.129 3.5156 350.86 1.24623 348.077 1.24623H193.326ZM348.077 49.28H193.326C189.85 49.28 187.028 46.4491 187.028 42.9796V6.30039C187.028 2.83095 189.85 0 193.326 0H348.077C351.553 0 354.375 2.83095 354.375 6.30039V42.9719C354.375 46.4491 351.553 49.2723 348.077 49.2723" fill="#A7A9AB"/>
<path d="M245.056 12.9008L244.418 10.9084C244.264 10.416 244.125 9.86217 244.01 9.4006H243.987C243.872 9.86986 243.749 10.4314 243.602 10.9084L242.98 12.9008H245.056ZM242.741 14.0163L242.041 16.3087H240.519L243.118 8.21591H245.002L247.632 16.3087H246.048L245.317 14.0163" fill="#A7A9AB"/>
<path d="M249.831 10.4622L250.777 13.4239C250.946 13.9394 251.061 14.4086 251.169 14.8933H251.207C251.315 14.4163 251.446 13.9547 251.607 13.4239L252.545 10.4622H254.091L251.861 16.3087H250.408L248.231 10.4622" fill="#A7A9AB"/>
<path d="M258.544 13.447C257.498 13.4316 256.498 13.6547 256.498 14.5394C256.498 15.1164 256.867 15.3779 257.337 15.3779C257.936 15.3779 258.359 14.9933 258.498 14.5702C258.536 14.4625 258.536 14.3548 258.536 14.2471V13.4393L258.544 13.447ZM259.982 14.901C259.982 15.4318 260.005 15.9472 260.074 16.3011H258.744L258.636 15.6549H258.598C258.252 16.1087 257.636 16.4318 256.867 16.4318C255.691 16.4318 255.03 15.5779 255.03 14.6933C255.03 13.2239 256.337 12.47 258.498 12.4854V12.3931C258.498 12.0085 258.344 11.37 257.313 11.37C256.737 11.37 256.137 11.5469 255.737 11.8008L255.445 10.8392C255.875 10.5776 256.637 10.3238 257.56 10.3238C259.428 10.3238 259.974 11.5084 259.974 12.7931" fill="#A7A9AB"/>
<path d="M262.074 10.4622H263.55V16.3087H262.074V10.4622ZM262.804 9.62369C262.312 9.62369 261.989 9.26213 261.989 8.83133C261.989 8.37746 262.32 8.02359 262.82 8.02359C263.319 8.02359 263.635 8.36977 263.642 8.83133C263.642 9.26213 263.319 9.62369 262.82 9.62369" fill="#A7A9AB"/>
<path d="M265.673 16.3087H267.149V7.76971H265.673V16.3087Z" fill="#A7A9AB"/>
<path d="M272.386 13.447C271.34 13.4316 270.34 13.6547 270.34 14.5394C270.34 15.1164 270.709 15.3779 271.178 15.3779C271.778 15.3779 272.201 14.9933 272.347 14.5702C272.386 14.4625 272.386 14.3548 272.386 14.2471V13.4393V13.447ZM273.824 14.901C273.824 15.4318 273.847 15.9472 273.916 16.3011H272.586L272.478 15.6549H272.439C272.093 16.1087 271.478 16.4318 270.709 16.4318C269.533 16.4318 268.871 15.5779 268.871 14.6933C268.871 13.2239 270.179 12.47 272.339 12.4854V12.3931C272.339 12.0085 272.186 11.37 271.148 11.37C270.571 11.37 269.971 11.5469 269.579 11.8008L269.287 10.8392C269.717 10.5776 270.471 10.3238 271.401 10.3238C273.27 10.3238 273.816 11.5084 273.816 12.7931" fill="#A7A9AB"/>
<path d="M277.384 13.8932C277.384 14.0163 277.399 14.1317 277.422 14.2394C277.576 14.8394 278.099 15.2702 278.73 15.2702C279.652 15.2702 280.221 14.5394 280.221 13.347C280.221 12.3162 279.729 11.4699 278.745 11.4699C278.145 11.4699 277.592 11.9007 277.438 12.5546C277.415 12.6623 277.392 12.7931 277.392 12.9393V13.8855L277.384 13.8932ZM275.907 7.76971H277.384V11.2622H277.407C277.768 10.7007 278.399 10.3314 279.276 10.3314C280.706 10.3314 281.721 11.5161 281.713 13.3008C281.713 15.401 280.383 16.4472 279.06 16.4472C278.307 16.4472 277.63 16.1549 277.215 15.4394H277.192L277.122 16.3164H275.861C275.884 15.9164 275.907 15.2702 275.907 14.6855" fill="#A7A9AB"/>
<path d="M283.459 16.3087H284.936V7.76971H283.459V16.3087Z" fill="#A7A9AB"/>
<path d="M290.68 12.7624C290.695 12.2239 290.449 11.3315 289.472 11.3315C288.557 11.3315 288.173 12.1623 288.111 12.7624H290.68ZM288.111 13.7932C288.15 14.8548 288.972 15.3087 289.911 15.3087C290.595 15.3087 291.072 15.201 291.533 15.0471L291.749 16.0549C291.241 16.278 290.549 16.4241 289.711 16.4241C287.811 16.4241 286.696 15.2625 286.696 13.4701C286.696 11.8469 287.681 10.3238 289.557 10.3238C291.433 10.3238 292.079 11.8854 292.079 13.1701C292.079 13.447 292.056 13.6624 292.033 13.7932" fill="#A7A9AB"/>
<path d="M299.409 15.3702C300.247 15.3702 300.839 14.5548 300.839 13.3624C300.839 12.447 300.431 11.3931 299.424 11.3931C298.417 11.3931 297.955 12.4162 297.955 13.3855C297.955 14.5086 298.517 15.3625 299.393 15.3625H299.409V15.3702ZM299.362 16.4395C297.717 16.4395 296.433 15.3087 296.433 13.424C296.433 11.5392 297.694 10.3238 299.455 10.3238C301.216 10.3238 302.362 11.5469 302.362 13.3239C302.362 15.4702 300.847 16.4318 299.37 16.4318" fill="#A7A9AB"/>
<path d="M304.098 12.2008C304.098 11.5238 304.075 10.9623 304.052 10.4545H305.336L305.406 11.3315H305.444C305.706 10.8776 306.344 10.3238 307.32 10.3238C308.297 10.3238 309.397 10.9853 309.397 12.8316V16.3011H307.92V13.0009C307.92 12.1623 307.605 11.5238 306.805 11.5238C306.213 11.5238 305.806 11.9469 305.652 12.3854C305.606 12.5085 305.583 12.6854 305.583 12.8547V16.3011H304.106" fill="#A7A9AB"/>
<path d="M316.195 8.95441V10.4545H317.595V11.5623H316.195V14.1317C316.195 14.8548 316.387 15.2163 316.949 15.2163C317.21 15.2163 317.356 15.201 317.525 15.1548L317.548 16.2702C317.333 16.3549 316.933 16.4241 316.48 16.4241C315.934 16.4241 315.488 16.2472 315.211 15.9472C314.888 15.6087 314.742 15.0702 314.742 14.3009V11.5623H313.911V10.4545H314.742V9.36212" fill="#A7A9AB"/>
<path d="M319.24 7.76971H320.716V11.2545H320.74C320.916 10.9776 321.17 10.7468 321.47 10.593C321.77 10.4314 322.116 10.3314 322.485 10.3314C323.485 10.3314 324.523 10.993 324.523 12.8623V16.3087H323.046V13.0162C323.046 12.1777 322.731 11.5238 321.916 11.5238C321.339 11.5238 320.932 11.9084 320.763 12.3546C320.716 12.4854 320.701 12.6469 320.701 12.8008V16.3087H319.225" fill="#A7A9AB"/>
<path d="M330.252 12.7624C330.267 12.2239 330.021 11.3315 329.037 11.3315C328.122 11.3315 327.745 12.1623 327.683 12.7624H330.252ZM327.683 13.7932C327.722 14.8548 328.545 15.3087 329.483 15.3087C330.167 15.3087 330.652 15.201 331.105 15.0471L331.328 16.0549C330.821 16.278 330.129 16.4241 329.283 16.4241C327.391 16.4241 326.269 15.2625 326.269 13.4701C326.269 11.8469 327.253 10.3238 329.121 10.3238C330.99 10.3238 331.644 11.8854 331.644 13.1701C331.644 13.447 331.621 13.6624 331.598 13.7932" fill="#A7A9AB"/>
<path d="M224.378 24.1554C224.339 20.1474 227.654 18.2011 227.808 18.1088C225.931 15.3702 223.017 14.9932 221.994 14.9625C219.549 14.7086 217.18 16.4318 215.934 16.4318C214.689 16.4318 212.743 14.9932 210.682 15.0317C208.022 15.0702 205.53 16.6164 204.169 19.0012C201.354 23.8784 203.454 31.0404 206.153 34.9868C207.506 36.9177 209.075 39.0717 211.144 38.9947C213.158 38.9101 213.92 37.7101 216.35 37.7101C218.78 37.7101 219.472 38.9948 221.579 38.9486C223.747 38.9101 225.108 37.01 226.408 35.0637C227.969 32.8482 228.592 30.6712 228.623 30.5635C228.569 30.5481 224.416 28.9557 224.378 24.1554Z" fill="#A7A9AB"/>
<path d="M220.395 12.3777C221.479 11.0161 222.225 9.1698 222.017 7.29276C220.448 7.36199 218.48 8.37744 217.349 9.70829C216.35 10.8776 215.45 12.8008 215.688 14.6009C217.457 14.7317 219.264 13.7085 220.395 12.3777Z" fill="#A7A9AB"/>
<path d="M248.739 31.802L247.347 27.494C247.201 27.0555 246.925 26.017 246.517 24.3861H246.471C246.309 25.0862 246.048 26.1247 245.686 27.494L244.318 31.802H248.747H248.739ZM253.561 38.6793H250.746L249.208 33.8329H243.856L242.387 38.6793H239.65L244.964 22.186H248.239" fill="#A7A9AB"/>
<path d="M264.511 32.6867C264.511 31.5251 264.25 30.5712 263.727 29.825C263.158 29.0403 262.389 28.648 261.428 28.648C260.774 28.648 260.182 28.8711 259.659 29.2942C259.128 29.7326 258.782 30.2942 258.613 30.9943C258.529 31.3174 258.49 31.5866 258.49 31.7943V33.779C258.49 34.6406 258.752 35.3715 259.282 35.9715C259.813 36.5715 260.505 36.8639 261.351 36.8639C262.35 36.8639 263.119 36.4792 263.673 35.7099C264.235 34.9407 264.511 33.9329 264.511 32.679V32.6867ZM267.203 32.579C267.203 34.6022 266.657 36.2023 265.565 37.3716C264.588 38.4178 263.366 38.9409 261.92 38.9409C260.351 38.9409 259.228 38.3793 258.544 37.2485H258.498V43.5104H255.853V30.6865C255.853 29.4172 255.822 28.1095 255.76 26.7709H258.083L258.229 28.6557H258.283C259.159 27.2325 260.497 26.5247 262.289 26.5247C263.689 26.5247 264.865 27.0786 265.796 28.1864C266.734 29.3018 267.203 30.7558 267.203 32.5636" fill="#A7A9AB"/>
<path d="M278.184 32.6867C278.184 31.5251 277.922 30.5712 277.4 29.825C276.831 29.0403 276.062 28.648 275.1 28.648C274.447 28.648 273.855 28.8711 273.332 29.2942C272.801 29.7326 272.455 30.2942 272.293 30.9943C272.209 31.3174 272.17 31.5866 272.17 31.7943V33.779C272.17 34.6406 272.432 35.3715 272.963 35.9715C273.493 36.5715 274.185 36.8639 275.031 36.8639C276.023 36.8639 276.8 36.4792 277.353 35.7099C277.907 34.9407 278.184 33.9329 278.184 32.679V32.6867ZM280.875 32.579C280.875 34.6022 280.329 36.2023 279.237 37.3716C278.261 38.4178 277.046 38.9409 275.592 38.9409C274.024 38.9409 272.901 38.3793 272.217 37.2485H272.17V43.5104H269.525V30.6865C269.525 29.4172 269.494 28.1095 269.433 26.7709H271.755L271.901 28.6557H271.955C272.832 27.2325 274.17 26.5247 275.962 26.5247C277.361 26.5247 278.53 27.0786 279.476 28.1864C280.414 29.3018 280.875 30.7558 280.875 32.5636" fill="#A7A9AB"/>
<path d="M296.163 34.056C296.163 35.4561 295.678 36.5946 294.694 37.4793C293.618 38.4409 292.126 38.9255 290.203 38.9255C288.427 38.9255 287.004 38.5793 285.928 37.8947L286.543 35.6946C287.704 36.3946 288.973 36.7408 290.365 36.7408C291.357 36.7408 292.133 36.5177 292.687 36.0715C293.241 35.6176 293.518 35.0176 293.518 34.2714C293.518 33.6021 293.295 33.0328 292.833 32.579C292.372 32.1251 291.618 31.702 290.557 31.302C287.673 30.225 286.228 28.648 286.228 26.5709C286.228 25.217 286.735 24.1015 287.743 23.2399C288.75 22.3783 290.096 21.9398 291.78 21.9398C293.279 21.9398 294.525 22.2014 295.525 22.7245L294.863 24.8785C293.933 24.3708 292.887 24.1169 291.711 24.1169C290.78 24.1169 290.057 24.3477 289.534 24.8016C289.096 25.2093 288.873 25.7093 288.873 26.294C288.873 26.9479 289.119 27.4863 289.627 27.9095C290.065 28.3018 290.865 28.7249 292.026 29.1865C293.441 29.7557 294.487 30.425 295.156 31.1943C295.825 31.9636 296.155 32.9175 296.155 34.056" fill="#A7A9AB"/>
<path d="M304.891 28.7711H301.977V34.5407C301.977 36.01 302.492 36.7408 303.523 36.7408C303.992 36.7408 304.384 36.7023 304.691 36.6177L304.761 38.6255C304.245 38.8256 303.553 38.9179 302.707 38.9179C301.662 38.9179 300.846 38.6025 300.262 37.964C299.678 37.3255 299.385 36.2562 299.385 34.7561V28.7634H297.647V26.7787H299.385V24.6016L301.977 23.8169V26.7787H304.891" fill="#A7A9AB"/>
<path d="M315.288 32.7252C315.288 31.6251 315.049 30.6943 314.573 29.9019C314.027 28.9557 313.227 28.4787 312.204 28.4787C311.181 28.4787 310.335 28.9557 309.782 29.9019C309.305 30.6866 309.074 31.6482 309.074 32.7713C309.074 33.8945 309.305 34.8022 309.782 35.5869C310.351 36.5331 311.151 37.01 312.181 37.01C313.211 37.01 313.98 36.5331 314.549 35.5638C315.042 34.7638 315.28 33.8175 315.28 32.7175L315.288 32.7252ZM318.018 32.6328C318.018 34.4637 317.495 35.9561 316.449 37.1331C315.357 38.3409 313.904 38.9409 312.096 38.9409C310.289 38.9409 308.959 38.364 307.921 37.2024C306.89 36.0484 306.367 34.5868 306.367 32.8252C306.367 31.0635 306.898 29.4711 307.967 28.3018C309.036 27.1248 310.474 26.5402 312.281 26.5402C314.088 26.5402 315.434 27.1171 316.487 28.2787C317.502 29.4096 318.002 30.8558 318.002 32.6328" fill="#A7A9AB"/>
<path d="M326.614 29.1172C326.353 29.0711 326.076 29.048 325.784 29.048C324.853 29.048 324.138 29.4018 323.631 30.1019C323.192 30.725 322.969 31.502 322.969 32.4482V38.687H320.332L320.355 30.5404C320.355 29.1634 320.324 27.9171 320.262 26.794H322.562L322.654 29.0711H322.723C323 28.2864 323.446 27.6556 324.046 27.1863C324.638 26.7632 325.269 26.5478 325.953 26.5478C326.199 26.5478 326.422 26.5632 326.614 26.594" fill="#A7A9AB"/>
<path d="M335.904 31.4866C335.92 30.7019 335.75 30.025 335.397 29.4557C334.943 28.7249 334.236 28.3556 333.29 28.3556C332.428 28.3556 331.721 28.7172 331.19 29.4326C330.752 30.0019 330.491 30.6865 330.414 31.4866H335.912H335.904ZM338.419 32.1713C338.419 32.6482 338.388 33.0405 338.327 33.3713H330.406C330.437 34.5483 330.821 35.4484 331.552 36.0638C332.221 36.6177 333.082 36.8946 334.143 36.8946C335.312 36.8946 336.381 36.71 337.35 36.3331L337.765 38.1716C336.642 38.6563 335.312 38.9101 333.774 38.9101C331.936 38.9101 330.483 38.364 329.437 37.2793C328.391 36.1946 327.861 34.7406 327.861 32.9098C327.861 31.0789 328.345 29.6249 329.329 28.4326C330.352 27.1556 331.744 26.5247 333.482 26.5247C335.22 26.5247 336.496 27.1556 337.373 28.4326C338.073 29.4403 338.419 30.6942 338.419 32.179" fill="#A7A9AB"/>
<path d="M161.05 48.6569H6.29842C3.16095 48.6569 0.623291 46.1183 0.623291 42.9796V6.30039C0.623291 3.16942 3.16095 0.623108 6.29842 0.623108H161.05C164.187 0.623108 166.725 3.16942 166.725 6.30039V42.9796C166.725 46.1106 164.187 48.6569 161.05 48.6569Z" fill="white"/>
<path d="M6.29801 1.24623C3.51428 1.24623 1.24576 3.51561 1.24576 6.30039V42.9796C1.24576 45.7644 3.51428 48.0338 6.29801 48.0338H161.049C163.833 48.0338 166.101 45.7644 166.101 42.9796V6.30039C166.101 3.51561 163.833 1.24623 161.049 1.24623H6.29801ZM161.049 49.28H6.29801C2.82219 49.28 0 46.4567 0 42.9796V6.30039C0 2.82325 2.82219 0 6.29801 0H161.049C164.525 0 167.347 2.82325 167.347 6.30039V42.9796C167.347 46.4567 164.525 49.28 161.049 49.28Z" fill="#A7A9AB"/>
<path d="M132.404 37.1562H134.711V21.686H132.404V37.1562ZM153.19 27.2632L150.544 33.9713H150.467L147.722 27.2632H145.238L149.36 36.6331L147.015 41.8488H149.422L155.766 27.2632H153.197H153.19ZM140.102 35.4022C139.348 35.4022 138.294 35.0253 138.294 34.0867C138.294 32.8944 139.609 32.4405 140.74 32.4405C141.755 32.4405 142.232 32.6636 142.847 32.9559C142.67 34.3868 141.432 35.4022 140.102 35.4022ZM140.378 26.9248C138.71 26.9248 136.979 27.6633 136.257 29.2941L138.302 30.148C138.74 29.2941 139.556 29.0172 140.409 29.0172C141.601 29.0172 142.816 29.7326 142.839 31.0096V31.1712C142.424 30.9327 141.524 30.5711 140.432 30.5711C138.225 30.5711 135.98 31.7866 135.98 34.056C135.98 36.1253 137.787 37.4639 139.817 37.4639C141.37 37.4639 142.224 36.7638 142.762 35.9484H142.839V37.1408H145.069V31.2096C145.069 28.4633 143.024 26.9324 140.371 26.9324L140.378 26.9248ZM126.106 29.1557H122.822V23.8553H126.106C127.836 23.8553 128.813 25.2862 128.813 26.5093C128.813 27.7325 127.836 29.1634 126.106 29.1634V29.1557ZM126.044 21.709H120.515V37.1792H122.822V31.3173H126.044C128.605 31.3173 131.12 29.4634 131.12 26.5093C131.12 23.5553 128.605 21.709 126.044 21.709ZM95.8924 35.4176C94.3006 35.4176 92.9626 34.0867 92.9626 32.2482C92.9626 30.4096 94.3006 29.0403 95.8924 29.0403C97.4842 29.0403 98.6992 30.3942 98.6992 32.2482C98.6992 34.1021 97.4611 35.4176 95.8924 35.4176ZM98.5377 28.1402H98.4608C97.9456 27.5248 96.9459 26.9632 95.6925 26.9632C93.0625 26.9632 90.6556 29.2787 90.6556 32.2482C90.6556 35.2176 93.0625 37.4946 95.6925 37.4946C96.9459 37.4946 97.9456 36.9331 98.4608 36.3023H98.5377V37.0562C98.5377 39.0717 97.4688 40.1487 95.7309 40.1487C94.316 40.1487 93.4393 39.1332 93.0779 38.2716L91.0632 39.1101C91.6399 40.5025 93.1779 42.218 95.7232 42.218C98.4301 42.218 100.722 40.6256 100.722 36.7408V27.294H98.53V28.1479L98.5377 28.1402ZM102.329 37.1715H104.643V21.7013H102.329V37.1715ZM108.05 32.0712C107.989 30.0403 109.627 29.0018 110.795 29.0018C111.71 29.0018 112.487 29.4557 112.749 30.1173L108.05 32.0712ZM115.225 30.3173C114.786 29.1403 113.456 26.9709 110.718 26.9709C107.981 26.9709 105.759 29.1018 105.759 32.2328C105.759 35.1868 107.989 37.4946 110.98 37.4946C113.395 37.4946 114.786 36.0176 115.363 35.156L113.571 33.9637C112.972 34.8406 112.157 35.4176 110.98 35.4176C109.803 35.4176 108.965 34.8791 108.427 33.8252L115.455 30.9173L115.217 30.3173H115.225ZM59.1809 28.5864V30.8173H64.5254C64.3639 32.0712 63.9487 32.9867 63.3104 33.6252C62.5337 34.4021 61.3187 35.256 59.1886 35.256C55.905 35.256 53.3289 32.602 53.3289 29.3172C53.3289 26.0324 55.8973 23.3784 59.1886 23.3784C60.965 23.3784 62.2569 24.0784 63.2104 24.9708L64.7868 23.3938C63.4565 22.1168 61.6801 21.1398 59.1886 21.1398C54.6823 21.1398 50.8989 24.8092 50.8989 29.3095C50.8989 33.8098 54.6823 37.4793 59.1886 37.4793C61.6186 37.4793 63.4565 36.6792 64.8868 35.1868C66.3556 33.7098 66.817 31.6404 66.817 29.9634C66.817 29.4403 66.7785 28.9633 66.6939 28.5633H59.1809V28.5864ZM72.8843 35.4253C71.2925 35.4253 69.916 34.1098 69.916 32.2405C69.916 30.3711 71.2925 29.0557 72.8843 29.0557C74.4761 29.0557 75.8526 30.348 75.8526 32.2405C75.8526 34.1329 74.4761 35.4253 72.8843 35.4253ZM72.8843 26.9786C69.9698 26.9786 67.6013 29.1941 67.6013 32.2405C67.6013 35.2868 69.9698 37.5023 72.8843 37.5023C75.7988 37.5023 78.1672 35.2637 78.1672 32.2405C78.1672 29.2172 75.7988 26.9786 72.8843 26.9786ZM84.4037 35.4253C82.8119 35.4253 81.4354 34.1098 81.4354 32.2405C81.4354 30.3711 82.8119 29.0557 84.4037 29.0557C85.9955 29.0557 87.372 30.348 87.372 32.2405C87.372 34.1329 85.9955 35.4253 84.4037 35.4253ZM84.4037 26.9786C81.4893 26.9786 79.1208 29.1941 79.1208 32.2405C79.1208 35.2868 81.4893 37.5023 84.4037 37.5023C87.3182 37.5023 89.6867 35.2637 89.6867 32.2405C89.6867 29.2172 87.3105 26.9786 84.4037 26.9786Z" fill="#A7A9AB"/>
<path d="M56.8508 10.2468C56.3817 9.83136 55.7742 9.56981 55.0975 9.56981C53.5749 9.56981 52.4061 10.8237 52.4061 12.37C52.4061 13.9162 53.5749 15.1548 55.0975 15.1548C56.4048 15.1548 57.3583 14.3932 57.4199 13.1931H55.3513V12.3392H58.5349C58.5349 14.8932 57.1738 16.101 55.0898 16.101C53.0059 16.101 51.4141 14.4317 51.4141 12.37C51.4141 10.3083 53.0212 8.63129 55.0898 8.63129C56.0511 8.63129 56.92 9.00054 57.5506 9.59289" fill="#A7A9AB"/>
<path d="M64.1871 8.71594V9.63138H60.8574V11.9546H63.7641V12.8777H60.8574V15.0779H64.287V16.001H59.873V8.72363" fill="#A7A9AB"/>
<path d="M70.5542 8.71594V9.64677H68.3472V15.9933H67.3552V9.64677H65.1482V8.71594" fill="#A7A9AB"/>
<path d="M74.2839 15.9933H75.2682V8.71594H74.2839V15.9933Z" fill="#A7A9AB"/>
<path d="M81.966 8.71594V9.64677H79.7591V15.9933H78.7671V9.64677H76.5601V8.71594" fill="#A7A9AB"/>
<path d="M88.8945 15.1471C90.4248 15.1471 91.6014 13.9085 91.6014 12.37C91.6014 10.8314 90.4325 9.58519 88.8945 9.58519C87.3565 9.58519 86.2031 10.8314 86.2031 12.37C86.2031 13.9085 87.3719 15.1471 88.8945 15.1471ZM88.8945 8.6236C90.9785 8.6236 92.5933 10.2929 92.5933 12.3623C92.5933 14.4317 90.9785 16.0933 88.8945 16.0933C86.8106 16.0933 85.2188 14.424 85.2188 12.3623C85.2188 10.3006 86.8259 8.6236 88.8945 8.6236Z" fill="#A7A9AB"/>
<path d="M98.399 15.9933L95.0846 10.5161V15.9933H94.1003V8.71594H95.077L98.3605 14.1547V8.71594H99.3448V15.9933" fill="#A7A9AB"/>
<path d="M12.6194 8.10065V24.6555V41.2027L29.2987 24.6555L12.6194 8.10065Z" fill="url(#paint0_linear_2095_21226)"/>
<path d="M33.7819 20.2089L27.0456 16.3164L12.6194 7.98511V8.1005L29.2987 24.6554L33.7819 20.2089Z" fill="url(#paint1_linear_2095_21226)"/>
<path d="M12.6194 41.2026V41.318L27.0456 32.9867L33.7819 29.0941L29.2987 24.6554L12.6194 41.2026Z" fill="url(#paint2_linear_2095_21226)"/>
<path d="M33.7818 20.209L29.2986 24.6554L33.7818 29.0941L41.4794 24.6554L33.7818 20.209Z" fill="url(#paint3_linear_2095_21226)"/>
<defs>
<linearGradient id="paint0_linear_2095_21226" x1="20.9552" y1="8.10065" x2="20.9552" y2="41.2027" gradientUnits="userSpaceOnUse">
<stop stop-color="#257DB0"/>
<stop offset="0.21" stop-color="#3C8FB2"/>
<stop offset="0.74" stop-color="#73BCB9"/>
<stop offset="1" stop-color="#89CEBC"/>
</linearGradient>
<linearGradient id="paint1_linear_2095_21226" x1="12.6194" y1="16.3164" x2="33.7819" y2="16.3164" gradientUnits="userSpaceOnUse">
<stop stop-color="#51BFAC"/>
<stop offset="1" stop-color="#DEE899"/>
</linearGradient>
<linearGradient id="paint2_linear_2095_21226" x1="23.2007" y1="24.6554" x2="23.2007" y2="41.318" gradientUnits="userSpaceOnUse">
<stop stop-color="#EB403D"/>
<stop offset="0.19" stop-color="#D54251"/>
<stop offset="0.74" stop-color="#9E4787"/>
<stop offset="1" stop-color="#894A9C"/>
</linearGradient>
<linearGradient id="paint3_linear_2095_21226" x1="35.389" y1="20.209" x2="35.389" y2="29.0941" gradientUnits="userSpaceOnUse">
<stop stop-color="#F48779"/>
<stop offset="0.61" stop-color="#F9B075"/>
<stop offset="1" stop-color="#FDC674"/>
</linearGradient>
</defs>
</svg>
