<svg width="16" height="12" viewBox="0 0 16 12" fill="none" xmlns="http://www.w3.org/2000/svg">
<path d="M14.3332 9.99984L9.90468 5.99984M6.09516 5.99984L1.66661 9.99984M1.33325 2.6665L6.77653 6.4768C7.21731 6.78535 7.4377 6.93962 7.67743 6.99938C7.88918 7.05216 8.11066 7.05216 8.32241 6.99938C8.56213 6.93962 8.78252 6.78535 9.2233 6.4768L14.6666 2.6665M4.53325 11.3332H11.4666C12.5867 11.3332 13.1467 11.3332 13.5746 11.1152C13.9509 10.9234 14.2569 10.6175 14.4486 10.2412C14.6666 9.81333 14.6666 9.25328 14.6666 8.13317V3.8665C14.6666 2.7464 14.6666 2.18635 14.4486 1.75852C14.2569 1.3822 13.9509 1.07624 13.5746 0.884491C13.1467 0.666504 12.5867 0.666504 11.4666 0.666504H4.53325C3.41315 0.666504 2.85309 0.666504 2.42527 0.884491C2.04895 1.07624 1.74299 1.3822 1.55124 1.75852C1.33325 2.18635 1.33325 2.7464 1.33325 3.8665V8.13317C1.33325 9.25328 1.33325 9.81333 1.55124 10.2412C1.74299 10.6175 2.04895 10.9234 2.42527 11.1152C2.85309 11.3332 3.41315 11.3332 4.53325 11.3332Z" stroke="url(#paint0_linear_2204_5411)" stroke-linecap="round" stroke-linejoin="round"/>
<defs>
<linearGradient id="paint0_linear_2204_5411" x1="1.33325" y1="11.3332" x2="14.4015" y2="11.3332" gradientUnits="userSpaceOnUse">
<stop stop-color="#7E6FD8"/>
<stop offset="1" stop-color="#0EE5D0"/>
</linearGradient>
</defs>
</svg>
