<svg width="55" height="55" viewBox="0 0 55 55" fill="none" xmlns="http://www.w3.org/2000/svg">
<path d="M49.4935 2.11074C49.0247 2.39062 38.146 12.9719 38.146 12.9719C25.9322 11.3807 15.3011 9.94255 2.7811 8.03676L0.563361 10.3724L9.04162 14.0219C8.61802 14.7797 7.9733 16.0614 8.32656 16.3779C8.70044 16.6872 10.0664 15.489 10.8178 14.7759L15.5897 16.8386C15.5897 16.8386 14.035 19.3317 14.5366 19.7713C15.0475 20.2318 17.5466 17.6782 17.5466 17.6782L21.8047 19.4933C21.8047 19.4933 20.2399 22.1787 21.0597 22.6935C21.8585 23.2176 24.509 20.5742 24.509 20.5742L28.8732 22.2009C20.7587 29.969 14.5577 37.7217 14.5577 37.7217L3.32223 36.9557L1.64247 39.2177C13.4603 42.5978 12.1603 42.0115 15.4786 53.3055L17.9 52.1871L17.5121 40.6618C17.5121 40.6618 18.4838 40.0175 20.8452 37.9054C23.1952 35.8215 33.0214 26.7241 33.0214 26.7241L34.2905 31.0025C34.2905 31.0025 31.6474 33.7141 31.9805 34.2556C32.2855 34.7856 35.2223 32.5827 35.2223 32.5827L37.3186 37.8235C37.3186 37.8235 34.955 39.9848 35.4729 40.5156C35.9626 41.035 37.9987 39.6354 37.9987 39.6354L39.7365 44.063C39.0772 44.8764 38.0586 46.2779 38.4004 46.6225C38.716 46.9086 39.7229 46.346 40.436 45.8632L43.9378 54.7768L46.936 52.3346C45.0739 39.9898 43.3071 29.0999 42.3754 16.9833C50.95 7.8946 52.459 6.37229 52.459 6.37229C56.0366 1.15784 56.0415 -2.16588 49.4914 2.11037L49.4935 2.11074Z" fill="#8870F9"/>
</svg>
