<svg width="57" height="57" viewBox="0 0 57 57" fill="none" xmlns="http://www.w3.org/2000/svg">
<path d="M42.75 42.75C50.6201 34.8799 50.6201 22.1201 42.75 14.25C34.8799 6.37994 22.1201 6.37994 14.25 14.25C6.37994 22.1201 6.37994 34.8799 14.25 42.75C22.1201 50.6201 34.8799 50.6201 42.75 42.75Z" fill="#B8B3FB"/>
<path d="M41.8797 28.2265C41.8797 26.601 40.5635 25.2835 38.9395 25.2835C38.1574 25.2835 37.4482 25.5892 36.9215 26.0871C34.9083 24.6599 32.1482 23.7406 29.078 23.6324L30.4099 17.3311L34.6615 18.237C34.7018 19.395 35.6518 20.3205 36.8169 20.3205C37.9821 20.3205 38.9748 19.3535 38.9748 18.1602C38.9748 16.967 38.009 16 36.8169 16C35.986 16 35.2646 16.4712 34.9047 17.1603L30.0997 16.1364C29.9563 16.1059 29.8079 16.134 29.685 16.2132C29.562 16.2936 29.4758 16.419 29.4453 16.5616L27.9807 23.4936C27.9709 23.5399 27.9685 23.585 27.9697 23.6288C24.8385 23.719 22.0224 24.6516 19.9813 26.109C19.4522 25.5975 18.7332 25.2835 17.9402 25.2835C16.3162 25.2835 15 26.601 15 28.2265C15 29.4139 15.7045 30.4378 16.7164 30.9018C16.669 31.2002 16.6447 31.5032 16.6447 31.8101C16.6447 36.3337 21.9374 40 28.4662 40C34.9951 40 40.2889 36.3337 40.2889 31.8101C40.2889 31.4961 40.2622 31.1853 40.2122 30.8799C41.1986 30.4052 41.88 29.3955 41.88 28.2265H41.8797ZM21.6977 30.3284C21.6977 29.1571 22.6466 28.2073 23.8167 28.2073C24.9869 28.2073 25.9357 29.1571 25.9357 30.3284C25.9357 31.4997 24.9869 32.4506 23.8167 32.4506C22.6466 32.4506 21.6977 31.5008 21.6977 30.3284ZM33.3998 35.8892C32.709 36.4321 31.9399 36.839 31.1167 37.0996C30.1545 37.4042 29.3588 37.4297 28.6534 37.4297H28.4381C27.7484 37.4273 26.8043 37.4237 25.6768 37.0596C24.8995 36.8076 24.1684 36.4336 23.503 35.9455C23.2574 35.7652 23.2038 35.4207 23.3839 35.1749C23.564 34.929 23.9094 34.8754 24.155 35.0556C24.7244 35.4735 25.3507 35.7946 26.0163 36.009C26.9797 36.3206 27.757 36.3242 28.4419 36.3269C29.1523 36.3292 29.887 36.3316 30.7849 36.0481C31.4819 35.8278 32.1328 35.4821 32.7202 35.0215C32.9599 34.8341 33.3053 34.8754 33.494 35.1153C33.6812 35.3551 33.6401 35.7021 33.4004 35.8898L33.3998 35.8892ZM33.0751 32.4201C31.905 32.4201 30.9561 31.4703 30.9561 30.299C30.9561 29.1277 31.905 28.1767 33.0751 28.1767C34.2453 28.1767 35.1941 29.1265 35.1941 30.299C35.1941 31.4715 34.2453 32.4201 33.0751 32.4201Z" fill="white"/>
</svg>
