<svg width="14" height="14" viewBox="0 0 14 14" fill="none" xmlns="http://www.w3.org/2000/svg">
<path d="M4.58685 4.90223C5.05085 5.86865 5.68337 6.77441 6.48443 7.57546C7.28548 8.37651 8.19124 9.00904 9.15765 9.47304C9.24078 9.51295 9.28234 9.5329 9.33494 9.54824C9.52184 9.60272 9.75135 9.56358 9.90963 9.45024C9.95417 9.41835 9.99228 9.38024 10.0685 9.30404C10.3016 9.07097 10.4181 8.95443 10.5353 8.87824C10.9772 8.59091 11.5469 8.59091 11.9889 8.87824C12.106 8.95443 12.2226 9.07097 12.4556 9.30404L12.5856 9.43395C12.9398 9.78824 13.117 9.96539 13.2132 10.1556C13.4046 10.534 13.4046 10.9809 13.2132 11.3592C13.117 11.5495 12.9399 11.7266 12.5856 12.0809L12.4805 12.186C12.1274 12.5391 11.9508 12.7156 11.7108 12.8505C11.4445 13.0001 11.0308 13.1077 10.7253 13.1068C10.45 13.1059 10.2619 13.0525 9.8856 12.9457C7.86333 12.3718 5.95509 11.2888 4.36311 9.69678C2.77112 8.10479 1.68814 6.19655 1.11416 4.17429C1.00735 3.79799 0.953949 3.60984 0.953131 3.33455C0.952222 3.02906 1.0598 2.6154 1.20941 2.34907C1.34424 2.10904 1.52078 1.9325 1.87386 1.57942L1.97895 1.47433C2.33325 1.12004 2.5104 0.94289 2.70065 0.84666C3.07903 0.65528 3.52587 0.65528 3.90424 0.84666C4.0945 0.94289 4.27164 1.12004 4.62594 1.47433L4.75585 1.60424C4.98892 1.83732 5.10546 1.95385 5.18165 2.07104C5.46898 2.51296 5.46898 3.08268 5.18165 3.52461C5.10546 3.6418 4.98892 3.75833 4.75585 3.9914C4.67964 4.06761 4.64154 4.10571 4.60965 4.15026C4.4963 4.30854 4.45717 4.53805 4.51165 4.72495C4.52698 4.77754 4.54694 4.81911 4.58685 4.90223Z" stroke="url(#paint0_linear_2204_1336)" stroke-linecap="round" stroke-linejoin="round"/>
<defs>
<linearGradient id="paint0_linear_2204_1336" x1="0.953125" y1="13.1068" x2="13.1102" y2="13.1068" gradientUnits="userSpaceOnUse">
<stop stop-color="#7E6FD8"/>
<stop offset="1" stop-color="#0EE5D0"/>
</linearGradient>
</defs>
</svg>
