<svg width="57" height="57" viewBox="0 0 57 57" fill="none" xmlns="http://www.w3.org/2000/svg">
<path d="M42.75 42.75C50.6201 34.8799 50.6201 22.1201 42.75 14.25C34.8799 6.37994 22.1201 6.37994 14.25 14.25C6.37994 22.1201 6.37994 34.8799 14.25 42.75C22.1201 50.6201 34.8799 50.6201 42.75 42.75Z" fill="#B8B3FB"/>
<path fill-rule="evenodd" clip-rule="evenodd" d="M28.1105 25.1509C27.1338 19.9909 33.3195 16.9214 36.9647 20.6444C36.9647 20.6444 38.592 20.1872 40.0245 19.2728C40.0245 19.2728 39.5035 21.0361 37.7457 22.1468C37.7457 22.1468 39.6992 21.886 40.5455 21.3633C40.5455 21.3633 39.6992 23.1267 38.1362 23.7802C38.9825 35.6018 26.2866 42.786 16 36.9079C16 36.9079 21.0785 37.1688 23.2268 34.6874C23.2268 34.6874 20.1018 34.9482 18.5388 31.1607C18.5388 31.1607 19.7104 31.6179 20.8828 31.0298C20.8828 31.0298 17.2368 30.4417 16.9115 26.0661C16.9115 26.0661 18.0831 26.9805 19.386 26.6542C19.386 26.6542 15.3494 24.2374 17.6282 19.8617C17.6282 19.8617 21.9257 25.3481 28.1105 25.1517V25.1509Z" fill="white"/>
</svg>
