<svg width="667" height="512" viewBox="0 0 667 512" fill="none" xmlns="http://www.w3.org/2000/svg">
<path d="M99.2914 255.298L57.3516 376.006L236.534 438.194L278.474 317.487L99.2914 255.298Z" fill="#EBEBEB"/>
<path d="M278.461 317.471C278.461 317.471 277.716 317.878 276.238 318.495C274.597 319.158 272.433 320.042 269.733 321.135C263.879 323.426 255.698 326.625 245.666 330.544C225.126 338.395 196.999 349.154 165.845 361.064L165.194 361.32L164.821 360.727C164.53 360.273 164.228 359.773 163.913 359.285C145.992 330.707 129.769 304.84 117.911 285.94C112.173 276.635 107.483 269.04 104.144 263.608C102.619 261.061 101.397 259.037 100.478 257.49C99.6515 256.083 99.2442 255.327 99.3023 255.292C99.3489 255.257 99.8609 255.955 100.78 257.304C101.769 258.804 103.085 260.782 104.725 263.247C108.193 268.609 113.023 276.1 118.958 285.288C130.921 304.13 147.295 329.893 165.38 358.366C165.694 358.854 166.008 359.355 166.287 359.808L165.252 359.459C196.475 347.735 224.661 337.151 245.248 329.416C255.36 325.706 263.6 322.682 269.512 320.519C272.258 319.553 274.457 318.774 276.133 318.181C277.658 317.669 278.461 317.425 278.484 317.471H278.461Z" fill="#E0E0E0"/>
<path d="M57.3382 375.998C57.0939 375.591 76.3189 363.716 100.269 349.491C124.23 335.255 143.839 324.054 144.084 324.461C144.328 324.869 125.103 336.732 101.153 350.969C77.2034 365.205 57.5826 376.406 57.3382 375.998V375.998Z" fill="#E0E0E0"/>
<path d="M204.179 343.618C204.633 343.467 212.233 364.507 221.17 390.619C230.108 416.742 236.985 438.027 236.532 438.178C236.078 438.329 228.478 417.289 219.541 391.177C210.603 365.065 203.726 343.769 204.179 343.618V343.618Z" fill="#E0E0E0"/>
<path d="M628.047 223.9L450.742 253.936L470.999 373.381L648.303 343.345L628.047 223.9Z" fill="#E0E0E0"/>
<path d="M628.038 223.946C628.038 223.946 627.607 224.621 626.653 225.819C625.594 227.121 624.198 228.831 622.452 230.983C618.635 235.554 613.293 241.939 606.753 249.779C593.265 265.678 574.797 287.44 554.35 311.539L553.919 312.051L553.337 311.725C552.895 311.481 552.406 311.214 551.917 310.946C523.976 295.372 498.688 281.275 480.208 270.959C471.188 265.841 463.834 261.665 458.562 258.676C456.13 257.257 454.186 256.129 452.72 255.268C451.393 254.477 450.707 254.035 450.742 253.977C450.765 253.931 451.51 254.268 452.883 254.978C454.396 255.768 456.386 256.815 458.876 258.118C464.206 260.991 471.642 265.015 480.766 269.947C499.316 280.147 524.674 294.093 552.709 309.515C553.198 309.783 553.675 310.05 554.129 310.295L553.116 310.481C573.714 286.498 592.299 264.852 605.88 249.034C612.595 241.334 618.065 235.065 621.975 230.576C623.814 228.517 625.291 226.865 626.409 225.609C627.433 224.493 627.991 223.911 628.038 223.946V223.946Z" fill="#EBEBEB"/>
<path d="M470.991 373.416C470.607 373.184 481.162 354.563 494.568 331.812C507.986 309.062 519.17 290.801 519.554 291.034C519.938 291.267 509.383 309.888 495.976 332.65C482.57 355.4 471.386 373.661 470.991 373.428V373.416Z" fill="#EBEBEB"/>
<path d="M578.229 279.543C578.532 279.205 594.463 293.232 613.805 310.853C633.158 328.486 648.589 343.048 648.286 343.374C647.984 343.711 632.052 329.684 612.711 312.051C593.369 294.43 577.926 279.868 578.229 279.531V279.543Z" fill="#EBEBEB"/>
<path d="M74.6093 85.2018L109.418 165.183L228.112 113.473L193.303 33.4919L74.6093 85.2018Z" fill="#EBEBEB"/>
<path d="M194.062 34.289C194.062 34.289 193.872 34.8403 193.42 35.8358C192.901 36.9301 192.218 38.3699 191.37 40.1718C189.485 44.0306 186.868 49.4116 183.649 56.0349C176.974 69.4873 167.837 87.9011 157.729 108.289L157.515 108.717L157.046 108.594C156.692 108.504 156.306 108.397 155.919 108.29C133.701 102.25 113.596 96.7761 98.8963 92.7738C91.7068 90.752 85.8416 89.1165 81.6546 87.9413C79.7133 87.366 78.1585 86.9139 76.9822 86.577C75.9129 86.2482 75.3617 86.0591 75.37 86.018C75.3782 85.9769 75.9541 86.0919 77.0399 86.3384C78.2327 86.626 79.8039 87.0122 81.7699 87.497C85.9899 88.59 91.8797 90.1021 99.1104 91.9675C113.835 95.8793 133.972 101.238 156.232 107.155C156.619 107.261 156.997 107.36 157.359 107.459L156.676 107.763C166.916 87.4242 176.167 69.0762 182.917 55.6649C186.275 49.1156 189.008 43.784 190.967 39.9663C191.897 38.2137 192.638 36.7985 193.214 35.7289C193.733 34.7662 194.029 34.2726 194.062 34.289V34.289Z" fill="#E0E0E0"/>
<path d="M110.187 165.996C109.874 165.897 114.033 151.047 119.459 132.824C124.894 114.592 129.546 99.8897 129.858 99.9883C130.171 100.087 126.021 114.929 120.586 133.161C115.16 151.384 110.491 166.086 110.187 165.996Z" fill="#E0E0E0"/>
<path d="M168.883 81.7884C169.039 81.5005 182.595 88.5387 199.161 97.5177C215.735 106.488 229.036 113.996 228.887 114.275C228.731 114.563 215.175 107.525 198.609 98.5461C182.043 89.5837 168.743 82.0764 168.899 81.7884L168.883 81.7884Z" fill="#E0E0E0"/>
<path d="M667 511.07C667 511.232 517.668 511.372 333.517 511.372C149.367 511.372 0 511.232 0 511.07C0 510.907 149.297 510.767 333.517 510.767C517.738 510.767 667 510.907 667 511.07Z" fill="#8870F9"/>
<path d="M216.235 229.389L490.728 227.401L498.385 413.916L214.152 411.287L216.235 229.389Z" fill="#0EE4CF"/>
<path d="M216.236 229.389L346.145 124.326C351.65 119.883 359.517 119.907 364.986 124.385L490.729 227.389" fill="#0EE4CF"/>
<g opacity="0.3">
<path opacity="0.3" d="M216.236 229.389L346.145 124.326C351.65 119.883 359.517 119.907 364.986 124.385L490.729 227.389" fill="#8870F9"/>
</g>
<path d="M214.152 411.287C213.815 410.961 235.786 386.99 263.227 357.738C290.68 328.474 313.21 305.026 313.548 305.34C313.885 305.666 291.925 329.637 264.461 358.901C237.02 388.153 214.49 411.613 214.141 411.287H214.152Z" fill="#8870F9"/>
<path d="M498.384 413.916C498.035 414.23 476.634 390.735 450.589 361.448C424.533 332.15 403.714 308.155 404.063 307.841C404.412 307.527 425.813 331.021 451.858 360.32C477.902 389.607 498.734 413.613 498.384 413.916V413.916Z" fill="#8870F9"/>
<g opacity="0.5">
<path opacity="0.5" d="M490.729 227.401L352.895 337.453L216.236 229.389" fill="#8870F9"/>
</g>
<path d="M230.059 239.578L229.629 153.904L469.989 151.055L472.7 241.207L352.881 336.011L230.059 239.578Z" fill="#FAFAFA"/>
<path d="M230.06 239.578C230.06 239.578 230.84 240.16 232.318 241.3C233.796 242.451 235.984 244.149 238.835 246.371C244.549 250.837 252.928 257.385 263.634 265.76C285.035 282.532 315.747 306.596 353.033 335.802H352.73C387.247 308.48 428.199 276.053 472.515 240.962L472.398 241.207C471.886 224.004 471.339 205.965 470.781 187.599C470.408 175.235 470.047 163.023 469.687 151.055L469.989 151.345C373.131 152.45 287.689 153.416 229.63 154.079L229.816 153.881C229.909 180.842 229.979 202.243 230.037 216.921C230.048 224.26 230.06 229.913 230.072 233.739C230.072 235.647 230.072 237.101 230.072 238.078C230.072 239.055 230.06 239.555 230.06 239.555C230.06 239.555 230.037 239.067 230.025 238.101C230.025 237.124 230.002 235.682 229.979 233.774C229.944 229.948 229.909 224.307 229.851 216.979C229.758 202.289 229.618 180.853 229.443 153.869V153.672H229.641C287.689 152.962 373.131 151.915 469.989 150.717H470.28V151.008C470.653 162.988 471.013 175.201 471.386 187.553C471.933 205.918 472.48 223.958 472.992 241.16V241.311L472.875 241.404C428.537 276.46 387.561 308.853 353.033 336.162L352.882 336.279L352.73 336.162C315.479 306.852 284.791 282.706 263.401 265.888C252.73 257.478 244.386 250.895 238.707 246.417C235.879 244.184 233.714 242.463 232.248 241.3C230.793 240.148 230.06 239.543 230.06 239.543V239.578Z" fill="#8870F9"/>
<path d="M432.005 194.194C432.005 194.357 395.254 194.717 349.915 194.997C304.564 195.276 267.812 195.357 267.812 195.194C267.812 195.031 304.564 194.671 349.915 194.392C395.242 194.113 432.005 194.031 432.005 194.194Z" fill="#8870F9"/>
<path d="M432.005 218.398C432.005 218.561 395.254 218.922 349.915 219.201C304.564 219.48 267.812 219.561 267.812 219.398C267.812 219.236 304.564 218.875 349.915 218.596C395.242 218.317 432.005 218.235 432.005 218.398Z" fill="#8870F9"/>
<path d="M432.005 246.301C432.005 246.464 395.254 246.824 349.915 247.104C304.564 247.383 267.812 247.464 267.812 247.301C267.812 247.138 304.564 246.778 349.915 246.499C395.242 246.22 432.005 246.138 432.005 246.301Z" fill="#8870F9"/>
<path d="M432.005 274.192C432.005 274.355 396.942 274.704 353.685 274.971C310.417 275.239 275.354 275.309 275.354 275.146C275.354 274.983 310.417 274.634 353.673 274.367C396.918 274.099 431.993 274.029 431.993 274.192H432.005Z" fill="#8870F9"/>
<path d="M401.26 298.675C401.26 298.675 400.934 298.722 400.294 298.745C399.607 298.768 398.688 298.792 397.536 298.815C395.08 298.85 391.624 298.908 387.376 298.978C378.753 299.106 366.929 299.269 353.872 299.455C340.78 299.676 328.933 299.746 320.356 299.757C316.108 299.757 312.664 299.734 310.197 299.734C309.045 299.722 308.125 299.699 307.439 299.699C306.81 299.687 306.473 299.664 306.473 299.641C306.473 299.618 306.798 299.594 307.439 299.571C308.125 299.548 309.045 299.525 310.197 299.501C312.652 299.466 316.108 299.408 320.356 299.338C328.979 299.21 340.803 299.048 353.86 298.862C366.941 298.641 378.788 298.571 387.364 298.559C391.612 298.559 395.057 298.582 397.524 298.582C398.676 298.594 399.595 298.606 400.282 298.617C400.91 298.629 401.248 298.652 401.248 298.675H401.26Z" fill="#8870F9"/>
<path d="M370.316 322.217C370.316 322.379 362.484 322.519 352.813 322.519C343.143 322.519 335.311 322.379 335.311 322.217C335.311 322.054 343.143 321.914 352.813 321.914C362.484 321.914 370.316 322.054 370.316 322.217Z" fill="#8870F9"/>
<path d="M451.219 303.212C467.255 303.212 480.254 290.219 480.254 274.192C480.254 258.165 467.255 245.173 451.219 245.173C435.183 245.173 422.184 258.165 422.184 274.192C422.184 290.219 435.183 303.212 451.219 303.212Z" fill="#8870F9"/>
<path d="M443.666 303.212C459.702 303.212 472.702 290.219 472.702 274.192C472.702 258.165 459.702 245.173 443.666 245.173C427.63 245.173 414.631 258.165 414.631 274.192C414.631 290.219 427.63 303.212 443.666 303.212Z" fill="#455A64"/>
<path d="M447.355 260.689V284.811H442.874V264.445H437.766V260.689H447.355V260.689Z" fill="#EBEBEB"/>
<path d="M529.604 111.771H556.16L552.576 107.642V97.7672C552.576 92.4285 548.235 88.1018 542.893 88.1018C537.552 88.1018 533.223 92.4285 533.223 97.7788V107.177L529.615 111.783L529.604 111.771Z" fill="#0EE4CF"/>
<path d="M539.17 110.468C539.228 112.015 540.252 113.481 541.684 114.086C543.115 114.679 544.872 114.376 546.024 113.341C547.176 112.294 547.642 110.573 547.188 109.096" fill="#0EE4CF"/>
<path d="M544.361 84.0775H541.754V89.6139H544.361V84.0775Z" fill="#0EE4CF"/>
<path d="M581.588 93.6149C581.588 93.6149 581.507 93.3823 581.402 92.9171C581.286 92.417 581.135 91.7424 580.937 90.87C580.785 89.9628 580.413 88.8811 579.994 87.6017C579.761 86.9736 579.61 86.2525 579.284 85.5547C578.97 84.8452 578.644 84.0891 578.295 83.2982C576.794 80.1695 574.618 76.4592 571.254 72.9001C567.914 69.3526 563.411 65.9796 557.848 63.6767C555.102 62.4322 552.029 61.6994 548.841 61.1179C545.617 60.7341 542.231 60.4782 538.763 60.955C537.017 61.0597 535.295 61.5133 533.526 61.8623C532.641 62.0484 531.792 62.3857 530.919 62.6415C530.046 62.9091 529.162 63.1882 528.324 63.5953C524.844 64.9212 521.551 67.0148 518.479 69.4806C512.299 74.4354 507.47 81.8792 505.34 90.4978C504.269 94.8013 504.048 99.4188 504.584 104.001C505.014 108.596 506.434 113.155 508.575 117.354L509.25 118.622L509.343 118.784L509.297 118.959C507.155 125.996 505.049 132.893 503.012 139.581L502.466 139.081C508.203 136.091 513.754 133.195 519.095 130.415L519.305 130.311L519.491 130.45C524.844 134.568 530.977 137.068 536.994 138.045C543.034 139.022 548.934 138.441 554.194 136.871C559.454 135.301 564.062 132.695 567.786 129.601C571.534 126.496 574.408 122.913 576.538 119.366C578.644 115.784 579.889 112.213 580.785 109.049C581.519 105.839 581.868 103.024 581.938 100.721C581.938 99.57 581.949 98.5465 581.961 97.6625C581.879 96.7902 581.821 96.0458 581.763 95.441C581.716 94.8711 581.682 94.4175 581.647 94.0802C581.623 93.7778 581.623 93.6149 581.635 93.6149C581.635 93.6149 581.67 93.7662 581.716 94.0686C581.763 94.4059 581.821 94.8595 581.891 95.4294C581.961 96.0458 582.054 96.7902 582.147 97.6625C582.159 98.5581 582.17 99.5817 582.194 100.745C582.17 103.071 581.856 105.909 581.146 109.166C580.285 112.364 579.052 115.993 576.945 119.634C574.815 123.239 571.929 126.891 568.147 130.067C564.377 133.242 559.722 135.905 554.38 137.522C549.05 139.139 543.057 139.755 536.901 138.778C530.768 137.801 524.518 135.277 519.049 131.078L519.445 131.113C514.115 133.905 508.564 136.801 502.838 139.802L502 140.244L502.291 139.302C504.327 132.614 506.422 125.717 508.564 118.668L508.598 119.005L507.912 117.714C505.736 113.423 504.281 108.759 503.839 104.071C503.303 99.3956 503.536 94.6734 504.63 90.2768C506.818 81.4838 511.764 73.8887 518.071 68.8641C521.213 66.3518 524.565 64.235 528.114 62.8974C528.976 62.4903 529.872 62.2112 530.756 61.9437C531.652 61.6878 532.513 61.3389 533.409 61.1528C535.202 60.8038 536.959 60.3502 538.728 60.2455C542.242 59.7803 545.699 60.0478 548.957 60.4549C552.204 61.0714 555.311 61.839 558.092 63.1068C563.713 65.4795 568.264 68.9339 571.615 72.5512C574.99 76.18 577.155 79.9601 578.621 83.1354C578.958 83.9496 579.284 84.7056 579.587 85.4267C579.901 86.1362 580.052 86.8573 580.273 87.5087C580.681 88.7997 581.018 89.893 581.146 90.8235C581.309 91.7075 581.437 92.3937 581.53 92.8938C581.612 93.3591 581.647 93.6033 581.635 93.6033L581.588 93.6149Z" fill="#8870F9"/>
<path d="M605.02 372.812C608.825 385.675 605.939 402.191 601.331 414.776C596.722 427.373 587.982 438.41 576.776 445.796C575.507 446.634 573.901 447.436 572.563 446.715C571.469 446.122 571.096 444.773 570.852 443.551C568.152 429.769 570.037 415.137 576.147 402.494C582.257 389.851 592.544 379.267 605.008 372.812" fill="#0EE4CF"/>
<g opacity="0.2">
<path opacity="0.2" d="M605.02 372.812C608.825 385.675 605.939 402.191 601.331 414.776C596.722 427.373 587.982 438.41 576.776 445.796C575.507 446.634 573.901 447.436 572.563 446.715C571.469 446.122 571.096 444.773 570.852 443.551C568.152 429.769 570.037 415.137 576.147 402.494C582.257 389.851 592.544 379.267 605.008 372.812" fill="#8870F9"/>
</g>
<path d="M547.845 311.807C555.863 311.586 561.147 320.484 561.95 328.463C562.752 336.43 560.972 344.711 563.311 352.376C566.29 362.111 575.391 369.09 578.149 378.883C581.396 390.433 575.065 402.424 574.762 414.416C574.611 420.255 575.903 426.151 574.821 431.886C573.005 441.563 563.765 449.297 553.908 449.39C544.063 449.483 534.671 441.935 532.658 432.304C530.784 423.313 534.741 413.776 532.367 404.902C530.61 398.342 525.524 392.782 525.105 386.013C524.617 377.952 530.854 370.985 532.006 362.995C533.158 355.004 529.12 347.2 528.527 339.14C527.444 324.694 533.438 313.342 547.845 311.807" fill="#0EE4CF"/>
<path d="M565.406 476.328C565.406 476.328 565.511 476.06 565.639 475.525C565.779 474.909 565.953 474.141 566.174 473.199C566.605 471.175 567.28 468.256 568.153 464.673C569.898 457.485 572.633 447.646 576.415 437.015C580.209 426.396 584.317 417.033 587.506 410.368C589.1 407.03 590.427 404.355 591.369 402.506C591.8 401.645 592.149 400.935 592.428 400.365C592.661 399.877 592.777 399.609 592.754 399.598C592.731 399.586 592.568 399.83 592.3 400.296C591.986 400.842 591.602 401.529 591.113 402.366C590.089 404.169 588.693 406.821 587.029 410.124C583.712 416.742 579.511 426.093 575.705 436.759C571.911 447.413 569.246 457.311 567.641 464.545C566.826 468.163 566.244 471.094 565.895 473.141C565.732 474.094 565.604 474.874 565.499 475.49C565.418 476.025 565.383 476.316 565.418 476.316L565.406 476.328Z" fill="#8870F9"/>
<path d="M548.182 351.213C548.182 351.213 548.182 351.655 548.286 352.492C548.403 353.388 548.542 354.609 548.74 356.144C549.171 359.389 549.776 363.96 550.509 369.578C552.022 380.918 554.082 396.585 556.258 413.892C558.434 431.211 560.308 446.901 561.658 458.265C562.333 463.894 562.88 468.465 563.264 471.71C563.462 473.245 563.613 474.467 563.729 475.362C563.846 476.2 563.915 476.63 563.939 476.63C563.962 476.63 563.939 476.188 563.88 475.351C563.799 474.443 563.694 473.222 563.555 471.687C563.229 468.43 562.763 463.848 562.181 458.207C560.971 446.831 559.179 431.13 557.003 413.799C554.827 396.481 552.674 380.825 551.033 369.508C550.195 363.902 549.508 359.343 549.019 356.109C548.775 354.586 548.577 353.365 548.426 352.469C548.286 351.643 548.193 351.201 548.17 351.213H548.182Z" fill="#8870F9"/>
<path d="M593.358 460.614H532.541V467.709H593.358V460.614Z" fill="#8870F9"/>
<path d="M538.174 467.709L545.319 510.767H583.036L587.982 467.709H538.174Z" fill="#8870F9"/>
<path d="M588.181 467.418C588.181 467.581 576.95 467.86 563.09 468.035C549.23 468.209 537.988 468.209 537.988 468.035C537.988 467.872 549.218 467.593 563.079 467.418C576.939 467.244 588.169 467.244 588.169 467.418H588.181Z" fill="#455A64"/>
<path d="M586.108 488.971C586.108 488.971 585.991 488.994 585.77 489.005C585.514 489.017 585.177 489.029 584.758 489.052C583.873 489.075 582.558 489.11 580.871 488.901C579.207 488.691 577.089 488.215 575.122 486.749C574.156 486.028 573.225 485.051 572.62 483.783C572.026 482.539 571.759 480.968 572.259 479.456C572.725 477.956 574.249 476.642 576.053 476.723C576.949 476.77 577.81 477.223 578.404 477.909C578.997 478.596 579.381 479.445 579.579 480.352C580.312 484.027 577.74 488.121 573.807 489.401C569.804 490.75 564.997 488.47 563.007 484.458C562.507 483.457 562.181 482.352 562.134 481.201C562.076 480.061 562.321 478.84 563.019 477.851C563.706 476.886 564.799 476.142 566.045 476.037C567.301 475.921 568.547 476.618 569.233 477.619C569.955 478.607 570.304 479.817 570.281 481.015C570.269 482.201 569.932 483.364 569.408 484.388C568.361 486.47 566.533 488.017 564.555 488.982C562.565 489.959 560.447 490.471 558.352 490.738C556.258 490.994 554.116 490.89 552.184 490.203C550.264 489.517 548.577 488.249 547.553 486.575C546.505 484.911 546.331 482.818 546.959 481.085C547.553 479.352 549.031 477.921 550.776 477.677C552.487 477.433 554.221 478.084 555.222 479.34C556.246 480.619 556.188 482.352 555.618 483.609C555.071 484.911 554.07 485.865 553.069 486.528C552.056 487.203 551.009 487.633 550.043 487.994C549.077 488.354 548.181 488.645 547.378 488.877C545.761 489.343 544.469 489.599 543.596 489.75C543.154 489.82 542.828 489.866 542.595 489.889C542.374 489.913 542.258 489.924 542.246 489.913C542.246 489.913 542.362 489.878 542.584 489.831C542.84 489.773 543.165 489.715 543.573 489.633C544.434 489.447 545.714 489.157 547.308 488.656C548.111 488.412 548.996 488.098 549.938 487.726C550.881 487.354 551.905 486.912 552.883 486.249C553.849 485.598 554.768 484.679 555.268 483.469C555.792 482.283 555.804 480.736 554.896 479.608C554 478.503 552.394 477.909 550.858 478.142C549.31 478.375 547.972 479.654 547.436 481.259C546.866 482.864 547.041 484.76 548.018 486.307C548.973 487.854 550.567 489.052 552.382 489.692C554.209 490.331 556.258 490.436 558.294 490.18C560.331 489.913 562.402 489.412 564.299 488.47C566.196 487.54 567.895 486.074 568.873 484.132C569.862 482.248 570.06 479.77 568.745 477.991C568.128 477.107 567.115 476.56 566.091 476.653C565.067 476.735 564.101 477.374 563.508 478.212C562.903 479.061 562.681 480.143 562.728 481.189C562.775 482.236 563.077 483.271 563.543 484.213C565.381 487.982 569.943 490.134 573.632 488.889C577.31 487.714 579.765 483.841 579.09 480.468C578.916 479.642 578.567 478.863 578.043 478.247C577.519 477.642 576.786 477.258 576.03 477.212C574.482 477.13 573.097 478.27 572.666 479.619C572.189 480.98 572.41 482.457 572.969 483.644C573.528 484.842 574.4 485.784 575.331 486.493C577.205 487.935 579.265 488.436 580.906 488.68C582.558 488.924 583.873 488.924 584.758 488.947C585.177 488.947 585.502 488.947 585.77 488.959C586.003 488.959 586.119 488.971 586.119 488.982L586.108 488.971Z" fill="#455A64"/>
</svg>
