<svg width="667" height="512" viewBox="0 0 667 512" fill="none" xmlns="http://www.w3.org/2000/svg">
<path d="M99.29 255.298L57.3501 376.006L236.533 438.194L278.472 317.487L99.29 255.298Z" fill="#BAFBEE"/>
<path d="M278.46 317.472C278.46 317.472 277.715 317.879 276.238 318.495C274.597 319.158 272.432 320.042 269.732 321.135C263.879 323.427 255.697 326.625 245.666 330.545C225.126 338.396 196.998 349.155 165.845 361.065L165.193 361.321L164.821 360.727C164.53 360.274 164.227 359.774 163.913 359.285C145.991 330.708 129.769 304.84 117.91 285.94C112.173 276.635 107.483 269.04 104.143 263.608C102.619 261.061 101.397 259.037 100.477 257.491C99.651 256.083 99.2437 255.327 99.3019 255.292C99.3484 255.257 99.8604 255.955 100.78 257.304C101.769 258.805 103.084 260.782 104.725 263.248C108.193 268.61 113.022 276.1 118.957 285.289C130.921 304.131 147.295 329.894 165.379 358.366C165.693 358.855 166.008 359.355 166.287 359.809L165.251 359.46C196.474 347.736 224.66 337.151 245.247 329.417C255.36 325.706 263.599 322.682 269.511 320.519C272.258 319.554 274.457 318.774 276.133 318.181C277.657 317.669 278.46 317.425 278.484 317.472H278.46Z" fill="#0EE4CF"/>
<path d="M57.3373 375.999C57.0929 375.592 76.3179 363.717 100.268 349.492C124.229 335.256 143.838 324.055 144.083 324.462C144.327 324.869 125.102 336.733 101.152 350.969C77.2024 365.205 57.5817 376.406 57.3373 375.999Z" fill="#0EE4CF"/>
<path d="M204.178 343.618C204.632 343.467 212.232 364.507 221.169 390.619C230.107 416.742 236.984 438.027 236.531 438.178C236.077 438.329 228.477 417.289 219.54 391.177C210.602 365.066 203.725 343.769 204.178 343.618Z" fill="#0EE4CF"/>
<path d="M628.048 223.901L450.743 253.937L471 373.382L648.304 343.346L628.048 223.901Z" fill="#E0DCFF"/>
<path d="M628.038 223.946C628.038 223.946 627.607 224.62 626.653 225.818C625.594 227.121 624.198 228.831 622.452 230.983C618.635 235.554 613.293 241.939 606.753 249.778C593.265 265.678 574.797 287.44 554.35 311.539L553.919 312.051L553.337 311.725C552.895 311.481 552.406 311.213 551.917 310.946C523.976 295.372 498.688 281.275 480.208 270.958C471.188 265.841 463.834 261.665 458.562 258.676C456.13 257.257 454.186 256.129 452.72 255.268C451.393 254.477 450.707 254.035 450.742 253.977C450.765 253.931 451.51 254.268 452.883 254.977C454.396 255.768 456.386 256.815 458.876 258.118C464.206 260.991 471.642 265.015 480.766 269.947C499.316 280.147 524.674 294.092 552.709 309.515C553.198 309.783 553.675 310.05 554.129 310.295L553.116 310.481C573.714 286.497 592.299 264.852 605.88 249.034C612.595 241.334 618.065 235.065 621.975 230.575C623.814 228.517 625.291 226.865 626.409 225.609C627.433 224.492 627.991 223.911 628.038 223.946Z" fill="#8870F9"/>
<path d="M470.991 373.417C470.607 373.184 481.162 354.563 494.568 331.813C507.986 309.062 519.17 290.802 519.554 291.034C519.938 291.267 509.383 309.888 495.976 332.65C482.57 355.4 471.386 373.661 470.991 373.429V373.417Z" fill="#8870F9"/>
<path d="M578.229 279.543C578.532 279.206 594.464 293.233 613.805 310.854C633.158 328.486 648.589 343.048 648.287 343.374C647.984 343.711 632.053 329.684 612.711 312.052C593.37 294.431 577.927 279.869 578.229 279.531V279.543Z" fill="#8870F9"/>
<path d="M74.6093 85.2015L109.418 165.183L228.112 113.473L193.303 33.4915L74.6093 85.2015Z" fill="#BAFBEE"/>
<path d="M194.061 34.2889C194.061 34.2889 193.871 34.8401 193.419 35.8357C192.9 36.93 192.217 38.3698 191.369 40.1717C189.484 44.0305 186.867 49.4115 183.648 56.0348C176.973 69.4872 167.836 87.901 157.728 108.289L157.514 108.717L157.045 108.594C156.691 108.504 156.305 108.397 155.918 108.29C133.7 102.249 113.595 96.776 98.8953 92.7737C91.7058 90.7519 85.8407 89.1164 81.6536 87.9412C79.7123 87.3658 78.1576 86.9138 76.9813 86.5768C75.9119 86.2481 75.3608 86.059 75.369 86.0179C75.3772 85.9767 75.9531 86.0917 77.0389 86.3382C78.2317 86.6258 79.8029 87.0121 81.7689 87.4969C85.9889 88.5899 91.8787 90.102 99.1094 91.9674C113.834 95.8792 133.971 101.237 156.231 107.154C156.618 107.261 156.996 107.36 157.358 107.459L156.675 107.763C166.915 87.424 176.167 69.0761 182.916 55.6648C186.274 49.1154 189.007 43.7838 190.966 39.9661C191.896 38.2136 192.637 36.7984 193.213 35.7288C193.732 34.7661 194.028 34.2725 194.061 34.2889Z" fill="#0EE4CF"/>
<path d="M110.187 165.996C109.874 165.897 114.033 151.047 119.459 132.823C124.894 114.591 129.546 99.8891 129.858 99.9877C130.171 100.086 126.021 114.928 120.586 133.16C115.16 151.384 110.491 166.086 110.187 165.996Z" fill="#0EE4CF"/>
<path d="M168.882 81.7876C169.039 81.4996 182.594 88.5379 199.16 97.5168C215.735 106.487 229.035 113.995 228.887 114.274C228.73 114.562 215.175 107.524 198.609 98.5453C182.043 89.5828 168.743 82.0756 168.899 81.7876L168.882 81.7876Z" fill="#0EE4CF"/>
<path d="M667 511.07C667 511.233 517.668 511.372 333.517 511.372C149.367 511.372 0 511.233 0 511.07C0 510.907 149.297 510.768 333.517 510.768C517.738 510.768 667 510.907 667 511.07Z" fill="#8870F9"/>
<path d="M216.235 229.389L490.728 227.4L498.385 413.915L214.152 411.287L216.235 229.389Z" fill="#0EE4CF"/>
<path d="M216.235 229.389L346.144 124.326C351.649 119.883 359.516 119.906 364.985 124.384L490.728 227.389" fill="#0EE4CF"/>
<g opacity="0.3">
<path opacity="0.3" d="M216.235 229.389L346.144 124.326C351.649 119.883 359.516 119.906 364.985 124.384L490.728 227.389" fill="#8870F9"/>
</g>
<path d="M214.152 411.287C213.815 410.961 235.786 386.99 263.227 357.738C290.68 328.474 313.21 305.026 313.548 305.34C313.885 305.666 291.925 329.637 264.461 358.901C237.02 388.153 214.49 411.613 214.141 411.287H214.152Z" fill="#8870F9"/>
<path d="M498.385 413.915C498.036 414.229 476.635 390.734 450.59 361.447C424.534 332.149 403.715 308.154 404.064 307.84C404.413 307.526 425.814 331.021 451.859 360.319C477.903 389.606 498.735 413.613 498.385 413.915Z" fill="#8870F9"/>
<g opacity="0.5">
<path opacity="0.5" d="M490.728 227.4L352.894 337.453L216.235 229.389" fill="#8870F9"/>
</g>
<path d="M230.06 239.577L229.63 153.903L469.99 151.054L472.701 241.206L352.882 336.01L230.06 239.577Z" fill="#FAF9FF"/>
<path d="M230.061 239.578C230.061 239.578 230.84 240.159 232.318 241.299C233.796 242.451 235.984 244.149 238.835 246.37C244.549 250.837 252.928 257.385 263.635 265.759C285.036 282.531 315.747 306.596 353.033 335.801H352.731C387.248 308.48 428.2 276.053 472.515 240.962L472.399 241.206C471.887 224.004 471.34 205.964 470.781 187.599C470.409 175.235 470.048 163.022 469.687 151.054L469.99 151.345C373.131 152.45 287.689 153.415 229.63 154.078L229.816 153.88C229.909 180.841 229.979 202.242 230.037 216.921C230.049 224.26 230.061 229.912 230.072 233.739C230.072 235.646 230.072 237.1 230.072 238.077C230.072 239.054 230.061 239.555 230.061 239.555C230.061 239.555 230.037 239.066 230.026 238.101C230.026 237.124 230.002 235.681 229.979 233.774C229.944 229.947 229.909 224.306 229.851 216.979C229.758 202.289 229.618 180.853 229.444 153.869V153.671H229.642C287.689 152.962 373.131 151.915 469.99 150.717H470.281V151.008C470.653 162.988 471.014 175.2 471.386 187.552C471.933 205.918 472.48 223.957 472.992 241.16V241.311L472.876 241.404C428.537 276.46 387.562 308.852 353.033 336.162L352.882 336.278L352.731 336.162C315.479 306.852 284.792 282.706 263.402 265.887C252.73 257.478 244.386 250.895 238.707 246.417C235.879 244.184 233.715 242.462 232.248 241.299C230.794 240.148 230.061 239.543 230.061 239.543V239.578Z" fill="#8870F9"/>
<path d="M432.005 194.194C432.005 194.356 395.254 194.717 349.915 194.996C304.564 195.275 267.812 195.357 267.812 195.194C267.812 195.031 304.564 194.67 349.915 194.391C395.242 194.112 432.005 194.031 432.005 194.194Z" fill="#8870F9"/>
<path d="M432.005 218.398C432.005 218.561 395.254 218.921 349.915 219.2C304.564 219.479 267.812 219.561 267.812 219.398C267.812 219.235 304.564 218.875 349.915 218.595C395.242 218.316 432.005 218.235 432.005 218.398Z" fill="#8870F9"/>
<path d="M432.005 246.301C432.005 246.464 395.254 246.824 349.915 247.104C304.564 247.383 267.812 247.464 267.812 247.301C267.812 247.138 304.564 246.778 349.915 246.499C395.242 246.22 432.005 246.138 432.005 246.301Z" fill="#8870F9"/>
<path d="M432.005 274.192C432.005 274.354 396.942 274.703 353.685 274.971C310.417 275.238 275.354 275.308 275.354 275.145C275.354 274.982 310.417 274.634 353.674 274.366C396.918 274.098 431.993 274.029 431.993 274.192H432.005Z" fill="#8870F9"/>
<path d="M401.259 298.675C401.259 298.675 400.933 298.721 400.293 298.745C399.607 298.768 398.687 298.791 397.535 298.814C395.08 298.849 391.623 298.908 387.376 298.977C378.752 299.105 366.929 299.268 353.871 299.454C340.779 299.675 328.932 299.745 320.356 299.757C316.108 299.757 312.663 299.733 310.196 299.733C309.044 299.722 308.125 299.698 307.438 299.698C306.81 299.687 306.472 299.664 306.472 299.64C306.472 299.617 306.798 299.594 307.438 299.57C308.125 299.547 309.044 299.524 310.196 299.501C312.652 299.466 316.108 299.408 320.356 299.338C328.979 299.21 340.803 299.047 353.86 298.861C366.94 298.64 378.787 298.57 387.364 298.559C391.612 298.559 395.056 298.582 397.524 298.582C398.676 298.593 399.595 298.605 400.282 298.617C400.91 298.628 401.247 298.652 401.247 298.675H401.259Z" fill="#8870F9"/>
<path d="M370.315 322.216C370.315 322.379 362.483 322.519 352.812 322.519C343.142 322.519 335.31 322.379 335.31 322.216C335.31 322.054 343.142 321.914 352.812 321.914C362.483 321.914 370.315 322.054 370.315 322.216Z" fill="#8870F9"/>
<path d="M451.219 303.212C467.254 303.212 480.254 290.219 480.254 274.192C480.254 258.165 467.254 245.173 451.219 245.173C435.183 245.173 422.183 258.165 422.183 274.192C422.183 290.219 435.183 303.212 451.219 303.212Z" fill="#8870F9"/>
<path d="M443.666 303.212C459.702 303.212 472.701 290.219 472.701 274.192C472.701 258.165 459.702 245.173 443.666 245.173C427.63 245.173 414.63 258.165 414.63 274.192C414.63 290.219 427.63 303.212 443.666 303.212Z" fill="#455A64"/>
<path d="M447.355 260.688V284.811H442.874V264.445H437.766V260.688H447.355Z" fill="#EBEBEB"/>
<path d="M529.604 111.771H556.161L552.576 107.642V97.7669C552.576 92.4283 548.236 88.1016 542.894 88.1016C537.552 88.1016 533.223 92.4283 533.223 97.7786V107.176L529.616 111.782L529.604 111.771Z" fill="#0EE4CF"/>
<path d="M539.17 110.468C539.228 112.015 540.252 113.481 541.684 114.085C543.115 114.679 544.872 114.376 546.024 113.341C547.176 112.294 547.642 110.573 547.188 109.096" fill="#0EE4CF"/>
<path d="M544.36 84.0771H541.753V89.6135H544.36V84.0771Z" fill="#0EE4CF"/>
<path d="M581.588 93.6149C581.588 93.6149 581.507 93.3823 581.402 92.9171C581.286 92.417 581.135 91.7424 580.937 90.87C580.785 89.9628 580.413 88.8811 579.994 87.6017C579.761 86.9736 579.61 86.2525 579.284 85.5547C578.97 84.8452 578.644 84.0891 578.295 83.2982C576.794 80.1695 574.618 76.4592 571.254 72.9001C567.914 69.3526 563.411 65.9796 557.848 63.6767C555.102 62.4322 552.029 61.6994 548.841 61.1179C545.617 60.7341 542.231 60.4782 538.763 60.955C537.017 61.0597 535.295 61.5133 533.526 61.8623C532.641 62.0484 531.792 62.3857 530.919 62.6415C530.046 62.9091 529.162 63.1882 528.324 63.5953C524.844 64.9212 521.551 67.0148 518.479 69.4806C512.299 74.4354 507.47 81.8792 505.34 90.4978C504.269 94.8013 504.048 99.4188 504.584 104.001C505.014 108.596 506.434 113.155 508.575 117.354L509.25 118.622L509.343 118.784L509.297 118.959C507.155 125.996 505.049 132.893 503.012 139.581L502.466 139.081C508.203 136.091 513.754 133.195 519.095 130.415L519.305 130.311L519.491 130.45C524.844 134.568 530.977 137.068 536.994 138.045C543.034 139.022 548.934 138.441 554.194 136.871C559.454 135.301 564.062 132.695 567.786 129.601C571.534 126.496 574.408 122.913 576.538 119.366C578.644 115.784 579.889 112.213 580.785 109.049C581.519 105.839 581.868 103.024 581.938 100.721C581.938 99.57 581.949 98.5465 581.961 97.6625C581.879 96.7902 581.821 96.0458 581.763 95.441C581.716 94.8711 581.682 94.4175 581.647 94.0802C581.623 93.7778 581.623 93.6149 581.635 93.6149C581.635 93.6149 581.67 93.7662 581.716 94.0686C581.763 94.4059 581.821 94.8595 581.891 95.4294C581.961 96.0458 582.054 96.7902 582.147 97.6625C582.159 98.5581 582.17 99.5817 582.194 100.745C582.17 103.071 581.856 105.909 581.146 109.166C580.285 112.364 579.052 115.993 576.945 119.634C574.815 123.239 571.929 126.891 568.147 130.067C564.377 133.242 559.722 135.905 554.38 137.522C549.05 139.139 543.057 139.755 536.901 138.778C530.768 137.801 524.518 135.277 519.049 131.078L519.445 131.113C514.115 133.905 508.564 136.801 502.838 139.802L502 140.244L502.291 139.302C504.327 132.614 506.422 125.717 508.564 118.668L508.598 119.005L507.912 117.714C505.736 113.423 504.281 108.759 503.839 104.071C503.303 99.3956 503.536 94.6734 504.63 90.2768C506.818 81.4838 511.764 73.8887 518.071 68.8641C521.213 66.3518 524.565 64.235 528.114 62.8974C528.976 62.4903 529.872 62.2112 530.756 61.9437C531.652 61.6878 532.513 61.3389 533.409 61.1528C535.202 60.8038 536.959 60.3502 538.728 60.2455C542.242 59.7803 545.699 60.0478 548.957 60.4549C552.204 61.0714 555.311 61.839 558.092 63.1068C563.713 65.4795 568.264 68.9339 571.615 72.5512C574.99 76.18 577.155 79.9601 578.621 83.1354C578.958 83.9496 579.284 84.7056 579.587 85.4267C579.901 86.1362 580.052 86.8573 580.273 87.5087C580.681 88.7997 581.018 89.893 581.146 90.8235C581.309 91.7075 581.437 92.3937 581.53 92.8938C581.612 93.3591 581.647 93.6033 581.635 93.6033L581.588 93.6149Z" fill="#8870F9"/>
<path d="M605.019 372.812C608.824 385.675 605.938 402.191 601.33 414.776C596.721 427.373 587.981 438.41 576.775 445.796C575.506 446.634 573.9 447.436 572.562 446.715C571.468 446.122 571.096 444.773 570.851 443.551C568.151 429.769 570.036 415.137 576.146 402.494C582.256 389.851 592.543 379.267 605.007 372.812" fill="#0EE4CF"/>
<g opacity="0.2">
<path opacity="0.2" d="M605.019 372.812C608.824 385.675 605.938 402.191 601.33 414.776C596.721 427.373 587.981 438.41 576.775 445.796C575.506 446.634 573.9 447.436 572.562 446.715C571.468 446.122 571.096 444.773 570.851 443.551C568.151 429.769 570.036 415.137 576.146 402.494C582.256 389.851 592.543 379.267 605.007 372.812" fill="#8870F9"/>
</g>
<path d="M547.844 311.807C555.862 311.586 561.146 320.483 561.949 328.462C562.752 336.43 560.971 344.711 563.31 352.376C566.289 362.111 575.39 369.09 578.148 378.883C581.395 390.432 575.064 402.424 574.761 414.416C574.61 420.254 575.902 426.151 574.82 431.885C573.004 441.562 563.764 449.297 553.907 449.39C544.062 449.483 534.67 441.935 532.657 432.304C530.783 423.313 534.74 413.776 532.366 404.901C530.609 398.342 525.523 392.782 525.104 386.013C524.616 377.952 530.853 370.985 532.005 362.995C533.157 355.004 529.119 347.2 528.526 339.14C527.444 324.694 533.437 313.342 547.844 311.807Z" fill="#0EE4CF"/>
<path d="M565.405 476.328C565.405 476.328 565.509 476.06 565.637 475.525C565.777 474.909 565.952 474.141 566.173 473.199C566.603 471.175 567.278 468.256 568.151 464.674C569.897 457.486 572.632 447.646 576.414 437.015C580.208 426.396 584.316 417.033 587.504 410.368C589.099 407.03 590.425 404.355 591.368 402.506C591.798 401.645 592.148 400.936 592.427 400.366C592.66 399.877 592.776 399.61 592.753 399.598C592.729 399.586 592.566 399.831 592.299 400.296C591.985 400.843 591.601 401.529 591.112 402.366C590.088 404.169 588.691 406.821 587.027 410.124C583.71 416.742 579.509 426.094 575.704 436.759C571.91 447.413 569.245 457.311 567.639 464.546C566.824 468.163 566.243 471.094 565.893 473.141C565.731 474.095 565.603 474.874 565.498 475.49C565.416 476.025 565.381 476.316 565.416 476.316L565.405 476.328Z" fill="#8870F9"/>
<path d="M548.182 351.213C548.182 351.213 548.182 351.655 548.286 352.492C548.403 353.388 548.542 354.609 548.74 356.145C549.171 359.39 549.776 363.961 550.509 369.578C552.022 380.919 554.082 396.586 556.258 413.893C558.434 431.211 560.308 446.901 561.658 458.265C562.333 463.894 562.88 468.465 563.264 471.71C563.462 473.246 563.613 474.467 563.729 475.363C563.846 476.2 563.915 476.63 563.939 476.63C563.962 476.63 563.939 476.188 563.88 475.351C563.799 474.444 563.694 473.222 563.555 471.687C563.229 468.431 562.763 463.848 562.181 458.207C560.971 446.832 559.179 431.13 557.003 413.8C554.827 396.481 552.674 380.826 551.033 369.509C550.195 363.903 549.508 359.343 549.019 356.11C548.775 354.586 548.577 353.365 548.426 352.469C548.286 351.643 548.193 351.201 548.17 351.213H548.182Z" fill="#8870F9"/>
<path d="M593.358 460.614H532.541V467.709H593.358V460.614Z" fill="#8870F9"/>
<path d="M538.173 467.709L545.318 510.767H583.035L587.981 467.709H538.173Z" fill="#8870F9"/>
<path d="M588.179 467.418C588.179 467.581 576.949 467.86 563.089 468.034C549.229 468.209 537.987 468.209 537.987 468.034C537.987 467.872 549.217 467.592 563.077 467.418C576.937 467.243 588.167 467.243 588.167 467.418H588.179Z" fill="#455A64"/>
<path d="M586.108 488.971C586.108 488.971 585.991 488.994 585.77 489.006C585.514 489.017 585.177 489.029 584.758 489.052C583.873 489.075 582.558 489.11 580.871 488.901C579.207 488.692 577.089 488.215 575.122 486.749C574.156 486.028 573.225 485.051 572.62 483.783C572.026 482.539 571.759 480.969 572.259 479.457C572.725 477.956 574.249 476.642 576.053 476.723C576.949 476.77 577.81 477.223 578.404 477.91C578.997 478.596 579.381 479.445 579.579 480.352C580.312 484.028 577.74 488.122 573.807 489.401C569.804 490.75 564.997 488.471 563.007 484.458C562.507 483.458 562.181 482.353 562.134 481.201C562.076 480.061 562.321 478.84 563.019 477.852C563.706 476.886 564.799 476.142 566.045 476.037C567.301 475.921 568.547 476.619 569.233 477.619C569.955 478.608 570.304 479.817 570.281 481.015C570.269 482.202 569.932 483.365 569.408 484.388C568.361 486.47 566.533 488.017 564.555 488.982C562.565 489.959 560.447 490.471 558.352 490.739C556.258 490.995 554.116 490.89 552.184 490.204C550.264 489.517 548.577 488.25 547.553 486.575C546.505 484.912 546.331 482.818 546.959 481.085C547.553 479.352 549.031 477.921 550.776 477.677C552.487 477.433 554.221 478.084 555.222 479.34C556.246 480.62 556.188 482.353 555.618 483.609C555.071 484.912 554.07 485.865 553.069 486.528C552.056 487.203 551.009 487.633 550.043 487.994C549.077 488.354 548.181 488.645 547.378 488.878C545.761 489.343 544.469 489.599 543.596 489.75C543.154 489.82 542.828 489.866 542.595 489.89C542.374 489.913 542.258 489.925 542.246 489.913C542.246 489.913 542.362 489.878 542.584 489.831C542.84 489.773 543.165 489.715 543.573 489.634C544.434 489.448 545.714 489.157 547.308 488.657C548.111 488.412 548.996 488.098 549.938 487.726C550.881 487.354 551.905 486.912 552.883 486.249C553.849 485.598 554.768 484.679 555.268 483.469C555.792 482.283 555.804 480.736 554.896 479.608C554 478.503 552.394 477.91 550.858 478.142C549.31 478.375 547.972 479.654 547.436 481.259C546.866 482.865 547.041 484.76 548.018 486.307C548.973 487.854 550.567 489.052 552.382 489.692C554.209 490.332 556.258 490.436 558.294 490.18C560.331 489.913 562.402 489.413 564.299 488.471C566.196 487.54 567.895 486.075 568.873 484.132C569.862 482.248 570.06 479.771 568.745 477.991C568.128 477.107 567.115 476.56 566.091 476.654C565.067 476.735 564.101 477.375 563.508 478.212C562.903 479.061 562.681 480.143 562.728 481.19C562.775 482.236 563.077 483.272 563.543 484.214C565.381 487.982 569.943 490.134 573.632 488.889C577.31 487.715 579.765 483.841 579.09 480.468C578.916 479.643 578.567 478.863 578.043 478.247C577.519 477.642 576.786 477.258 576.03 477.212C574.482 477.13 573.097 478.27 572.666 479.619C572.189 480.98 572.41 482.457 572.969 483.644C573.528 484.842 574.4 485.784 575.331 486.493C577.205 487.936 579.265 488.436 580.906 488.68C582.558 488.924 583.873 488.924 584.758 488.948C585.177 488.948 585.502 488.948 585.77 488.959C586.003 488.959 586.119 488.971 586.119 488.982L586.108 488.971Z" fill="#455A64"/>
</svg>
