<svg width="306" height="40" viewBox="0 0 306 40" fill="none" xmlns="http://www.w3.org/2000/svg">
<g clip-path="url(#clip0_567_1046)">
<path d="M76.3324 20.4358H76.1924L71.3164 37.3278C71.0444 38.2678 70.1844 38.9158 69.2044 38.9158H65.8324C64.3964 38.9158 63.1364 37.9278 62.7564 36.5038L56.3164 12.2398H60.6124C62.1044 12.2398 63.3964 13.2998 63.7324 14.7918L67.5084 31.7358H67.6484L72.7644 13.5198C72.9764 12.7598 73.6684 12.2358 74.4564 12.2358H78.2524C79.0444 12.2358 79.7364 12.7638 79.9484 13.5278L84.9724 31.7358H85.1124L88.9964 15.0198C89.3764 13.3878 90.7964 12.2358 92.4284 12.2358H96.0644L89.6724 36.4758C89.2924 37.9118 88.0244 38.9118 86.5764 38.9118H83.2844C82.3004 38.9118 81.4364 38.2598 81.1644 37.3118L76.3364 20.4318L76.3324 20.4358Z" fill="#0EE4CF"/>
<path d="M97.7363 26.0362C97.7363 18.0882 103.528 12.3442 111.044 12.3442C118.56 12.3442 124.304 18.0882 124.304 26.0362C124.304 33.9842 118.608 39.7282 111.044 39.7282C103.48 39.7282 97.7363 33.9842 97.7363 26.0362ZM118.608 26.0362C118.608 20.6282 114.924 17.5162 111.044 17.5162C107.164 17.5162 103.432 20.6282 103.432 26.0362C103.432 31.4442 107.164 34.5562 111.044 34.5562C114.924 34.5562 118.608 31.4442 118.608 26.0362V26.0362Z" fill="#0EE4CF"/>
<path d="M129.2 12.9682H132.344C132.704 12.9682 133.012 13.2362 133.064 13.5922L133.552 17.0362H133.648C135.42 13.7322 138.628 12.6802 140.972 12.6802C141.412 12.6802 141.796 12.6962 142.152 12.7322C142.52 12.7682 142.792 13.0842 142.792 13.4522V17.3482C142.792 17.7642 142.436 18.1002 142.02 18.0522C141.628 18.0082 141.228 17.9922 140.828 17.9922C137.476 17.9922 134.128 20.0042 134.128 25.0282V38.3762C134.128 38.7762 133.804 39.1042 133.4 39.1042H129.204C128.804 39.1042 128.476 38.7802 128.476 38.3762V13.6962C128.476 13.2962 128.8 12.9682 129.204 12.9682H129.2Z" fill="#0EE4CF"/>
<path d="M163.676 38.8438L154.216 27.5638C153.78 27.0438 152.932 27.3518 152.932 28.0318V38.3758C152.932 38.7758 152.608 39.1038 152.204 39.1038H148.008C147.608 39.1038 147.28 38.7798 147.28 38.3758V1.48777C147.28 1.08777 147.604 0.759766 148.008 0.759766H152.204C152.604 0.759766 152.932 1.08377 152.932 1.48777V23.1718C152.932 23.8398 153.756 24.1518 154.2 23.6558L163.484 13.2158C163.62 13.0598 163.82 12.9718 164.028 12.9718H168.956C169.588 12.9718 169.916 13.7198 169.492 14.1878L159.728 24.9438C159.484 25.2158 159.476 25.6278 159.716 25.9038L170 37.9078C170.404 38.3798 170.068 39.1078 169.448 39.1078H164.232C164.016 39.1078 163.812 39.0118 163.676 38.8478V38.8438Z" fill="#0EE4CF"/>
<path d="M231.988 26.0362C231.988 18.0882 237.78 12.3442 245.296 12.3442C252.812 12.3442 258.556 18.0882 258.556 26.0362C258.556 33.9842 252.86 39.7282 245.296 39.7282C237.732 39.7282 231.988 33.9842 231.988 26.0362ZM252.86 26.0362C252.86 20.6282 249.176 17.5162 245.296 17.5162C241.416 17.5162 237.684 20.6282 237.684 26.0362C237.684 31.4442 241.416 34.5562 245.296 34.5562C249.176 34.5562 252.86 31.4442 252.86 26.0362Z" fill="#0EE4CF"/>
<path d="M262.844 28.8598V13.6958C262.844 13.2958 263.168 12.9678 263.572 12.9678H267.768C268.168 12.9678 268.496 13.2918 268.496 13.6958V28.9078C268.496 32.4998 270.508 34.5558 273.904 34.5558C277.3 34.5558 279.552 32.4958 279.552 28.8598V13.6958C279.552 13.2958 279.876 12.9678 280.28 12.9678H284.476C284.876 12.9678 285.204 13.2918 285.204 13.6958V28.8118C285.204 35.2278 280.896 39.7278 273.908 39.7278C266.92 39.7278 262.852 35.2278 262.852 28.8598H262.844Z" fill="#0EE4CF"/>
<path d="M292.152 12.9682H295.296C295.656 12.9682 295.964 13.2362 296.016 13.5922L296.504 17.0362H296.6C298.372 13.7322 301.58 12.6802 303.924 12.6802C304.364 12.6802 304.748 12.6962 305.104 12.7322C305.46 12.7682 305.744 13.0842 305.744 13.4522V17.3482C305.744 17.7642 305.384 18.1002 304.972 18.0522C304.58 18.0082 304.18 17.9922 303.78 17.9922C300.428 17.9922 297.08 20.0042 297.08 25.0282V38.3762C297.08 38.7762 296.756 39.1042 296.352 39.1042H292.156C291.756 39.1042 291.428 38.7802 291.428 38.3762V13.6962C291.428 13.2962 291.752 12.9682 292.156 12.9682H292.152Z" fill="#0EE4CF"/>
<path d="M202.828 22.356V39.26H196.472V24.288C196.472 20.788 194.908 19.128 191.868 19.128C188.828 19.128 186.848 21.2 186.848 24.1V39.252H180.492V13.928H185.42L186.112 17.568H186.252C187.724 15.22 190.396 13.332 193.896 13.332C199.424 13.332 202.832 16.788 202.832 22.36L202.828 22.356Z" fill="url(#paint0_linear_567_1046)"/>
<path d="M221.824 14.3958H227.372C227.596 14.3958 227.78 14.5838 227.78 14.8158V18.9918C227.78 19.2238 227.596 19.4118 227.372 19.4118H221.824C221.6 19.4118 221.416 19.5998 221.416 19.8318V29.0918C221.416 32.3198 223.412 33.5838 226.128 33.5838C226.628 33.5838 227.18 33.5318 227.74 33.4438C227.988 33.4078 228.208 33.6038 228.208 33.8598V38.1718C228.208 38.3718 228.072 38.5438 227.88 38.5838C227.148 38.7318 226.176 38.8638 224.856 38.8638C219.044 38.8638 215.732 35.2878 215.732 29.3998V19.8358C215.732 19.6038 215.548 19.4158 215.324 19.4158H212.748C212.524 19.4158 212.34 19.2278 212.34 18.9958V14.8198C212.34 14.5878 212.524 14.3998 212.748 14.3998H215.368C215.592 14.3998 215.776 14.2118 215.776 13.9798V11.7798C215.776 10.1438 217.068 8.81982 218.66 8.81982H221.012C221.236 8.81982 221.42 9.00782 221.42 9.23982V13.9798C221.42 14.2118 221.604 14.3998 221.828 14.3998L221.824 14.3958Z" fill="#0EE4CF"/>
<path d="M22.6559 39.9998C21.6839 39.9998 20.7879 39.4878 20.2919 38.6558L0.0838674 4.66783C-0.0841325 4.38383 0.00786748 4.01983 0.291867 3.85183L3.99987 1.64783C4.28387 1.47983 4.64787 1.57183 4.81587 1.85583L22.6279 31.8198L25.6959 26.7478C25.8479 26.4878 26.1799 26.3998 26.4399 26.5518L30.2559 28.7678C30.5159 28.9198 30.6039 29.2518 30.4519 29.5118L25.0239 38.6438C24.5359 39.4838 23.6359 39.9998 22.6639 39.9998H22.6519H22.6559Z" fill="url(#paint1_linear_567_1046)"/>
<path d="M48.7316 12.3478L45.5516 1.94376C45.1076 0.491756 43.5676 -0.324244 42.1156 0.115756L30.5516 3.71576L33.4556 8.52376L37.0956 7.40776L31.5436 17.0398L22.7196 2.65176C22.5596 2.39176 22.2196 2.31176 21.9636 2.47176L18.2116 4.77176C17.9516 4.93176 17.8716 5.27176 18.0316 5.52776L28.4476 22.5158C29.1276 23.6238 30.2996 24.2798 31.5956 24.2798C31.6116 24.2798 31.6316 24.2798 31.6476 24.2798C32.9636 24.2598 34.1396 23.5718 34.7996 22.4318L42.1596 9.65976L43.8836 15.3038L48.7356 12.3518L48.7316 12.3478Z" fill="url(#paint2_linear_567_1046)"/>
</g>
<defs>
<linearGradient id="paint0_linear_567_1046" x1="196.28" y1="41.772" x2="184.936" y2="12.22" gradientUnits="userSpaceOnUse">
<stop stop-color="#8870F9"/>
<stop offset="1" stop-color="#0EE4CF"/>
</linearGradient>
<linearGradient id="paint1_linear_567_1046" x1="15.2639" y1="1.56783" x2="15.2639" y2="39.9998" gradientUnits="userSpaceOnUse">
<stop stop-color="#8870F9"/>
<stop offset="0.23" stop-color="#6491EC"/>
<stop offset="0.58" stop-color="#35BEDC"/>
<stop offset="0.85" stop-color="#18D9D2"/>
<stop offset="1" stop-color="#0EE4CF"/>
</linearGradient>
<linearGradient id="paint2_linear_567_1046" x1="23.7676" y1="-10.2242" x2="38.2316" y2="14.8238" gradientUnits="userSpaceOnUse">
<stop stop-color="#8870F9"/>
<stop offset="0.23" stop-color="#6491EC"/>
<stop offset="0.58" stop-color="#35BEDC"/>
<stop offset="0.85" stop-color="#18D9D2"/>
<stop offset="1" stop-color="#0EE4CF"/>
</linearGradient>
<clipPath id="clip0_567_1046">
<rect width="305.736" height="40" fill="white"/>
</clipPath>
</defs>
</svg>
