<svg width="301" height="40" viewBox="0 0 301 40" fill="none" xmlns="http://www.w3.org/2000/svg">
<g clip-path="url(#clip0_1044_17495)">
<path d="M77.0884 21.4985H76.9538L72.2806 37.6878C72.0196 38.589 71.1959 39.2088 70.2579 39.2088H67.0283C65.6499 39.2088 64.4429 38.2627 64.084 36.8967L57.9142 13.6445H62.0288C63.4601 13.6445 64.6998 14.6599 65.0179 16.0913L68.6349 32.3294H68.7695L73.6711 14.8761C73.875 14.1502 74.5397 13.6445 75.2941 13.6445H78.9316C79.6901 13.6445 80.3548 14.1502 80.5546 14.8801L85.3706 32.3294H85.5052L89.2283 16.3115C89.5912 14.7496 90.9532 13.6445 92.5151 13.6445H95.9976L89.8726 36.8763C89.5097 38.2546 88.2944 39.2088 86.9039 39.2088H83.7476C82.8056 39.2088 81.9737 38.5849 81.7168 37.6755L77.0884 21.4985Z" fill="#0EE4CF"/>
<path d="M97.6245 26.6779C97.6245 18.9463 103.26 13.3555 110.572 13.3555C117.883 13.3555 123.474 18.9463 123.474 26.6779C123.474 34.4096 117.932 40.0004 110.572 40.0004C103.211 40.0004 97.6245 34.4096 97.6245 26.6779ZM117.932 26.6779C117.932 21.4134 114.344 18.3876 110.572 18.3876C106.8 18.3876 103.166 21.4134 103.166 26.6779C103.166 31.9425 106.8 34.9683 110.572 34.9683C114.344 34.9683 117.932 31.9425 117.932 26.6779Z" fill="#0EE4CF"/>
<path d="M128.242 13.9628H131.3C131.651 13.9628 131.952 14.2238 132.001 14.5704L132.474 17.9225H132.568C134.293 14.7091 137.413 13.6855 139.696 13.6855C140.124 13.6855 140.5 13.7019 140.842 13.7386C141.197 13.7753 141.466 14.0811 141.466 14.44V18.2324C141.466 18.6361 141.119 18.9623 140.716 18.9175C140.337 18.8726 139.945 18.8563 139.558 18.8563C136.295 18.8563 133.037 20.8137 133.037 25.7031V38.6912C133.037 39.0826 132.719 39.3966 132.332 39.3966H128.25C127.858 39.3966 127.544 39.0786 127.544 38.6912V14.6683C127.544 14.2768 127.862 13.9628 128.25 13.9628H128.242Z" fill="#0EE4CF"/>
<path d="M161.79 39.1397L152.582 28.1662C152.158 27.6605 151.334 27.9623 151.334 28.6188V38.6871C151.334 39.0786 151.016 39.3926 150.629 39.3926H146.547C146.156 39.3926 145.842 39.0745 145.842 38.6871V2.78946C145.842 2.39798 146.16 2.08398 146.547 2.08398H150.629C151.02 2.08398 151.334 2.40206 151.334 2.78946V23.8884C151.334 24.5368 152.138 24.8427 152.57 24.3574L161.603 14.1994C161.737 14.0485 161.929 13.9629 162.133 13.9629H166.928C167.54 13.9629 167.862 14.6887 167.45 15.1455L157.949 25.6134C157.708 25.8785 157.704 26.2781 157.937 26.5472L167.944 38.2304C168.335 38.6871 168.009 39.3967 167.405 39.3967H162.333C162.125 39.3967 161.925 39.3029 161.79 39.1438V39.1397Z" fill="#0EE4CF"/>
<path d="M228.26 26.6779C228.26 18.9463 233.895 13.3555 241.207 13.3555C248.519 13.3555 254.11 18.9463 254.11 26.6779C254.11 34.4096 248.568 40.0004 241.207 40.0004C233.846 40.0004 228.26 34.4096 228.26 26.6779ZM248.568 26.6779C248.568 21.4134 244.979 18.3876 241.207 18.3876C237.435 18.3876 233.802 21.4134 233.802 26.6779C233.802 31.9425 237.435 34.9683 241.207 34.9683C244.979 34.9683 248.568 31.9425 248.568 26.6779Z" fill="#0EE4CF"/>
<path d="M258.285 29.4262V14.6684C258.285 14.2769 258.603 13.9629 258.991 13.9629H263.073C263.464 13.9629 263.778 14.281 263.778 14.6684V29.4711C263.778 32.9658 265.736 34.9681 269.043 34.9681C272.35 34.9681 274.54 32.9658 274.54 29.4262V14.6684C274.54 14.2769 274.858 13.9629 275.245 13.9629H279.327C279.719 13.9629 280.033 14.281 280.033 14.6684V29.3773C280.033 35.6206 275.841 39.9961 269.039 39.9961C262.237 39.9961 258.281 35.6165 258.281 29.4222L258.285 29.4262Z" fill="#0EE4CF"/>
<path d="M286.802 13.9628H289.86C290.211 13.9628 290.513 14.2238 290.562 14.5704L291.035 17.9225H291.128C292.853 14.7091 295.973 13.6855 298.257 13.6855C298.685 13.6855 299.06 13.7019 299.403 13.7386C299.745 13.7753 300.026 14.0811 300.026 14.44V18.2324C300.026 18.6361 299.68 18.9623 299.276 18.9175C298.897 18.8726 298.505 18.8563 298.118 18.8563C294.856 18.8563 291.597 20.8137 291.597 25.7031V38.6912C291.597 39.0826 291.279 39.3966 290.892 39.3966H286.81C286.419 39.3966 286.104 39.0786 286.104 38.6912V14.6683C286.104 14.2768 286.423 13.9628 286.81 13.9628H286.802Z" fill="#0EE4CF"/>
<path d="M199.886 22.8651V38.6139C199.886 39.1236 199.47 39.5396 198.96 39.5396H194.54C194.03 39.5396 193.614 39.1236 193.614 38.6139V24.7735C193.614 21.2625 192.015 19.6272 188.912 19.6843C186.245 19.7333 184.117 21.9231 184.117 24.59V38.777C184.117 39.197 183.774 39.5396 183.354 39.5396H178.607C178.187 39.5396 177.845 39.197 177.845 38.777V15.3699C177.845 14.9173 178.212 14.5503 178.664 14.5503H182.706L183.387 18.1388H183.525C184.981 15.8226 187.615 13.959 191.069 13.959C196.521 13.959 199.886 17.3681 199.886 22.8651Z" fill="url(#paint0_linear_1044_17495)"/>
<path d="M218.371 15.3497H223.77C223.99 15.3497 224.166 15.5332 224.166 15.7575V19.8191C224.166 20.0434 223.986 20.2269 223.77 20.2269H218.371C218.151 20.2269 217.975 20.4104 217.975 20.6347V29.6468C217.975 32.7868 219.916 34.0183 222.559 34.0183C223.044 34.0183 223.582 33.9653 224.129 33.8837C224.369 33.847 224.586 34.0387 224.586 34.2874V38.4836C224.586 38.6793 224.455 38.8465 224.268 38.8832C223.554 39.0259 222.608 39.1523 221.323 39.1523C215.667 39.1523 212.446 35.6739 212.446 29.9445V20.6347C212.446 20.4104 212.266 20.2269 212.05 20.2269H209.542C209.322 20.2269 209.147 20.0434 209.147 19.8191V15.7575C209.147 15.5332 209.326 15.3497 209.542 15.3497H212.091C212.311 15.3497 212.487 15.1662 212.487 14.9419V12.801C212.487 11.2107 213.743 9.91797 215.292 9.91797H217.58C217.8 9.91797 217.975 10.1015 217.975 10.3258V14.9419C217.975 15.1662 218.155 15.3497 218.371 15.3497Z" fill="#0EE4CF"/>
<path d="M22.9422 39.3019C21.9798 39.3019 21.0909 38.7921 20.6015 37.9643L0.0815801 3.77123C-0.0856133 3.48986 0.00817815 3.13101 0.289552 2.96381L3.96781 0.782142C4.24918 0.614948 4.60804 0.70874 4.77523 0.990114L22.9993 31.3051L25.9721 26.1711C26.123 25.9142 26.4533 25.8285 26.7102 25.9753L30.4904 28.1774C30.7473 28.3283 30.8329 28.6586 30.6861 28.9155L25.2952 37.9562C24.8099 38.7881 23.9209 39.2978 22.9545 39.2978H22.9422V39.3019Z" fill="url(#paint1_linear_1044_17495)"/>
<path d="M48.429 13.7342C48.6574 13.7423 48.8286 13.5221 48.7675 13.3019L45.7335 2.21414C45.2727 0.456571 43.9352 -0.326384 42.2224 0.122184L31.0409 2.74427C30.8125 2.79728 30.6983 3.05826 30.8166 3.26216L33.2552 7.45423C33.3327 7.58472 33.4835 7.65404 33.6344 7.62142L37.4513 6.78545L31.518 16.7518L22.9626 2.37318C22.8076 2.11219 22.4732 2.03064 22.2122 2.18152L18.4647 4.41212C18.2037 4.56708 18.1221 4.90147 18.273 5.16245L28.3699 22.1387C29.0264 23.2438 30.1804 23.9085 31.465 23.9289C31.4813 23.9289 31.5017 23.9289 31.518 23.9289C32.8229 23.9289 33.9973 23.2601 34.6661 22.1387L42.1327 9.57881L43.2827 13.3509C43.3235 13.4895 43.454 13.5874 43.6008 13.5914L48.429 13.7301V13.7342Z" fill="url(#paint2_linear_1044_17495)"/>
</g>
<defs>
<linearGradient id="paint0_linear_1044_17495" x1="193.434" y1="41.7294" x2="182.424" y2="13.0496" gradientUnits="userSpaceOnUse">
<stop stop-color="#8870F9"/>
<stop offset="0.18" stop-color="#668FED"/>
<stop offset="0.43" stop-color="#40B4E0"/>
<stop offset="0.65" stop-color="#24CED6"/>
<stop offset="0.85" stop-color="#13DED1"/>
<stop offset="1" stop-color="#0EE4CF"/>
</linearGradient>
<linearGradient id="paint1_linear_1044_17495" x1="2.23832e-05" y1="20.0012" x2="30.7595" y2="20.0012" gradientUnits="userSpaceOnUse">
<stop stop-color="#8870F9"/>
<stop offset="0.18" stop-color="#7188EB"/>
<stop offset="0.55" stop-color="#46B7D0"/>
<stop offset="0.84" stop-color="#2BD4C0"/>
<stop offset="1" stop-color="#22DFBA"/>
</linearGradient>
<linearGradient id="paint2_linear_1044_17495" x1="26.6898" y1="-1.79035" x2="42.0716" y2="18.6195" gradientUnits="userSpaceOnUse">
<stop stop-color="#8870F9"/>
<stop offset="0.23" stop-color="#6491EC"/>
<stop offset="0.58" stop-color="#35BEDC"/>
<stop offset="0.85" stop-color="#18D9D2"/>
<stop offset="1" stop-color="#0EE4CF"/>
</linearGradient>
<clipPath id="clip0_1044_17495">
<rect width="300.022" height="40" fill="white"/>
</clipPath>
</defs>
</svg>
