<svg width="634" height="634" viewBox="0 0 634 634" fill="none" xmlns="http://www.w3.org/2000/svg">
<path d="M407.7 305.144C365.114 330.504 313.164 300.624 315.605 300.104C396.11 282.599 403.224 231.809 403.224 231.809C387.152 192.539 343.342 205.181 343.342 205.181C342.074 260.91 275.745 264.048 275.745 264.048C271.485 245.967 271.719 203.748 271.719 203.748C251.615 189.693 247.545 195.659 247.545 195.659C253.885 139.867 279.416 121.88 279.416 121.88C283.67 117.918 302.684 109.01 312.447 107.856L312.796 109.403C312.796 109.403 302.925 134.053 321.843 135.676C337.763 137.071 346.81 117.474 349.277 111.254C369.977 117.67 389.732 132.03 402.875 156.186C433.966 213.335 407.7 305.144 407.7 305.144Z" fill="#8870F9"/>
<path d="M412.303 281.097L515.778 349.569C535.844 362.845 533.264 393.061 511.258 402.742L390.164 456.036C378.902 460.992 366.554 462.965 354.309 461.767C342.064 460.569 330.334 456.239 320.246 449.195L273.742 416.684" stroke="black" stroke-width="3.21" stroke-miterlimit="10"/>
<path d="M412.303 303.179L408.823 300.871L515.798 371.638C535.864 384.914 533.283 415.131 511.277 424.812L390.183 478.106C378.921 483.06 366.574 485.034 354.328 483.836C342.083 482.638 330.353 478.309 320.266 471.265L261.139 429.155" stroke="black" stroke-width="3.21" stroke-miterlimit="10"/>
<path d="M502.349 398.964L391.051 447.953C380.7 452.505 369.353 454.318 358.1 453.216C346.846 452.115 336.066 448.137 326.795 441.663L284.146 411.701C290.018 407.2 296.597 403.708 303.616 401.366C321.197 395.395 338.353 388.242 354.97 379.956C367.583 373.716 378.662 364.768 387.417 353.75C396.171 342.732 402.385 329.917 405.614 316.22C407.845 306.742 409.804 297.156 411.408 287.519L509.361 352.269C527.798 364.468 522.568 390.075 502.349 398.964Z" fill="#0EE4CF"/>
<path d="M215.561 540.941C215.561 540.941 235.076 532.852 238.816 526.752C238.816 526.752 239.52 540.599 235.868 545.329C232.216 550.058 210.394 562.561 209.221 560.995C208.048 559.429 215.561 540.941 215.561 540.941Z" fill="#0EE4CF"/>
<path d="M155.489 573.935C155.489 573.935 159.04 578.753 171.637 573.935C184.235 569.116 211.643 551.371 211.643 551.371C211.643 551.371 203.997 571.9 201.226 574.157C198.456 576.414 146.113 602.053 146.113 602.053C146.113 602.053 122.712 605.381 131.531 588.739L155.489 573.935Z" fill="#0EE4CF"/>
<path d="M230.821 305.702C201.974 316.93 171.447 343.311 180.228 416.367L182.669 435.349" stroke="black" stroke-width="3.21" stroke-miterlimit="10"/>
<path d="M230.776 257.994C235.493 251.26 239.754 243.982 242.366 236.146C244.978 228.31 245.111 219.82 245.84 211.578C247.78 189.477 250.785 171.199 259.313 150.613C266.699 132.798 289.009 109.847 311.206 107.672L313.203 107.501" stroke="black" stroke-width="3.21" stroke-miterlimit="10"/>
<path d="M286.568 304.085C286.46 303.775 286.352 303.483 286.238 303.179" stroke="black" stroke-width="4.21" stroke-miterlimit="10"/>
<path d="M275.744 262.679C274.653 256.269 273.842 250.056 273.208 244.16C273.21 244.049 273.197 243.938 273.17 243.83C269.848 210.907 273.208 186.954 273.208 186.954" stroke="black" stroke-width="3.21" stroke-miterlimit="10"/>
<path d="M353.29 62.8545L348.218 64.8328C348.218 64.9913 348.218 66.9694 348.002 69.74C347.766 73.0488 347.24 76.331 346.43 79.5479C346.88 77.3543 347.533 72.1428 344.667 68.5163C344.623 68.4422 344.572 68.3718 344.515 68.3071C342.613 66.0184 340.268 66.925 338.385 68.4973C337.084 69.5973 335.948 70.8786 335.012 72.3013C335.34 68.0656 334.581 63.8165 332.805 59.9571C331.648 57.3243 330.112 54.8745 328.247 52.6851C331.119 62.5755 327.435 69.0489 327.435 69.0489C317.703 71.3376 310.951 70.8495 305.917 69.9809C301.676 66.0247 303.147 51.7785 303.147 51.7785C298.88 55.2655 299.907 68.7573 299.907 68.7573C299.362 65.2367 299.428 61.6481 300.104 58.1502C297.984 61.1475 296.759 64.6851 296.572 68.3515L296.496 68.3135C296.202 68.238 295.912 68.1467 295.628 68.0408C295.105 67.7657 294.599 67.4614 294.112 67.1279L291.304 65.2259C295.545 43.5872 310.374 29.9816 333.287 33.9758C334.783 34.2336 336.254 34.6152 337.687 35.117C352.783 42.9849 353.29 62.8545 353.29 62.8545Z" fill="#0EE4CF"/>
<path d="M222.534 273.596L216.758 256.212C216.631 255.808 216.402 255.442 216.093 255.15C215.785 254.859 215.407 254.65 214.996 254.545C214.945 254.545 214.888 254.545 214.831 254.507C214.774 254.469 214.761 254.507 214.723 254.507C214.591 254.498 214.457 254.498 214.324 254.507C213.683 254.509 213.067 254.753 212.599 255.191C212.131 255.624 211.756 256.15 211.5 256.735C211.243 257.32 211.111 257.951 211.109 258.59C211.11 259.089 211.189 259.586 211.344 260.06C212.612 263.731 214.869 270.357 215.94 273.374" fill="#0EE4CF"/>
<path d="M221.228 273.596L215.002 254.545C214.951 254.545 214.894 254.545 214.837 254.507C214.78 254.469 214.768 254.507 214.729 254.507L211.464 253.873C209.721 253.549 207.977 253.201 206.234 252.877C204.142 252.459 202.037 252.11 199.951 251.609C199.458 251.47 198.952 251.385 198.442 251.356C197.799 251.354 197.181 251.602 196.718 252.047C196.245 252.48 195.867 253.007 195.611 253.594C195.354 254.181 195.224 254.817 195.228 255.458C195.224 255.952 195.304 256.442 195.462 256.91C196.863 261.018 199.532 268.791 200.382 271.149L221.228 273.596Z" fill="#0EE4CF"/>
<path d="M344.326 186.948C343.692 194.004 343.362 202.544 343.14 213.278C343.14 236.102 317.908 255.001 295.483 259.325L254.362 268.613C248.928 269.666 244.116 266.274 240.337 264.023C236.451 261.709 232.469 258.951 229.667 256.903C225.635 253.955 217.868 256.326 219.459 263.357C219.802 264.694 220.45 265.934 221.351 266.98C222.251 268.025 223.381 268.85 224.652 269.387C225.368 269.708 226.105 269.979 226.859 270.198C227.139 270.268 227.389 270.43 227.568 270.657C227.748 270.883 227.848 271.162 227.852 271.452C227.856 271.741 227.765 272.023 227.592 272.255C227.419 272.487 227.175 272.655 226.897 272.734C223.334 273.964 216.809 274.693 206.285 270.832C192.8 265.868 191.754 296.642 210.191 302H210.261C227.246 307.135 245.524 306.476 263.079 305.74C283.014 304.985 302.851 302.565 322.383 298.506C332.318 296.401 342.525 294.214 351.617 289.719C367.277 281.978 378.562 273.102 389.296 259.287C401.342 243.798 406.483 223.479 409.387 204.427C412.709 182.63 408.119 164.225 396.434 145.465L396.003 144.78" stroke="black" stroke-width="3.21" stroke-miterlimit="10"/>
<path d="M222.534 273.596L216.758 256.212C216.631 255.808 216.402 255.442 216.093 255.15C215.785 254.859 215.407 254.65 214.996 254.545C214.945 254.545 214.888 254.545 214.831 254.507C214.774 254.469 214.761 254.507 214.723 254.507C214.591 254.498 214.457 254.498 214.324 254.507C213.683 254.509 213.067 254.753 212.599 255.191C212.131 255.624 211.756 256.15 211.5 256.735C211.243 257.32 211.111 257.951 211.109 258.59C211.11 259.089 211.189 259.586 211.344 260.06C212.612 263.731 214.869 270.357 215.94 273.374" stroke="black" stroke-width="3.21" stroke-miterlimit="10"/>
<path d="M215.002 254.545C214.951 254.545 214.894 254.545 214.837 254.507C214.78 254.469 214.768 254.507 214.729 254.507L211.464 253.873C209.721 253.549 207.977 253.201 206.234 252.877C204.142 252.459 202.037 252.11 199.951 251.609C199.458 251.47 198.952 251.385 198.442 251.356C197.799 251.354 197.181 251.602 196.718 252.047C196.245 252.48 195.867 253.007 195.611 253.594C195.354 254.181 195.224 254.817 195.228 255.458C195.224 255.952 195.304 256.442 195.462 256.91C196.863 261.018 199.532 268.791 200.382 271.149" stroke="black" stroke-width="3.21" stroke-miterlimit="10"/>
<path d="M294.602 67.7302C294.602 75.9722 296.206 83.8529 300.162 91.1312C303.332 96.9767 307.985 102.867 314.642 104.8C316.118 105.226 317.646 105.439 319.182 105.434C330.48 105.384 332.242 91.9998 332.242 91.9998" stroke="black" stroke-width="3.21" stroke-miterlimit="10"/>
<path d="M347.622 72.5105V72.5485C347.098 76.6378 346.198 80.6707 344.934 84.5945C343.423 89.2754 343.066 94.2523 343.894 99.1005L345.65 109.314C345.73 109.769 345.937 110.193 346.246 110.536C346.555 110.879 346.956 111.128 347.4 111.254C369.691 117.727 389.479 132.011 400.992 152.635C415.352 178.389 417.97 209.404 416.81 238.314C415.79 263.376 411.738 288.292 405.988 312.682C402.472 327.589 395.709 341.536 386.181 353.527C376.653 365.517 364.595 375.256 350.868 382.048C332.804 391.068 314.149 398.853 295.032 405.348C284.911 408.699 275.665 414.264 267.966 421.637C260.266 429.01 254.305 438.007 250.518 447.972L205.593 567.43C203.942 571.84 200.685 575.463 196.476 577.574L153.428 599.2C147.991 601.921 141.79 602.708 135.847 601.431C134.306 601.099 132.901 600.31 131.814 599.167C130.728 598.025 130.011 596.582 129.756 595.026C129.502 593.47 129.722 591.874 130.388 590.445C131.053 589.016 132.134 587.821 133.488 587.014L155.476 573.935L185.711 419.797C187.839 406.045 192.919 392.918 200.603 381.317C208.287 369.716 218.392 359.917 230.224 352.593C231.802 351.631 233.445 350.784 235.144 350.057L300.687 321.596" stroke="black" stroke-width="3.21" stroke-miterlimit="10"/>
<path d="M329.603 32.4865C326.099 31.6514 322.471 31.4665 318.901 31.9413C318.755 31.9445 318.608 31.9572 318.464 31.9793" stroke="black" stroke-width="4.21" stroke-miterlimit="10"/>
<path d="M313.729 107.875C313.729 107.875 302.133 134.459 322.871 135.771C341.479 136.963 348.307 111.679 348.307 111.679" stroke="black" stroke-width="3.21" stroke-miterlimit="10"/>
<path d="M346.164 80.5181C346.297 80.0299 348.294 72.8213 344.477 68.2819C340.661 63.7424 335.487 71.528 334.967 72.3078C335.982 61.1306 328.215 52.654 328.215 52.654C331.081 62.5508 327.391 69.0173 327.391 69.0173C313.209 72.3395 305.404 69.8098 299.869 68.7193C299.325 65.2006 299.394 61.6145 300.072 58.1191C297.947 61.1088 296.721 64.644 296.541 68.3072H296.452C294.345 67.7474 292.347 66.8364 290.543 65.6127L287.734 63.7107C291.982 42.0789 306.805 28.4606 329.718 32.4548C352.631 36.449 353.271 62.798 353.271 62.798L348.167 64.7822C348.167 64.7822 348.212 73.4807 346.164 80.5181Z" stroke="black" stroke-width="3.21" stroke-miterlimit="10"/>
<path d="M303.49 79.3894V89.9075C303.492 90.0355 303.523 90.1617 303.581 90.2752C303.64 90.3893 303.724 90.4876 303.828 90.563C303.931 90.6385 304.051 90.6879 304.177 90.7088C304.304 90.7291 304.434 90.7196 304.555 90.6809C305.383 90.4071 306.144 89.962 306.787 89.3749" stroke="black" stroke-width="3.21" stroke-miterlimit="10"/>
<path d="M297.199 87.3742C300.516 86.0808 301.748 81.2928 299.95 76.6799C298.151 72.0669 294.003 69.3762 290.686 70.6695C287.368 71.9629 286.136 76.7509 287.935 81.3639C289.733 85.9768 293.881 88.6675 297.199 87.3742Z" stroke="black" stroke-width="3.21" stroke-miterlimit="10"/>
<path d="M317.164 90.3817C320.482 89.0884 321.713 84.3004 319.915 79.6874C318.117 75.0744 313.969 72.3837 310.651 73.6771C307.334 74.9705 306.102 79.7591 307.9 84.3714C309.699 88.9844 313.847 91.6757 317.164 90.3817Z" stroke="black" stroke-width="3.21" stroke-miterlimit="10"/>
<path d="M300.699 79.9348C300.699 79.9348 302.665 77.6904 306.786 80.3215" stroke="black" stroke-width="3.21" stroke-miterlimit="10"/>
<path d="M312.797 104.135C312.797 104.135 314.223 108.966 318.42 124.625" stroke="black" stroke-width="3.21" stroke-miterlimit="10"/>
<path d="M207.717 561.787L232.443 548.441C233.86 547.674 235.068 546.57 235.961 545.229C236.855 543.888 237.408 542.349 237.572 540.745C241.68 500.39 240.425 474.879 240.425 474.879" stroke="black" stroke-width="4.21" stroke-miterlimit="10"/>
<path d="M185.274 354.837L90.1172 288.337" stroke="black" stroke-width="3.21" stroke-miterlimit="10"/>
<path d="M179.885 373.16L90.1172 310.419" stroke="black" stroke-width="3.21" stroke-miterlimit="10"/>
<path d="M543.884 246.759V301.201C543.884 303.697 543.158 306.14 541.796 308.232C540.435 310.324 538.495 311.976 536.212 312.987L468.691 342.886L448.048 374.257C447.517 375.034 446.752 375.623 445.864 375.937C444.976 376.252 444.011 376.275 443.109 376.005C442.206 375.734 441.414 375.184 440.845 374.433C440.277 373.682 439.961 372.77 439.946 371.828V355.623L433.022 358.686C431.482 359.359 429.799 359.639 428.124 359.501C426.45 359.363 424.835 358.81 423.426 357.894C422.017 356.978 420.858 355.725 420.053 354.25C419.249 352.775 418.823 351.123 418.814 349.442V303.978C418.815 298.307 420.474 292.76 423.587 288.021C426.699 283.28 431.129 279.553 436.332 277.299L529.124 237.072C530.731 236.374 532.486 236.087 534.23 236.237C535.975 236.387 537.656 236.968 539.12 237.929C540.584 238.891 541.786 240.201 542.617 241.742C543.449 243.284 543.884 245.007 543.884 246.759Z" fill="#D7E8F0"/>
<path d="M461.054 317.916C464.38 311.5 463.48 304.435 459.044 302.135C454.608 299.836 448.315 303.173 444.989 309.589C441.664 316.006 442.564 323.071 447 325.371C451.436 327.67 457.728 324.333 461.054 317.916Z" fill="white"/>
<path d="M489.892 305.574C493.218 299.157 492.318 292.092 487.882 289.793C483.446 287.493 477.154 290.83 473.828 297.247C470.502 303.663 471.402 310.729 475.838 313.028C480.274 315.328 486.566 311.99 489.892 305.574Z" fill="white"/>
<path d="M517.758 292.245C521.084 285.829 520.184 278.763 515.748 276.464C511.312 274.165 505.02 277.502 501.694 283.918C498.368 290.335 499.268 297.4 503.704 299.7C508.14 301.999 514.432 298.661 517.758 292.245Z" fill="white"/>
</svg>
