<svg width="621" height="761" viewBox="0 0 621 761" fill="none" xmlns="http://www.w3.org/2000/svg">
<path d="M310.5 761C481.984 761 621 663.633 621 543.525C621 423.417 481.984 326.05 310.5 326.05C139.016 326.05 0 423.417 0 543.525C0 663.633 139.016 761 310.5 761Z" fill="#F5F5F5"/>
<path d="M359.227 695.826C396.312 695.826 426.376 674.772 426.376 648.799C426.376 622.827 396.312 601.772 359.227 601.772C322.141 601.772 292.077 622.827 292.077 648.799C292.077 674.772 322.141 695.826 359.227 695.826Z" fill="#0EE4CF"/>
<path d="M324.327 489.552L144.722 615.372C139.666 618.98 130.849 618.475 125.005 614.38L61.2455 569.716C55.4168 565.639 54.7774 559.452 59.7586 555.916L239.364 430.096C244.42 426.489 253.238 426.994 259.081 431.089L322.841 475.752C328.744 479.829 329.383 486.016 324.327 489.552Z" fill="#0EE4CF"/>
<path d="M517.717 533.478L531.873 543.453C531.873 543.453 524.735 515.818 528.691 488.002C529.646 481.453 531.598 475.177 534.445 469.494C535.56 466.68 544.095 449.345 536.586 441.336C529.077 433.327 511.457 449.255 512.245 492.079C512.623 506.103 514.462 520.013 517.717 533.478V533.478Z" fill="#8870F9"/>
<path opacity="0.5" d="M517.717 533.478L531.873 543.453C531.873 543.453 524.735 515.818 528.691 488.002C529.646 481.453 531.598 475.177 534.445 469.494C535.56 466.68 544.095 449.345 536.586 441.336C529.077 433.327 511.457 449.255 512.245 492.079C512.623 506.103 514.462 520.013 517.717 533.478V533.478Z" fill="black"/>
<path d="M524.305 538.906C524.171 538.905 524.041 538.854 523.932 538.76C523.823 538.667 523.741 538.535 523.695 538.383C523.695 538.202 518.298 520.182 518.58 491.284C518.863 462.386 531.457 446.692 531.591 446.548C531.649 446.476 531.718 446.418 531.795 446.379C531.871 446.34 531.954 446.32 532.037 446.32C532.12 446.32 532.202 446.34 532.279 446.379C532.355 446.418 532.425 446.476 532.483 446.548C532.543 446.62 532.59 446.705 532.622 446.8C532.655 446.894 532.672 446.996 532.672 447.098C532.672 447.2 532.655 447.301 532.622 447.396C532.59 447.49 532.543 447.576 532.483 447.648C532.364 447.792 520.141 462.891 519.859 491.302C519.576 519.713 524.855 537.679 524.899 537.86C524.93 537.954 524.945 538.055 524.943 538.157C524.941 538.259 524.922 538.359 524.887 538.451C524.852 538.544 524.803 538.627 524.741 538.696C524.679 538.765 524.607 538.818 524.528 538.852L524.305 538.906Z" fill="#0EE4CF"/>
<path d="M528.692 541.269L552.066 558.009C552.066 558.009 562.772 556.097 561.969 543.866C561.166 531.636 556.809 528.768 562.222 523.392C567.634 518.017 569.032 517.674 568.764 512.407C568.497 507.139 565.597 504.849 564.214 502.774C562.831 500.7 559.025 496.298 561.716 489.967C564.408 483.635 568.051 477.484 562.638 474.562C559.397 472.758 553.955 475.013 550.356 479.648C546.758 484.284 543.769 487.64 540.364 488.668C536.959 489.696 529.822 489.822 530.06 496.966C530.298 504.109 531.829 506.58 530.402 509.737C527.71 515.708 516.216 518.937 528.692 541.269Z" fill="#8870F9"/>
<path opacity="0.2" d="M528.692 541.269L552.066 558.009C552.066 558.009 562.772 556.097 561.969 543.866C561.166 531.636 556.809 528.768 562.222 523.392C567.634 518.017 569.032 517.674 568.764 512.407C568.497 507.139 565.597 504.849 564.214 502.774C562.831 500.7 559.025 496.298 561.716 489.967C564.408 483.635 568.051 477.484 562.638 474.562C559.397 472.758 553.955 475.013 550.356 479.648C546.758 484.284 543.769 487.64 540.364 488.668C536.959 489.696 529.822 489.822 530.06 496.966C530.298 504.109 531.829 506.58 530.402 509.737C527.71 515.708 516.216 518.937 528.692 541.269Z" fill="black"/>
<path d="M538.208 548.846C538.046 548.847 537.89 548.772 537.771 548.638C537.653 548.504 537.58 548.321 537.569 548.125C537.569 547.71 535.012 505.427 559.219 477.665C559.343 477.524 559.508 477.449 559.678 477.455C559.848 477.462 560.009 477.551 560.126 477.701C560.242 477.852 560.304 478.053 560.299 478.259C560.293 478.465 560.22 478.661 560.096 478.802C536.305 506.04 538.833 547.583 538.863 547.998C538.875 548.206 538.82 548.411 538.708 548.57C538.597 548.729 538.439 548.828 538.268 548.846H538.208Z" fill="#0EE4CF"/>
<path d="M542.46 512.606C542.298 512.607 542.142 512.532 542.023 512.399C541.904 512.265 541.832 512.081 541.821 511.885C541.639 508.638 540.916 505.471 539.694 502.574C538.472 499.678 536.778 497.113 534.713 495.037C534.645 494.976 534.587 494.9 534.543 494.812C534.499 494.725 534.469 494.628 534.456 494.526C534.443 494.425 534.446 494.322 534.466 494.222C534.486 494.122 534.522 494.028 534.572 493.945C534.622 493.862 534.684 493.792 534.756 493.739C534.829 493.685 534.909 493.649 534.992 493.633C535.076 493.618 535.161 493.622 535.243 493.646C535.325 493.67 535.403 493.713 535.471 493.774C537.701 495.978 539.53 498.719 540.843 501.824C542.156 504.929 542.924 508.33 543.099 511.813C543.112 512.016 543.058 512.216 542.949 512.371C542.841 512.527 542.686 512.624 542.519 512.642L542.46 512.606Z" fill="#0EE4CF"/>
<path d="M540.675 519.821C540.516 519.824 540.362 519.753 540.244 519.623C540.127 519.475 540.062 519.278 540.062 519.073C540.062 518.868 540.127 518.67 540.244 518.523C540.497 518.18 546.593 510.189 560.689 512.534C560.856 512.569 561.006 512.68 561.108 512.844C561.21 513.008 561.257 513.213 561.24 513.418C561.214 513.622 561.123 513.806 560.987 513.931C560.851 514.056 560.68 514.111 560.511 514.085C547.129 511.866 541.255 519.497 541.181 519.497C541.126 519.598 541.051 519.681 540.962 519.738C540.874 519.794 540.775 519.823 540.675 519.821V519.821Z" fill="#0EE4CF"/>
<path d="M89.1253 509.196L82.1516 527.145C82.1516 527.145 75.0887 499.473 58.8218 479.288C54.9832 474.545 50.4435 470.72 45.4394 468.014C43.2239 466.462 28.087 458.056 30.5702 446.367C33.0533 434.678 54.9558 435.544 74.3453 471.387C80.5661 483.184 85.5322 495.887 89.1253 509.196V509.196Z" fill="#8870F9"/>
<path opacity="0.5" d="M89.1253 509.196L82.1516 527.145C82.1516 527.145 75.0887 499.473 58.8218 479.288C54.9832 474.545 50.4435 470.72 45.4394 468.014C43.2239 466.462 28.087 458.056 30.5702 446.367C33.0533 434.678 54.9558 435.544 74.3453 471.387C80.5661 483.184 85.5322 495.887 89.1253 509.196V509.196Z" fill="black"/>
<path d="M85.8859 518.326C85.7443 518.325 85.6069 518.268 85.4943 518.164C85.3817 518.06 85.3 517.914 85.2614 517.749C85.2614 517.568 81.2467 499.295 67.6413 475.935C54.0359 452.575 37.0106 448.715 36.9065 448.679C36.8234 448.661 36.7439 448.624 36.6727 448.569C36.6015 448.514 36.5399 448.443 36.4916 448.359C36.4432 448.275 36.409 448.181 36.3909 448.081C36.3728 447.981 36.3712 447.877 36.3861 447.777C36.4187 447.575 36.5143 447.397 36.6529 447.279C36.7916 447.162 36.9624 447.114 37.1296 447.145C37.308 447.145 54.9727 451.294 68.7714 475.033C82.5701 498.772 86.6145 517.172 86.6145 517.352C86.6555 517.553 86.6303 517.765 86.5442 517.944C86.4581 518.122 86.3179 518.253 86.1535 518.308L85.8859 518.326Z" fill="#0EE4CF"/>
<path d="M83.7449 523.178L72.2955 552.996C72.2955 552.996 62.5859 558.787 57.5452 548.162C52.5045 537.537 54.7201 532.179 47.7613 531.476C40.8024 530.772 39.4642 531.476 37.2189 526.948C34.9737 522.42 36.297 518.524 36.4606 515.872C36.6242 513.221 37.7245 506.961 32.5351 503.588C27.3458 500.215 21.4724 497.689 24.5801 491.556C26.4239 487.948 31.9255 485.946 37.0703 487.299C42.215 488.652 46.2148 489.337 49.5307 487.876C52.8465 486.415 58.7496 481.581 61.9019 487.624C65.0542 493.667 64.8758 496.751 67.5969 498.447C72.5929 501.441 83.5664 496.174 83.7449 523.178Z" fill="#8870F9"/>
<path opacity="0.2" d="M83.7449 523.178L72.2955 552.996C72.2955 552.996 62.5859 558.787 57.5452 548.162C52.5045 537.537 54.7201 532.179 47.7613 531.476C40.8024 530.772 39.4642 531.476 37.2189 526.948C34.9737 522.42 36.297 518.524 36.4606 515.872C36.6242 513.221 37.7245 506.961 32.5351 503.588C27.3458 500.215 21.4724 497.689 24.5801 491.556C26.4239 487.948 31.9255 485.946 37.0703 487.299C42.215 488.652 46.2148 489.337 49.5307 487.876C52.8465 486.415 58.7496 481.581 61.9019 487.624C65.0542 493.667 64.8758 496.751 67.5969 498.447C72.5929 501.441 83.5664 496.174 83.7449 523.178Z" fill="black"/>
<path d="M79.0758 536.094C78.9632 536.094 78.8525 536.058 78.7557 535.988C78.6588 535.918 78.5793 535.817 78.5257 535.697C78.3473 535.336 60.9651 499.421 28.669 493.342C28.5846 493.327 28.5035 493.291 28.4306 493.237C28.3577 493.183 28.2944 493.112 28.2445 493.028C28.1946 492.944 28.1591 492.849 28.1401 492.748C28.1211 492.647 28.1189 492.542 28.1337 492.44C28.1445 492.339 28.1722 492.241 28.2151 492.152C28.258 492.064 28.3153 491.987 28.3834 491.926C28.4515 491.866 28.5291 491.822 28.6114 491.799C28.6938 491.776 28.7791 491.773 28.8623 491.791C61.7829 497.996 79.4178 534.561 79.6409 534.922C79.6946 535.042 79.7219 535.176 79.7202 535.313C79.7184 535.449 79.6876 535.583 79.6308 535.701C79.574 535.819 79.4931 535.917 79.3958 535.986C79.2986 536.055 79.1884 536.092 79.0758 536.094V536.094Z" fill="#0EE4CF"/>
<path d="M58.6887 509.143C58.5741 509.142 58.4616 509.106 58.3625 509.036C58.2633 508.966 58.181 508.866 58.1237 508.746C56.647 505.758 55.6958 502.432 55.3299 498.977C54.964 495.522 55.1912 492.012 55.9974 488.669C56.0257 488.573 56.0693 488.485 56.1257 488.409C56.1822 488.334 56.2503 488.272 56.3262 488.229C56.4022 488.185 56.4844 488.16 56.5683 488.155C56.6522 488.15 56.7361 488.165 56.8152 488.2C56.8943 488.234 56.967 488.287 57.0292 488.355C57.0915 488.424 57.142 488.507 57.1779 488.599C57.2138 488.691 57.2344 488.791 57.2385 488.892C57.2426 488.994 57.2301 489.096 57.2018 489.192C56.4748 492.324 56.2778 495.603 56.6228 498.83C56.9678 502.057 57.8476 505.166 59.2091 507.97C59.2516 508.059 59.2791 508.157 59.2901 508.259C59.3011 508.36 59.2954 508.464 59.2732 508.563C59.2511 508.661 59.213 508.754 59.1612 508.835C59.1094 508.916 59.0448 508.984 58.9712 509.034C58.8864 509.1 58.789 509.137 58.6887 509.143V509.143Z" fill="#0EE4CF"/>
<path d="M44.4301 522.853C44.3409 522.851 44.2529 522.828 44.1712 522.785C44.0895 522.741 44.0157 522.679 43.9543 522.6C43.8945 522.528 43.8471 522.442 43.8147 522.348C43.7823 522.254 43.7656 522.152 43.7656 522.05C43.7656 521.948 43.7823 521.847 43.8147 521.752C43.8471 521.658 43.8945 521.572 43.9543 521.5C54.452 509.865 63.2844 512.246 63.5817 512.354C63.6639 512.378 63.7415 512.42 63.81 512.48C63.8784 512.54 63.9365 512.616 63.9807 512.703C64.0249 512.79 64.0545 512.887 64.0677 512.988C64.0809 513.089 64.0774 513.193 64.0576 513.292C64.0402 513.393 64.0061 513.489 63.9572 513.573C63.9084 513.658 63.8459 513.729 63.7735 513.783C63.7011 513.837 63.6204 513.873 63.5363 513.887C63.4522 513.902 63.3664 513.896 63.2843 513.87C63.1951 513.87 54.7791 511.615 44.8167 522.654C44.7082 522.768 44.5729 522.838 44.4301 522.853V522.853Z" fill="#0EE4CF"/>
<path d="M83.9067 145.825C83.9083 140.573 85.0479 135.414 87.2114 130.864C89.3748 126.314 92.4861 122.535 96.2333 119.904L253.134 10.0119C254.181 9.27977 255.349 8.8414 256.554 8.72905C257.759 8.61669 258.969 8.8332 260.096 9.36265C261.222 9.89211 262.237 10.7211 263.065 11.7886C263.893 12.8562 264.513 14.1352 264.881 15.5318C264.459 13.2943 263.671 11.1828 262.562 9.32322C261.453 7.46365 260.047 5.89419 258.427 4.70855L257.862 4.31169C253.958 1.49359 249.499 0.00427467 244.956 0.000437018V0.000437018C243.504 -0.0162473 242.075 0.445083 240.822 1.33531L83.9216 111.281C80.1686 113.906 77.0518 117.684 74.8852 122.234C72.7186 126.785 71.5786 131.948 71.5801 137.203V548.829C71.5819 550.548 71.9562 552.237 72.6655 553.726C73.3748 555.215 74.3942 556.452 75.6215 557.312C76.8489 558.173 78.2411 558.627 79.6587 558.629C81.0762 558.631 82.4694 558.182 83.6985 557.325L83.9067 557.181V145.825Z" fill="#37474F"/>
<path d="M252.926 456.055L96.0257 565.947C94.7984 566.809 93.4056 567.263 91.9875 567.264C90.5695 567.266 89.1761 566.814 87.9477 565.954C86.7193 565.095 85.6991 563.858 84.9898 562.369C84.2805 560.879 83.9071 559.189 83.9072 557.469V145.825C83.9088 140.573 85.0484 135.413 87.2119 130.863C89.3754 126.314 92.4867 122.534 96.2338 119.903L253.134 10.0113C254.363 9.15464 255.757 8.70485 257.174 8.70704C258.592 8.70923 259.984 9.16332 261.211 10.0238C262.439 10.8843 263.458 12.121 264.167 13.6099C264.877 15.0989 265.251 16.7879 265.253 18.5076V430.133C265.254 435.386 264.116 440.547 261.952 445.098C259.788 449.648 256.675 453.427 252.926 456.055Z" fill="#455A64"/>
<path d="M83.9057 557.47V145.827C83.9074 141.342 84.7408 136.916 86.3443 132.875L74.211 123.855C72.4829 128.025 71.5817 132.627 71.5791 137.294V552.365C71.5794 553.998 71.9289 555.603 72.5936 557.022C73.2582 558.442 74.2151 559.628 75.3708 560.465L81.6307 564.974C83.7974 566.544 86.274 567.373 88.7977 567.374H91.9203C90.858 567.362 89.8081 567.096 88.8304 566.592C87.8527 566.088 86.9665 565.355 86.2222 564.436C85.478 563.516 84.8904 562.428 84.4929 561.233C84.0954 560.037 83.8959 558.759 83.9057 557.47V557.47Z" fill="#8870F9"/>
<path d="M247.526 49.5869V395.66C247.523 400.3 246.515 404.857 244.602 408.875C242.689 412.893 239.939 416.229 236.627 418.551L98.0754 515.581C97.0309 516.317 95.8482 516.714 94.6406 516.736C95.0403 517.857 95.6312 518.864 96.3744 519.689C97.1177 520.514 97.9964 521.138 98.9529 521.522C99.9094 521.905 100.922 522.038 101.924 521.913C102.926 521.788 103.895 521.407 104.767 520.794L243.318 423.746C246.629 421.425 249.378 418.088 251.288 414.07C253.199 410.051 254.204 405.494 254.203 400.855V58.2094C254.206 56.0104 253.517 53.8929 252.276 52.2901C251.035 50.6873 249.336 49.7203 247.526 49.5869V49.5869Z" fill="#37474F"/>
<path d="M94.6414 516.646C95.849 516.624 97.0317 516.227 98.0762 515.491L236.628 418.461C239.929 416.147 242.672 412.824 244.584 408.824C246.496 404.823 247.511 400.284 247.527 395.66V49.5869C246.136 49.6012 244.765 49.9893 243.513 50.7233L104.961 147.754C101.647 150.072 98.8954 153.409 96.9822 157.427C95.0689 161.445 94.0616 166.004 94.0615 170.645V513.2C94.0601 514.404 94.2625 515.595 94.6563 516.7L94.6414 516.646Z" fill="#8870F9"/>
<g opacity="0.5">
<path d="M94.6414 516.647C95.849 516.625 97.0317 516.228 98.0762 515.492L236.628 418.462C239.929 416.148 242.672 412.825 244.584 408.825C246.496 404.824 247.511 400.285 247.527 395.661V49.5879C246.136 49.6021 244.765 49.9903 243.513 50.7243L104.961 147.755C101.647 150.073 98.8954 153.41 96.9822 157.428C95.0689 161.446 94.0616 166.005 94.0615 170.646V513.201C94.0601 514.405 94.2625 515.596 94.6563 516.701L94.6414 516.647Z" fill="#0EE4CF"/>
</g>
<path d="M152.617 97.0493C152.57 98.0988 152.321 99.1202 151.889 100.032C151.458 100.943 150.857 101.72 150.134 102.299C148.751 103.255 147.636 102.479 147.636 100.495C147.683 99.4434 147.934 98.4204 148.368 97.5084C148.802 96.5965 149.407 95.8213 150.134 95.2455C151.502 94.4157 152.617 95.1192 152.617 97.0493Z" fill="#8870F9"/>
<path d="M161.91 90.5544C161.86 91.6051 161.608 92.627 161.174 93.5385C160.741 94.45 160.137 95.2257 159.412 95.8037C158.029 96.7597 156.914 95.984 156.914 93.9998C156.962 92.9484 157.213 91.9254 157.647 91.0135C158.081 90.1016 158.685 89.3264 159.412 88.7505C160.78 87.8486 161.91 88.6242 161.91 90.5544Z" fill="#8870F9"/>
<path d="M199.364 67.8062L169.239 89.0017C168.035 89.8315 167.068 89.0017 167.068 87.0174C167.081 86.0337 167.284 85.0672 167.661 84.1961C168.038 83.325 168.579 82.5737 169.239 82.0027L199.409 60.8793C200.599 60.0315 201.565 60.8793 201.565 62.8456C201.541 63.8229 201.33 64.7801 200.948 65.6412C200.566 66.5022 200.024 67.2435 199.364 67.8062V67.8062Z" fill="#8870F9"/>
<path d="M194.266 469.044C196.065 469.044 197.24 471.371 197.24 474.961C197.24 480.589 194.34 487.389 190.891 489.807L176.453 499.926C175.808 500.414 175.071 500.693 174.312 500.738C172.512 500.738 171.338 498.411 171.338 494.821C171.338 489.175 174.312 482.375 177.687 479.976L192.125 469.856C192.774 469.365 193.517 469.086 194.281 469.044M194.281 467.547C193.3 467.582 192.344 467.938 191.515 468.575L177.077 478.677C173.226 481.365 170.104 488.598 170.104 494.912C170.104 499.548 171.843 502.326 174.312 502.326C175.293 502.29 176.248 501.935 177.077 501.297L191.515 491.196C195.352 488.508 198.474 481.274 198.474 474.961C198.474 470.325 196.749 467.547 194.281 467.547V467.547Z" fill="#8870F9"/>
<path d="M114.508 194.908V582.741C114.508 589.776 116.634 594.484 119.876 596.035H119.965L133.793 605.217L133.704 590.317L132.217 188.18L117.63 179.16C115.673 184.078 114.608 189.448 114.508 194.908V194.908Z" fill="#E6E6E6"/>
<path d="M134.551 606.715L119.592 596.776C115.89 594.972 113.764 589.687 113.764 582.652V194.819C113.843 189.194 114.923 183.656 116.931 178.584L117.258 177.736L132.93 187.459V188L134.417 590.138L134.551 606.715ZM120.351 595.225L133.049 603.667V590.282L131.562 188.686L118.076 180.316C116.37 184.889 115.449 189.836 115.37 194.855V582.688C115.37 589.037 117.198 593.691 120.276 595.152L120.455 595.261L120.351 595.225Z" fill="#E6E6E6"/>
<path d="M117.6 179.195L132.186 188.215L288.314 78.016L298.722 70.6562L284.314 60.8071L283.912 60.5185C281.608 58.8409 278.604 58.9491 275.288 61.2761L127.517 164.764C123.104 168.273 119.651 173.297 117.6 179.195V179.195Z" fill="#0EE4CF"/>
<path d="M132.186 189.1C132.066 189.098 131.949 189.061 131.844 188.991L117.257 179.972C117.171 179.922 117.095 179.852 117.032 179.765C116.969 179.679 116.921 179.578 116.89 179.469C116.86 179.36 116.848 179.244 116.854 179.129C116.861 179.014 116.887 178.902 116.93 178.799C119.055 172.753 122.61 167.605 127.145 164.008L274.946 60.4835C278.366 58.1024 281.696 57.8318 284.313 59.7439H284.432L284.73 59.9603L299.123 69.7914C299.236 69.8744 299.329 69.9908 299.394 70.1297C299.459 70.2686 299.494 70.4254 299.495 70.5852C299.497 70.7433 299.464 70.8992 299.398 71.036C299.333 71.1727 299.237 71.2851 299.123 71.3608L132.587 188.919C132.47 189.024 132.331 189.087 132.186 189.1V189.1ZM118.58 178.727L132.171 187.169L297.22 70.6573L283.525 61.2772L283.421 61.1689C281.295 59.6898 278.544 59.9964 275.659 62.0168L127.859 165.541C123.797 168.778 120.578 173.352 118.58 178.727V178.727Z" fill="#0EE4CF"/>
<path d="M128.811 204.649V590.678C128.811 596.757 130.416 601.122 132.959 603.179L133.807 603.738C136.022 605.001 138.803 604.73 141.821 602.601L213.268 552.598L289.681 496.858C293.594 493.888 296.835 489.781 299.109 484.908C301.384 480.035 302.62 474.551 302.707 468.952V82.9237C302.707 77.0431 301.22 72.786 298.811 70.6394C298.404 70.2697 297.959 69.9664 297.487 69.7374C296.198 69.1844 294.82 69.0073 293.464 69.2204C292.107 69.4335 290.812 70.0308 289.681 70.9641L141.881 176.238C137.711 178.886 134.338 183.066 132.245 188.18C130.1 193.289 128.926 198.917 128.811 204.649V204.649Z" fill="#FAFAFA"/>
<path d="M289.681 496.859C259.274 518.866 180.154 576.139 140.989 604.767C139.82 605.615 138.487 606.072 137.126 606.092C135.764 606.112 134.423 605.694 133.238 604.88C132.053 604.066 131.067 602.885 130.381 601.458C129.695 600.031 129.332 598.41 129.331 596.758V199.797C129.331 195.279 130.305 190.838 132.157 186.918C134.009 182.997 136.674 179.732 139.888 177.447L290.335 70.4418C291.504 69.6146 292.832 69.1757 294.185 69.169C295.538 69.1624 296.869 69.5883 298.043 70.4039C299.218 71.2196 300.194 72.3961 300.874 73.8151C301.555 75.2341 301.915 76.8455 301.919 78.487V470.577C301.92 475.866 300.794 481.066 298.65 485.671C296.506 490.276 293.416 494.131 289.681 496.859Z" fill="#FAFAFA"/>
<path d="M289.251 496.065C265.371 513.31 241.501 530.603 217.64 547.944L175.263 578.701L155.933 592.771L147.472 598.94C144.87 600.834 142.104 603.54 139.22 604.748C134.447 606.769 130.15 602.133 130.031 596.415C130.031 595.495 130.031 594.611 130.031 593.655V229.705C130.031 220.018 130.031 210.314 130.031 200.627C129.976 196.041 130.931 191.52 132.797 187.53C134.664 183.541 137.373 180.229 140.647 177.934C144.097 175.463 147.562 173.028 151.056 170.574L199.619 135.904L257.237 94.9379C268.166 87.1813 279.065 79.3525 289.95 71.6319C293.34 69.2508 297.607 69.4853 299.971 73.7965C300.808 75.5177 301.201 77.5026 301.102 79.4968V469.061C301.251 474.441 300.23 479.774 298.142 484.524C296.054 489.273 292.972 493.272 289.206 496.119C288.388 496.733 289.132 498.302 289.95 497.689C293.91 494.714 297.162 490.536 299.384 485.569C301.606 480.602 302.721 475.018 302.618 469.368V107.24C302.618 97.8241 302.693 88.3899 302.618 78.9556C302.656 77.067 302.27 75.2013 301.5 73.5588C300.731 71.9163 299.608 70.5588 298.251 69.6318C296.894 68.7049 295.354 68.2435 293.798 68.2972C292.241 68.3508 290.726 68.9174 289.414 69.9363C285.786 72.4797 282.188 75.0773 278.589 77.6388L228.718 113.229L170.579 154.574C160.319 161.88 149.911 169.131 139.696 176.491C136.257 178.946 133.413 182.459 131.452 186.675C129.491 190.891 128.483 195.66 128.529 200.501C128.529 203.748 128.529 206.995 128.529 210.241V594.881C128.529 595.495 128.529 596.126 128.529 596.685C128.545 598.298 128.871 599.885 129.482 601.318C130.093 602.751 130.972 603.99 132.048 604.938C133.124 605.886 134.368 606.516 135.68 606.778C136.993 607.039 138.337 606.925 139.606 606.444C142.417 605.308 145.063 602.746 147.591 600.906L156.215 594.611L175.545 580.577C203.658 560.133 231.796 539.725 259.958 519.353L290.039 497.58C290.812 497.039 290.069 495.47 289.251 496.065Z" fill="#EBEBEB"/>
<path d="M139.83 177.393L290.337 70.4418C291.506 69.6146 292.833 69.1757 294.186 69.169C295.54 69.1624 296.87 69.5883 298.045 70.4039C299.219 71.2196 300.195 72.3961 300.876 73.8151C301.556 75.2341 301.916 76.8455 301.92 78.487V95.714L129.317 216.573V199.761C129.31 195.245 130.277 190.804 132.121 186.881C133.965 182.957 136.622 179.686 139.83 177.393Z" fill="#EBEBEB"/>
<path d="M243.23 271.297C258.493 239.227 258.493 204.564 243.231 193.874C227.969 183.184 203.224 200.516 187.962 232.585C172.7 264.655 172.699 299.318 187.962 310.008C203.224 320.698 227.968 303.366 243.23 271.297Z" fill="#8870F9"/>
<path opacity="0.5" d="M243.23 271.297C258.493 239.227 258.493 204.564 243.231 193.874C227.969 183.184 203.224 200.516 187.962 232.585C172.7 264.655 172.699 299.318 187.962 310.008C203.224 320.698 227.968 303.366 243.23 271.297Z" fill="#0EE4CF"/>
<path d="M208.587 252.146C208.356 252.146 208.128 252.091 207.915 251.984C207.702 251.877 207.509 251.721 207.346 251.523C207.183 251.325 207.054 251.091 206.966 250.832C206.877 250.574 206.832 250.297 206.832 250.018V236.002C206.961 232.676 207.743 229.437 209.114 226.553C210.485 223.669 212.405 221.225 214.713 219.424C215.647 218.49 216.794 217.924 218.001 217.802C219.207 217.68 220.416 218.008 221.465 218.741C222.514 219.474 223.353 220.579 223.871 221.906C224.389 223.234 224.561 224.722 224.363 226.171V240.205C224.363 240.769 224.178 241.311 223.849 241.71C223.52 242.109 223.074 242.333 222.608 242.333C222.143 242.333 221.697 242.109 221.368 241.71C221.039 241.311 220.854 240.769 220.854 240.205V226.099C221.086 225.394 221.1 224.611 220.893 223.894C220.685 223.178 220.271 222.577 219.727 222.203C219.182 221.829 218.545 221.706 217.932 221.859C217.319 222.011 216.772 222.428 216.393 223.032C214.623 224.466 213.15 226.376 212.088 228.612C211.025 230.849 210.402 233.353 210.267 235.93V249.946C210.283 250.507 210.115 251.054 209.801 251.466C209.486 251.878 209.049 252.123 208.587 252.146V252.146Z" fill="#37474F"/>
<path d="M229.759 231.166C229.348 230.96 228.901 230.883 228.459 230.943C228.017 231.003 227.595 231.197 227.231 231.509L203.857 247.888C202.832 248.669 201.983 249.748 201.389 251.027C200.453 252.869 199.94 254.98 199.902 257.142V281.693C199.849 282.381 199.926 283.075 200.127 283.722C200.328 284.369 200.648 284.952 201.061 285.427C201.188 285.547 201.328 285.644 201.478 285.715V285.715C201.874 285.894 202.299 285.955 202.719 285.892C203.138 285.829 203.538 285.645 203.887 285.355L227.231 268.957C228.449 267.903 229.446 266.516 230.14 264.909C230.835 263.301 231.209 261.518 231.231 259.704V235.117C231.313 234.357 231.219 233.585 230.959 232.887C230.699 232.189 230.283 231.593 229.759 231.166V231.166Z" fill="#8870F9"/>
<path d="M218.308 256.764L220.568 264.629L212.643 270.167L214.62 260.462L214.903 259.091C213.564 259.091 212.643 257.882 212.643 255.682C212.653 254.786 212.778 253.897 213.014 253.048C213.632 250.704 214.898 248.69 216.598 247.348C218.784 245.815 220.568 247.059 220.568 250.126C220.459 252.586 219.662 254.928 218.308 256.764V256.764Z" fill="#455A64"/>
<path d="M214.563 260.37L214.845 258.999C213.507 258.999 212.585 257.79 212.585 255.59C212.595 254.694 212.72 253.805 212.957 252.956L218.31 256.762L220.57 264.627L214.563 260.37Z" fill="#37474F"/>
<path d="M273.326 342.735L157.941 423.494C153.168 426.832 149.302 423.278 149.302 415.576V394.38C149.302 386.659 153.168 377.694 157.941 374.357L273.326 293.598C278.099 290.26 281.965 293.796 281.965 301.517V322.712C281.891 330.433 278.025 339.38 273.326 342.735Z" fill="#8870F9"/>
<path d="M178.684 372.445H176.453V394.867H178.684V372.445Z" fill="#FAFAFA"/>
<path d="M185.988 378.854L169.908 390.065L171.023 392.419L187.103 381.208L185.988 378.854Z" fill="#FAFAFA"/>
<path d="M172.456 378.545L171.341 380.889L182.66 388.817L183.775 386.473L172.456 378.545Z" fill="#FAFAFA"/>
<path d="M183.845 369.847L172.522 393.748L174.463 395.101L185.786 371.199L183.845 369.847Z" fill="#FAFAFA"/>
<path d="M216.702 347.335H214.472V369.757H216.702V347.335Z" fill="#FAFAFA"/>
<path d="M223.024 351.808L207.018 363.02L208.133 365.363L224.139 354.152L223.024 351.808Z" fill="#FAFAFA"/>
<path d="M210.492 353.428L209.377 355.771L220.696 363.7L221.811 361.356L210.492 353.428Z" fill="#FAFAFA"/>
<path d="M221.785 344.537L210.462 368.438L212.402 369.791L223.725 345.89L221.785 344.537Z" fill="#FAFAFA"/>
<path d="M254.725 322.208H252.494V344.63H254.725V322.208Z" fill="#FAFAFA"/>
<path d="M262.339 328.4L246.259 339.611L247.374 341.965L263.454 330.754L262.339 328.4Z" fill="#FAFAFA"/>
<path d="M248.515 328.301L247.399 330.645L258.718 338.573L259.834 336.229L248.515 328.301Z" fill="#FAFAFA"/>
<path d="M258.307 320.825L246.984 344.617L248.916 345.97L260.239 322.178L258.307 320.825Z" fill="#FAFAFA"/>
<path d="M276.672 371.922C278.159 371.922 278.917 374.718 278.917 377.496V398.692C278.917 405.131 275.631 412.87 271.765 415.594L156.454 496.353C155.869 496.806 155.199 497.073 154.506 497.129C153.019 497.129 152.276 494.333 152.276 491.555V470.36C152.276 463.92 155.547 456.181 159.428 453.457L274.813 372.698C275.393 372.246 276.058 371.979 276.746 371.922M276.746 368.314C275.535 368.369 274.357 368.804 273.326 369.577L157.941 450.337C153.168 453.674 149.302 462.639 149.302 470.36V491.555C149.302 497.291 151.443 500.737 154.506 500.737C155.722 500.686 156.906 500.25 157.941 499.474L273.326 418.715C278.099 415.377 281.965 406.412 281.965 398.692V377.496C281.965 371.76 279.809 368.314 276.746 368.314V368.314Z" fill="#8870F9"/>
<path d="M200.14 433.297V429.66L201.317 428.84C201.542 428.683 201.735 428.598 201.894 428.585C202.054 428.57 202.176 428.623 202.259 428.744C202.344 428.863 202.386 429.042 202.386 429.282C202.386 429.524 202.343 429.761 202.258 429.995C202.172 430.227 202.049 430.446 201.886 430.652C201.725 430.856 201.53 431.039 201.301 431.198L200.513 431.748V431.13L201.199 430.652C201.319 430.568 201.419 430.478 201.499 430.382C201.579 430.286 201.638 430.185 201.677 430.077C201.717 429.969 201.736 429.855 201.736 429.735C201.736 429.615 201.717 429.527 201.677 429.472C201.638 429.416 201.578 429.395 201.498 429.408C201.418 429.42 201.317 429.468 201.196 429.553L200.771 429.849V432.857L200.14 433.297ZM201.751 430.519L202.492 431.657L201.796 432.142L201.071 430.993L201.751 430.519ZM203.804 430.796C203.573 430.956 203.375 431.038 203.209 431.04C203.044 431.04 202.917 430.966 202.828 430.819C202.738 430.671 202.694 430.453 202.694 430.165C202.694 429.885 202.738 429.607 202.828 429.333C202.917 429.059 203.043 428.806 203.205 428.575C203.368 428.343 203.559 428.15 203.779 427.997C203.926 427.894 204.064 427.827 204.191 427.797C204.319 427.764 204.431 427.772 204.526 427.821C204.622 427.868 204.697 427.961 204.75 428.097C204.804 428.233 204.83 428.417 204.83 428.649V428.857L202.941 430.174V429.705L204.246 428.795C204.246 428.686 204.227 428.603 204.188 428.546C204.149 428.489 204.095 428.461 204.026 428.462C203.958 428.461 203.879 428.492 203.789 428.555C203.695 428.62 203.611 428.705 203.539 428.809C203.467 428.911 203.41 429.021 203.37 429.138C203.329 429.254 203.308 429.366 203.307 429.475V429.921C203.307 430.055 203.327 430.158 203.368 430.228C203.41 430.297 203.469 430.332 203.544 430.332C203.62 430.333 203.71 430.297 203.814 430.224C203.883 430.176 203.946 430.12 204.003 430.057C204.06 429.993 204.109 429.923 204.15 429.847C204.191 429.772 204.222 429.692 204.243 429.608L204.817 429.255C204.788 429.443 204.728 429.631 204.638 429.82C204.549 430.006 204.433 430.184 204.292 430.353C204.151 430.519 203.988 430.667 203.804 430.796ZM207.097 426.497L206.529 426.936C206.519 426.883 206.498 426.844 206.466 426.819C206.434 426.793 206.392 426.784 206.339 426.792C206.288 426.799 206.226 426.827 206.154 426.877C206.058 426.944 205.977 427.025 205.911 427.121C205.845 427.216 205.812 427.304 205.812 427.386C205.812 427.451 205.833 427.491 205.876 427.506C205.919 427.521 205.992 427.506 206.096 427.461L206.501 427.278C206.719 427.181 206.881 427.155 206.988 427.202C207.094 427.248 207.148 427.369 207.148 427.566C207.148 427.745 207.105 427.932 207.018 428.127C206.933 428.321 206.815 428.508 206.666 428.689C206.517 428.867 206.346 429.023 206.151 429.159C205.855 429.365 205.619 429.455 205.444 429.427C205.269 429.397 205.166 429.263 205.136 429.023L205.747 428.559C205.765 428.656 205.81 428.709 205.881 428.717C205.951 428.725 206.042 428.69 206.153 428.613C206.262 428.537 206.349 428.451 206.415 428.354C206.482 428.255 206.516 428.164 206.517 428.082C206.516 428.014 206.492 427.974 206.446 427.963C206.399 427.95 206.327 427.966 206.23 428.01L205.843 428.186C205.624 428.285 205.462 428.306 205.355 428.249C205.249 428.192 205.196 428.061 205.196 427.858C205.196 427.682 205.235 427.504 205.313 427.324C205.391 427.142 205.501 426.968 205.643 426.8C205.786 426.632 205.953 426.481 206.144 426.348C206.427 426.151 206.649 426.069 206.811 426.101C206.974 426.133 207.07 426.265 207.097 426.497ZM208.558 427.481C208.328 427.641 208.13 427.723 207.964 427.725C207.799 427.725 207.671 427.652 207.582 427.504C207.493 427.356 207.448 427.138 207.448 426.85C207.448 426.57 207.493 426.292 207.582 426.018C207.671 425.744 207.797 425.491 207.959 425.26C208.122 425.028 208.314 424.835 208.533 424.682C208.681 424.579 208.818 424.512 208.945 424.482C209.074 424.449 209.185 424.457 209.28 424.506C209.377 424.553 209.451 424.646 209.505 424.783C209.558 424.918 209.585 425.102 209.585 425.334V425.542L207.696 426.859V426.39L209.001 425.48C209.001 425.371 208.981 425.288 208.943 425.231C208.904 425.174 208.85 425.146 208.781 425.147C208.713 425.146 208.634 425.177 208.543 425.24C208.449 425.305 208.366 425.39 208.293 425.494C208.221 425.596 208.165 425.706 208.124 425.823C208.083 425.939 208.062 426.052 208.061 426.16V426.606C208.061 426.741 208.082 426.843 208.122 426.913C208.164 426.982 208.223 427.017 208.299 427.017C208.374 427.018 208.464 426.982 208.568 426.909C208.637 426.861 208.7 426.805 208.758 426.742C208.815 426.678 208.864 426.608 208.905 426.533C208.945 426.457 208.976 426.377 208.998 426.294L209.572 425.94C209.543 426.128 209.483 426.316 209.393 426.505C209.303 426.691 209.188 426.869 209.046 427.038C208.905 427.205 208.742 427.352 208.558 427.481ZM211.18 422.873V423.441L209.832 424.38V423.812L211.18 422.873ZM210.138 422.945L210.759 422.513V425.055C210.759 425.125 210.768 425.173 210.785 425.2C210.802 425.226 210.827 425.236 210.858 425.229C210.89 425.222 210.927 425.204 210.969 425.175C210.998 425.155 211.027 425.132 211.056 425.106C211.085 425.078 211.107 425.057 211.123 425.043L211.22 425.538C211.189 425.571 211.146 425.615 211.089 425.67C211.033 425.726 210.965 425.784 210.884 425.843C210.734 425.955 210.603 426.022 210.491 426.045C210.379 426.067 210.292 426.041 210.23 425.967C210.168 425.893 210.137 425.767 210.138 425.587V422.945Z" fill="#8870F9"/>
<path d="M446.39 131.051C446.458 132.478 446.805 133.866 447.402 135.098C448 136.331 448.83 137.374 449.824 138.14C451.728 139.439 453.259 138.375 453.259 135.777C453.191 134.35 452.844 132.963 452.247 131.73C451.649 130.498 450.819 129.455 449.824 128.688C447.936 127.389 446.39 128.436 446.39 131.051Z" fill="#455A64"/>
<path d="M400.339 147.844C397.316 147.722 394.371 146.653 391.789 144.742L380.89 137.256C380.8 137.202 380.719 137.125 380.653 137.032C380.588 136.939 380.539 136.83 380.509 136.713C380.479 136.596 380.469 136.473 380.48 136.351C380.491 136.229 380.522 136.111 380.571 136.004C380.621 135.897 380.688 135.804 380.768 135.73C380.849 135.655 380.941 135.602 381.039 135.572C381.137 135.542 381.239 135.537 381.338 135.557C381.438 135.576 381.534 135.62 381.619 135.686L392.518 143.172C397.232 146.401 401.588 146.925 404.815 144.652C408.042 142.379 409.722 137.707 409.722 131.375C409.722 124.394 411.729 119.127 415.357 116.547C418.985 113.968 423.967 114.455 429.141 118.008L446.761 130.112C446.93 130.233 447.053 130.428 447.106 130.657C447.158 130.885 447.136 131.13 447.044 131.339C446.947 131.547 446.786 131.7 446.596 131.764C446.407 131.828 446.204 131.799 446.032 131.682L428.412 119.668C423.714 116.439 419.342 115.916 416.116 118.207C412.889 120.498 411.209 125.152 411.209 131.465C411.209 138.464 409.201 143.732 405.573 146.293C403.973 147.365 402.167 147.901 400.339 147.844Z" fill="#455A64"/>
<path d="M376.384 133.215C376.436 134.369 376.716 135.491 377.2 136.486C377.684 137.481 378.357 138.32 379.164 138.934C380.651 139.998 381.945 139.132 381.945 137.022C381.893 135.868 381.613 134.747 381.129 133.751C380.645 132.756 379.971 131.917 379.164 131.303C377.633 130.239 376.384 131.105 376.384 133.215Z" fill="#455A64"/>
<path d="M552.26 114.04L479.401 64.001C478.635 63.3196 477.711 62.9521 476.761 62.9521C475.812 62.9521 474.887 63.3196 474.122 64.001L467.817 69.2683L472.115 75.7081V168.842C472.115 175.354 475.386 182.912 479.401 185.744L550.431 234.449L550.758 241.376L557.39 235.856C558.154 234.991 558.745 233.925 559.116 232.74C559.488 231.555 559.629 230.282 559.531 229.019V130.943C559.561 124.431 556.29 116.873 552.26 114.04Z" fill="#8870F9"/>
<path opacity="0.3" d="M552.26 114.04L479.401 64.001C478.635 63.3196 477.711 62.9521 476.761 62.9521C475.812 62.9521 474.887 63.3196 474.122 64.001L467.817 69.2683L472.115 75.7081V168.842C472.115 175.354 475.386 182.912 479.401 185.744L550.431 234.449L550.758 241.376L557.39 235.856C558.154 234.991 558.745 233.925 559.116 232.74C559.488 231.555 559.629 230.282 559.531 229.019V130.943C559.561 124.431 556.29 116.873 552.26 114.04Z" fill="black"/>
<path d="M546.073 240.942L473.214 190.903C469.184 188.089 465.928 180.512 465.928 174V75.8697C465.928 69.3397 469.184 66.3452 473.214 69.1773L546.073 119.217C550.103 122.031 553.359 129.607 553.359 136.119V234.268C553.359 240.78 550.103 243.774 546.073 240.942Z" fill="#8870F9"/>
<path d="M530.772 156.018C530.607 156.02 530.445 155.956 530.313 155.836C530.182 155.715 530.087 155.544 530.044 155.35C528.491 148.391 526.09 141.751 522.921 135.652C522.815 135.451 522.779 135.207 522.821 134.974C522.862 134.74 522.979 134.537 523.144 134.407C523.227 134.342 523.319 134.297 523.416 134.276C523.513 134.255 523.612 134.259 523.708 134.286C523.804 134.313 523.894 134.363 523.974 134.433C524.053 134.504 524.12 134.593 524.17 134.696C527.424 140.944 529.89 147.748 531.486 154.881C531.533 155.113 531.505 155.358 531.408 155.565C531.312 155.773 531.153 155.928 530.965 156L530.772 156.018Z" fill="#0EE4CF"/>
<path d="M532.437 174.362C532.238 174.344 532.054 174.231 531.923 174.049C531.792 173.867 531.726 173.63 531.738 173.388C531.738 172.432 531.827 171.422 531.827 170.394C531.819 167.31 531.596 164.232 531.158 161.194C531.125 160.955 531.171 160.709 531.287 160.512C531.402 160.314 531.578 160.18 531.775 160.139C531.972 160.098 532.175 160.154 532.338 160.295C532.501 160.435 532.612 160.648 532.645 160.888C533.1 164.027 533.334 167.207 533.344 170.394C533.344 171.458 533.344 172.504 533.255 173.515C533.247 173.636 533.22 173.754 533.175 173.862C533.13 173.97 533.067 174.066 532.991 174.145C532.915 174.224 532.827 174.283 532.732 174.321C532.637 174.358 532.537 174.372 532.437 174.362V174.362Z" fill="#0EE4CF"/>
<path d="M486.953 144.42C486.77 144.42 486.593 144.337 486.458 144.187C486.323 144.036 486.239 143.829 486.224 143.608C486.105 142.038 486.046 140.469 486.046 138.954C486.046 130.205 487.994 122.99 491.533 118.606C491.6 118.522 491.681 118.455 491.771 118.41C491.86 118.364 491.956 118.341 492.053 118.341C492.15 118.341 492.246 118.364 492.335 118.41C492.425 118.455 492.506 118.522 492.574 118.606C492.643 118.69 492.699 118.79 492.736 118.9C492.774 119.01 492.793 119.127 492.793 119.246C492.793 119.366 492.774 119.483 492.736 119.593C492.699 119.703 492.643 119.803 492.574 119.887C489.317 123.928 487.518 130.71 487.518 138.972C487.518 140.433 487.518 141.948 487.682 143.463C487.692 143.581 487.682 143.7 487.654 143.813C487.626 143.926 487.579 144.031 487.517 144.122C487.454 144.213 487.377 144.288 487.291 144.342C487.204 144.396 487.11 144.429 487.012 144.438L486.953 144.42Z" fill="#0EE4CF"/>
<path d="M519.843 129.824C519.732 129.825 519.623 129.797 519.523 129.741C519.422 129.685 519.334 129.602 519.263 129.499C516.508 125.243 513.125 121.646 509.286 118.892C504.349 115.501 499.71 114.852 495.903 117.088C495.726 117.187 495.523 117.197 495.339 117.116C495.156 117.035 495.006 116.87 494.922 116.655C494.879 116.548 494.855 116.431 494.85 116.312C494.845 116.192 494.859 116.073 494.892 115.961C494.925 115.848 494.977 115.745 495.043 115.657C495.109 115.569 495.19 115.497 495.279 115.447C499.561 113.048 504.661 113.643 510.044 117.413C514.044 120.284 517.573 124.027 520.453 128.453C520.576 128.637 520.634 128.874 520.614 129.11C520.595 129.347 520.499 129.564 520.348 129.715C520.196 129.823 520.017 129.862 519.843 129.824V129.824Z" fill="#0EE4CF"/>
<path d="M492.083 145.119C491.891 145.119 491.706 145.029 491.568 144.867C491.429 144.706 491.348 144.486 491.34 144.253C491.34 143.694 491.34 143.134 491.34 142.575C491.34 136.171 492.633 130.94 495.087 127.459C495.149 127.367 495.225 127.292 495.311 127.237C495.397 127.182 495.491 127.148 495.588 127.138C495.686 127.128 495.783 127.142 495.876 127.178C495.968 127.215 496.054 127.273 496.128 127.351C496.277 127.508 496.371 127.73 496.387 127.969C496.404 128.208 496.343 128.446 496.217 128.631C494.001 131.788 492.827 136.604 492.827 142.575C492.827 143.098 492.827 143.64 492.827 144.163C492.831 144.281 492.815 144.399 492.782 144.511C492.748 144.622 492.697 144.724 492.63 144.811C492.564 144.898 492.484 144.969 492.395 145.018C492.307 145.068 492.211 145.096 492.113 145.101L492.083 145.119Z" fill="#0EE4CF"/>
<path d="M497.853 126.541C497.69 126.543 497.53 126.479 497.399 126.36C497.269 126.241 497.174 126.073 497.13 125.882C497.086 125.69 497.095 125.487 497.156 125.303C497.217 125.119 497.326 124.964 497.467 124.863C499.372 123.489 501.603 122.93 503.801 123.276C503.996 123.298 504.175 123.414 504.3 123.596C504.426 123.778 504.487 124.013 504.47 124.25C504.448 124.487 504.35 124.705 504.197 124.857C504.044 125.008 503.849 125.082 503.652 125.061C501.779 124.791 499.885 125.286 498.27 126.468C498.138 126.535 497.995 126.56 497.853 126.541V126.541Z" fill="#0EE4CF"/>
<path d="M530.773 185.96C530.624 185.961 530.479 185.908 530.354 185.808C530.23 185.709 530.133 185.567 530.074 185.401L529.212 182.786C527.483 177.728 526.57 172.315 526.521 166.839C526.521 151.543 518.789 133.847 509.287 127.317C509.202 127.259 509.127 127.181 509.068 127.087C509.008 126.993 508.964 126.886 508.939 126.772C508.914 126.657 508.909 126.538 508.922 126.421C508.936 126.304 508.969 126.191 509.019 126.09C509.066 125.985 509.129 125.893 509.206 125.819C509.282 125.744 509.37 125.69 509.465 125.658C509.559 125.626 509.658 125.617 509.755 125.632C509.852 125.648 509.946 125.687 510.031 125.747C519.933 132.566 528.007 151.001 528.007 166.767C528.045 172.033 528.924 177.24 530.595 182.1L531.457 184.716C531.496 184.824 531.516 184.942 531.517 185.06C531.517 185.178 531.498 185.296 531.461 185.405C531.424 185.514 531.368 185.614 531.299 185.697C531.229 185.78 531.146 185.845 531.056 185.888C530.967 185.936 530.871 185.961 530.773 185.96Z" fill="#0EE4CF"/>
<path d="M496.632 175.588C496.48 175.588 496.33 175.531 496.205 175.424C496.08 175.318 495.985 175.167 495.933 174.993C493.532 166.469 491.979 157.627 491.309 148.656C491.301 148.536 491.313 148.415 491.344 148.301C491.375 148.187 491.424 148.081 491.489 147.99C491.554 147.899 491.634 147.825 491.723 147.772C491.812 147.72 491.909 147.689 492.008 147.682C492.203 147.676 492.393 147.761 492.539 147.918C492.686 148.075 492.777 148.294 492.796 148.53C493.43 157.331 494.927 166.009 497.257 174.379C497.292 174.49 497.308 174.609 497.305 174.728C497.301 174.847 497.278 174.964 497.237 175.072C497.195 175.18 497.136 175.276 497.063 175.355C496.989 175.435 496.904 175.495 496.811 175.534C496.753 175.561 496.693 175.579 496.632 175.588V175.588Z" fill="#0EE4CF"/>
<path d="M526.4 192.039C526.249 192.042 526.1 191.989 525.975 191.885C525.849 191.782 525.754 191.634 525.701 191.461L523.709 184.967C521.7 178.629 520.618 171.914 520.512 165.125V158.036C520.512 149.611 515.531 139.347 509.405 135.144C506.55 133.178 503.903 132.835 501.97 134.206C500.037 135.577 498.996 138.409 498.996 142.252V148.529C499.159 158.727 500.842 168.804 503.962 178.275L506.416 186.032C506.452 186.143 506.469 186.262 506.467 186.381C506.464 186.501 506.442 186.618 506.402 186.727C506.362 186.836 506.305 186.935 506.233 187.017C506.161 187.098 506.077 187.162 505.985 187.204C505.801 187.286 505.598 187.278 505.42 187.18C505.242 187.082 505.103 186.903 505.033 186.681L502.58 178.924C499.411 169.242 497.708 158.945 497.554 148.529V142.27C497.554 137.76 498.847 134.351 501.226 132.673C503.606 130.996 506.802 131.302 510.148 133.593C516.676 138.085 522.043 149.052 522.043 158.054V165.143C522.146 171.718 523.198 178.22 525.151 184.354L527.129 190.83C527.164 190.94 527.181 191.057 527.179 191.176C527.176 191.294 527.154 191.41 527.114 191.518C527.074 191.625 527.016 191.722 526.945 191.802C526.873 191.882 526.789 191.944 526.697 191.984L526.4 192.039Z" fill="#0EE4CF"/>
<path d="M519.843 194.621C519.684 194.622 519.529 194.561 519.4 194.448C519.272 194.334 519.177 194.173 519.129 193.989L518.088 189.732C516.193 182.26 515.191 174.496 515.114 166.679V155.747C514.999 153.271 514.4 150.864 513.365 148.725C512.331 146.585 510.892 144.775 509.167 143.445C508.629 142.967 507.997 142.668 507.334 142.58C506.671 142.491 506.001 142.615 505.39 142.94C504.868 143.4 504.455 144.019 504.194 144.735C503.933 145.451 503.832 146.238 503.903 147.016C503.903 159.211 506.966 173.263 512.512 186.593L514.609 191.626C514.653 191.733 514.679 191.849 514.686 191.968C514.693 192.087 514.681 192.206 514.65 192.319C514.618 192.432 514.569 192.537 514.505 192.627C514.441 192.717 514.362 192.791 514.274 192.844C514.187 192.897 514.091 192.929 513.993 192.937C513.895 192.946 513.796 192.931 513.703 192.893C513.61 192.855 513.524 192.796 513.45 192.718C513.375 192.64 513.315 192.545 513.271 192.438L511.189 187.405C505.524 173.822 502.416 159.481 502.416 147.016C502.332 145.923 502.493 144.821 502.88 143.828C503.267 142.835 503.867 141.986 504.617 141.37C505.45 140.883 506.375 140.672 507.298 140.761C508.22 140.85 509.106 141.234 509.866 141.875C511.815 143.373 513.443 145.413 514.614 147.825C515.785 150.237 516.466 152.953 516.601 155.747V166.715C516.669 174.361 517.646 181.955 519.501 189.263L520.542 193.502C520.571 193.616 520.581 193.736 520.572 193.854C520.562 193.973 520.533 194.088 520.486 194.192C520.438 194.297 520.374 194.388 520.297 194.462C520.22 194.536 520.131 194.59 520.036 194.621C519.972 194.636 519.907 194.636 519.843 194.621Z" fill="#0EE4CF"/>
<path d="M511.502 175.589C511.334 175.586 511.171 175.516 511.039 175.388C510.907 175.261 510.813 175.084 510.774 174.885L510.09 171.025C509.436 167.313 509.107 163.528 509.108 159.733V149.577C509.108 149.338 509.187 149.108 509.326 148.939C509.466 148.77 509.655 148.675 509.852 148.675C510.049 148.675 510.238 148.77 510.378 148.939C510.517 149.108 510.595 149.338 510.595 149.577V159.733C510.604 163.37 510.923 166.997 511.547 170.556L512.231 174.416C512.253 174.531 512.255 174.65 512.239 174.766C512.222 174.883 512.186 174.994 512.133 175.093C512.081 175.192 512.012 175.277 511.932 175.344C511.852 175.41 511.761 175.457 511.666 175.48L511.502 175.589Z" fill="#0EE4CF"/>
<path d="M488.574 156.015C488.39 156.012 488.213 155.928 488.076 155.779C487.939 155.629 487.852 155.425 487.83 155.203L487.399 149.936C487.382 149.697 487.443 149.46 487.568 149.275C487.693 149.09 487.872 148.971 488.068 148.943C488.166 148.928 488.266 148.938 488.361 148.971C488.456 149.004 488.544 149.06 488.621 149.136C488.697 149.212 488.76 149.306 488.806 149.413C488.852 149.519 488.879 149.636 488.886 149.755L489.317 155.023C489.328 155.141 489.318 155.261 489.29 155.375C489.262 155.489 489.216 155.596 489.153 155.688C489.091 155.78 489.014 155.857 488.928 155.913C488.841 155.969 488.746 156.003 488.648 156.015H488.574Z" fill="#0EE4CF"/>
<path d="M552.26 281.185L479.401 231.128C478.635 230.447 477.711 230.079 476.761 230.079C475.812 230.079 474.887 230.447 474.122 231.128L467.817 236.395L472.115 242.835V335.969C472.115 342.481 475.386 350.039 479.401 352.871L550.431 401.576L550.758 408.503L557.39 403.001C558.155 402.133 558.745 401.063 559.117 399.875C559.488 398.687 559.63 397.411 559.531 396.146V298.016C559.561 291.558 556.29 283.999 552.26 281.185Z" fill="#8870F9"/>
<path opacity="0.3" d="M552.26 281.185L479.401 231.128C478.635 230.447 477.711 230.079 476.761 230.079C475.812 230.079 474.887 230.447 474.122 231.128L467.817 236.395L472.115 242.835V335.969C472.115 342.481 475.386 350.039 479.401 352.871L550.431 401.576L550.758 408.503L557.39 403.001C558.155 402.133 558.745 401.063 559.117 399.875C559.488 398.687 559.63 397.411 559.531 396.146V298.016C559.561 291.558 556.29 283.999 552.26 281.185Z" fill="black"/>
<path d="M546.073 408.07L473.214 358.031C469.184 355.217 465.928 347.659 465.928 341.129V242.998C465.928 236.486 469.184 233.492 473.214 236.306L546.073 286.345C550.103 289.177 553.359 296.735 553.359 303.247V401.396C553.359 407.908 550.103 410.903 546.073 408.07Z" fill="#8870F9"/>
<path d="M482.166 270.385C481.969 270.385 481.78 270.29 481.641 270.121C481.501 269.952 481.423 269.722 481.423 269.483V263.404C481.419 262.8 481.547 262.206 481.796 261.683C482.044 261.159 482.403 260.726 482.836 260.427C483.284 260.1 483.799 259.927 484.322 259.927C484.846 259.927 485.36 260.1 485.809 260.427L491.058 264.035C491.232 264.152 491.36 264.348 491.414 264.58C491.469 264.812 491.445 265.06 491.348 265.271C491.252 265.481 491.09 265.637 490.899 265.703C490.708 265.769 490.503 265.74 490.33 265.623L485.066 262.015C484.84 261.857 484.583 261.773 484.322 261.773C484.061 261.773 483.805 261.857 483.579 262.015C483.373 262.155 483.203 262.359 483.085 262.607C482.967 262.854 482.907 263.136 482.91 263.422V269.501C482.906 269.737 482.826 269.962 482.687 270.127C482.548 270.292 482.361 270.385 482.166 270.385V270.385Z" fill="#0EE4CF"/>
<path d="M490.611 354.026C490.487 354.025 490.364 353.988 490.254 353.918L485.347 350.545C484.174 349.726 483.201 348.545 482.525 347.123C481.848 345.701 481.494 344.087 481.496 342.446V336.836C481.496 336.596 481.574 336.367 481.714 336.198C481.853 336.029 482.042 335.934 482.24 335.934C482.437 335.934 482.626 336.029 482.765 336.198C482.905 336.367 482.983 336.596 482.983 336.836V342.446C482.987 343.777 483.283 345.082 483.839 346.23C484.396 347.377 485.193 348.324 486.15 348.976L491.057 352.349C491.197 352.449 491.305 352.602 491.366 352.785C491.428 352.967 491.438 353.169 491.396 353.359C491.354 353.549 491.261 353.717 491.133 353.838C491.005 353.958 490.848 354.024 490.685 354.026H490.611Z" fill="#0EE4CF"/>
<path d="M535.026 384.171C534.504 384.184 533.989 384.022 533.539 383.702L528.29 380.095C528.118 379.977 527.992 379.782 527.94 379.552C527.887 379.322 527.911 379.076 528.007 378.868C528.107 378.664 528.268 378.514 528.456 378.45C528.644 378.386 528.846 378.413 529.018 378.525L534.282 382.133C534.508 382.291 534.765 382.375 535.026 382.375C535.287 382.375 535.543 382.291 535.769 382.133C535.975 381.993 536.145 381.789 536.263 381.541C536.381 381.294 536.441 381.012 536.438 380.726V374.647C536.438 374.408 536.516 374.178 536.656 374.009C536.795 373.84 536.984 373.745 537.182 373.745C537.379 373.745 537.568 373.84 537.707 374.009C537.847 374.178 537.925 374.408 537.925 374.647V380.726C537.928 381.327 537.799 381.918 537.551 382.438C537.302 382.959 536.944 383.389 536.512 383.684C536.063 384.008 535.548 384.177 535.026 384.171V384.171Z" fill="#0EE4CF"/>
<path d="M537.153 308.173C536.956 308.173 536.767 308.078 536.627 307.909C536.488 307.74 536.41 307.511 536.41 307.271V301.661C536.406 300.333 536.11 299.029 535.554 297.885C534.997 296.74 534.199 295.796 533.243 295.149L528.336 291.776C528.163 291.655 528.037 291.457 527.984 291.224C527.931 290.991 527.956 290.742 528.053 290.531C528.101 290.428 528.165 290.338 528.242 290.265C528.319 290.193 528.408 290.14 528.502 290.11C528.596 290.079 528.695 290.072 528.791 290.089C528.888 290.106 528.981 290.146 529.064 290.207L533.971 293.58C535.156 294.386 536.143 295.559 536.832 296.978C537.522 298.398 537.889 300.014 537.897 301.661V307.271C537.897 307.511 537.818 307.74 537.679 307.909C537.539 308.078 537.35 308.173 537.153 308.173Z" fill="#0EE4CF"/>
<path d="M488.752 300.723C488.918 310.966 490.126 321.144 492.35 331.028C498.001 356.895 520.29 372.787 526.416 355.272C529.294 346.654 530.705 337.42 530.565 328.123C530.565 312.249 521.197 292.948 509.658 285.011C497.852 276.912 488.589 284.434 488.752 300.723Z" fill="#0EE4CF"/>
<path d="M508.915 315.173V332.165L502.833 326.645L508.915 315.173Z" fill="#0EE4CF"/>
<path d="M497.6 305.017C497.639 305.85 497.84 306.66 498.187 307.381C498.533 308.101 499.014 308.713 499.592 309.166C500.707 309.923 501.599 309.31 501.599 307.777C501.561 306.944 501.358 306.135 501.009 305.416C500.66 304.697 500.174 304.09 499.592 303.646C498.492 302.888 497.6 303.502 497.6 305.017Z" fill="#0EE4CF"/>
<path d="M516.216 317.97C516.258 318.802 516.462 319.61 516.811 320.328C517.16 321.045 517.644 321.653 518.223 322.101C519.338 322.859 520.23 322.245 520.23 320.73C520.192 319.895 519.989 319.083 519.64 318.361C519.291 317.64 518.805 317.03 518.223 316.581C517.182 315.823 516.216 316.437 516.216 317.97Z" fill="#0EE4CF"/>
<path d="M506.906 340.482L513.702 339.093C513.702 339.093 512.259 347.896 506.906 340.482Z" fill="#0EE4CF"/>
<path d="M446.39 288.727C446.46 290.151 446.809 291.535 447.406 292.764C448.003 293.993 448.832 295.033 449.824 295.798C451.728 297.115 453.259 296.051 453.259 293.453C453.191 292.026 452.844 290.639 452.247 289.406C451.649 288.173 450.819 287.131 449.824 286.364C447.936 285.047 446.39 286.111 446.39 288.727Z" fill="#455A64"/>
<path d="M446.525 290.693C446.396 290.692 446.269 290.655 446.154 290.585L428.548 278.409C418.244 271.338 409.858 254.038 409.858 239.878C409.858 226.277 401.813 209.699 391.925 202.899L380.892 195.322C380.721 195.205 380.595 195.01 380.542 194.78C380.489 194.55 380.513 194.304 380.61 194.096C380.656 193.991 380.72 193.899 380.796 193.825C380.873 193.75 380.961 193.695 381.055 193.663C381.15 193.631 381.248 193.623 381.346 193.638C381.443 193.654 381.536 193.693 381.621 193.753L392.654 201.329C402.958 208.419 411.345 225.7 411.345 239.878C411.345 253.461 419.389 270.039 429.277 276.839L446.897 288.961C447.068 289.079 447.194 289.274 447.247 289.504C447.3 289.734 447.276 289.98 447.18 290.188C447.117 290.335 447.023 290.459 446.908 290.547C446.793 290.636 446.661 290.686 446.525 290.693V290.693Z" fill="#455A64"/>
<path d="M376.384 190.994C376.441 192.148 376.723 193.27 377.206 194.267C377.689 195.264 378.36 196.108 379.164 196.73C380.651 197.776 381.945 196.928 381.945 194.818C381.888 193.663 381.606 192.542 381.123 191.544C380.639 190.547 379.968 189.703 379.164 189.082C377.633 188.035 376.384 188.883 376.384 190.994Z" fill="#455A64"/>
<path d="M397.308 356.338C397.308 356.338 408.147 355.454 414.289 373.727C418.11 385.092 422.764 402.589 425.738 414.314C426.641 417.855 426.662 421.64 425.8 425.195C424.938 428.75 423.23 431.918 420.89 434.301L401.992 453.549L395.256 438.631C399.184 432.272 403.503 426.284 408.177 420.718L395.256 373.727L397.308 356.338Z" fill="#FFA8A7"/>
<path d="M402.301 412.152C402.301 412.152 419.52 414.912 423.817 398.803C423.817 398.803 416.382 375.227 413.052 367.398C409.721 359.569 402.762 353.869 397.305 356.34C391.848 358.812 402.301 412.152 402.301 412.152Z" fill="#8870F9"/>
<path opacity="0.4" d="M402.301 412.152C402.301 412.152 419.52 414.912 423.817 398.803C423.817 398.803 416.382 375.227 413.052 367.398C409.721 359.569 402.762 353.869 397.305 356.34C391.848 358.812 402.301 412.152 402.301 412.152Z" fill="#0EE4CF"/>
<path d="M390.793 623.673C390.793 623.673 382.615 615.176 379.433 614.78C376.251 614.383 370.749 620.985 375.403 632.44C376.697 635.632 381.961 639.078 385.247 645.193C388.533 651.308 391.477 655.908 396.518 655.06C401.558 654.212 402.213 650.785 401.886 646.798C401.459 643.151 400.858 639.538 400.086 635.975L390.793 623.673Z" fill="#37474F"/>
<path d="M396.74 653.239C391.551 654.105 388.503 649.361 385.112 643.065C381.722 636.77 376.31 633.198 374.972 629.915C374.436 628.6 373.998 627.23 373.663 625.82C373.911 628.129 374.484 630.368 375.358 632.441C376.652 635.633 381.915 639.079 385.202 645.194C388.488 651.309 391.432 655.909 396.473 655.061C400.339 654.43 401.617 652.247 401.855 649.469C401.201 651.345 399.788 652.752 396.74 653.239Z" fill="#8870F9"/>
<path d="M386.452 634.604C386.321 634.607 386.191 634.563 386.08 634.477C385.988 634.419 385.907 634.338 385.84 634.241C385.774 634.144 385.724 634.031 385.694 633.911C385.663 633.79 385.653 633.663 385.663 633.537C385.673 633.412 385.704 633.29 385.753 633.179C387.418 629.601 390.181 626.968 393.441 625.855C393.641 625.818 393.846 625.874 394.013 626.013C394.181 626.151 394.299 626.361 394.344 626.601C394.389 626.841 394.358 627.092 394.257 627.305C394.155 627.518 393.991 627.677 393.797 627.749C390.992 628.742 388.612 631.01 387.151 634.081C387.084 634.236 386.984 634.367 386.861 634.459C386.738 634.551 386.596 634.601 386.452 634.604Z" fill="#EBEBEB"/>
<path d="M383.359 631.175C383.23 631.173 383.103 631.136 382.988 631.066C382.895 631.008 382.814 630.927 382.747 630.83C382.681 630.733 382.631 630.62 382.601 630.5C382.57 630.379 382.56 630.252 382.57 630.126C382.58 630.001 382.611 629.879 382.66 629.768C383.484 627.992 384.588 626.431 385.91 625.174C387.231 623.917 388.745 622.99 390.363 622.444C390.469 622.376 390.587 622.34 390.708 622.336C390.828 622.333 390.947 622.363 391.057 622.424C391.166 622.485 391.262 622.576 391.338 622.689C391.414 622.803 391.467 622.935 391.494 623.078C391.521 623.22 391.521 623.368 391.494 623.51C391.466 623.652 391.412 623.785 391.336 623.898C391.26 624.011 391.163 624.101 391.054 624.162C390.944 624.222 390.825 624.252 390.705 624.248C387.9 625.252 385.521 627.525 384.058 630.597C384 630.765 383.904 630.91 383.779 631.012C383.655 631.115 383.509 631.171 383.359 631.175V631.175Z" fill="#EBEBEB"/>
<path d="M379.895 627.768C379.766 627.767 379.639 627.73 379.524 627.66C379.337 627.538 379.197 627.331 379.136 627.084C379.074 626.837 379.096 626.571 379.196 626.343C380.866 622.768 383.636 620.141 386.899 619.038C387 619.008 387.106 619.004 387.209 619.024C387.312 619.045 387.41 619.09 387.499 619.157C387.587 619.224 387.664 619.312 387.724 619.415C387.785 619.519 387.828 619.636 387.85 619.759C387.895 620.01 387.855 620.272 387.741 620.489C387.627 620.705 387.447 620.858 387.241 620.914C384.436 621.918 382.057 624.191 380.594 627.263C380.528 627.418 380.427 627.547 380.304 627.636C380.18 627.726 380.039 627.771 379.895 627.768V627.768Z" fill="#EBEBEB"/>
<path d="M347.272 651.542C347.272 651.542 336.314 647.231 333.042 648.422C329.771 649.612 326.574 658.884 335.05 667.886C337.399 670.375 343.763 671.169 349.086 675.57C354.409 679.972 358.87 683.02 363.569 679.683C368.268 676.346 367.881 672.467 367.033 668.355C365.978 663.051 365.115 659.191 365.115 659.191L347.272 651.542Z" fill="#37474F"/>
<path d="M363.211 677.752C358.379 681.197 353.754 678.04 348.342 673.494C342.929 668.949 336.298 668.083 333.874 665.575C332.893 664.541 331.992 663.399 331.183 662.166C332.209 664.333 333.537 666.267 335.108 667.884C337.457 670.374 343.821 671.167 349.145 675.569C354.468 679.97 358.929 683.019 363.627 679.682C367.211 677.138 367.746 674.27 367.047 671.474C367.003 673.657 365.992 675.767 363.211 677.752Z" fill="#8870F9"/>
<path d="M344.7 663.827H344.626C344.415 663.799 344.222 663.672 344.088 663.473C343.955 663.273 343.891 663.018 343.912 662.762C344.343 658.42 346.177 654.462 349.012 651.759C349.096 651.685 349.191 651.633 349.292 651.604C349.393 651.575 349.497 651.57 349.599 651.59C349.702 651.611 349.799 651.655 349.888 651.721C349.976 651.787 350.052 651.873 350.113 651.975C350.236 652.184 350.286 652.443 350.253 652.696C350.219 652.949 350.105 653.177 349.934 653.328C347.483 655.726 345.886 659.174 345.473 662.961C345.455 663.195 345.366 663.413 345.223 663.573C345.081 663.733 344.894 663.823 344.7 663.827V663.827Z" fill="#EBEBEB"/>
<path d="M349.159 665.612C348.951 665.585 348.76 665.46 348.627 665.265C348.493 665.069 348.428 664.819 348.445 664.566C348.882 660.22 350.715 656.259 353.545 653.544C353.719 653.397 353.934 653.339 354.143 653.382C354.352 653.426 354.538 653.569 354.66 653.779C354.72 653.882 354.763 653.998 354.785 654.121C354.808 654.244 354.81 654.371 354.792 654.495C354.774 654.619 354.736 654.737 354.681 654.844C354.625 654.95 354.552 655.041 354.467 655.113C352.01 657.505 350.412 660.957 350.006 664.746C349.987 664.997 349.888 665.228 349.729 665.39C349.57 665.552 349.365 665.632 349.159 665.612V665.612Z" fill="#EBEBEB"/>
<path d="M340.477 661.968H340.403C340.195 661.941 340.004 661.816 339.871 661.621C339.738 661.426 339.672 661.175 339.689 660.922C340.118 656.573 341.952 652.609 344.789 649.901C344.961 649.752 345.174 649.693 345.382 649.735C345.589 649.777 345.775 649.918 345.897 650.126C346.019 650.334 346.068 650.593 346.033 650.845C345.999 651.097 345.883 651.322 345.711 651.47C343.254 653.861 341.656 657.313 341.25 661.103C341.232 661.337 341.143 661.555 341 661.715C340.858 661.875 340.671 661.965 340.477 661.968V661.968Z" fill="#EBEBEB"/>
<path d="M400.608 626.198C401.59 613.029 403.716 592.393 404.608 582.742C405.81 570.545 405.519 558.2 403.746 546.106C403.29 543.254 403.175 540.338 403.404 537.447C405.56 511.219 406.958 468.701 405.768 459.357L375.42 467.15C375.42 467.15 379.137 526.804 380.773 546.647C382.408 566.489 388.505 626.378 388.505 626.378C390.317 627.784 392.428 628.517 394.579 628.485C396.73 628.453 398.826 627.658 400.608 626.198V626.198Z" fill="#455A64"/>
<path d="M396.235 639.746C397.073 639.509 397.856 639.045 398.525 638.389C399.195 637.733 399.734 636.902 400.101 635.958C400.101 633.884 400.294 630.42 400.607 626.199C398.824 627.659 396.728 628.454 394.577 628.486C392.426 628.518 390.315 627.786 388.503 626.38L389.574 637.455C390.466 638.43 391.53 639.143 392.685 639.54C393.84 639.937 395.054 640.008 396.235 639.746V639.746Z" fill="#FFA8A7"/>
<path d="M366.467 649.36C367.701 629.409 370.095 590.788 370.407 584.709C370.64 578.003 370.291 571.285 369.366 564.668C368.829 561.09 368.829 557.423 369.366 553.845L382.748 464.048L346.066 463.398L343.672 557.47C343.645 558.675 343.685 559.88 343.791 561.078L351.568 648.764C351.568 648.764 359.151 656.503 366.467 649.36Z" fill="#455A64"/>
<path d="M360.343 665.811C361.483 665.651 362.573 665.148 363.513 664.348C364.453 663.548 365.213 662.476 365.725 661.229L366.469 649.36C359.153 656.576 351.6 648.801 351.6 648.801L352.759 661.933C352.759 661.933 354.454 666.479 360.343 665.811Z" fill="#FFA8A7"/>
<path d="M363.019 362.329L354.365 365.937L345.057 419.35L345.518 466.701C345.518 466.701 352.164 473.141 378.126 473.141C392.698 473.141 402.199 466.467 405.768 459.378L403.433 430.768C403.433 430.768 405.768 402.574 405.768 388.63C405.768 374.686 406.288 363.267 397.307 356.358L389.308 357.17L363.019 362.329Z" fill="#8870F9"/>
<path opacity="0.2" d="M363.019 362.329L354.365 365.937L345.057 419.35L345.518 466.701C345.518 466.701 352.164 473.141 378.126 473.141C392.698 473.141 402.199 466.467 405.768 459.378L403.433 430.768C403.433 430.768 405.768 402.574 405.768 388.63C405.768 374.686 406.288 363.267 397.307 356.358L389.308 357.17L363.019 362.329Z" fill="#0EE4CF"/>
<path d="M353.622 316.42L349.295 326.828C349.233 326.979 349.198 327.145 349.193 327.314C349.188 327.482 349.213 327.651 349.267 327.806C349.321 327.962 349.402 328.102 349.504 328.217C349.606 328.331 349.728 328.418 349.86 328.47L354.99 330.562L353.622 316.42Z" fill="#F28F8F"/>
<path d="M359.569 298.976C359.569 298.976 352.997 303.269 352.997 327.838C352.997 341.385 353.77 350.025 359.569 349.484C365.368 348.943 382.081 346.291 382.081 346.291V298.976H359.569Z" fill="#FFA8A7"/>
<path d="M359.568 349.574C361.605 349.376 364.995 348.925 368.489 348.419V345.912C365.3 347.563 361.969 348.773 358.557 349.52C358.892 349.568 359.23 349.586 359.568 349.574V349.574Z" fill="#F28F8F"/>
<path d="M367.597 344.866V360.325H385.038V338.606L367.597 344.866Z" fill="#FFA8A7"/>
<path d="M367.598 354.446C367.598 354.446 373.873 357.152 378.899 356.087C383.925 355.023 385.04 351.307 385.04 351.307C385.04 351.307 386.676 351.145 389.307 357.152C388.283 359.396 386.817 361.298 385.04 362.689C383.263 364.08 381.23 364.917 379.122 365.125C373.653 365.55 368.17 364.598 363.019 362.329C363.019 362.329 365.517 353.67 367.598 354.446Z" fill="#8870F9"/>
<path opacity="0.4" d="M367.598 354.446C367.598 354.446 373.873 357.152 378.899 356.087C383.925 355.023 385.04 351.307 385.04 351.307C385.04 351.307 386.676 351.145 389.307 357.152C388.283 359.396 386.817 361.298 385.04 362.689C383.263 364.08 381.23 364.917 379.122 365.125C373.653 365.55 368.17 364.598 363.019 362.329C363.019 362.329 365.517 353.67 367.598 354.446Z" fill="#0EE4CF"/>
<path d="M328.685 400.335L324.001 409.066C324.001 409.066 312.626 402.914 304.671 399.18C300.039 397.093 295.727 394.081 291.913 390.269C292.198 386.51 292.694 382.78 293.4 379.103C294.322 375.315 294.634 372.158 291.913 373.836C289.192 375.514 287.304 382.026 287.14 382.855C287.14 382.855 271.156 363.355 269.163 363.788C267.171 364.221 267.676 367.144 271.929 373.15L276.226 379.175C276.226 379.175 266.427 386.012 268.018 393.48C269.609 400.948 282.531 404.303 282.531 404.303C282.531 404.303 320.343 439.551 328.715 433.165C337.086 426.78 348.937 408.542 348.937 408.542L328.685 400.335Z" fill="#FFA8A7"/>
<path d="M357.8 364.545C357.8 364.545 364.789 371.508 360.239 385.903C355.689 400.298 344.076 417.687 344.076 417.687C344.076 417.687 331.913 413.087 327.214 401.164L342.559 372.031C343.647 369.957 345.123 368.223 346.867 366.969C348.611 365.715 350.573 364.978 352.596 364.815C354.053 364.707 355.778 364.617 357.8 364.545Z" fill="#8870F9"/>
<path opacity="0.4" d="M357.8 364.545C357.8 364.545 364.789 371.508 360.239 385.903C355.689 400.298 344.076 417.687 344.076 417.687C344.076 417.687 331.913 413.087 327.214 401.164L342.559 372.031C343.647 369.957 345.123 368.223 346.867 366.969C348.611 365.715 350.573 364.978 352.596 364.815C354.053 364.707 355.778 364.617 357.8 364.545Z" fill="#0EE4CF"/>
<path d="M357.115 284.474C357.115 284.474 350.215 283.355 348.461 289.11C347.36 292.717 350.869 295.495 350.869 295.495C350.869 295.495 346.409 300.564 353.055 302.134C352.941 302.999 353.005 303.885 353.241 304.713C353.478 305.541 353.881 306.285 354.412 306.878C354.944 307.472 355.589 307.896 356.289 308.113C356.988 308.33 357.722 308.333 358.423 308.123C358.423 308.123 357.65 313.534 363.464 315.5C363.464 315.5 360.49 324.989 366.051 325.115H371.211L369.129 332.439C369.129 332.439 372.995 343.731 385.039 343.731C386.36 340.301 387.85 336.97 389.5 333.756C390.987 331.501 398.421 319.938 398.421 310.774C398.421 301.611 395.522 296.181 391.492 294.972C390.216 291.605 388.225 288.711 385.723 286.584C381.664 283.265 373.129 280.307 368.311 284.384C368.311 284.384 364.044 277.583 361.085 277.583C358.126 277.583 357.115 281.281 357.115 284.474Z" fill="#8870F9"/>
<path d="M366.052 325.114C366.052 325.114 365.546 315.499 372.222 315.499C378.899 315.499 377.323 332.437 369.13 332.437L366.052 325.114Z" fill="#FFA8A7"/>
</svg>
