<svg width="535" height="818" viewBox="0 0 535 818" fill="none" xmlns="http://www.w3.org/2000/svg">
<path d="M325.378 236.451C324.892 236.451 324.468 236.091 324.398 235.593C324.325 235.051 324.702 234.553 325.243 234.48C328.354 234.06 331.509 233.098 334.368 231.707C334.854 231.469 335.452 231.668 335.69 232.162C335.928 232.652 335.725 233.245 335.235 233.483C332.189 234.969 328.827 235.991 325.508 236.438C325.46 236.442 325.417 236.446 325.373 236.446L325.378 236.451ZM315.572 235.9C315.481 235.9 315.391 235.887 315.299 235.861C311.634 234.809 308.688 232.782 306.772 229.992C306.465 229.542 306.577 228.927 307.028 228.619C307.483 228.312 308.098 228.424 308.402 228.875C310.074 231.313 312.583 233.024 315.845 233.964C316.37 234.116 316.673 234.662 316.521 235.186C316.396 235.619 316.001 235.9 315.572 235.9ZM342.752 227.796C342.514 227.796 342.271 227.709 342.081 227.536C341.678 227.168 341.652 226.54 342.025 226.137C344.295 223.672 345.764 220.935 346.388 217.994C346.5 217.457 347.038 217.123 347.562 217.231C348.095 217.344 348.437 217.868 348.324 218.405C347.627 221.697 345.998 224.751 343.485 227.48C343.29 227.692 343.021 227.8 342.757 227.8L342.752 227.796ZM305.078 221.03H305.061C304.515 221.022 304.082 220.571 304.09 220.021C304.099 219.583 304.121 219.133 304.147 218.674C304.316 216.218 305.113 212.683 306.088 210.071C306.279 209.56 306.846 209.287 307.362 209.474C307.873 209.66 308.142 210.214 307.955 210.725C307.045 213.177 306.279 216.56 306.123 218.808C306.092 219.233 306.075 219.648 306.066 220.056C306.058 220.597 305.616 221.026 305.078 221.026V221.03ZM346.609 209.456C346.201 209.456 345.816 209.201 345.673 208.794C345.027 206.935 344.078 205.034 342.852 203.145C342.258 202.231 341.635 201.348 340.989 200.49C340.66 200.053 340.746 199.433 341.18 199.104C341.617 198.775 342.237 198.861 342.566 199.295C343.242 200.187 343.892 201.114 344.512 202.067C345.829 204.094 346.847 206.138 347.545 208.144C347.722 208.659 347.449 209.222 346.934 209.4C346.825 209.439 346.717 209.456 346.609 209.456ZM311.755 202.729C311.547 202.729 311.339 202.664 311.157 202.53C310.724 202.201 310.637 201.582 310.967 201.144C312.232 199.468 313.605 197.995 315.04 196.761C316.101 195.847 317.232 194.989 318.397 194.205C318.844 193.902 319.463 194.019 319.771 194.474C320.074 194.928 319.953 195.543 319.502 195.847C318.402 196.583 317.336 197.397 316.335 198.259C315.005 199.403 313.735 200.772 312.548 202.34C312.353 202.595 312.059 202.729 311.76 202.729H311.755ZM415.284 202.418C415.284 202.418 415.25 202.418 415.232 202.418C412.087 202.253 408.746 201.919 405.306 201.43C404.764 201.352 404.387 200.85 404.465 200.312C404.543 199.771 405.05 199.39 405.583 199.472C408.967 199.953 412.247 200.282 415.332 200.442C415.878 200.473 416.294 200.936 416.268 201.482C416.242 202.01 415.804 202.418 415.28 202.418H415.284ZM425.168 202.392C424.648 202.392 424.214 201.989 424.18 201.465C424.145 200.919 424.561 200.451 425.107 200.416C428.435 200.208 431.684 199.775 434.76 199.134C435.302 199.022 435.818 199.364 435.93 199.901C436.043 200.434 435.701 200.958 435.163 201.07C431.992 201.733 428.651 202.175 425.228 202.392C425.207 202.392 425.185 202.392 425.168 202.392ZM395.713 199.702C395.644 199.702 395.574 199.693 395.505 199.68C394.773 199.524 394.036 199.364 393.295 199.199C390.929 198.671 388.438 198.047 385.843 197.38C385.314 197.246 384.998 196.704 385.132 196.176C385.271 195.647 385.799 195.323 386.337 195.465C388.906 196.128 391.38 196.748 393.728 197.272C394.461 197.436 395.193 197.592 395.916 197.748C396.449 197.861 396.792 198.385 396.679 198.918C396.579 199.381 396.168 199.702 395.713 199.702ZM444.436 198.307C444.037 198.307 443.664 198.064 443.513 197.675C443.318 197.163 443.569 196.592 444.08 196.397C447.074 195.245 450.016 193.828 452.828 192.178C453.301 191.901 453.903 192.061 454.185 192.533C454.462 193.005 454.302 193.612 453.829 193.889C450.922 195.591 447.88 197.055 444.791 198.246C444.674 198.29 444.553 198.311 444.436 198.311V198.307ZM376.523 194.907C376.44 194.907 376.358 194.898 376.276 194.876C372.528 193.906 369.482 193.165 366.696 192.546C366.163 192.429 365.829 191.901 365.946 191.368C366.068 190.835 366.587 190.497 367.129 190.618C369.937 191.247 373 191.992 376.77 192.966C377.298 193.1 377.615 193.642 377.48 194.17C377.363 194.616 376.965 194.911 376.523 194.911V194.907ZM335.04 193.668C334.81 193.668 334.576 193.59 334.39 193.425C333.363 192.529 332.284 191.662 331.158 190.831C330.118 191.082 329.108 191.363 328.129 191.684C327.6 191.853 327.05 191.567 326.881 191.052C326.712 190.532 326.998 189.973 327.514 189.804C328.012 189.644 328.519 189.488 329.03 189.345C328.211 188.804 327.375 188.275 326.517 187.768C326.049 187.491 325.893 186.885 326.171 186.413C326.452 185.94 327.059 185.789 327.527 186.066C328.931 186.898 330.287 187.777 331.587 188.704C333.445 188.297 335.391 187.994 337.397 187.799C337.913 187.764 338.424 188.141 338.476 188.687C338.528 189.228 338.129 189.713 337.583 189.765C336.262 189.895 334.966 190.073 333.71 190.294C334.386 190.826 335.044 191.372 335.686 191.931C336.097 192.29 336.141 192.914 335.781 193.326C335.586 193.551 335.313 193.664 335.036 193.664L335.04 193.668ZM357.198 190.692C357.146 190.692 357.094 190.692 357.042 190.679C353.55 190.129 350.365 189.778 347.315 189.609C346.769 189.579 346.353 189.111 346.383 188.57C346.414 188.028 346.886 187.625 347.423 187.638C350.543 187.812 353.788 188.167 357.35 188.726C357.887 188.812 358.26 189.319 358.173 189.856C358.095 190.346 357.675 190.692 357.198 190.692ZM461.455 188.401C461.165 188.401 460.879 188.275 460.684 188.033C460.342 187.608 460.411 186.984 460.836 186.642C463.279 184.68 465.701 182.466 468.041 180.058C468.422 179.668 469.051 179.66 469.441 180.041C469.831 180.422 469.839 181.046 469.458 181.44C467.066 183.9 464.579 186.17 462.075 188.184C461.893 188.331 461.672 188.401 461.455 188.401ZM318.155 183.554C318.029 183.554 317.908 183.532 317.787 183.484C314.879 182.319 311.76 181.293 308.514 180.439C307.986 180.301 307.669 179.759 307.808 179.231C307.947 178.702 308.497 178.39 309.017 178.525C312.344 179.4 315.542 180.448 318.527 181.648C319.034 181.851 319.281 182.427 319.078 182.934C318.922 183.32 318.553 183.554 318.159 183.554H318.155ZM215.094 181.769C213.482 181.769 211.883 181.743 210.289 181.691C209.743 181.674 209.314 181.215 209.335 180.669C209.353 180.123 209.842 179.694 210.358 179.716C213.599 179.824 216.883 179.816 220.18 179.716H220.211C220.744 179.716 221.181 180.14 221.199 180.673C221.216 181.219 220.787 181.674 220.241 181.691C218.517 181.743 216.805 181.769 215.094 181.769ZM230.081 181.167C229.57 181.167 229.136 180.769 229.097 180.249C229.058 179.703 229.47 179.231 230.012 179.192C233.283 178.954 236.563 178.659 239.843 178.343C240.346 178.304 240.87 178.689 240.922 179.231C240.974 179.772 240.575 180.257 240.029 180.309C236.732 180.63 233.435 180.924 230.15 181.163C230.129 181.163 230.103 181.163 230.077 181.163L230.081 181.167ZM200.466 180.955C200.427 180.955 200.388 180.955 200.345 180.946C196.922 180.53 193.611 179.946 190.5 179.205C189.968 179.079 189.643 178.546 189.768 178.014C189.894 177.481 190.435 177.16 190.96 177.282C193.997 178.005 197.234 178.577 200.583 178.98C201.125 179.045 201.51 179.538 201.445 180.08C201.385 180.582 200.956 180.95 200.466 180.95V180.955ZM249.778 179.313C249.28 179.313 248.851 178.936 248.799 178.425C248.743 177.879 249.137 177.394 249.678 177.338C252.98 176.996 256.269 176.654 259.531 176.35C260.095 176.294 260.558 176.697 260.61 177.243C260.662 177.784 260.259 178.269 259.718 178.321C256.459 178.624 253.179 178.962 249.882 179.304C249.847 179.304 249.813 179.309 249.778 179.309V179.313ZM299.086 178.468C299.034 178.468 298.982 178.468 298.93 178.455C295.789 177.966 292.509 177.611 289.19 177.39C288.644 177.355 288.232 176.883 288.267 176.337C288.302 175.792 288.778 175.402 289.32 175.415C292.695 175.636 296.031 176.004 299.233 176.502C299.771 176.584 300.143 177.091 300.057 177.632C299.983 178.122 299.558 178.468 299.082 178.468H299.086ZM269.488 177.537C268.973 177.537 268.535 177.134 268.505 176.61C268.47 176.064 268.882 175.597 269.428 175.562C273.02 175.332 276.269 175.202 279.363 175.168H279.376C279.917 175.168 280.359 175.601 280.364 176.147C280.368 176.693 279.935 177.139 279.385 177.147C276.326 177.186 273.111 177.312 269.553 177.537C269.532 177.537 269.51 177.537 269.488 177.537ZM181.302 176.303C181.181 176.303 181.055 176.281 180.938 176.233C178.078 175.094 174.963 173.561 171.934 171.789C171.462 171.516 171.306 170.91 171.579 170.438C171.856 169.966 172.458 169.81 172.931 170.083C175.877 171.802 178.897 173.297 181.666 174.392C182.173 174.596 182.42 175.168 182.22 175.675C182.064 176.064 181.696 176.298 181.302 176.298V176.303ZM164.235 166.396C164.022 166.396 163.81 166.327 163.628 166.189C160.855 164.04 158.346 161.779 156.171 159.462C155.794 159.063 155.816 158.439 156.215 158.063C156.613 157.69 157.242 157.712 157.614 158.106C159.72 160.345 162.151 162.537 164.841 164.625C165.275 164.958 165.353 165.578 165.019 166.011C164.824 166.262 164.534 166.396 164.235 166.396ZM150.955 151.894C150.612 151.894 150.279 151.717 150.097 151.396C148.26 148.187 147.103 144.955 146.661 141.798C146.587 141.256 146.964 140.758 147.501 140.68C148.039 140.598 148.541 140.979 148.619 141.52C148.736 142.369 148.914 143.223 149.143 144.085C149.26 143.959 149.408 143.864 149.581 143.812C151.726 143.162 155.071 142.062 158.819 140.52C159.321 140.316 159.902 140.554 160.11 141.057C160.318 141.564 160.075 142.14 159.573 142.348C155.751 143.92 152.341 145.042 150.153 145.705C149.984 145.757 149.806 145.761 149.646 145.722C150.188 147.277 150.911 148.845 151.808 150.413C152.081 150.885 151.916 151.492 151.44 151.764C151.284 151.851 151.115 151.894 150.95 151.894H150.955ZM119.645 149.564C116.647 149.564 113.592 149.464 110.577 149.27C110.031 149.235 109.619 148.763 109.654 148.217C109.689 147.671 110.135 147.277 110.702 147.294C113.679 147.485 116.686 147.585 119.645 147.585H120.525C121.067 147.585 121.509 148.022 121.513 148.563C121.513 149.109 121.075 149.555 120.529 149.56H119.641L119.645 149.564ZM130.404 149.14C129.893 149.14 129.459 148.75 129.42 148.23C129.377 147.684 129.784 147.208 130.326 147.164C133.636 146.9 136.912 146.502 140.062 145.986C140.603 145.908 141.11 146.263 141.197 146.805C141.284 147.342 140.92 147.853 140.378 147.94C137.176 148.464 133.844 148.867 130.482 149.135C130.456 149.135 130.43 149.135 130.404 149.135V149.14ZM100.798 148.291C100.754 148.291 100.711 148.291 100.663 148.282C97.3486 147.831 94.0469 147.255 90.8449 146.58C90.312 146.467 89.9697 145.939 90.0824 145.406C90.195 144.873 90.7193 144.526 91.2566 144.643C94.4065 145.315 97.6605 145.878 100.927 146.324C101.469 146.398 101.846 146.896 101.772 147.437C101.703 147.935 101.278 148.291 100.793 148.291H100.798ZM81.4687 144.167C81.3733 144.167 81.2824 144.154 81.187 144.124C77.9374 143.153 74.7701 142.053 71.7674 140.853C71.2605 140.65 71.0135 140.074 71.2171 139.567C71.4208 139.06 71.9927 138.809 72.504 139.017C75.4503 140.195 78.5657 141.273 81.759 142.226C82.2832 142.382 82.5779 142.932 82.4219 143.457C82.2962 143.885 81.9019 144.163 81.473 144.163L81.4687 144.167ZM168.108 138.124C167.766 138.124 167.432 137.947 167.25 137.626C166.977 137.154 167.142 136.548 167.614 136.279C170.851 134.425 173.451 132.511 175.348 130.588C175.734 130.198 176.358 130.193 176.748 130.579C177.138 130.96 177.142 131.588 176.757 131.978C174.733 134.027 171.991 136.054 168.598 137.995C168.442 138.081 168.273 138.124 168.108 138.124ZM63.1537 136.799C62.9977 136.799 62.8417 136.764 62.6944 136.686C59.6658 135.092 56.7888 133.351 54.1371 131.506C53.6908 131.194 53.5781 130.579 53.8901 130.128C54.202 129.678 54.8173 129.565 55.2679 129.882C57.8546 131.679 60.6623 133.381 63.6173 134.936C64.0983 135.192 64.2846 135.79 64.0333 136.271C63.8556 136.608 63.5133 136.799 63.158 136.799H63.1537ZM148.606 132.901C148.511 132.901 148.42 132.888 148.325 132.857C147.8 132.701 147.506 132.151 147.662 131.627C148.589 128.521 149.936 125.208 151.453 122.297C151.704 121.812 152.298 121.621 152.787 121.877C153.273 122.128 153.459 122.726 153.208 123.211C151.747 126.013 150.448 129.206 149.555 132.195C149.429 132.623 149.035 132.901 148.606 132.901ZM180.067 123.575C179.547 123.575 179.109 123.168 179.079 122.644C178.932 120.123 177.467 117.545 174.716 114.985L175.318 114.197L176.003 113.482C179.2 116.458 180.877 119.486 181.055 122.531C181.085 123.077 180.669 123.544 180.123 123.575C180.106 123.575 180.084 123.575 180.067 123.575ZM157.956 115.644C157.709 115.644 157.458 115.553 157.268 115.362C156.878 114.981 156.869 114.357 157.25 113.963C160.188 110.94 163.299 109.359 166.488 109.268C167.003 109.259 167.489 109.684 167.506 110.229C167.523 110.775 167.09 111.23 166.544 111.247C163.888 111.321 161.236 112.703 158.658 115.349C158.463 115.548 158.208 115.648 157.948 115.648L157.956 115.644Z" fill="#C9C2FB"/>
<path d="M73.6479 134.459C73.5049 134.459 73.362 134.429 73.2233 134.364L63.2318 129.586C62.7378 129.352 62.5299 128.759 62.7682 128.269C63.0021 127.775 63.5914 127.567 64.0853 127.806L74.0769 132.583C74.5708 132.817 74.7788 133.411 74.5405 133.9C74.3715 134.255 74.0162 134.463 73.6479 134.463V134.459Z" fill="#2E2020"/>
<path d="M83.6349 133.156C83.492 133.156 83.3446 133.126 83.206 133.056L53.669 118.727C53.1793 118.489 52.9714 117.9 53.2097 117.406C53.448 116.913 54.0372 116.709 54.5312 116.947L84.0682 131.28C84.5578 131.519 84.7658 132.108 84.5275 132.601C84.3585 132.952 84.0032 133.16 83.6349 133.16V133.156Z" fill="#2E2020"/>
<path d="M71.4727 196.561C71.347 196.561 71.2171 196.535 71.0914 196.483C69.7179 195.911 68.3704 195.314 67.0229 194.72C64.1632 193.455 61.4638 192.264 58.5608 191.294C58.0452 191.121 57.7636 190.562 57.9369 190.042C58.1102 189.527 58.6648 189.245 59.1891 189.418C62.1831 190.415 65.0514 191.684 67.8244 192.91C69.1546 193.499 70.4935 194.088 71.854 194.655C72.3566 194.863 72.5949 195.444 72.3869 195.946C72.2266 196.327 71.8626 196.552 71.4727 196.552V196.561Z" fill="#2E2020"/>
<path d="M68.8684 189.175C68.7211 189.175 68.5695 189.141 68.4265 189.072C63.0321 186.377 51.2207 181.331 51.1037 181.279C50.6011 181.067 50.3671 180.482 50.5838 179.98C50.7961 179.477 51.381 179.248 51.8836 179.46C52.005 179.512 63.8683 184.58 69.3147 187.3C69.8043 187.542 69.9993 188.136 69.7567 188.625C69.5833 188.972 69.2324 189.171 68.8728 189.171L68.8684 189.175Z" fill="#2E2020"/>
<path fill-rule="evenodd" clip-rule="evenodd" d="M76.8193 774.641C76.8193 774.641 78.6175 771.47 79.2804 769.529C79.9433 767.589 82.4044 760.303 82.738 757.133C83.0716 753.962 84.3022 747.906 84.5361 743.124C84.7745 738.347 85.0128 725.287 85.0128 725.287C85.0128 725.287 90.0302 726.517 91.8283 726.851C93.6265 727.18 100.299 728.224 102.669 727.89C105.035 727.561 108.726 726.803 110.429 725.902C112.132 725.001 112.323 726.279 111.755 727.561C111.188 728.839 108.822 735.791 108.064 739.061C107.305 742.327 105.555 750.228 104.987 754.061C104.42 757.895 103.094 764.284 103.141 766.883C103.189 769.486 103.046 770.196 103.566 772.843C104.086 775.494 105.226 780.224 105.226 780.224C105.226 780.224 103.332 779.28 101.014 780.415C98.6959 781.549 95.9012 782.827 94.0554 783.776C92.2096 784.724 90.9314 785.197 88.804 784.958C86.6722 784.72 83.5959 783.347 82.2267 781.502C80.8532 779.657 79.3411 777.621 78.5828 776.486C77.8246 775.351 76.8323 774.641 76.8323 774.641H76.8193Z" fill="white"/>
<path fill-rule="evenodd" clip-rule="evenodd" d="M250.518 728.539C250.518 728.539 248.694 724.956 247.381 723.237C246.068 721.517 242.771 717.268 240.457 715.21C238.144 713.153 233.65 709.514 231.246 707.271C228.841 705.027 222.511 700.366 222.511 700.366C222.511 700.366 224.283 698.027 225.357 696.801C226.428 695.576 230.197 690.846 231.38 688.74C232.563 686.635 234.656 683.573 235.353 682.139C236.051 680.705 236.714 681.26 237.463 682.074C238.213 682.888 243.703 688.97 245.934 691.162C248.166 693.353 252.247 697.209 254.595 699.305C256.944 701.401 258.846 702.887 261.06 704.044C263.278 705.205 264.674 705.932 267.104 706.716C269.531 707.5 271.736 707.162 270.558 708.41C269.375 709.662 269.123 711.316 268.699 713.309C268.27 715.301 268.17 717.684 267.607 719.988C267.044 722.292 266.775 723.765 265.319 724.922C263.863 726.078 262.334 727.226 260.562 727.534C258.79 727.841 257.373 728.5 255.141 728.339C252.91 728.179 250.527 728.539 250.527 728.539H250.518Z" fill="white"/>
<path fill-rule="evenodd" clip-rule="evenodd" d="M84.506 554.775C84.506 547.247 86.7721 527.894 89.0295 509.069C90.793 494.385 92.5521 479.112 93.2367 475.933C97.6042 455.553 169.703 476.452 183.52 470.826C184.928 470.254 184.95 482.43 184.166 497.144C183.212 515.077 181.644 537.674 179.356 556.854C178.269 565.977 174.49 600.508 174.551 607.555C174.564 609.275 181.956 613.65 190.292 620.234C209.158 635.125 238.989 657.727 242.728 660.928C244.327 662.297 240.809 671.454 236.073 680.854C232.776 687.398 229.483 692.575 226.155 696.807C223.421 700.276 220.462 703.598 219.171 702.373C218.447 701.684 194.794 685.887 175.34 669.059C163.723 659.01 153.481 649.06 147.276 642.108C143.502 637.88 141.379 634.45 140.902 633.692C138.103 629.209 134.286 612.445 131.305 600.551C129.875 594.859 129.026 588.371 127.843 588.457C127.323 588.496 122.756 612.762 122.639 617.665C122.059 642.303 125.343 710.239 123.9 717.386C123.064 721.522 114.195 726.408 105.013 727.478C93.6916 728.795 80.7841 725.304 80.3508 723.45C80.1775 722.709 79.5319 698.258 79.4539 673.26C79.3629 644.352 79.8612 614.278 79.9219 612.411C80.1212 606.23 80.3075 596.848 81.4557 585.17C82.4826 574.778 84.5017 562.139 84.5017 554.784L84.506 554.775Z" fill="white"/>
<path fill-rule="evenodd" clip-rule="evenodd" d="M15.4188 211.651C15.4188 208.909 16.8919 206.995 18.2005 204.69C19.3183 202.724 18.7724 201.333 20.0723 198.921C21.1815 196.863 24.0975 193.688 25.484 192.878C26.1816 192.471 28.6643 190.136 29.8558 190.019C30.2544 189.98 30.1981 188.399 30.991 187.745C32.5682 186.433 35.3759 185.588 36.9227 185.506C37.538 185.471 39.9817 184.791 42.6984 183.847C44.9168 183.076 47.5208 181.945 47.8155 182.409C48.4134 183.344 47.8675 184.99 46.7019 187.074C46.39 187.628 37.2563 191.574 34.9729 191.839C33.6774 191.99 39.0978 196.764 39.2018 197.959C39.2538 198.565 40.4236 197.777 41.1776 196.187C41.9315 194.593 43.5823 191.847 44.9081 190.167C46.8493 187.702 48.3398 186.073 49.41 187.273C49.9949 187.927 50.0296 190.509 48.3657 193.74C46.7019 196.971 44.1066 208.29 44.1066 209.533C44.1066 212.296 43.0407 218.2 42.3344 220.721C40.6533 226.716 38.2702 228.574 37.3776 231.68C37.1307 232.533 35.3585 248.24 35.2026 256.435C35.1939 257.002 34.8863 263.209 34.7953 268.563C34.6436 277.218 34.5093 286.868 33.0231 291.048C32.3992 292.803 48.5651 289.051 56.9058 287.54C59.5748 287.055 62.9891 285.937 62.7855 286.427C61.451 289.576 59.4448 297.229 58.9206 304.42C58.4656 310.67 59.4318 316.752 59.1156 316.99C57.6294 318.094 45.987 318.047 35.4712 317.778C25.3843 317.518 17.4682 316.241 16.8919 315.872C15.1805 314.789 11.8658 307.508 12.0435 298.637C12.2125 290.251 13.6553 282.069 15.1241 274.142C16.58 266.276 18.0575 258.635 18.3131 258.159C20.1112 254.806 22.594 241.067 23.3219 233.348C23.6469 229.922 23.1009 228.86 22.8886 228.401C20.9475 224.217 15.4318 215.103 15.4318 211.66L15.4188 211.651Z" fill="white"/>
<path fill-rule="evenodd" clip-rule="evenodd" d="M258.505 472.306C258.505 469.729 260.138 465.367 261.161 462.82C262.456 459.593 264.185 451.324 262.049 448.612C261.516 447.932 254.852 438.017 250.246 432.945C249.661 432.304 225.185 409.234 222.065 401.351C221.476 399.857 212.585 385.45 209.136 379.585C208.759 378.948 205.198 372.867 201.619 367.084C199.383 363.472 196.437 359.028 196.437 359.028C196.437 359.028 202.152 355.095 206.883 351.283C211.61 347.467 215.358 343.768 215.358 343.768C215.358 343.768 217.113 346.843 220.029 352.231C222.945 357.62 227.026 365.317 227.026 365.317C230.87 372.221 237.685 383.033 239.479 384.857C246.221 391.696 255.077 409.845 255.74 411.318C257.616 415.476 260.415 421.592 264.337 427.613C269.046 434.842 274.809 441.73 275.082 442.288C275.762 443.679 277.409 446.52 278.756 449.258C281.17 454.157 283.822 459.853 286.746 464.431C290.823 470.816 294.389 473.172 294.389 477.759C294.389 478.717 294.207 480.592 293.583 481.727C292.154 484.326 289.376 486.24 288.098 487.15C286.885 488.016 285.819 488.216 284.588 488.164C283.141 488.103 281.178 490.308 279.281 490.429C277.721 490.529 276.282 488.54 274.562 488.54C272.43 488.54 270.212 487.943 268.436 486.808C267.534 486.232 266.737 485.76 265.689 485.361C265.112 485.14 264.415 488.25 263.05 488.584C261.169 489.047 261.321 486.119 261.26 484.023C261.169 480.657 258.505 476.386 258.505 472.315V472.306Z" fill="white"/>
<path fill-rule="evenodd" clip-rule="evenodd" d="M99.181 219.306C101.62 216.295 98.8907 214.758 97.3396 208.442C96.447 204.813 95.8837 199.714 97.7382 195.062C100.26 188.742 105.797 183.181 107.591 182.618C113.011 180.924 113.917 180.231 115.577 178.286C117.856 175.614 123.579 172.517 128.887 171.213C133.354 170.117 137.431 170.593 139.853 170.593C144.048 170.593 147.198 171.572 151.461 173.391C156.236 175.427 162.055 178.55 165.292 183.345C170.049 190.393 171.444 201.599 172.476 211.089C172.748 213.632 173.585 218.985 175.686 224.153C177.827 229.411 181.276 234.484 185.782 236.056C186.713 236.381 190.769 238.287 194.127 238.659C201.462 239.474 211.168 239.452 217.953 245.347C220.856 247.872 224.01 252.615 224.374 256.592C224.942 262.769 219.08 273.043 219.565 276.439C220.102 280.168 222.559 284.084 224.608 284.946C226.471 285.73 227.958 283.586 228.109 284.218C228.85 287.324 217.849 291.153 217.481 293.518C216.896 297.256 213.854 301.116 211.41 303.243C208.538 305.742 206.189 306.201 205.124 306.483C193.663 309.51 145.789 251.06 140.256 251.06C126.322 251.06 112.535 209.33 102.972 218.383C100.975 220.276 97.8075 221 99.1853 219.297L99.181 219.306Z" fill="#0EE4CF"/>
<path fill-rule="evenodd" clip-rule="evenodd" d="M90.0045 378.979C90.0045 376.02 88.293 372.161 87.2704 368.54C85.416 361.973 83.4835 355.056 81.5424 347.649C79.7876 340.944 79.5406 332.644 79.9003 329.209C80.3466 324.943 80.8275 321.521 80.1559 321.898C78.9557 322.574 73.609 323.336 68.8125 323.726C64.7916 324.055 61.2863 324.38 61.0134 323.548C59.2239 318.151 57.8981 310.19 59.2326 301.28C60.1208 295.32 61.3947 289.914 62.9805 285.578C63.9467 282.927 65.4589 280.129 65.8185 279.453C67.114 277.014 75.5804 278.401 79.7616 277.179C81.5381 276.659 85.5416 275.793 87.4394 275.351C92.1362 274.26 97.9293 272.575 101.937 271.981C108.757 270.972 112.622 271.466 113.22 271.383C117.401 270.807 116.66 270.179 118.038 269.915C120.326 269.478 113.333 289.476 115.945 289.476C128.173 289.476 150.578 257.873 154.365 260.325C158.888 263.253 170.258 267.351 173.382 268.624C181.15 271.795 187.645 278.556 193.421 286.652C198.317 293.513 202.923 301.691 204.972 305.728C206.718 309.167 209.561 314.53 212.611 320.269C216.476 327.525 220.441 334.975 220.402 335.399C220.016 339.445 217.919 341.866 213.317 346.202C206.597 352.535 196.497 358.885 193.542 359.405C192.394 359.608 187.801 353.267 183.629 348.086C180.08 343.677 176.843 340.142 175.968 339.653C174.946 339.09 172.095 344.469 170.427 348.597C168.594 353.133 167.935 356.719 166.622 362.359C165.218 368.384 165.231 373.084 164.997 375.57C164.759 378.121 165.981 390.683 168.754 398.41C171.111 404.968 174.573 414.151 177.147 421.003C179.811 428.09 181.259 433.049 184.378 439.551C187.221 445.477 191.055 450.462 193.391 454.551C195.362 457.999 196.458 460.789 196.159 461.295C194.422 464.249 188.715 468.689 180.175 473.038C176.211 475.057 170.145 478.128 165.435 479.072C150.253 482.108 130.725 482.425 116.192 481.155C102.275 479.943 93.0678 477.27 90.9317 474.138C89.1509 471.531 89.3675 417.27 90.1388 401.932C90.6457 391.809 90.0001 385.667 90.0001 378.962L90.0045 378.979Z" fill="#8870F9"/>
<path fill-rule="evenodd" clip-rule="evenodd" d="M101.53 223.94C101.53 220.817 101.582 217.295 101.95 212.548C102.366 207.142 103.198 200.515 104.922 197.699C108.748 191.462 115.325 184.748 120.568 184.748C123.003 184.748 126.274 186.524 128.454 188.82C131.482 192.008 131.924 193.957 133.996 201.23C135.776 207.484 136.829 213.462 142.267 219.639C143.731 221.302 148.385 222.528 153.493 222.263C154.637 222.203 156.232 220.713 158.112 221.103C159.603 221.414 161.539 223.394 161.678 224.776C161.817 226.197 160.95 230.082 159.373 232.144C157.484 234.621 154.633 235.228 152.072 235.908C151.578 236.038 151.327 241.998 151.175 245.706C150.941 251.458 151.869 256.595 154.213 260.121C154.447 260.472 147.891 270.066 138.697 277.759C129.918 285.11 118.575 290.611 114.745 289.524C112.188 288.8 112.067 284.772 112.773 280.063C113.28 276.668 121.66 267.359 123.332 261.308C123.9 259.242 123.961 251.415 123.098 251.428C122.236 251.436 119.377 251.402 118.987 251.402C112.6 251.402 105.286 245.606 102.244 237.597C100.676 233.469 101.538 228.882 101.538 223.931L101.53 223.94Z" fill="white"/>
<path fill-rule="evenodd" clip-rule="evenodd" d="M107.591 231.153C107.591 231.153 108.683 230.607 113.657 230.607C118.631 230.607 122.384 231.067 122.384 231.067C122.384 231.067 119.632 238.357 114.658 238.357C109.684 238.357 107.591 231.153 107.591 231.153Z" fill="white"/>
<path fill-rule="evenodd" clip-rule="evenodd" d="M440.28 759.635C445.007 753.506 446.493 744.955 443.456 737.28C443.456 737.28 413.187 642.999 385.578 597.895C369.767 572.066 333.198 556.52 322.6 561.345L292.279 575.336C281.676 580.162 276.641 593.052 281.026 604.128L350.23 778.819C353.146 786.183 359.498 790.891 366.543 791.801C366.543 791.801 371.08 792.126 374.187 791.186C377.293 790.246 430.236 766.834 430.236 766.834C430.236 766.834 432.19 766.405 434.742 764.655C437.299 762.905 438.59 761.822 440.275 759.631L440.28 759.635Z" fill="#5C55BB"/>
<path fill-rule="evenodd" clip-rule="evenodd" d="M361.639 802.54C361.687 798.004 364.612 793.088 371.362 792.69C376.692 792.373 380.83 797.515 380.548 803.107C380.422 805.645 378.264 810.189 373.654 811.385C372.835 811.597 371.947 811.705 370.972 811.675C364.815 811.502 361.609 805.528 361.639 802.54Z" fill="#0EE4CF"/>
<path fill-rule="evenodd" clip-rule="evenodd" d="M434.882 769.602C434.929 765.067 437.854 760.151 444.604 759.752C449.934 759.436 454.072 764.582 453.794 770.174C453.664 772.712 451.507 777.256 446.897 778.451C446.082 778.664 445.189 778.772 444.215 778.746C438.058 778.568 434.851 772.595 434.882 769.606V769.602Z" fill="#0EE4CF"/>
<path fill-rule="evenodd" clip-rule="evenodd" d="M345.902 767.597C345.902 767.597 349.762 767.242 351.89 768.017C354.017 768.792 361.127 770.542 363.801 772.431C366.47 774.324 370.3 776.221 371.786 778.296C373.277 780.375 373.931 782.541 374.811 784.568C375.69 786.595 377.662 790.368 377.662 790.368C377.662 790.368 373.48 792.083 371.249 791.862C369.018 791.637 366.838 791.996 363.528 791C360.218 790 357.241 788.085 354.633 785.616C352.024 783.147 350.074 779.071 349.087 776.251C348.094 773.431 345.906 767.597 345.906 767.597H345.902Z" fill="#9C8FFB"/>
<path fill-rule="evenodd" clip-rule="evenodd" d="M429.679 767.381C429.679 767.381 428.028 763.383 427.581 761.317C427.135 759.255 428.808 748.66 429.189 746.243C429.57 743.822 432.374 737.06 433.613 734.27C434.852 731.481 436.698 729.371 438.292 728.813C439.887 728.254 440.164 726.911 440.961 728.938C441.759 730.965 443.123 735.916 444.007 738.819C444.891 741.721 445.407 744.48 445.19 746.598C444.973 748.716 444.597 751.748 443.323 754.659C442.049 757.57 440.888 758.497 439.297 760.494C437.707 762.49 435.259 764.388 433.877 765.167C432.495 765.947 429.687 767.381 429.687 767.381H429.679Z" fill="#9C8FFB"/>
<path fill-rule="evenodd" clip-rule="evenodd" d="M312.124 633.917C309.974 634.761 309.467 638.46 310.993 642.177L342.735 719.612C344.26 723.328 347.233 725.65 349.382 724.805C351.531 723.961 352.038 720.262 350.513 716.545L318.77 639.11C317.245 635.398 314.273 633.072 312.124 633.921V633.917Z" fill="#B8B3FB"/>
<path fill-rule="evenodd" clip-rule="evenodd" d="M368.62 787.333C367.307 788.693 368.286 790.984 368.174 792.869C368.091 794.224 367.918 795.519 367.801 796.854C367.662 798.478 369.114 804.828 371.523 801.051C373.438 798.049 374.695 781.052 368.62 787.333Z" fill="#E2E2E2"/>
<path fill-rule="evenodd" clip-rule="evenodd" d="M432.698 761.151C432.902 764.053 439.799 767.311 442.087 768.272C442.646 768.506 445.28 768.827 444.951 767.358C444.167 763.811 432.091 752.618 432.698 761.151Z" fill="#E2E2E2"/>
<path fill-rule="evenodd" clip-rule="evenodd" d="M299.359 572.032L268.214 486.207L274.922 488.802L304.142 569.962L299.363 572.032H299.359Z" fill="#E2E2E2"/>
<path fill-rule="evenodd" clip-rule="evenodd" d="M312.566 565.768L284.35 488.333L288.943 486.354L316.79 563.507L312.566 565.773V565.768Z" fill="#E2E2E2"/>
<path fill-rule="evenodd" clip-rule="evenodd" d="M269.016 486.116C269.016 486.116 266.013 485.509 264.661 484.413C263.314 483.322 260.944 479.454 261.186 477.444C261.433 475.434 262.456 472.493 263.708 471.375C264.96 470.258 266.017 469.513 268.322 469.4C270.627 469.292 276.191 469.786 276.191 469.786C276.191 469.786 278.435 472.541 278.86 474.204C279.285 475.867 279.367 476.89 278.531 477.609C277.69 478.323 276.126 479.896 274.596 481.243C273.063 482.59 269.016 486.116 269.016 486.116Z" fill="#8870F9"/>
<path fill-rule="evenodd" clip-rule="evenodd" d="M43.6903 183.558L34.8817 153.878C34.8817 153.878 29.1753 149.715 26.6493 147.541C24.1232 145.366 16.0772 138.843 14.7296 136.439C13.3821 134.035 11.6187 129.989 11.7227 128.019C11.8266 126.048 12.3509 124.874 13.8977 125.025C15.4489 125.173 17.3293 124.904 19.1491 126.554C20.9733 128.209 23.9153 130.899 26.7229 132.796C29.5306 134.689 36.3159 139.939 36.3159 139.939C36.3159 139.939 42.2908 121.235 43.9027 118.333C45.5145 115.431 47.4599 111.827 47.8672 114.69C48.2745 117.558 47.4556 129.76 47.4383 132.861C47.4209 135.963 46.368 147.835 46.368 147.835L73.9162 169.822L85.7665 167.258L96.434 174.925L69.2628 178.724L46.4244 162.822C46.4244 162.822 46.8273 166.911 47.044 169.684C47.2649 172.456 47.3993 182.223 47.3993 182.223L43.6817 183.566L43.6903 183.558Z" fill="white"/>
<path fill-rule="evenodd" clip-rule="evenodd" d="M68.5826 776.254C76.971 764.425 78.5611 784.996 89.7139 785.099C94.2634 785.143 101.391 778.936 105.174 780.218C110.746 782.111 107.812 799.606 105.949 800.94C101.629 804.046 93.5008 803.054 88.8126 803.985C85.615 804.622 80.8965 808.477 70.6147 810.248C51.6974 813.51 24.0365 814.649 23.5512 810.487C22.9663 805.466 28.2264 802.495 32.0523 800.758C37.5853 798.25 49.1497 794.469 58.5 787.46C62.4299 784.515 66.1648 779.655 68.5826 776.246V776.254Z" fill="#0EE4CF"/>
<path fill-rule="evenodd" clip-rule="evenodd" d="M247.2 736.428C242.04 722.879 260.017 733.006 266.312 723.806C268.882 720.05 267.69 710.672 270.857 708.251C275.533 704.673 288.436 716.849 288.509 719.141C288.687 724.46 283.336 730.654 281.503 735.068C280.251 738.078 280.827 744.142 276.577 753.672C268.76 771.197 254.31 794.804 250.58 792.89C246.082 790.581 246.537 784.56 247.226 780.415C248.223 774.424 251.516 762.716 250.896 751.047C250.636 746.143 248.678 740.335 247.191 736.432L247.2 736.428Z" fill="#0EE4CF"/>
<path fill-rule="evenodd" clip-rule="evenodd" d="M23.7422 811.176C23.7422 811.176 25.2197 812.142 27.3168 812.233C29.4139 812.324 39.0329 813.251 42.2998 813.004C45.5712 812.761 58.5177 811.748 61.789 811.505C65.0603 811.258 75.6932 809.357 77.7166 808.607C79.7401 807.858 83.0114 806.177 84.6448 805.341C86.2783 804.501 87.5955 803.86 90.3166 803.617C93.0376 803.379 96.6989 803.5 99.3376 803.037C101.976 802.573 104.424 802.335 105.703 801.274C106.981 800.213 107.882 799.879 107.804 801.638C107.726 803.396 106.244 806.455 104.819 807.278C103.393 808.1 101.547 808.685 98.7266 808.763C95.9059 808.841 92.1667 808.772 88.3364 809.634C84.5105 810.496 77.578 812.055 71.9972 813.116C66.4165 814.178 58.899 815.048 54.3235 815.594C49.7524 816.144 41.6153 817.894 37.5684 817.682C33.5215 817.47 31.1037 817.574 28.3047 816.703C25.5057 815.832 23.9935 814.719 23.6729 813.48C23.3523 812.241 23.7422 811.176 23.7422 811.176Z" fill="white"/>
<path fill-rule="evenodd" clip-rule="evenodd" d="M251.849 793.226C251.849 793.226 255.553 789.83 257.022 787.851C258.495 785.871 264.124 777.303 265.696 774.614C267.269 771.928 273.916 760.159 275.541 756.456C277.165 752.752 279.497 745.146 279.8 743.318C280.103 741.49 280.458 737.536 281.373 735.002C282.287 732.463 285.688 728.101 286.55 725.771C287.413 723.436 288.323 721.509 288.323 719.685C288.323 717.862 288.626 716.437 289.895 717.81C291.165 719.178 292.738 720.902 292.989 722.626C293.24 724.35 293.24 726.074 292.278 727.699C291.317 729.323 289.64 730.895 288.526 733.022C287.413 735.153 285.077 742.101 283.504 746.108C281.932 750.114 278.431 758.99 275.337 764.82C272.243 770.655 268.335 777.802 266.004 782.012C263.669 786.222 261.437 789.921 258.699 792.104C255.961 794.287 255.454 794.638 254.236 794.491C253.019 794.339 251.853 793.222 251.853 793.222L251.849 793.226Z" fill="white"/>
<path d="M119.754 252.39C119.585 252.39 119.42 252.39 119.255 252.381C114.104 252.238 109.264 249.665 105.633 245.13C100.992 239.335 99.1379 231.183 100.68 223.321C100.784 222.784 101.296 222.433 101.842 222.541C102.379 222.645 102.725 223.165 102.622 223.702C101.192 231.001 102.899 238.551 107.18 243.896C110.442 247.967 114.749 250.28 119.312 250.406C127.405 250.623 138.389 244.675 142.297 237.922C142.57 237.45 143.173 237.286 143.649 237.563C144.121 237.836 144.282 238.442 144.009 238.914C139.797 246.191 128.58 252.39 119.758 252.39H119.754Z" fill="#2E2020"/>
<path d="M102.604 206.683C102.539 206.683 102.474 206.678 102.409 206.665C101.876 206.557 101.525 206.037 101.634 205.5C103.037 198.552 106.083 193.129 110.945 188.928C111.357 188.573 111.98 188.616 112.34 189.027C112.695 189.439 112.652 190.067 112.24 190.422C107.726 194.325 104.892 199.384 103.575 205.89C103.479 206.358 103.068 206.683 102.604 206.683Z" fill="#2E2020"/>
<path d="M112.977 224.469C112.795 224.469 112.613 224.421 112.448 224.317C111.621 223.793 111.105 222.823 110.728 222.117C109.355 219.539 111.058 217.486 112.297 215.988C113.727 214.259 114.017 213.675 113.328 212.83C112.981 212.41 113.042 211.786 113.467 211.439C113.887 211.093 114.511 211.154 114.857 211.578C116.682 213.8 115.026 215.793 113.822 217.252C112.522 218.82 111.764 219.851 112.474 221.19C112.717 221.645 113.124 222.407 113.506 222.65C113.969 222.94 114.104 223.55 113.813 224.014C113.627 224.313 113.306 224.473 112.977 224.473V224.469Z" fill="#2E2020"/>
<path d="M103.51 206.121C103.289 206.121 103.068 206.047 102.886 205.896C102.466 205.549 102.401 204.925 102.747 204.505C104.39 202.5 108.532 202.365 110.521 203.253C111.019 203.474 111.244 204.059 111.019 204.562C110.798 205.06 110.213 205.285 109.71 205.06C108.272 204.419 105.165 204.674 104.273 205.757C104.078 205.995 103.792 206.121 103.506 206.121H103.51Z" fill="#2E2020"/>
<path d="M130.581 205.883C130.295 205.883 130.009 205.757 129.814 205.519C128.177 203.522 123.961 203.024 121.56 203.942C121.053 204.137 120.477 203.881 120.282 203.37C120.087 202.859 120.343 202.287 120.854 202.093C123.982 200.893 129.134 201.568 131.344 204.263C131.691 204.683 131.63 205.307 131.205 205.653C131.023 205.805 130.798 205.878 130.581 205.878V205.883Z" fill="#2E2020"/>
<path d="M151.596 236.94C150.608 236.94 149.724 236.658 149.135 235.9C148.797 235.467 148.879 234.848 149.308 234.514C149.742 234.176 150.361 234.258 150.695 234.687C151.028 235.116 152.484 235.086 154.625 234.194C158.074 232.755 161.505 228.004 160.587 224.508C160.283 223.352 158.758 222.091 157.385 221.862C156.531 221.719 155.894 221.974 155.444 222.646C155.14 223.1 154.529 223.222 154.074 222.919C153.619 222.615 153.498 222 153.801 221.55C154.677 220.237 156.102 219.64 157.714 219.912C159.854 220.268 162.003 222.109 162.502 224.006C163.706 228.597 159.668 234.232 155.387 236.017C154.213 236.507 152.826 236.94 151.6 236.94H151.596Z" fill="#2E2020"/>
<path d="M151.856 231.104C151.609 231.104 151.362 231.013 151.167 230.827C150.773 230.446 150.764 229.822 151.141 229.428C152.644 227.873 154.291 227.132 156.332 227.093C156.847 227.063 157.328 227.518 157.337 228.064C157.346 228.609 156.912 229.06 156.366 229.068C154.845 229.094 153.71 229.61 152.566 230.797C152.371 230.996 152.111 231.1 151.856 231.1V231.104Z" fill="#2E2020"/>
<path d="M150.378 223.394C148.918 223.394 147.419 223.308 145.859 222.805C142.631 221.766 140.209 218.5 138.19 215.519C135.508 211.556 134.355 206.995 133.238 202.585C132.241 198.639 131.205 194.555 129.074 191.016C127.735 188.794 123.562 185.498 119.801 185.181C118.155 185.047 116.851 185.519 115.915 186.606C115.56 187.018 114.931 187.061 114.52 186.71C114.108 186.355 114.06 185.731 114.416 185.316C115.767 183.748 117.683 183.011 119.966 183.215C124.134 183.57 129 187.074 130.763 190.002C133.047 193.792 134.113 198.02 135.148 202.109C136.27 206.549 137.336 210.746 139.819 214.419C141.145 216.373 143.606 220.011 146.457 220.934C148.121 221.471 149.754 221.445 151.496 221.419C152.046 221.41 152.605 221.397 153.173 221.41C153.719 221.419 154.156 221.865 154.148 222.411C154.139 222.957 153.766 223.329 153.147 223.386C152.597 223.381 152.059 223.386 151.526 223.394C151.141 223.403 150.755 223.407 150.365 223.407L150.378 223.394Z" fill="#2E2020"/>
<path d="M101.469 207.974C101.105 207.974 100.759 207.775 100.585 207.428C97.3575 200.978 102.241 193.398 105.633 189.933L105.915 189.643C107.509 187.997 110.183 185.238 113.12 186.381C113.632 186.576 113.883 187.152 113.688 187.659C113.489 188.17 112.912 188.421 112.41 188.226C110.69 187.564 108.675 189.643 107.336 191.025L107.046 191.319C103.12 195.326 99.9789 201.797 102.353 206.545C102.596 207.034 102.401 207.627 101.911 207.87C101.768 207.939 101.617 207.974 101.469 207.974Z" fill="#2E2020"/>
<path fill-rule="evenodd" clip-rule="evenodd" d="M103.783 215.935C103.913 214.419 104.935 213.272 106.058 213.367C107.184 213.466 107.99 214.775 107.86 216.291C107.726 217.807 106.708 218.955 105.581 218.859C104.455 218.76 103.649 217.452 103.783 215.935Z" fill="#2E2020"/>
<path fill-rule="evenodd" clip-rule="evenodd" d="M122.631 214.359C122.761 212.843 123.783 211.695 124.905 211.791C126.032 211.89 126.838 213.198 126.708 214.714C126.573 216.231 125.555 217.378 124.429 217.283C123.302 217.183 122.496 215.875 122.631 214.359Z" fill="#2E2020"/>
<path d="M99.4415 220.376C99.3072 220.376 99.1642 220.35 99.0342 220.29C98.5359 220.065 98.3193 219.48 98.5446 218.982C99.6755 216.491 98.8262 214.776 97.743 212.606C97.2534 211.622 96.7465 210.604 96.3738 209.426C95.2343 205.814 95.022 201.508 95.8236 198.19C97.4094 191.645 100.629 186.629 105.663 182.861C106.69 182.09 108.025 181.609 109.316 181.146C110.607 180.682 111.942 180.201 112.639 179.504C113.025 179.118 113.653 179.118 114.039 179.504C114.424 179.889 114.424 180.518 114.039 180.903C113.029 181.912 111.482 182.467 109.988 183.008C108.835 183.424 107.644 183.853 106.855 184.446C102.206 187.933 99.2292 192.581 97.7517 198.662C97.0411 201.603 97.2447 205.597 98.2673 208.837C98.5923 209.868 99.0645 210.817 99.5195 211.731C100.676 214.057 101.872 216.456 100.347 219.805C100.182 220.168 99.8228 220.385 99.4458 220.385L99.4415 220.376Z" fill="#2E2020"/>
<path d="M114.659 239.343C109.009 239.343 106.738 231.755 106.643 231.43C106.509 230.971 106.721 230.481 107.15 230.269C107.453 230.117 108.827 229.619 113.658 229.619C118.489 229.619 122.345 230.065 122.501 230.087C122.804 230.122 123.069 230.295 123.229 230.555C123.385 230.815 123.415 231.131 123.307 231.417C123.186 231.742 120.252 239.343 114.659 239.343ZM108.896 231.859C109.628 233.673 111.5 237.364 114.659 237.364C117.817 237.364 119.953 233.825 120.915 231.911C119.407 231.776 116.764 231.594 113.658 231.594C111.166 231.594 109.706 231.733 108.896 231.859Z" fill="#2E2020"/>
<path d="M153.797 260.352C153.467 260.352 153.142 260.187 152.956 259.884C149.217 253.876 150.222 244.312 150.889 237.983L151.015 236.762C151.071 236.221 151.535 235.835 152.098 235.878C152.64 235.935 153.038 236.42 152.982 236.961L152.852 238.191C152.215 244.251 151.253 253.408 154.629 258.84C154.919 259.303 154.776 259.914 154.312 260.2C154.152 260.3 153.97 260.352 153.792 260.352H153.797Z" fill="#2E2020"/>
<path d="M116.5 290.374C115.542 290.374 114.671 290.209 113.926 289.828C112.804 289.256 112.076 288.225 111.816 286.843C110.564 280.212 113.536 276.049 116.686 271.635C120.243 266.654 123.922 261.504 122.323 251.819C122.236 251.281 122.6 250.77 123.138 250.684C123.688 250.593 124.186 250.961 124.273 251.498C126.006 261.989 121.911 267.724 118.294 272.788C115.274 277.019 112.661 280.675 113.757 286.48C113.909 287.272 114.247 287.775 114.823 288.074C117.358 289.364 123.337 286.558 125.59 285.501L126.028 285.297C134.325 281.446 143.207 273.303 153.182 260.399C153.511 259.966 154.135 259.884 154.568 260.222C155.001 260.555 155.079 261.175 154.746 261.608C144.572 274.771 135.452 283.105 126.864 287.09L126.435 287.29C123.051 288.879 119.385 290.378 116.5 290.378V290.374Z" fill="#2E2020"/>
<path d="M90.65 475.17C90.1561 475.17 89.7315 474.802 89.6708 474.299C88.202 462.136 88.5486 436.398 88.8562 413.688C89.0902 396.397 89.2938 381.461 88.5833 377.702C87.5174 372.058 85.8319 366.435 84.2028 360.995C82.4653 355.191 80.6628 349.187 79.6013 343.114C77.6385 331.883 78.8387 323.02 83.8778 311.511C84.3674 310.398 85.065 309.125 85.8059 307.778C87.929 303.927 90.5677 299.132 90.0304 294.796C89.9611 294.255 90.3467 293.761 90.8883 293.691C91.4256 293.605 91.9239 294.008 91.9932 294.549C92.6128 299.517 89.8008 304.624 87.539 308.726C86.8198 310.034 86.1395 311.265 85.6889 312.3C80.7582 323.557 79.6359 331.818 81.5467 342.768C82.5866 348.728 84.3717 354.671 86.0919 360.419C87.734 365.907 89.4368 371.577 90.52 377.325C91.2653 381.28 91.0616 396.306 90.8277 413.701C90.52 436.351 90.1734 462.019 91.6292 474.052C91.6942 474.594 91.3086 475.088 90.767 475.153C90.728 475.157 90.689 475.161 90.6457 475.161L90.65 475.17Z" fill="#2E2020"/>
<path d="M196.029 462.058C195.596 462.058 195.198 461.772 195.076 461.33C193.919 457.137 190.886 452.347 188.213 448.119C187.073 446.313 185.995 444.611 185.089 443.012C182.537 438.499 180.765 433.366 179.053 428.402C178.286 426.176 177.524 423.971 176.701 421.848C175.856 419.665 174.972 417.461 174.075 415.234C169.833 404.67 165.444 393.745 164.274 382.57C162.9 369.458 166.735 353.055 174.279 339.757C174.547 339.281 175.154 339.116 175.626 339.385C176.103 339.653 176.267 340.255 175.999 340.732C168.646 353.687 164.907 369.64 166.241 382.362C167.385 393.265 171.718 404.059 175.912 414.498C176.809 416.733 177.697 418.946 178.546 421.134C179.378 423.282 180.145 425.509 180.925 427.757C182.611 432.638 184.352 437.685 186.813 442.038C187.693 443.593 188.759 445.278 189.885 447.062C192.632 451.407 195.748 456.332 196.983 460.806C197.13 461.33 196.818 461.876 196.294 462.023C196.207 462.045 196.116 462.058 196.029 462.058Z" fill="#2E2020"/>
<path d="M132.263 483.265C116.101 483.265 99.6667 481.043 90.429 475.429C89.9611 475.143 89.8138 474.537 90.0997 474.069C90.3857 473.606 90.9923 473.454 91.4603 473.736C107.258 483.339 146.583 482.546 165.66 477.816C173.602 475.849 191.532 466.649 195.184 461.066C195.483 460.611 196.094 460.481 196.553 460.78C197.013 461.079 197.138 461.694 196.839 462.149C192.654 468.547 173.685 477.868 166.137 479.735C157.415 481.901 144.923 483.261 132.267 483.261L132.263 483.265Z" fill="#2E2020"/>
<path d="M193.663 360.361C193.629 360.361 193.594 360.361 193.564 360.361C192.654 360.279 191.67 359.201 187.047 353.734C180.808 346.358 169.192 332.627 163.134 332.362C162.588 332.336 162.164 331.877 162.19 331.331C162.216 330.786 162.684 330.365 163.221 330.387C170.145 330.69 181.224 343.793 188.559 352.461C190.795 355.103 191.465 358.378 193.85 358.378C196.235 358.378 214.465 346.284 218.655 338.431C219.474 336.893 219.716 334.094 219.235 333.267C216.397 328.402 213.421 324.466 210.345 318.605C202.351 303.371 193.287 286.106 182.623 275.688C178.542 271.699 173.056 269.871 167.753 268.1C162.874 266.471 157.826 264.79 153.767 261.433C153.346 261.087 153.286 260.463 153.632 260.043C153.979 259.623 154.603 259.562 155.023 259.909C158.801 263.032 163.451 264.582 168.377 266.224C173.893 268.065 179.595 269.966 184.001 274.272C194.89 284.906 204.028 302.319 212.091 317.683C215.159 323.526 217.923 327.441 220.735 332.267C221.71 333.939 221.493 337.72 219.821 340.341C214.743 348.307 198.075 359.965 193.655 360.366C189.235 360.767 193.663 360.361 193.663 360.361Z" fill="#2E2020"/>
<path d="M261.381 448.934C261.039 448.934 260.705 448.757 260.523 448.436C255.428 439.509 248.032 432.076 240.882 424.89C235.436 419.415 229.803 413.754 225.172 407.434C219.95 400.308 215.665 392.663 211.523 385.274C206.688 376.641 201.688 367.718 195.21 359.692C194.868 359.267 194.933 358.643 195.357 358.301C195.786 357.955 196.406 358.024 196.748 358.449C203.33 366.605 208.369 375.606 213.248 384.308C217.364 391.65 221.614 399.239 226.766 406.269C231.307 412.467 236.888 418.076 242.282 423.5C249.522 430.781 257.014 438.309 262.239 447.462C262.508 447.938 262.343 448.54 261.871 448.809C261.715 448.895 261.55 448.939 261.381 448.939V448.934Z" fill="#2E2020"/>
<path d="M275.346 443.601C275.082 443.601 274.822 443.497 274.627 443.294C265.818 433.998 260.64 423.607 255.164 412.601C253.348 408.953 251.472 405.185 249.453 401.464C246.151 395.383 242.022 389.648 238.031 384.103C235.345 380.374 232.572 376.519 230.046 372.564C226.978 367.765 224.374 362.649 221.853 357.703C219.712 353.501 217.502 349.161 215.037 345.08C214.755 344.613 214.903 344.006 215.371 343.725C215.839 343.447 216.445 343.59 216.727 344.062C219.227 348.203 221.458 352.578 223.612 356.81C226.107 361.714 228.694 366.786 231.71 371.507C234.206 375.419 236.966 379.252 239.635 382.955C243.664 388.552 247.828 394.334 251.19 400.528C253.222 404.275 255.112 408.061 256.931 411.726C262.343 422.593 267.451 432.855 276.061 441.938C276.433 442.332 276.416 442.96 276.022 443.337C275.831 443.519 275.584 443.61 275.342 443.61L275.346 443.601Z" fill="#2E2020"/>
<path d="M279.645 478.514C279.164 478.514 278.744 478.163 278.67 477.674C278.332 475.443 275.234 469.366 273.886 468.621C273.696 468.682 273.211 468.889 272.14 469.574C271.685 469.864 271.07 469.734 270.775 469.271C270.481 468.811 270.615 468.201 271.079 467.906C273.076 466.633 273.795 466.494 274.376 466.685C276.937 467.508 280.308 475.27 280.628 477.375C280.711 477.916 280.342 478.419 279.801 478.501C279.749 478.51 279.701 478.514 279.649 478.514H279.645Z" fill="#2E2020"/>
<path d="M262.833 489.533C262.378 489.533 261.823 489.39 261.247 488.909C260.142 487.999 260.281 486.344 260.402 484.893C260.454 484.3 260.51 483.624 260.428 483.325C260.159 482.299 259.696 481.307 259.206 480.254C258.53 478.808 257.833 477.309 257.642 475.659C257.2 471.842 258.539 467.905 259.834 464.098C260.333 462.638 260.796 461.26 261.152 459.935C263.123 452.485 262.213 450.193 261.498 449.492C261.108 449.111 261.1 448.482 261.481 448.093C261.867 447.707 262.491 447.694 262.88 448.08C264.726 449.886 264.787 453.932 263.062 460.442C262.694 461.832 262.213 463.24 261.706 464.734C260.48 468.334 259.215 472.055 259.609 475.429C259.765 476.763 260.363 478.05 261 479.418C261.507 480.506 262.031 481.627 262.339 482.823C262.503 483.451 262.439 484.231 262.374 485.054C262.313 485.781 262.2 487.129 262.508 487.384C262.746 487.579 262.85 487.562 262.885 487.544C263.166 487.475 263.652 486.938 264.037 486.033C264.25 485.53 264.839 485.301 265.337 485.513C265.84 485.729 266.074 486.31 265.857 486.812C265.493 487.666 264.679 489.147 263.348 489.468C263.201 489.502 263.028 489.528 262.833 489.528V489.533Z" fill="#2E2020"/>
<path d="M274.324 489.451C274.224 489.451 274.129 489.447 274.033 489.434C272.937 489.287 271.871 488.914 270.84 488.555C269.813 488.195 268.843 487.857 267.863 487.727C267.322 487.654 266.941 487.155 267.014 486.614C267.088 486.073 267.591 485.696 268.128 485.765C269.306 485.925 270.42 486.311 271.494 486.688C272.474 487.03 273.405 487.355 274.298 487.472C275.914 487.762 281.915 481.871 283.865 479.956C284.523 479.307 285.052 478.791 285.368 478.51C285.776 478.15 286.399 478.185 286.763 478.592C287.123 478.999 287.088 479.623 286.681 479.987C286.378 480.255 285.879 480.745 285.251 481.364C280.186 486.341 276.56 489.451 274.328 489.451H274.324Z" fill="#2E2020"/>
<path d="M268.877 486.821C268.513 486.821 268.162 486.618 267.989 486.267C267.751 485.777 267.954 485.184 268.444 484.946C271.161 483.616 273.171 481.402 275.303 479.068C275.892 478.418 276.486 477.768 277.092 477.14C277.474 476.746 278.102 476.737 278.492 477.114C278.886 477.491 278.899 478.119 278.518 478.513C277.924 479.133 277.344 479.765 276.767 480.402C274.605 482.776 272.37 485.231 269.315 486.726C269.176 486.795 269.029 486.826 268.882 486.826L268.877 486.821Z" fill="#2E2020"/>
<path d="M279.051 491.319C278.02 491.319 276.919 491.029 275.749 490.349C275.277 490.076 275.117 489.47 275.394 488.997C275.667 488.525 276.278 488.361 276.746 488.642C280.125 490.609 282.608 488.122 286.001 484.103C287.621 482.184 289.151 480.373 290.879 479.524C291.365 479.29 291.963 479.485 292.201 479.979C292.439 480.469 292.236 481.062 291.746 481.3C290.386 481.967 288.986 483.622 287.504 485.376C285.212 488.092 282.487 491.319 279.042 491.319H279.051Z" fill="#2E2020"/>
<path d="M285.589 488.953C285.355 488.953 285.126 488.922 284.896 488.866C284.368 488.723 284.056 488.186 284.194 487.657C284.337 487.129 284.87 486.808 285.403 486.956C286.491 487.233 288.718 485.141 289.68 484.244C290.013 483.937 290.295 483.672 290.512 483.495C295.72 479.224 293.367 475.559 289.095 469.937C287.89 468.352 286.642 466.71 285.711 465.038C283.804 461.616 282.206 458.385 280.52 454.967C278.657 451.199 276.733 447.301 274.298 442.999C274.029 442.523 274.198 441.921 274.671 441.652C275.134 441.384 275.745 441.548 276.018 442.025C278.475 446.369 280.416 450.294 282.292 454.088C283.969 457.484 285.555 460.694 287.44 464.072C288.302 465.623 289.506 467.208 290.672 468.742C294.446 473.706 298.718 479.328 291.772 485.024C291.577 485.18 291.326 485.418 291.031 485.691C289.606 487.021 287.531 488.957 285.589 488.957V488.953Z" fill="#2E2020"/>
<path d="M63.1062 325.004C61.4597 325.004 60.3375 324.701 59.9692 323.796C55.1857 312.057 58.5133 290.815 64.6833 279.662C66.871 275.707 71.7155 276.383 75.9011 276.409C77.4002 276.417 78.8171 276.43 79.7876 276.279C83.3796 275.715 87.0235 274.741 90.5418 273.797C95.1346 272.566 99.8834 271.297 104.689 270.877C106.036 270.76 107.327 270.778 108.584 270.791C111.816 270.825 114.611 270.86 117.288 268.716C117.717 268.374 118.337 268.443 118.679 268.867C119.022 269.296 118.952 269.916 118.528 270.258C115.295 272.839 111.872 272.805 108.562 272.766C107.353 272.753 106.105 272.74 104.862 272.848C100.23 273.251 95.5679 274.498 91.0574 275.707C87.4871 276.664 83.7955 277.652 80.0996 278.232C78.9687 278.41 77.4696 278.397 75.8924 278.384C72.2441 278.353 67.6946 278.319 66.4208 280.619C60.6148 291.11 57.3348 311.793 61.7456 322.89C62.0056 322.99 62.8245 323.142 65.3116 322.89L65.5975 322.864C65.8575 322.847 66.2951 322.825 66.8584 322.795C76.551 322.319 78.6264 321.509 79.0034 321.067C79.168 320.547 79.7053 320.309 80.2252 320.469C80.7452 320.634 81.0095 321.236 80.8448 321.755C80.2859 323.505 76.655 324.294 66.9537 324.77C66.4121 324.796 65.9918 324.818 65.7405 324.835L65.5066 324.857C64.6227 324.944 63.8167 325 63.1105 325L63.1062 325.004Z" fill="#2E2020"/>
<path d="M41.9359 319.064C31.1124 319.064 18.5429 318.337 15.6529 316.145C13.0185 314.139 10.3668 304.454 11.0254 295.427C11.7923 284.997 14.5827 271.864 17.282 259.159C19.4224 249.093 21.6365 238.684 22.7717 229.878C22.8411 229.336 23.3437 228.972 23.8809 229.024C24.4225 229.094 24.8038 229.592 24.7345 230.133C23.5863 239.022 21.3636 249.469 19.2188 259.571C16.5324 272.21 13.7551 285.274 12.9968 295.57C12.3036 305.043 15.3322 313.416 16.8487 314.568C20.7396 317.522 51.1215 317.652 57.5818 316.353C58.1147 316.245 58.639 316.591 58.7473 317.128C58.8556 317.661 58.509 318.185 57.9717 318.293C55.7923 318.731 49.2627 319.064 41.9315 319.064H41.9359Z" fill="#2E2020"/>
<path d="M28.6166 299.088C28.348 299.088 28.0837 298.98 27.8887 298.768C27.5204 298.365 27.5464 297.741 27.9494 297.373C33.3871 292.4 33.5474 283.859 33.8204 269.703C34.011 259.745 34.2493 247.352 36.3508 231.477C36.4244 230.936 36.9357 230.555 37.46 230.628C38.0016 230.702 38.3829 231.196 38.3092 231.737C36.2208 247.504 35.9825 259.832 35.7962 269.742C35.5145 284.422 35.3456 293.284 29.2839 298.828C29.0932 299.002 28.8549 299.088 28.6166 299.088Z" fill="#2E2020"/>
<path d="M34.1063 293.05C33.6773 293.05 33.2787 292.769 33.1574 292.331C33.0057 291.807 33.3134 291.261 33.8376 291.11C37.9798 289.932 43.2616 289.048 48.37 288.195C53.7817 287.289 58.8945 286.436 61.6328 285.371C62.1398 285.171 62.7117 285.427 62.911 285.934C63.106 286.44 62.8547 287.017 62.3478 287.211C59.4187 288.346 54.2107 289.217 48.695 290.14C43.6385 290.984 38.4131 291.859 34.3749 293.007C34.2839 293.033 34.1929 293.046 34.1019 293.046L34.1063 293.05Z" fill="#2E2020"/>
<path d="M37.7417 232.366C37.642 232.366 37.5381 232.349 37.4341 232.318C36.9141 232.149 36.6325 231.591 36.8015 231.071C37.3691 229.329 38.1966 227.675 38.9982 226.072C39.9688 224.132 40.8873 222.299 41.377 220.333C42.2782 216.746 42.7938 213.047 43.2921 209.465C43.8337 205.58 44.397 201.56 45.4498 197.61C45.6275 196.943 46.0521 196.042 46.5894 194.898C47.5513 192.862 49.3364 189.068 48.4438 188.015C46.3424 188.414 41.9922 195.847 41.2556 198.84C41.1257 199.368 40.5927 199.697 40.0598 199.563C39.5312 199.433 39.2062 198.896 39.3362 198.368C39.9904 195.717 44.436 186.833 47.8156 186.036C48.6388 185.841 49.4014 186.088 49.956 186.733C51.6761 188.756 49.8477 192.628 48.3832 195.738C47.9282 196.709 47.4949 197.623 47.365 198.116C46.3424 201.954 45.7878 205.909 45.2549 209.734C44.7479 213.363 44.2236 217.119 43.3007 220.809C42.7548 222.988 41.7452 225.002 40.7704 226.951C39.9644 228.558 39.2062 230.079 38.6863 231.677C38.5519 232.097 38.162 232.362 37.746 232.362L37.7417 232.366Z" fill="#2E2020"/>
<path d="M24.0023 230.741C23.6817 230.741 23.3654 230.585 23.1747 230.295C21.225 227.327 19.3575 223.936 17.4597 219.92L16.9094 218.781C15.8436 216.607 14.743 214.354 14.5827 211.799C14.3964 208.771 15.8436 205.661 18.3523 203.673C18.6296 203.452 19.0152 203.079 19.4745 202.638C21.6409 200.567 24.6132 197.726 26.9876 198.739C34.5355 201.949 35.5494 205.535 34.8864 211.885C34.8604 212.137 34.8951 212.6 34.9254 213.142C35.0511 215.42 35.0728 216.971 34.2148 217.698C33.1706 218.586 32.2607 218.396 31.8101 218.205C29.0284 217.023 28.4435 208.884 28.3872 207.957C28.3525 207.411 28.7685 206.943 29.3144 206.908C29.856 206.9 30.3283 207.29 30.3629 207.835C30.5839 211.37 31.6238 215.974 32.5857 216.386C32.6247 216.403 32.7503 216.351 32.9323 216.195C33.0926 215.862 32.993 214.034 32.9497 213.254C32.9107 212.583 32.8847 212.002 32.9193 211.686C33.5389 205.743 32.6594 203.305 26.2121 200.563C25.0292 200.06 22.0959 202.876 20.8393 204.076C20.3237 204.569 19.8861 204.985 19.5741 205.228C17.5637 206.818 16.4025 209.291 16.5498 211.682C16.6841 213.848 17.698 215.914 18.6772 217.919L19.2405 219.08C21.0993 223.009 22.9234 226.322 24.8212 229.212C25.1202 229.666 24.9945 230.282 24.5353 230.58C24.3663 230.689 24.18 230.741 23.9937 230.741H24.0023Z" fill="#2E2020"/>
<path d="M29.7172 209.23C29.6262 209.23 29.5353 209.217 29.4443 209.191C27.4382 208.619 26.0733 206.956 25.2804 205.656C24.9944 205.189 25.1418 204.582 25.6097 204.296C26.0777 204.01 26.6842 204.158 26.9702 204.625C27.8281 206.033 28.9027 206.977 29.9859 207.289C30.5101 207.441 30.8134 207.987 30.6661 208.511C30.5405 208.944 30.1462 209.23 29.7172 209.23Z" fill="#2E2020"/>
<path d="M34.1064 225.91H34.0848C33.5388 225.897 33.1055 225.447 33.1185 224.901C33.2009 221.163 31.6237 218.989 29.4486 215.978L28.868 215.168C28.4261 214.553 27.9538 214.042 27.4945 213.544C26.0993 212.032 24.6608 210.469 25.991 207.337C26.2033 206.834 26.7883 206.6 27.2865 206.813C27.7891 207.025 28.0231 207.605 27.8108 208.108C26.9789 210.066 27.5985 210.733 28.9504 212.201C29.427 212.717 29.9642 213.301 30.4755 214.016L31.0518 214.817C33.2745 217.888 35.194 220.544 35.0986 224.945C35.0856 225.482 34.648 225.91 34.1108 225.91H34.1064Z" fill="#2E2020"/>
<path d="M35.5711 216.642C35.1594 216.642 34.6438 216.499 34.0589 216.027C33.6343 215.685 33.5693 215.061 33.9116 214.637C34.2582 214.212 34.8778 214.147 35.3024 214.489C35.4974 214.645 35.5884 214.667 35.5884 214.667C35.597 214.567 36.4203 213.506 36.0737 206.168L36.0477 205.588C35.9003 200.247 34.3622 198.878 29.6524 196.028C29.3794 195.864 28.9895 195.534 28.5432 195.149C28.0276 194.703 26.6584 193.538 26.1904 193.577C25.1116 194.014 24.0803 195.365 23.1704 196.557C22.7155 197.154 22.2735 197.726 21.8446 198.19C20.0984 200.057 19.5525 202.053 19.0196 204.47C18.9026 205.003 18.374 205.337 17.841 205.224C17.3081 205.107 16.9701 204.579 17.0871 204.046C17.6634 201.425 18.3133 199.073 20.3931 196.843C20.7874 196.422 21.1817 195.903 21.5933 195.361C22.6592 193.966 23.8637 192.385 25.4668 191.74C26.9313 191.151 28.5432 192.537 29.8344 193.655C30.1767 193.949 30.467 194.209 30.6749 194.339C35.7617 197.414 37.8501 199.29 38.0234 205.536L38.0451 206.073C38.3571 212.679 37.8631 215.685 36.3423 216.456C36.1603 216.547 35.896 216.642 35.5624 216.642H35.5711Z" fill="#2E2020"/>
<path d="M37.8068 213.748C37.5295 213.748 37.2478 213.631 37.0529 213.402C36.6976 212.986 36.7496 212.362 37.1655 212.007C38.5434 210.833 38.526 208.685 38.5044 206.605C38.5044 206.164 38.4957 205.726 38.5044 205.31L38.552 203.686C38.6907 199.471 38.7557 197.548 35.3414 194.789C34.4921 194.1 33.8032 193.403 33.201 192.788C31.2078 190.761 30.6749 190.215 27.9755 192.727C27.5769 193.1 26.953 193.078 26.576 192.68C26.2034 192.281 26.2251 191.653 26.6237 191.28C30.7312 187.451 32.6117 189.37 34.6091 191.402C35.1767 191.978 35.818 192.632 36.5806 193.251C40.7618 196.634 40.6664 199.467 40.5235 203.755L40.4758 205.358C40.4671 205.756 40.4715 206.172 40.4758 206.592C40.4975 208.888 40.5235 211.747 38.4394 213.519C38.253 213.679 38.0234 213.753 37.7981 213.753L37.8068 213.748Z" fill="#2E2020"/>
<path d="M34.869 192.97C34.4791 192.97 34.1064 192.736 33.9505 192.35C33.7468 191.843 33.9938 191.267 34.4964 191.064C36.2382 190.362 38.8379 189.335 41.325 188.521C43.2617 187.884 45.7401 186.737 46.533 184.87C46.754 184.346 46.9273 183.644 46.9403 183.258C46.3251 183.375 45.1725 184.012 44.5139 184.38C43.8727 184.735 43.2704 185.069 42.7765 185.242C41.7539 185.597 40.4671 185.896 39.1065 186.208C35.5579 187.027 31.1428 188.04 30.0812 190.531C29.8689 191.033 29.2883 191.267 28.7857 191.055C28.2831 190.843 28.0491 190.262 28.2614 189.76C29.7129 186.347 34.674 185.203 38.6603 184.285C39.9688 183.982 41.2036 183.7 42.1222 183.38C42.4602 183.263 42.9888 182.968 43.552 182.656C44.9169 181.898 46.3337 181.114 47.4949 181.296C48.0019 181.374 48.4135 181.664 48.6605 182.106C49.3061 183.271 48.5175 185.259 48.3528 185.645C47.4819 187.689 45.3242 189.288 41.9402 190.401C39.5095 191.198 36.9488 192.207 35.2373 192.9C35.116 192.948 34.9903 192.97 34.869 192.97Z" fill="#2E2020"/>
<path d="M69.5404 179.681C69.3455 179.681 69.1548 179.625 68.9902 179.512C68.8905 179.443 58.7127 172.603 47.079 164.174C46.637 163.854 46.5374 163.234 46.858 162.792C47.1786 162.351 47.7939 162.251 48.2402 162.572C58.6953 170.147 67.972 176.437 69.7788 177.658L93.8391 174.106L85.6413 168.194L74.2026 170.715C73.9166 170.78 73.6177 170.71 73.3837 170.529C73.0111 170.243 36.0952 141.538 19.0151 127.716C17.6633 126.62 15.1936 125.658 13.8114 126.022C13.3478 126.148 13.0618 126.394 12.8928 126.832C12.0176 129.067 14.262 134.551 17.3383 137.695C20.9649 141.408 26.8056 146.38 34.7 152.475C35.1333 152.808 35.2113 153.428 34.8777 153.861C34.5441 154.29 33.9201 154.372 33.4912 154.038C25.5274 147.888 19.6131 142.854 15.9258 139.077C12.5679 135.651 9.77317 129.375 11.0514 126.113C11.45 125.086 12.2342 124.393 13.3088 124.107C15.7135 123.462 18.8505 125.034 20.2587 126.178C36.4072 139.25 70.3204 165.647 74.2286 168.683L85.6456 166.167C85.9229 166.106 86.2089 166.167 86.4385 166.331L96.9717 173.929C97.2967 174.163 97.4483 174.574 97.353 174.964C97.2577 175.354 96.9327 175.648 96.5384 175.709L69.6878 179.672C69.6401 179.681 69.5924 179.681 69.5448 179.681H69.5404Z" fill="#2E2020"/>
<path d="M43.3917 183.566C42.98 183.566 42.5944 183.307 42.4558 182.895C38.4349 171.092 32.4989 146.874 32.4382 146.631C32.3342 146.207 32.5205 145.769 32.8975 145.544C33.2744 145.323 33.7511 145.371 34.0717 145.665L46.3293 156.923C46.507 157.088 46.6196 157.309 46.6413 157.547C46.6586 157.694 48.1881 172.356 48.3744 181.561C48.3831 182.107 47.9498 182.557 47.4039 182.57C46.8666 182.583 46.4073 182.15 46.3943 181.6C46.2253 173.292 44.9515 160.462 44.7088 158.123L35.1506 149.347C36.9054 156.334 41.2036 173.093 44.3275 182.258C44.5052 182.774 44.2279 183.337 43.7123 183.514C43.6083 183.549 43.5 183.566 43.3917 183.566Z" fill="#2E2020"/>
<path d="M46.3294 148.805C46.2947 148.805 46.2557 148.805 46.2167 148.801C45.6751 148.74 45.2808 148.251 45.3458 147.709C46.897 133.844 47.8242 118.645 46.858 115.604C44.9688 117.705 40.545 129.448 37.265 139.943C37.1047 140.463 36.5414 140.757 36.0258 140.593C35.5059 140.432 35.2156 139.874 35.3759 139.354C37.7113 131.873 43.487 114.37 46.5937 113.434C47.0703 113.291 47.5686 113.386 47.9542 113.702C50.5885 115.851 48.3831 138.353 47.3129 147.93C47.2566 148.437 46.8276 148.81 46.3294 148.81V148.805Z" fill="#2E2020"/>
<path d="M219.825 703.697C216.717 703.863 215.735 702.267 212.235 701.267C208.735 700.267 148.87 651.549 139.602 633.79C136.491 627.834 129.355 597.7 121.803 565.798C114.463 534.801 105.33 496.229 102.717 494.002C102.262 493.699 102.149 493.093 102.453 492.638C102.756 492.183 103.375 492.062 103.83 492.369C106.634 494.241 112.318 517.146 123.731 565.343C130.924 595.724 138.363 627.137 141.362 632.876C150.266 649.942 212.606 702.573 219.92 701.67C227.235 700.767 228.387 692.66 233.985 682.559C239.115 673.311 243.478 667.767 242.161 661.716C240.844 655.665 230.055 652.615 219.799 644.415C212 638.182 203.165 631.117 194.526 624.477C190.899 621.688 187.515 619.162 184.586 616.975C178.797 612.652 174.971 609.798 173.958 608.446C173.628 608.009 173.719 607.389 174.152 607.064C174.59 606.731 175.21 606.826 175.539 607.259C176.384 608.381 180.526 611.474 185.769 615.39C188.707 617.586 192.095 620.115 195.73 622.909C204.383 629.562 213.23 636.632 221.034 642.873C231.056 650.882 240.721 652.167 243.478 660.217C246.235 668.267 239.171 677.279 235.714 683.516C231.212 691.629 226.426 702.767 223.735 702.767C223.735 702.767 221.392 703.613 219.825 703.697Z" fill="#2E2020"/>
<path d="M173.195 630.708C172.692 630.708 172.263 630.327 172.211 629.816C171.458 622.283 173.845 599.417 176.609 572.934C180.357 537.021 185.024 492.324 183.234 471.242C183.187 470.7 183.59 470.22 184.135 470.172C184.703 470.137 185.158 470.527 185.206 471.073C187.012 492.341 182.337 537.142 178.576 573.137C175.825 599.508 173.446 622.287 174.179 629.616C174.231 630.158 173.836 630.643 173.295 630.699C173.26 630.699 173.23 630.704 173.195 630.704V630.708Z" fill="#2E2020"/>
<path d="M101.755 728.694C92.0018 728.694 82.1123 727.683 79.4235 723.475C76.7347 719.267 78.8126 619.462 79.0422 605.774C79.2242 594.776 90 488.454 92.1447 476.499C92.2401 475.962 92.747 475.607 93.2929 475.698C93.8302 475.793 94.1898 476.309 94.0902 476.846C92.0667 488.151 81.1913 595.417 81.018 605.809C80.7407 622.286 78.7348 719.767 81.3256 722.933C83.9164 726.1 91.8024 726.91 102.63 726.715C112.418 726.537 120.708 721.517 123.471 717.142C126.235 712.767 123.276 693.167 122.618 673.549C121.751 647.863 120.854 621.307 121.76 614.952C122.297 611.197 123.12 606.956 123.918 602.854C124.91 597.756 125.932 592.485 126.409 588.127C126.47 587.581 126.942 587.192 127.501 587.252C128.042 587.313 128.437 587.798 128.376 588.339C127.891 592.779 126.86 598.094 125.863 603.231C125.07 607.312 124.251 611.526 123.723 615.23C122.839 621.415 123.775 649.076 124.598 673.484C125.633 704.1 128.235 713.267 125.157 718.177C122.079 723.088 113.267 728.499 102.674 728.69C102.37 728.694 102.067 728.699 101.759 728.699L101.755 728.694Z" fill="#2E2020"/>
<path d="M77.3179 775.264C77.1619 775.264 77.006 775.229 76.8587 775.151C76.3777 774.9 76.1914 774.298 76.4427 773.817C81.5858 764.037 84.0512 748.253 83.9819 725.547C83.9819 725.001 84.4195 724.555 84.9698 724.555C85.5157 724.555 85.9576 724.997 85.9576 725.538C86.027 748.573 83.4836 764.665 78.1888 774.736C78.0112 775.073 77.6689 775.264 77.3136 775.264H77.3179Z" fill="#2E2020"/>
<path d="M105.126 780.887C104.65 780.887 104.229 780.54 104.151 780.055C103.835 778.093 103.51 776.551 103.22 775.182C102.522 771.894 102.024 769.521 102.362 764.834C103.107 754.508 106.569 737.116 111.067 725.889C111.27 725.382 111.846 725.135 112.353 725.339C112.86 725.543 113.107 726.119 112.904 726.621C108.475 737.671 105.07 754.798 104.333 764.977C104.013 769.386 104.468 771.531 105.152 774.775C105.447 776.17 105.78 777.742 106.101 779.743C106.188 780.28 105.819 780.791 105.282 780.874C105.23 780.882 105.174 780.887 105.122 780.887H105.126Z" fill="#2E2020"/>
<path d="M37.6854 814.18C30.8698 814.18 25.471 813.6 23.5516 812.166C22.828 811.625 22.62 811.023 22.5724 810.611C21.9138 804.971 27.4382 801.779 31.6497 799.869C32.8846 799.31 34.4184 798.686 36.1602 797.98C42.3128 795.481 50.7359 792.063 57.9111 786.684C60.8445 784.488 64.1678 780.788 67.7814 775.69C69.7398 772.927 71.4989 771.631 73.3187 771.605H73.3707C75.9098 771.605 77.7426 774.048 79.8614 776.877C82.3917 780.251 85.2558 784.072 89.7273 784.115H89.7663C91.6207 784.115 94.1641 782.859 96.6208 781.646C99.9311 780.009 103.055 778.458 105.49 779.285C107.423 779.944 108.658 781.962 109.151 785.293C109.975 790.829 108.454 800.363 106.526 801.749C103.389 804.005 98.5836 804.252 94.3418 804.469C92.353 804.573 90.4769 804.668 89.0037 804.963C88.0115 805.158 86.7636 805.747 85.1821 806.496C81.9931 807.999 77.6256 810.057 70.7797 811.235C61.1651 812.894 47.8459 814.185 37.681 814.185L37.6854 814.18ZM73.3664 773.581H73.3447C72.2399 773.598 70.914 774.69 69.3932 776.829C65.6583 782.096 62.1963 785.939 59.094 788.265C51.7108 793.796 43.1491 797.274 36.9011 799.812C35.1896 800.506 33.6775 801.121 32.4643 801.671C28.816 803.325 24.0282 806.028 24.5351 810.381C25.3367 812.807 47.8719 813.18 70.4461 809.281C77.0277 808.146 81.2565 806.158 84.3415 804.703C86.0443 803.901 87.3919 803.269 88.6224 803.022C90.2342 802.702 92.1797 802.602 94.2464 802.494C98.2153 802.29 102.713 802.056 105.378 800.142C106.279 799.262 108.315 790.335 107.011 784.557C106.712 783.24 106.097 781.581 104.862 781.161C103.211 780.593 100.308 782.032 97.5004 783.422C94.8184 784.747 91.9674 786.086 89.7099 786.095C84.2592 786.043 80.9446 781.62 78.2799 778.064C76.5554 775.759 74.9219 773.581 73.3664 773.581Z" fill="#2E2020"/>
<path d="M250.415 729.059C250.064 729.059 249.726 728.873 249.544 728.539C245.238 720.595 236.355 711.672 223.136 702.017C222.694 701.697 222.598 701.077 222.923 700.636C223.248 700.194 223.868 700.098 224.306 700.423C237.95 710.39 246.776 719.283 251.286 727.599C251.546 728.08 251.369 728.678 250.888 728.938C250.736 729.02 250.576 729.059 250.415 729.059Z" fill="#2E2020"/>
<path d="M270.563 709.095C270.424 709.095 270.281 709.065 270.151 709.004C268.344 708.172 266.88 707.583 265.58 707.063C262.465 705.812 260.212 704.906 256.507 702.017C250.454 697.296 242.768 689.85 236.442 682.586C236.082 682.174 236.125 681.551 236.537 681.191C236.949 680.832 237.577 680.875 237.932 681.286C244.18 688.464 251.767 695.806 257.725 700.453C261.208 703.174 263.24 703.988 266.317 705.227C267.642 705.76 269.133 706.357 270.979 707.206C271.477 707.436 271.689 708.021 271.464 708.519C271.299 708.883 270.94 709.095 270.567 709.095H270.563Z" fill="#2E2020"/>
<path d="M251.06 793.984C250.662 793.984 250.354 793.88 250.133 793.767C244.496 790.869 245.822 782.878 246.255 780.248C246.476 778.906 246.814 777.281 247.2 775.432C248.547 768.939 250.389 760.042 249.917 751.097C249.722 747.433 248.495 742.616 246.273 736.777C245.064 733.615 244.968 731.432 245.961 729.903C247.36 727.754 250.432 727.59 253.981 727.408C258.192 727.187 262.963 726.936 265.489 723.245C266.542 721.712 266.914 718.883 267.274 716.142C267.755 712.477 268.214 709.016 270.251 707.461C271.871 706.222 274.237 706.322 277.274 707.764C282.335 710.16 289.41 716.731 289.493 719.109C289.618 722.968 287.153 727.092 284.978 730.735C283.955 732.445 282.989 734.061 282.413 735.447C282.023 736.383 281.819 737.747 281.555 739.48C281.026 742.962 280.303 747.736 277.478 754.077C270.84 768.956 257.599 791.84 251.962 793.824C251.624 793.945 251.32 793.988 251.056 793.988L251.06 793.984ZM272.989 708.583C272.417 708.583 271.884 708.709 271.459 709.029C270.073 710.09 269.648 713.296 269.241 716.397C268.847 719.364 268.444 722.435 267.131 724.358C264.055 728.855 258.53 729.145 254.093 729.379C251.203 729.53 248.478 729.673 247.624 730.981C247.022 731.908 247.191 733.619 248.123 736.071C250.419 742.1 251.684 747.121 251.888 750.989C252.378 760.193 250.502 769.229 249.132 775.83C248.755 777.645 248.422 779.248 248.205 780.569C247.551 784.519 247.131 789.999 251.034 792.004C253.534 792.671 266.351 774.171 275.675 753.259C278.396 747.164 279.094 742.547 279.605 739.172C279.887 737.31 280.112 735.837 280.593 734.681C281.226 733.164 282.227 731.488 283.288 729.708C285.325 726.303 287.634 722.44 287.526 719.165C287.296 717.926 281.009 711.26 275.48 709.129C274.731 708.843 273.825 708.579 272.993 708.579L272.989 708.583Z" fill="#2E2020"/>
<path d="M304.121 570.29C303.718 570.29 303.341 570.043 303.194 569.645L274.142 490.664C273.955 490.148 274.215 489.581 274.727 489.394C275.242 489.212 275.806 489.468 275.996 489.983L305.048 568.965C305.234 569.48 304.974 570.048 304.463 570.234C304.35 570.273 304.233 570.294 304.121 570.294V570.29Z" fill="#2E2020"/>
<path d="M299.437 572.927C299.034 572.927 298.653 572.676 298.51 572.277L267.725 487.717C267.538 487.202 267.803 486.639 268.314 486.452C268.83 486.266 269.393 486.53 269.579 487.041L300.364 571.602C300.55 572.117 300.286 572.68 299.775 572.867C299.662 572.906 299.55 572.927 299.437 572.927Z" fill="#2E2020"/>
<path d="M316.764 564.425C316.356 564.425 315.979 564.173 315.832 563.771L288.397 487.514C288.215 486.998 288.479 486.435 288.994 486.249C289.501 486.071 290.073 486.331 290.26 486.847L317.695 563.104C317.877 563.619 317.613 564.182 317.097 564.368C316.989 564.407 316.876 564.425 316.764 564.425Z" fill="#2E2020"/>
<path d="M312.358 566.463C311.955 566.463 311.573 566.211 311.43 565.813L283.717 489.526C283.531 489.01 283.795 488.443 284.307 488.261C284.827 488.075 285.39 488.339 285.572 488.85L313.285 565.137C313.471 565.653 313.207 566.22 312.695 566.402C312.583 566.441 312.47 566.463 312.358 566.463Z" fill="#2E2020"/>
<path d="M268.327 486.857C263.998 486.857 260.476 482.75 260.476 477.7C260.476 472.649 263.998 468.543 268.327 468.543C269.263 468.543 272.339 468.781 274.761 468.98C275.307 469.024 275.71 469.5 275.667 470.046C275.623 470.592 275.103 470.995 274.601 470.951C271.234 470.674 269.007 470.522 268.331 470.522C265.09 470.522 262.456 473.741 262.456 477.7C262.456 481.659 265.09 484.877 268.331 484.877C268.877 484.877 269.319 485.319 269.319 485.865C269.319 486.411 268.877 486.852 268.331 486.852L268.327 486.857Z" fill="#2E2020"/>
<path d="M366.548 792.79C366.505 792.79 366.461 792.79 366.422 792.781C358.801 791.802 352.245 786.587 349.316 779.185L280.112 604.493C275.541 592.954 280.818 579.47 291.871 574.437L322.184 560.45C333.87 555.144 370.712 571.717 386.423 597.381C413.776 642.065 444.098 736.038 444.401 736.982C447.447 744.675 446.182 753.611 441.069 760.243C440.74 760.676 440.116 760.754 439.682 760.42C439.249 760.087 439.171 759.467 439.505 759.034C444.193 752.953 445.358 744.762 442.542 737.649C442.217 736.649 411.969 642.901 384.737 598.416C368.849 572.457 332.683 557.864 323.012 562.252L292.699 576.239C282.582 580.843 277.764 593.192 281.954 603.77L351.158 778.461C353.827 785.197 359.772 789.936 366.678 790.824C367.22 790.893 367.605 791.391 367.536 791.928C367.471 792.426 367.046 792.79 366.557 792.79H366.548Z" fill="#2E2020"/>
<path d="M374.538 792.174C374.109 792.174 373.714 791.892 373.589 791.459C373.437 790.935 373.74 790.385 374.265 790.233C375.174 789.969 376.084 789.635 376.96 789.237L431.805 765.171C432.394 764.902 432.975 764.603 433.538 764.278C434.006 764.006 434.612 764.162 434.89 764.638C435.163 765.11 435.002 765.717 434.53 765.989C433.915 766.345 433.274 766.678 432.615 766.977L377.766 791.043C376.812 791.476 375.816 791.844 374.81 792.135C374.72 792.161 374.629 792.174 374.538 792.174Z" fill="#2E2020"/>
<path d="M348.455 725.966C346.024 725.966 343.303 723.605 341.821 719.984L310.079 642.549C308.982 639.872 308.818 637.117 309.645 635.181C310.1 634.116 310.832 633.362 311.764 632.994C314.446 631.928 317.93 634.449 319.689 638.729L351.431 716.164C352.527 718.84 352.692 721.595 351.865 723.532C351.41 724.593 350.677 725.346 349.746 725.715C349.33 725.879 348.897 725.957 348.455 725.957V725.966ZM313.051 634.735C312.852 634.735 312.661 634.77 312.492 634.835C312.059 635.008 311.712 635.385 311.469 635.957C310.854 637.395 311.023 639.634 311.916 641.8L343.658 719.235C345.066 722.67 347.627 724.437 349.027 723.882C349.46 723.709 349.806 723.332 350.049 722.76C350.664 721.322 350.491 719.083 349.603 716.917L317.86 639.482C316.625 636.472 314.507 634.735 313.055 634.735H313.051Z" fill="#2E2020"/>
<path d="M429.309 767.388C428.937 767.388 428.577 767.176 428.413 766.812C424.288 757.855 427.546 747.359 431.238 737.38C431.818 735.807 434.933 727.937 439.115 727.478C439.639 727.413 440.146 727.811 440.207 728.353C440.267 728.894 439.873 729.384 439.331 729.444C437 729.7 434.323 734.742 433.092 738.068C429.548 747.658 426.402 757.716 430.211 765.989C430.44 766.488 430.224 767.072 429.725 767.302C429.591 767.362 429.452 767.393 429.314 767.393L429.309 767.388Z" fill="#2E2020"/>
<path d="M376.952 790.328C376.627 790.328 376.311 790.167 376.12 789.877C375.171 788.409 374.525 786.78 373.902 785.208C373.174 783.371 372.48 781.634 371.35 780.105C366.553 773.63 353.814 767.63 346.483 768.427C345.942 768.479 345.452 768.094 345.391 767.552C345.331 767.011 345.725 766.522 346.267 766.461C354.919 765.482 368.187 772.516 372.935 778.927C374.222 780.664 374.993 782.605 375.739 784.48C376.354 786.035 376.939 787.499 377.779 788.807C378.078 789.266 377.944 789.877 377.485 790.176C377.32 790.284 377.134 790.336 376.948 790.336L376.952 790.328Z" fill="#2E2020"/>
<path d="M409.322 776.658C408.936 776.658 408.568 776.429 408.408 776.052L320.165 564.188C319.957 563.685 320.195 563.105 320.698 562.892C321.205 562.693 321.781 562.918 321.993 563.425L410.236 775.285C410.444 775.788 410.206 776.368 409.703 776.58C409.578 776.632 409.452 776.654 409.322 776.654V776.658Z" fill="#2E2020"/>
<path d="M393.763 783.098C393.378 783.098 393.014 782.873 392.853 782.492L303.796 571.581C303.584 571.078 303.818 570.498 304.325 570.285C304.823 570.077 305.408 570.307 305.62 570.814L394.678 781.725C394.89 782.228 394.656 782.808 394.149 783.02C394.023 783.072 393.893 783.098 393.763 783.098Z" fill="#2E2020"/>
<path d="M444.61 779.932C444.029 779.932 443.444 779.88 442.855 779.781C440.125 779.309 437.742 777.793 436.148 775.514C434.557 773.236 433.938 770.472 434.419 767.726C434.518 767.15 434.67 766.57 434.865 766.002C435.043 765.487 435.615 765.214 436.126 765.396C436.642 765.578 436.91 766.141 436.733 766.656C436.572 767.12 436.447 767.588 436.369 768.06C435.983 770.29 436.481 772.534 437.772 774.379C439.064 776.22 440.987 777.446 443.193 777.827C447.747 778.624 452.105 775.514 452.903 770.919C453.288 768.692 452.79 766.444 451.499 764.599C450.208 762.758 448.284 761.532 446.078 761.151C444.601 760.891 443.071 761.043 441.668 761.58C441.165 761.775 440.589 761.523 440.389 761.012C440.194 760.501 440.446 759.929 440.957 759.734C442.69 759.067 444.579 758.881 446.416 759.202C449.146 759.67 451.529 761.186 453.119 763.464C454.709 765.742 455.325 768.506 454.852 771.252C453.973 776.329 449.566 779.928 444.614 779.928L444.61 779.932Z" fill="#2E2020"/>
<path d="M370.989 812.502C370.4 812.502 369.806 812.45 369.212 812.35C366.483 811.878 364.1 810.362 362.505 808.084C360.915 805.81 360.3 803.042 360.776 800.3C361.327 797.112 363.268 794.405 366.101 792.871C366.582 792.611 367.185 792.785 367.44 793.27C367.7 793.751 367.523 794.353 367.042 794.608C364.741 795.851 363.168 798.047 362.722 800.633C362.336 802.86 362.835 805.103 364.126 806.949C365.413 808.794 367.341 810.015 369.546 810.397C371.76 810.782 373.979 810.271 375.811 808.972C377.649 807.668 378.87 805.719 379.252 803.492C379.928 799.598 377.787 795.7 374.165 794.223C373.658 794.015 373.415 793.439 373.623 792.936C373.831 792.429 374.412 792.187 374.91 792.395C379.386 794.218 382.029 799.031 381.201 803.83C380.725 806.576 379.217 808.976 376.955 810.583C375.183 811.843 373.108 812.502 370.985 812.502H370.989Z" fill="#2E2020"/>
<path d="M400.756 779.623C400.366 779.623 400.002 779.393 399.841 779.012L311.902 567.069C311.694 566.566 311.932 565.986 312.435 565.778C312.933 565.566 313.518 565.808 313.726 566.311L401.666 778.254C401.874 778.756 401.635 779.337 401.133 779.545C401.007 779.597 400.881 779.618 400.756 779.618V779.623Z" fill="#2E2020"/>
<path d="M397.836 649.358C395.852 649.358 393.876 648.999 391.957 647.959C383.027 643.129 365.019 599.675 364.603 596.085C364.543 595.543 364.928 595.054 365.474 594.989C366.007 594.928 366.506 595.314 366.571 595.859C367 599.589 385.098 642.008 392.897 646.227C396.368 648.106 400.358 647.292 404.214 646.504C405.601 646.218 407.035 645.928 408.417 645.767C408.95 645.711 409.453 646.092 409.513 646.638C409.574 647.179 409.189 647.673 408.643 647.734C407.347 647.881 406.017 648.154 404.609 648.444C402.373 648.899 400.094 649.367 397.836 649.367V649.358Z" fill="#2E2020"/>
<path d="M370.072 803.223C369.851 803.223 369.647 803.184 369.469 803.119C367.329 802.396 366.722 797.856 366.813 796.769C366.857 796.245 366.913 795.725 366.969 795.21C367.052 794.417 367.138 793.624 367.186 792.806C367.216 792.286 367.147 791.693 367.073 791.069C366.896 789.583 366.696 787.898 367.91 786.642C370.033 784.45 371.484 784.784 372.329 785.451C375.293 787.79 373.893 799.169 372.355 801.582C371.536 802.864 370.726 803.223 370.072 803.223ZM369.331 788.015C368.806 788.557 368.871 789.44 369.036 790.831C369.118 791.515 369.201 792.221 369.162 792.923C369.11 793.767 369.023 794.59 368.936 795.413C368.884 795.92 368.828 796.427 368.785 796.934C368.685 798.108 369.474 800.945 370.093 801.239C370.093 801.213 370.323 801.083 370.687 800.512C372.034 798.398 372.888 788.405 371.103 786.997C370.839 786.785 370.132 787.179 369.331 788.011V788.015Z" fill="#2E2020"/>
<path d="M443.452 769.463C442.673 769.463 441.953 769.29 441.702 769.182C438.782 767.951 431.957 764.707 431.71 761.216C431.477 757.915 433.045 757.192 433.998 757.053C437.854 756.503 445.272 764.235 445.918 767.141C446.074 767.839 445.866 768.484 445.355 768.909C444.852 769.329 444.128 769.459 443.448 769.459L443.452 769.463ZM434.484 759.002C434.414 759.002 434.349 759.003 434.284 759.016C433.643 759.106 433.634 760.35 433.686 761.082C433.808 762.823 438.201 765.56 442.473 767.362C442.759 767.475 443.574 767.531 443.951 767.445C443.184 764.854 436.966 759.002 434.484 759.002Z" fill="#2E2020"/>
<path d="M224.439 258.644C224.002 258.644 223.603 258.354 223.486 257.912C223.261 257.084 223.079 256.335 222.906 255.646C222.178 252.705 221.74 250.934 219.535 248.313C214.14 241.898 207.112 241.201 199.673 240.456C192.931 239.784 185.959 239.087 180.725 233.62C173.55 226.118 172.146 216.225 170.79 206.657C169.833 199.899 168.84 192.913 165.816 186.861C162.003 179.234 153.511 173.672 143.103 171.983C132.332 170.237 122.124 172.966 115.802 179.29C115.416 179.675 114.788 179.675 114.402 179.29C114.017 178.904 114.017 178.276 114.402 177.891C121.175 171.121 132.024 168.179 143.42 170.029C154.451 171.818 163.485 177.778 167.584 185.973C170.755 192.315 171.769 199.462 172.749 206.375C174.122 216.06 175.418 225.204 182.155 232.247C186.878 237.185 193.191 237.813 199.868 238.48C207.377 239.23 215.141 240.005 221.051 247.031C223.551 250.007 224.058 252.056 224.829 255.166C224.998 255.841 225.176 256.578 225.397 257.392C225.54 257.92 225.228 258.462 224.699 258.605C224.613 258.631 224.526 258.64 224.439 258.64V258.644Z" fill="#2E2020"/>
<path d="M225.697 286.281C225.233 286.281 224.821 286.203 224.483 286.094C221.359 285.12 219.652 280.654 219.202 279.311C218.118 276.063 218.235 272.55 218.348 269.158C218.543 263.116 218.716 257.9 212.637 254.86C212.148 254.617 211.953 254.019 212.195 253.534C212.442 253.045 213.032 252.85 213.521 253.092C220.736 256.696 220.523 263.064 220.324 269.223C220.216 272.446 220.112 275.777 221.078 278.688C221.81 280.888 223.301 283.656 225.073 284.21C225.844 284.453 226.65 284.245 227.534 283.582C227.967 283.257 228.587 283.34 228.92 283.781C229.245 284.219 229.159 284.838 228.721 285.163C227.586 286.016 226.546 286.281 225.697 286.281Z" fill="#2E2020"/>
<path d="M207.546 306.235C207.069 306.235 206.653 305.892 206.571 305.407C206.48 304.87 206.844 304.359 207.385 304.268C211.584 303.566 216.432 296.974 216.645 291.668C216.77 288.605 215.332 286.678 212.377 285.937C211.844 285.803 211.523 285.27 211.658 284.737C211.788 284.209 212.321 283.879 212.858 284.018C216.736 284.988 218.785 287.73 218.625 291.746C218.378 297.935 212.771 305.377 207.715 306.217C207.658 306.226 207.606 306.23 207.55 306.23L207.546 306.235Z" fill="#2E2020"/>
<path d="M520.435 260.032L517 268.971L524.555 273.413L519.93 283.384L530.4 285.49L525.705 296.834L534.735 299.909L532.15 310.998L527.395 311.268L529.32 302.973L519.795 299.734L524.31 288.829L513.665 286.688L518.765 275.683L511.39 271.347L514.57 263.062L508.735 261.285L511.35 257.268L520.435 260.032Z" fill="#14C3AD"/>
<path d="M444.289 368.342C444.289 368.342 446.23 362.859 452.741 360.899C458.544 359.155 463.933 362.564 465.548 367.933C467.42 374.149 464.179 383.148 451.948 393.798C435.871 391.66 428.206 385.946 426.335 379.725C424.719 374.351 427.33 368.539 433.132 366.795C439.639 364.839 444.284 368.342 444.284 368.342H444.289Z" fill="#8870F9"/>
<path d="M397.051 385.227C402.962 384.448 407.676 383.517 412.267 382.389C413.779 382.015 416.513 381.818 417.242 380.261C417.621 379.454 417.503 378.611 416.725 378.074C415.301 377.089 413.143 378.148 411.617 378.523C406.967 379.665 401.652 380.739 396.219 381.508C395.199 381.65 394.564 382.833 394.776 383.783C395.017 384.862 396.027 385.364 397.051 385.227Z" fill="#8870F9"/>
<path d="M477.587 378.116C479.818 377.608 482.039 377.057 484.266 376.51C486.394 375.988 488.999 375.746 490.837 374.53C492.191 373.628 491.846 371.623 490.142 371.441C487.94 371.21 485.551 372.185 483.418 372.712C481.197 373.264 478.971 373.806 476.754 374.392C474.39 375.017 475.183 378.657 477.582 378.111L477.587 378.116Z" fill="#8870F9"/>
<path d="M424.675 409.358C426.33 403.994 429.379 401.723 431.541 399.295C432.699 397.995 431.428 396.128 429.792 396.812C425.305 398.679 422.364 403.822 421.049 408.265C420.355 410.604 423.96 411.703 424.679 409.363L424.675 409.358Z" fill="#8870F9"/>
<path d="M453.185 414.88C452.539 412.604 452.342 410.27 452.672 407.92C452.874 406.482 454.638 402.177 451.855 402.127C449.234 402.078 448.894 406.447 448.717 408.299C448.486 410.782 448.747 413.324 449.451 415.712C450.141 418.062 453.86 417.259 453.185 414.88Z" fill="#8870F9"/>
<path d="M468.661 396.296C470.114 396.897 471.572 397.493 473.025 398.094C474.479 398.69 475.976 399.709 477.523 398.98C478.394 398.572 478.528 397.567 478.222 396.764C477.67 395.306 475.478 394.897 474.149 394.36C472.691 393.769 471.232 393.183 469.774 392.592C468.804 392.198 467.642 392.946 467.361 393.882C467.036 394.961 467.681 395.897 468.651 396.296H468.661Z" fill="#8870F9"/>
<path d="M425.684 358.403C418.207 348.177 418.286 348.093 417.104 347.389C415.892 346.665 414.262 347.753 414.597 349.172C414.932 350.576 414.902 350.339 422.808 361.072C423.438 361.924 424.862 361.841 425.576 361.176C426.428 360.388 426.305 359.265 425.68 358.408L425.684 358.403Z" fill="#8870F9"/>
<path d="M445.959 353.368C446.245 351.299 446.304 349.225 446.141 347.142C445.988 345.206 446.018 342.221 443.979 341.344C443.54 341.157 442.846 341.329 442.53 341.679C441.21 343.132 442.151 345.59 442.284 347.373C442.427 349.319 442.363 351.284 442.171 353.225C442.072 354.245 443.013 355.156 443.994 355.19C445.102 355.23 445.821 354.383 445.959 353.368Z" fill="#8870F9"/>
<path d="M475.07 348.304C475.193 347.358 474.296 346.708 473.479 346.59C471.799 346.353 470.144 348.329 469.041 349.397C467.755 350.644 466.602 352.013 465.534 353.451C464.918 354.279 465.332 355.574 466.154 356.087C467.12 356.683 468.139 356.274 468.789 355.466C473.021 350.181 474.769 350.639 475.07 348.304Z" fill="#8870F9"/>
<path d="M366.619 286.939C366.235 281.388 370.422 276.571 375.973 276.187C381.524 275.802 386.337 279.989 386.726 285.541C387.11 291.092 382.923 295.904 377.372 296.293C371.821 296.678 367.008 292.491 366.619 286.939Z" fill="#F7CC7F"/>
<path d="M383.711 315.396C383.11 312.47 382.745 309.342 381.746 306.525C380.888 304.101 377.105 304.84 377.298 307.446C377.534 310.633 378.529 313.864 379.194 316.987C379.465 318.253 381.135 318.839 382.243 318.45C383.598 317.977 383.967 316.672 383.706 315.401L383.711 315.396Z" fill="#F7CC7F"/>
<path d="M400.98 302.915C397.641 300.944 394.73 298.506 391.646 296.176C389.237 294.359 386.642 297.487 388.622 299.649C391.464 302.757 395.198 305.181 398.803 307.309C399.941 307.983 401.532 307.323 402.089 306.2C402.714 304.939 402.123 303.59 400.98 302.915Z" fill="#F7CC7F"/>
<path d="M394.656 284.871C393.897 285.477 393.75 286.349 394.218 287.196C395.346 289.245 398.212 289.142 400.252 289.073C402.375 288.999 404.503 288.57 406.512 287.881C409.482 286.866 407.872 282.256 404.892 283.275C399.06 285.265 396.853 283.108 394.661 284.866L394.656 284.871Z" fill="#F7CC7F"/>
<path d="M391.444 265.277C388.509 269.567 386.115 271.015 386.489 273.379C386.706 274.759 387.799 275.419 389.134 275.118C390.71 274.759 391.568 273.089 392.513 271.916C393.42 270.793 394.306 269.665 395.119 268.468C395.853 267.38 395.956 265.976 394.882 265.04C393.981 264.257 392.198 264.188 391.454 265.277H391.444Z" fill="#F7CC7F"/>
<path d="M380.017 264.533C379.081 261.932 378.874 260.987 377.657 259.775C376.598 258.726 374.367 259.396 374.219 260.942C374.047 262.745 374.426 263.42 375.411 266.149C375.859 267.39 377.273 268.08 378.524 267.641C379.766 267.208 380.465 265.774 380.017 264.528V264.533Z" fill="#F7CC7F"/>
<path d="M367.673 270.829C363.446 267.617 362.584 266.711 360.925 266.888C359.949 266.992 358.856 267.928 359.072 269.021C359.466 271.051 360.649 271.602 364.535 274.439C365.579 275.198 367.013 275.237 367.909 274.203C368.712 273.277 368.707 271.612 367.673 270.829Z" fill="#F7CC7F"/>
<path d="M350.689 285.551C349.024 286.432 349.694 289.314 351.497 289.55C353.226 289.777 353.896 289.501 362.289 287.964C363.585 287.728 364.653 286.782 364.555 285.358C364.471 284.152 363.255 282.856 361.954 283.093C353.236 284.664 352.364 284.659 350.694 285.546L350.689 285.551Z" fill="#F7CC7F"/>
<path d="M363.84 299.284C359.24 303.737 358.565 302.949 356.747 305.673C355.915 306.919 357.284 308.904 358.733 308.638C360.59 308.298 361.087 307.983 363.505 306.067C364.909 304.954 366.254 303.757 367.549 302.515C368.505 301.594 368.249 299.86 367.308 299.043C366.234 298.107 364.796 298.358 363.835 299.284H363.84Z" fill="#F7CC7F"/>
<path d="M360.599 397.039L349.619 399.819L343.255 382.431L326.708 384.487L319.844 372.268L313.735 375.786L322.914 392.133L338.594 390.181L345.218 408.268L361.735 404.09L360.599 397.039Z" fill="#0EE4CF"/>
<path d="M399.462 124.064L389.576 123.268L388.228 132.405L378.459 132.046L376.093 140.618L368.735 141.547L369.207 145.268L379.045 144.029L381.288 135.904L391.45 136.273L392.778 127.288L401.735 128.011L399.462 124.064Z" fill="#0EE4CF"/>
<path d="M299.174 112.468L291.337 114.877L288.877 122.705C288.68 123.34 287.839 123.47 287.459 122.927L282.746 116.209L274.543 116.286C273.88 116.291 273.501 115.536 273.895 115.007L278.82 108.443L276.211 100.663C275.999 100.033 276.6 99.4366 277.229 99.653L284.99 102.312L291.577 97.4266C292.111 97.0323 292.865 97.4169 292.851 98.0805L292.721 106.284L299.4 111.045C299.938 111.429 299.804 112.266 299.169 112.463L299.174 112.468Z" fill="#FED333"/>
<path d="M87.8437 10.3256L90.0269 19.6491L98.7722 19.0762L100.552 29.923L110.395 25.7799L112.888 37.8013L122.085 35.2683L126.18 45.8931L122.399 48.7887L119.329 40.8464L109.63 43.5214L107.235 31.9645L97.2273 36.1771L95.2598 24.2088L86.7223 24.7672L84.6957 16.1278L78.871 17.9381L78.7756 13.1454L87.8437 10.3256Z" fill="#14C3AD"/>
<path d="M31.4127 33.5015L12.9281 57.8958L9.08377 32.6996L31.4127 33.5015Z" fill="#50BFA5"/>
</svg>
