<?xml version="1.0" encoding="utf-8"?>
<!-- Generator: Adobe Illustrator 26.2.1, SVG Export Plug-In . SVG Version: 6.00 Build 0)  -->
<svg version="1.1" id="Layer_1" xmlns="http://www.w3.org/2000/svg" xmlns:xlink="http://www.w3.org/1999/xlink" x="0px" y="0px"
	 viewBox="0 0 844 611" style="enable-background:new 0 0 844 611;" xml:space="preserve">
<style type="text/css">
	.st0{fill:#8870F9;}
	.st1{fill:#F7CC7F;}
	.st2{fill:#50BFA5;}
	.st3{fill:#14C3AD;}
	.st4{fill:#EFEFEF;}
	.st5{fill:#0EE4CF;}
	.st6{fill:#FAE0B2;}
	.st7{fill:#FED333;}
	.st8{fill:#13A48F;}
	.st9{fill:#283250;}
	.st10{fill:#FFFFFF;filter:url(#Adobe_OpacityMaskFilter);}
	.st11{mask:url(#path-38-inside-1_1411_18565_00000039820312948588225340000014198936244145109137_);}
	.st12{fill:#BAFBEE;}
	.st13{fill:#43FFE3;}
	.st14{fill:#8CFFEB;}
	.st15{fill:#8870F9;stroke:#000000;stroke-width:2.2;}
	.st16{fill:#C9C2FB;}
	.st17{fill:#8870F9;stroke:#000000;stroke-width:2.3;}
	.st18{fill:#FAF9FF;stroke:#000000;stroke-width:2.3;}
	.st19{fill:#0EE4CF;stroke:#000000;stroke-width:2.3;}
	.st20{fill:#14C3AD;stroke:#000000;stroke-width:2.3;}
	.st21{fill:#431879;stroke:#000000;stroke-width:2.3;}
	.st22{opacity:0.4;fill:#14C3AD;stroke:#000000;stroke-width:2.3;enable-background:new    ;}
	.st23{fill:#FFFFFF;filter:url(#Adobe_OpacityMaskFilter_00000005240890588566559620000007530426679956820873_);}
	.st24{mask:url(#path-83-inside-2_1411_18565_00000067218664910147336690000012408483970210082702_);}
	.st25{fill:#FAF9FF;}
	.st26{fill:#FFFFFF;filter:url(#Adobe_OpacityMaskFilter_00000134221215091894478880000008797548825917056173_);}
	.st27{mask:url(#path-94-inside-5_1411_18565_00000022519190432578179030000013972520237148488326_);}
	.st28{fill:#7060E1;}
	.st29{fill:#7060E1;stroke:#000000;stroke-width:2.3;}
	.st30{fill:none;stroke:#000000;stroke-width:2;stroke-miterlimit:10;}
	.st31{fill:#FFFFFF;filter:url(#Adobe_OpacityMaskFilter_00000034086320802762909540000011035672778277123235_);}
	.st32{mask:url(#path-87-inside-4_1411_18565_00000065793505594317828860000000245536380503798915_);}
	.st33{fill:#FFFFFF;filter:url(#Adobe_OpacityMaskFilter_00000171706384857982250820000018356855800646733472_);}
	.st34{mask:url(#path-85-inside-3_1411_18565_00000116203464603757325280000007171010781562821291_);}
</style>
<path class="st0" d="M634.5,129.4c0,0,1.4-3.9,6.1-5.3c4.2-1.2,8,1.2,9.2,5c1.3,4.5-1,10.9-9.7,18.5c-11.5-1.5-17-5.6-18.3-10.1
	c-1.2-3.8,0.7-8,4.9-9.3C631.2,126.9,634.5,129.4,634.5,129.4L634.5,129.4z"/>
<path class="st0" d="M600.7,141.5c4.2-0.6,7.6-1.2,10.9-2c1.1-0.3,3-0.4,3.6-1.5c0.3-0.6,0.2-1.2-0.4-1.6c-1-0.7-2.6,0.1-3.7,0.3
	c-3.3,0.8-7.1,1.6-11,2.1c-0.7,0.1-1.2,0.9-1,1.6C599.2,141.2,599.9,141.6,600.7,141.5L600.7,141.5z"/>
<path class="st0" d="M658.3,136.4c1.6-0.4,3.2-0.8,4.8-1.1c1.5-0.4,3.4-0.5,4.7-1.4c1-0.6,0.7-2.1-0.5-2.2c-1.6-0.2-3.3,0.5-4.8,0.9
	c-1.6,0.4-3.2,0.8-4.8,1.2C656,134.2,656.6,136.8,658.3,136.4L658.3,136.4z"/>
<path class="st0" d="M620.4,158.8c1.2-3.8,3.4-5.5,4.9-7.2c0.8-0.9-0.1-2.3-1.3-1.8c-3.2,1.3-5.3,5-6.3,8.2
	C617.3,159.7,619.9,160.4,620.4,158.8L620.4,158.8z"/>
<path class="st0" d="M640.9,162.7c-0.5-1.6-0.6-3.3-0.4-5c0.1-1,1.4-4.1-0.6-4.1c-1.9,0-2.1,3.1-2.2,4.4c-0.2,1.8,0,3.6,0.5,5.3
	C638.7,165,641.3,164.4,640.9,162.7L640.9,162.7z"/>
<path class="st0" d="M651.9,149.4c1,0.4,2.1,0.9,3.1,1.3c1,0.4,2.1,1.2,3.2,0.6c0.6-0.3,0.7-1,0.5-1.6c-0.4-1-2-1.3-2.9-1.7
	c-1-0.4-2.1-0.8-3.1-1.3c-0.7-0.3-1.5,0.3-1.7,0.9C650.8,148.5,651.2,149.1,651.9,149.4L651.9,149.4z"/>
<path class="st0" d="M621.2,122.3c-5.4-7.3-5.3-7.4-6.1-7.9c-0.9-0.5-2,0.3-1.8,1.3c0.2,1,0.2,0.8,5.9,8.5c0.5,0.6,1.5,0.6,2,0.1
	C621.7,123.7,621.6,122.9,621.2,122.3L621.2,122.3z"/>
<path class="st0" d="M635.7,118.7c0.2-1.5,0.2-3,0.1-4.5c-0.1-1.4-0.1-3.5-1.5-4.2c-0.3-0.1-0.8,0-1,0.2c-0.9,1-0.3,2.8-0.2,4.1
	c0.1,1.4,0.1,2.8-0.1,4.2c-0.1,0.7,0.6,1.4,1.3,1.4C635.1,120,635.6,119.4,635.7,118.7L635.7,118.7z"/>
<path class="st0" d="M656.5,115c0.1-0.7-0.6-1.1-1.1-1.2c-1.2-0.2-2.4,1.2-3.2,2c-0.9,0.9-1.7,1.9-2.5,2.9c-0.4,0.6-0.1,1.5,0.4,1.9
	c0.7,0.4,1.4,0.1,1.9-0.4C655.1,116.4,656.3,116.7,656.5,115L656.5,115z"/>
<path class="st1" d="M578.2,35.3c-0.3-4,2.7-7.4,6.7-7.7c4-0.3,7.4,2.7,7.7,6.7c0.3,4-2.7,7.4-6.7,7.7
	C581.9,42.3,578.5,39.3,578.2,35.3z"/>
<path class="st1" d="M590.5,55.7c-0.4-2.1-0.7-4.3-1.4-6.4c-0.6-1.7-3.3-1.2-3.2,0.7c0.2,2.3,0.9,4.6,1.4,6.8c0.2,0.9,1.4,1.3,2.2,1
	C590.4,57.6,590.6,56.6,590.5,55.7L590.5,55.7z"/>
<path class="st1" d="M602.8,46.8c-2.4-1.4-4.5-3.2-6.7-4.8c-1.7-1.3-3.6,0.9-2.2,2.5c2,2.2,4.7,4,7.3,5.5c0.8,0.5,2,0,2.4-0.8
	C604.1,48.2,603.6,47.3,602.8,46.8L602.8,46.8z"/>
<path class="st1" d="M598.3,33.9c-0.5,0.4-0.6,1.1-0.3,1.7c0.8,1.5,2.9,1.4,4.3,1.3c1.5-0.1,3-0.4,4.5-0.9c2.1-0.7,1-4-1.2-3.3
	C601.4,34.2,599.9,32.6,598.3,33.9L598.3,33.9z"/>
<path class="st1" d="M596,19.8c-2.1,3.1-3.8,4.1-3.5,5.8c0.2,1,0.9,1.5,1.9,1.2c1.1-0.3,1.7-1.5,2.4-2.3c0.6-0.8,1.3-1.6,1.9-2.5
	c0.5-0.8,0.6-1.8-0.2-2.5C597.8,19.1,596.5,19.1,596,19.8L596,19.8z"/>
<path class="st1" d="M587.8,19.3c-0.7-1.9-0.8-2.5-1.7-3.4c-0.8-0.8-2.4-0.3-2.5,0.8c-0.1,1.3,0.1,1.8,0.9,3.7
	c0.3,0.9,1.3,1.4,2.2,1.1C587.6,21.2,588.1,20.2,587.8,19.3L587.8,19.3z"/>
<path class="st1" d="M579,23.8c-3-2.3-3.6-2.9-4.8-2.8c-0.7,0.1-1.5,0.7-1.3,1.5c0.3,1.5,1.1,1.8,3.9,3.9c0.7,0.5,1.8,0.6,2.4-0.2
	C579.7,25.6,579.7,24.4,579,23.8L579,23.8z"/>
<path class="st1" d="M566.8,34.4c-1.2,0.6-0.7,2.7,0.6,2.9c1.2,0.2,1.7,0,7.7-1.1c0.9-0.2,1.7-0.8,1.6-1.9c-0.1-0.9-0.9-1.8-1.9-1.6
	C568.6,33.7,568,33.7,566.8,34.4L566.8,34.4z"/>
<path class="st1" d="M576.2,44.2c-3.3,3.2-3.8,2.6-5.1,4.6c-0.6,0.9,0.4,2.3,1.4,2.1c1.3-0.2,1.7-0.5,3.4-1.8c1-0.8,2-1.7,2.9-2.5
	c0.7-0.7,0.5-1.9-0.2-2.5C577.9,43.3,576.9,43.5,576.2,44.2L576.2,44.2z"/>
<path class="st2" d="M324.8,28l-2.9,5.3l-9.3-3.7l-5.3,7.2l-7.4-1.6l-0.9,3.6l9.9,2.2l5-6.8l9.7,3.8L328,30L324.8,28z"/>
<path class="st3" d="M639.1,36.9l-2.4,6.3l5.2,3.1l-3.2,7l7.2,1.5l-3.3,8L649,65l-1.8,7.8l-3.3,0.2l1.3-5.8l-6.6-2.3l3.1-7.7
	l-7.4-1.5l3.5-7.7l-5.1-3.1l2.2-5.8l-4-1.3l1.8-2.8L639.1,36.9z"/>
<path class="st0" d="M285.1,92.8c4.1,7.3,1.4,16.4-6.2,20.4c-7.5,4-16.9,1.3-21-6c-4.1-7.3-1.4-16.4,6.2-20.4
	C271.6,82.9,281,85.5,285.1,92.8z"/>
<path class="st4" d="M266,105.8c2.1,3.9,7,5.4,10.8,3.2c3.9-2.1,5.3-7.1,3.2-11L266,105.8L266,105.8z"/>
<path class="st5" d="M739.7,110.2c2.8,4.8,0.9,10.9-4.2,13.6c-5.1,2.6-11.5,0.9-14.2-4c-2.8-4.8-0.9-10.9,4.2-13.6
	C730.5,103.6,736.9,105.4,739.7,110.2z"/>
<path class="st4" d="M727,118.8c1.4,2.9,4.6,4,7.2,2.4c2.6-1.6,3.5-5.3,2.1-8.3L727,118.8L727,118.8z"/>
<path class="st5" d="M544.2,86.2l-8,1.9l-4.6-12.1l-12.1,1.4l-5-8.5l-4.5,2.4l6.7,11.4l11.4-1.4L533,94l12-2.9L544.2,86.2z"/>
<path class="st6" d="M173.9,36l5.8-1.8c0,0,5.7-7.6,5.4-9.6c-0.4-2-2.8-5.7-1.8-6.6c1-0.8,3.3-1.9,5.6,0.2c1.7,1.5,2.8,8.6,3.6,8.8
	c0.5,0.2,3.9-0.8,6.4-1.5c1.6-0.5,3.4,0,4.6,1.2h0c0.8,0.8,0.9,2.1,0.3,3l-1,1.5l1.4,1.1c1.1,0.8,1.3,2.3,0.5,3.3l-0.8,1.1l1,0.6
	c1.2,0.8,1.5,2.4,0.6,3.5l-0.7,0.9l0.2,0.2c0.9,0.9,1,2.3,0.2,3.2l-0.7,0.9l-15.5,4.8c-1.5,0.4-3,0.6-4.5,0.4l-5.8,0.8
	c-0.6,0.1-1.2-0.3-1.4-0.9l-4.1-13.5C172.9,36.9,173.2,36.2,173.9,36L173.9,36z"/>
<path class="st5" d="M472.4,4.5L465.5,4l-0.9,6.2l-6.8-0.2l-1.6,5.8l-5.1,0.6l0.3,2.5l6.9-0.8l1.6-5.5l7.1,0.3l0.9-6.1l6.2,0.5
	L472.4,4.5z"/>
<path class="st7" d="M273.9,158.3l-3.5,4.1l1.2,5.3c0.1,0.4-0.3,0.8-0.7,0.6l-4.9-2.2l-4.5,2.9c-0.4,0.2-0.8-0.1-0.8-0.5l0.5-5.4
	l-4-3.5c-0.3-0.3-0.2-0.8,0.2-0.9l5.2-1.1l2-5c0.2-0.4,0.7-0.4,0.9-0.1l2.7,4.7l5.3,0.4C274,157.4,274.2,158,273.9,158.3
	L273.9,158.3z"/>
<path class="st7" d="M446.6,99.1l-5.7,1.8l-1.8,5.7c-0.1,0.5-0.8,0.6-1,0.2l-3.4-4.9l-6,0.1c-0.5,0-0.8-0.5-0.5-0.9l3.6-4.8
	l-1.9-5.7c-0.2-0.5,0.3-0.9,0.7-0.7l5.7,1.9l4.8-3.6c0.4-0.3,0.9,0,0.9,0.5l-0.1,6l4.9,3.5C447.1,98.3,447,99,446.6,99.1L446.6,99.1
	z"/>
<path class="st8" d="M99,108.5c0,0.8-4.7,1.5-10.5,1.5S78,109.3,78,108.5s4.7-1.5,10.5-1.5S99,107.7,99,108.5z"/>
<path class="st2" d="M405,9.2L384,16l8-16L405,9.2z"/>
<path class="st5" d="M88.5,75c-4.7,0-8.5,3.6-8.5,8c0,4.4,8.5,26,8.5,26S97,87.4,97,83C97,78.6,93.2,75,88.5,75L88.5,75z M88.5,87.6
	c-2,0-3.6-1.7-3.6-3.8s1.6-3.8,3.6-3.8s3.6,1.7,3.6,3.8S90.5,87.6,88.5,87.6z"/>
<path class="st3" d="M192,106l-26.3,25L155,112.7L192,106z"/>
<path class="st5" d="M154,105l0.3,8l37.7-6.4L154,105z"/>
<path class="st5" d="M154,115.5l38-9.5l-38,22L154,115.5z"/>
<path class="st1" d="M126,144.9c0.1-0.5,0.5-0.9,1-0.8c0.1,0,5.9,0.5,14-2.5c7.9-3,11.9-10,12.1-10.9c0.1-0.5,0.6-0.8,1.1-0.7
	c0.5,0.1,0.8,0.6,0.7,1.1c-0.3,1.3-4.8,9-13.3,12.2c-8.5,3.2-14.6,2.6-14.8,2.6C126.3,145.9,126,145.4,126,144.9L126,144.9z"/>
<path class="st1" d="M87,147c11.2,0,22.3-1.9,32.9-5.7c8.8-3.1,16.5-9,25.3-11.4c0.5-0.1,0.8-0.7,0.7-1.2c-0.1-0.5-0.7-0.8-1.2-0.7
	c-9.1,2.5-16.8,8.4-25.5,11.4c-10.5,3.7-21.3,5.6-32.3,5.6c-4,0-8.7-0.6-13.8-1.9c-0.5-0.1-1,0.2-1.1,0.7c-0.1,0.5,0.2,1,0.7,1.2
	C77.3,146.2,82.3,147,87,147L87,147z"/>
<path class="st9" d="M827.3,600H0.7c-0.4,0-0.7-0.2-0.7-0.5c0-0.3,0.3-0.5,0.7-0.5h826.7c0.4,0,0.7,0.2,0.7,0.5
	C828,599.8,827.7,600,827.3,600z"/>
<defs>
	<filter id="Adobe_OpacityMaskFilter" filterUnits="userSpaceOnUse" x="-2" y="597" width="832" height="5">
		<feColorMatrix  type="matrix" values="1 0 0 0 0  0 1 0 0 0  0 0 1 0 0  0 0 0 1 0"/>
	</filter>
</defs>
<mask maskUnits="userSpaceOnUse" x="-2" y="597" width="832" height="5" id="path-38-inside-1_1411_18565_00000039820312948588225340000014198936244145109137_">
	<path class="st10" d="M827.3,600H0.7c-0.4,0-0.7-0.2-0.7-0.5c0-0.3,0.3-0.5,0.7-0.5h826.7c0.4,0,0.7,0.2,0.7,0.5
		C828,599.8,827.7,600,827.3,600z"/>
</mask>
<path class="st11" d="M827.3,598H0.7v4h826.7V598z M0.7,598c0.2,0,0.5,0.1,0.7,0.2c0.3,0.2,0.6,0.6,0.6,1.3h-4c0,0.9,0.5,1.6,1,2
	c0.5,0.4,1.1,0.5,1.7,0.5V598z M2,599.5c0,0.6-0.4,1.1-0.6,1.2c-0.3,0.2-0.5,0.2-0.7,0.2v-4c-0.6,0-1.2,0.2-1.7,0.5
	c-0.5,0.4-1,1-1,2H2z M0.7,601h826.7v-4H0.7V601z M827.3,601c-0.2,0-0.5-0.1-0.7-0.3c-0.3-0.2-0.6-0.6-0.6-1.2h4c0-0.9-0.5-1.6-1-2
	c-0.5-0.4-1.1-0.5-1.7-0.5V601z M826,599.5c0-0.6,0.4-1.1,0.6-1.3c0.3-0.2,0.5-0.2,0.7-0.2v4c0.6,0,1.2-0.2,1.7-0.5c0.5-0.4,1-1,1-2
	H826z"/>
<path class="st12" d="M747.7,510.2c0,0-14.2-16.5-0.9-27c0,0,9.7-5.9,17.6-5.4c0,0-11.2,18.8-7.6,20.7c3.6,1.9,11-21.9,11-21.9
	s22.1-2.1,29.2,1.3c0,0-18.9,15.5-14.9,16.4c4,0.9,24.4-14.3,24.4-14.3s20.6,3.5,19.5,16c-1.1,12.5-8.2,16.4-11.3,16.1
	c-3.1-0.3-21.3-7.3-21.7-4.7c-0.4,2.6,10.6,10.9,18.3,11.3c0,0-14.5,16-24.1,11.4c-9.6-4.6-10.5-11.9-16.5-14.7
	c-6-2.7-11.1-2.7-8.7,0.1c2.5,2.8,13.4,5.5,16.8,11.6c3.4,6.1,6.5,10.2-3.5,8.7c-10-1.5-26.2-8.8-26.9-17.1L747.7,510.2L747.7,510.2
	z"/>
<path class="st12" d="M815.9,496.4c0,0-55.9-2.2-68.2,13.8c0,0-2.7,8.2-11.1,15.6l-1.3,3.6c0,0,9.7-10.2,13.1-10.8
	C748.4,518.6,743,498.8,815.9,496.4L815.9,496.4z"/>
<path class="st12" d="M736.6,525.9c0,0-12,8.9-12.8,24.7l2.2,0.2c0,0,3.8-16.4,10.8-22.8C743.6,521.6,736.6,525.9,736.6,525.9
	L736.6,525.9z"/>
<path class="st5" d="M698.2,489.5c0,0,22.5-12.6,12-29.7c0,0-8.4-10.5-17.4-13.2c0,0,4.8,25.5,0,26.1c-4.8,0.6-3.3-28.8-3.3-28.8
	s-23.7-11.4-33.1-10.5c0,0,14.7,24.9,9.9,24.3c-4.8-0.6-21.3-25.8-21.3-25.8s-24.3-4.5-28.2,9.9c-3.9,14.4,2.4,21.6,6,22.5
	c3.6,0.9,26.7,0.6,26.1,3.6c-0.6,3-16.2,7.8-24.9,5.1c0,0,9.6,23.7,22.2,22.5c12.6-1.2,16.5-9,24.3-9.6s13.5,1.5,9.6,3.6
	c-3.9,2.1-17.1,0.7-23.4,6.1c-6.3,5.4-11.4,8.7,0.3,11.1s32.8,0.9,37-8.1L698.2,489.5L698.2,489.5z"/>
<path class="st13" d="M627.8,446.2c0,0,63.1,20.4,70.3,43.3c0,0-0.3,10.2,6,21.9v4.5c0,0-6.6-15.3-10.2-17.4
	C693.9,498.5,708.1,478.7,627.8,446.2z"/>
<path class="st13" d="M704.2,511.4c0,0,9.7,14.8,4.2,32.8l-2.5-0.7c0,0,2.4-19.8-2.7-29.8C698.1,503.7,704.2,511.4,704.2,511.4
	L704.2,511.4z"/>
<path class="st5" d="M734,472.1c0,0-29.7-16.6-15.8-39.2c0,0,11.1-13.9,23-17.4c0,0-6.3,33.7,0,34.5c6.3,0.8,4.4-38,4.4-38
	s31.3-15.1,43.6-13.9c0,0-19.4,32.9-13.1,32.1c6.3-0.8,28.1-34.1,28.1-34.1s32.1-5.9,37.2,13.1c5.1,19-3.2,28.5-7.9,29.7
	c-4.8,1.2-35.3,0.8-34.5,4.8c0.8,4,21.4,10.3,32.9,6.7c0,0-12.7,31.3-29.3,29.7c-16.6-1.6-21.8-11.9-32.1-12.7
	c-10.3-0.8-17.8,2-12.7,4.8c5.1,2.8,22.6,0.9,30.9,8c8.3,7.1,15.1,11.4-0.4,14.6c-15.5,3.2-43.2,1.2-48.7-10.7L734,472.1L734,472.1z
	"/>
<path class="st14" d="M826.7,415c0,0-83.2,26.9-92.7,57c0,0,0.4,13.5-7.9,28.9v5.9c0,0,8.7-20.2,13.5-23
	C739.6,483.9,720.9,457.8,826.7,415L826.7,415z"/>
<path class="st14" d="M726.1,501c0,0-12.8,19.5-5.5,43.2l3.3-0.9c0,0-3.2-26.1,3.5-39.2C734.1,490.9,726.1,501,726.1,501L726.1,501z
	"/>
<path class="st15" d="M790.1,538.5c-0.6,31-25.9,56-57.1,56c-31.2,0-56.5-25-57.1-56H790.1z"/>
<path class="st16" d="M747.3,595.1c-2.4,0.3-4.8,0.4-7.2,0.4c-32.1,0-56.6-23.9-56.6-56.1H698C698,569.2,718.6,591.6,747.3,595.1
	L747.3,595.1z"/>
<path class="st17" d="M792,598.5H674c0-4,3.2-7.2,7.2-7.2h103.6C788.8,591.3,792,594.6,792,598.5L792,598.5z"/>
<path class="st18" d="M636.7,589.7c0.5,0.6,1,1.1,1.3,1.5l-4.5,1.3l-20.4-17.3l-19-27l13.3-3.3l11.7,21.6l0,0
	c2.3,4.2,7.3,10.7,11.7,16.1C633.1,585.4,635.2,587.9,636.7,589.7z"/>
<path class="st17" d="M549.4,208.1c-0.6,3.3-1.4,6.3-2.5,8.9c0.5-2.5,1-5.6,1.3-9.4l-2.3-0.2c-0.1,0.4-0.5,3.4-1.4,7
	c-0.9,3.6-2.3,7.7-4.2,10.6c-8.9,5.9-21.7,18.4-32.2,30.3c-5.3,6-10,11.9-13.4,16.8c-1.7,2.4-3,4.6-4,6.5c-0.4,0.8-0.8,1.6-1,2.3
	c-0.3-0.3-0.6-0.6-1-0.9c-1.5-1.4-3.7-3.5-6.3-5.8l-1.2-7.1l-0.6-3.6l-1.6,3.2c-0.4,0.9-0.6,2-0.7,3.1c0,0.2,0,0.4,0,0.6
	c-9.6-8.8-22.4-20.3-29.8-26c1-2.8,2.8-6.7,3.2-7.7c0.1-0.1,0.1-0.2,0.1-0.2l1-2.2l-2.3,0.6c-0.8,0.2-1.5,0.7-2.2,1.3
	c-0.7,0.6-1.3,1.3-1.9,2c0,0,0,0.1-0.1,0.1c0.6-1.6,1.6-3.6,3-5.9c3.7-6.1,10.7-13.9,23.6-20.6l0,0c2.1-1.1,4.2-2.1,6.1-3
	c1.2-0.6,2.3-1.1,3.3-1.7c2.8-1.4,5.3-2.8,7.4-4.2c2.1-1.4,3.8-3,4.9-4.8c1.2-1.9,1.7-4,1.5-6.5v0c-0.3-4.4,0.6-16.2,4.8-25.5
	c2.1-4.7,4.9-8.6,8.7-10.8c3.7-2.2,8.6-2.7,14.9-0.3l0.4,0.2l0.4-0.2h0v0h0l0,0l0,0c0,0,0,0,0.1,0c0.1,0,0.1,0,0.2-0.1
	c0.1,0,0.3-0.1,0.5-0.1l2.6-0.2c0.2,0,0.5,0,0.7,0l0.1,0l0,0c2.8-0.1,6.4,0.3,9.5,1.9l0,0l0.1,0.1c1,0.5,2,1.7,3.1,3.6
	c1.1,1.8,2.1,4.2,3.1,6.9c1.9,5.5,3.4,12.5,4.2,19.8C550.5,194.1,550.5,201.6,549.4,208.1z"/>
<path class="st18" d="M525.4,228L525.4,228c2.9,0.8,6.4,0.2,9.3-0.7c1.4-0.4,2.6-0.9,3.5-1.3c0.1,0,0.1-0.1,0.2-0.1
	c0-0.1-0.1-0.2-0.1-0.3c-0.2-0.7-0.4-1.5-0.5-2.5c-0.2-1.9-0.3-4.3-0.3-6.8c0,0,0,0,0,0l1.2,0c0-5.8,0.5-11.9,0.5-11.9L525.4,228z
	 M525.4,228c-2.7-0.7-5-2.9-6.7-5c-0.8-1-1.5-2-1.9-2.8c0,0,0-0.1-0.1-0.1c0.4-0.3,0.7-0.6,1-1c0.6-0.8,0.9-2,1.2-3.5
	c0.5-2.8,0.7-7.1,0.7-13.9l18.3,3.6L525.4,228z"/>
<path class="st17" d="M532.7,159.8L532.7,159.8c-5-0.7-8.8,0-11.7,1.5c-2.9,1.5-5,3.7-6.5,6.3c-1.5,2.6-2.4,5.4-2.8,8
	c-0.4,2.6-0.4,4.7-0.2,6L532.7,159.8z M532.7,159.8L532.7,159.8 M532.7,159.8L532.7,159.8 M532.7,159.8L532.7,159.8 M532.7,159.8
	L532.7,159.8 M532.7,159.8L532.7,159.8 M532.7,159.8L532.7,159.8 M532.7,159.8L532.7,159.8 M532.7,159.8L532.7,159.8 M532.7,159.8
	L532.7,159.8 M532.7,159.8L532.7,159.8 M532.7,159.8L532.7,159.8L532.7,159.8c0.1,0,0.1,0,0.2,0c0.2,0,0.4,0.1,0.7,0.1
	c0.6,0.1,1.5,0.3,2.6,0.6c2.1,0.6,4.9,1.7,7.6,3.5l0,0c2.1,1.4,4.6,3.6,5.8,7.5c1.2,3.9,1.1,9.7-2.5,18.5l0,0l0,0l-1.6,5.3
	l-27.2,1.9c-0.1-0.2-0.3-0.5-0.5-0.9c-0.5-1-1.3-2.3-2.1-3.9c-1.6-3.2-3.3-7.3-4-11L532.7,159.8z"/>
<path class="st17" d="M577.4,402.9c7.2,40.9,19.1,96.2,37.9,154.3l-8.8,0.3l-0.2,0l-0.2,0.1h0v0l0,0h0l0,0l0,0c0,0-0.1,0-0.2,0.1
	c-0.2,0.1-0.4,0.1-0.7,0.2c-0.6,0.2-1.4,0.4-2.5,0.5c-2,0.3-4.6,0.4-7.1-0.5c-0.4-0.2-1.2-0.6-2.3-1.6c-1.1-1-2.3-2.3-3.7-4
	c-2.9-3.5-6.3-8.4-10.1-14.7c-7.6-12.7-16.3-30.9-23.5-53.9l0,0c-0.3-1.1-0.7-2.2-1.1-3.3l0,0c-3.8-11-9.4-23.2-15.2-35.8
	c-0.4-0.8-0.7-1.6-1.1-2.4c-6.2-13.5-12.5-27.2-16.8-40.3l0,0c-1.4-4.2-2.6-8.1-3.7-11.8c0-0.1-0.1-0.3-0.1-0.4
	c-0.3-1.1-0.6-2.1-0.9-3.1l0,0c-6.2-21.5-8.1-35.8-9.8-50.9l60.3,0.5c0,0.1,0,0.1,0,0.2c0.1,0.8,0.2,2,0.4,3.6
	c0.4,3.1,0.9,7.8,1.7,13.7C571.3,365.2,573.8,382.2,577.4,402.9z"/>
<path class="st19" d="M506.7,344.2c0-0.2,0-0.3,0-0.5c0-0.9,0-2.2,0-3.9c0-3.4,0.2-8.2,0.3-14c0.3-11.6,0.9-27.1,1.7-42.7
	c0.9-15.6,2-31.3,3.5-43.3c0.7-6,1.6-11,2.5-14.6c0.5-1.8,0.9-3.2,1.4-4.2c0.2-0.4,0.3-0.7,0.5-0.9c1.3,1.2,3.2,2.2,5.3,3
	c2.6,1,5.7,1.7,8.6,1.6l0,0c3.3-0.1,5.7-0.8,7.3-2.1c1-0.8,1.6-1.9,1.8-3c2.7,1.5,5.1,3,7,4.1c1.1,0.7,2,1.2,2.6,1.6
	c0.3,0.2,0.5,0.3,0.7,0.4c0.3,0.5,0.6,1.3,0.9,2.5c0.4,1.3,0.7,2.9,1.1,4.8c0.8,3.8,1.5,8.8,2.3,14.5c1.5,11.4,3.1,25.6,4.4,39.5
	c1.3,13.9,2.5,27.5,3.3,37.7c0.4,5.1,0.7,9.3,1,12.2c0.1,1.5,0.2,2.6,0.3,3.4c0,0.2,0,0.3,0,0.4c-0.1,0.1-0.3,0.1-0.5,0.2
	c-0.8,0.3-1.9,0.8-3.4,1.4c-3,1.1-7.3,2.5-12.5,3.5C536.3,348,522.2,348.8,506.7,344.2z"/>
<path class="st17" d="M492.6,326.3c-1.7,1.9-3.5,3.4-5.5,4.3c2.8-6.8,5.3-11.9,7.2-16c0.1-0.2,0.2-0.4,0.3-0.7
	c2.2-4.5,3.8-7.8,4.2-10.6l0,0c1.5-9.6,1.5-19.6,0.8-28.9c2.1-3.7,3.9-6.8,5.3-9c0.7-1.1,1.2-2,1.6-2.6c0.2-0.3,0.3-0.5,0.4-0.7
	l0.1-0.2l0,0l0,0l0,0h0l0,0l-1-0.6l1,0.6l0.1-0.1l0-0.2c0.1-0.3,0.5-1.7,1.2-3.5c0.7-1.8,1.6-3.8,2.5-5.2c0.5-0.7,0.9-1.1,1.2-1.3
	c0.1-0.1,0.1-0.1,0.2-0.1c0,0,0,0,0,0c0.1,0.1,0.5,0.5,0.8,1.6c0.4,1.1,0.7,2.7,0.9,4.9c1,8.9-0.4,18.8-2.6,26.9
	c-1.1,4.1-2.3,7.7-3.4,10.6c-1.2,2.9-2.2,5-2.9,5.9l-0.2,0.3v0c-0.4,0.6-0.7,1.3-1.1,2.2c-0.4,1-0.9,2.2-1.4,3.5l-0.1,0.2
	c-1.1,2.8-2.4,6.2-4,9.5C496.8,320.5,494.9,323.8,492.6,326.3z"/>
<path class="st18" d="M542.6,208.8c0,0-0.1,0-0.2,0c-0.2,0-0.5,0-0.8,0c-0.7,0-1.7-0.1-2.9-0.2c-2.4-0.2-5.5-0.6-8.7-1.6
	c-3.1-0.9-6.2-2.3-8.4-4.4c-2.2-2-3.7-4.7-3.7-8.4l0,0c0-2.5-0.1-4.8-0.2-7.1c0-1.4-0.1-2.7-0.1-4c-0.1-3.3,0-6,0.6-8.3
	c0.6-2.2,1.6-3.9,3.3-5.1c1.8-1.2,4.4-2.1,8.4-2.3l0,0c8.1-0.5,12.8,0.8,15.5,2.7c2.7,1.9,3.7,4.4,4.4,7c0.3,1.2,0.4,3.7,0.2,7
	c-0.2,3.3-0.6,7.1-1.3,10.8c-0.7,3.7-1.6,7.2-2.8,9.8c-0.6,1.3-1.2,2.3-1.8,3C543.6,208.5,543.1,208.7,542.6,208.8L542.6,208.8z"/>
<path class="st17" d="M523.6,186.6L523.6,186.6c-5.3,1.4-9,1.3-11.4,1c-0.7-0.1-1.3-0.2-1.7-0.4l0,0c0.8-0.8,2-2.1,3.2-3.7
	c2.3-3.1,4.8-7.7,5.8-13.4c0.1-0.1,0.2-0.1,0.3-0.2c0.5-0.3,1.2-0.8,2.1-1.3c1.8-1,4.1-2.2,6.6-3.2c2.5-1,5.1-1.6,7.4-1.5
	c2,0.1,3.6,0.7,4.7,2.2c0,0.1-0.1,0.2-0.1,0.2c-0.2,0.5-0.5,1.2-0.9,2.1c-0.8,1.8-2,4.2-3.6,6.7c-1.5,2.5-3.4,5-5.5,7.1
	C528.3,184.4,526,186,523.6,186.6z"/>
<path class="st18" d="M648.4,245.6l-2.4-7.9c0-0.1,0-0.1,0.1-0.2c0.1-0.3,0.3-0.8,0.6-1.4c0.5-1.1,1.4-2.6,2.7-4
	c2.5-2.8,6.6-5.4,13.4-4.6c0.8,0.3,2.1,0.8,2.9,1.7c0.4,0.4,0.6,0.9,0.7,1.6c0,0.6-0.2,1.5-0.8,2.7c-0.5,0.9-1,1.4-1.3,1.7
	c-0.3,0.3-0.7,0.5-1.1,0.8c0,0-0.1,0.1-0.1,0.1c-1.1,0.7-2.4,1.6-4.2,4.3c-1.7,2.4-3.4,3.8-5.2,4.6
	C651.8,245.6,650.1,245.8,648.4,245.6z"/>
<path class="st18" d="M519.7,576l0,0.1l0,0.1l1.1-0.2l-1.1,0.2l0,0l0,0v0l0,0l0,0.1l0.1,0.3c0,0.2,0.1,0.6,0.2,1
	c0.2,0.9,0.4,2.1,0.7,3.4c0.5,2.7,1.2,6,1.6,8.4c0.2,1.2,0.2,1.9,0.1,2.4c-0.1,0.4-0.3,0.7-0.7,0.9c-0.5,0.3-1.2,0.5-2.4,0.6
	c-1.2,0.1-2.7,0.1-4.6,0.1c-1.7,0-2.8-0.5-3.5-1.1c-0.7-0.6-1.1-1.3-1.3-2.2c-0.2-0.8-0.3-1.7-0.2-2.4c0-0.3,0.1-0.6,0.1-0.8
	c0-0.1,0-0.2,0-0.2c1.9-5.6,1.6-10.9,1.4-12.3l0-0.1l0-0.1l-6.4-27H520L519.7,576z"/>
<path class="st19" d="M509.3,588.9c1.7,1.3,3.3,2.1,4.9,2.4c2,0.4,3.8,0.1,5.2-0.5c1.2-0.5,2.1-1.3,2.8-2c0.3,1.3,0.4,2.9,0.5,4.5
	c0.1,1.6,0.1,3,0.1,4h-14c-0.2-1.8-0.1-4.2,0.1-6.3C509.2,590.3,509.3,589.5,509.3,588.9z"/>
<path class="st19" d="M614.6,585.2v12.2h-2.1l-3.6-13.3l0-0.1l-0.1-0.1c-2.1-3.9-0.8-7.5,0.9-11.1c2.2,0.3,7.8,2.4,17.1,13.2l0,0
	c3.6,4.2,7.7,5.8,11.7,5.7c4.2,1.9,6.2,4.1,7.2,5.8h-17.6c-0.6-0.7-1.3-1.7-2.1-2.9c-0.9-1.5-1.8-3.3-2.8-5.3l0,0
	c-1.4-2.9-4.4-4.3-7.2-5l-1.5-0.4V585.2z"/>
<path class="st18" d="M646.1,238.3l2.1,7.1c0,0.1-0.1,0.1-0.1,0.2c-0.3,0.4-0.8,1-1.3,1.8c-1.1,1.5-2.6,3.6-4.3,5.8
	c-3.3,4.4-7.2,9.4-9.5,11.7c-2.3,2.3-8.2,6.9-14.4,11c-3.1,2.1-6.3,4-9.2,5.4c-2.9,1.4-5.3,2.3-7,2.3c-3.6,0.2-7.8-0.8-13.1-3
	c-5.3-2.2-11.5-5.5-19-10l-2.2-1.3l0.5,2.6c1.1,5.6,1.5,10.9,1,15.6l0,0c-1.3,12.5,0.4,36.4,2.5,57.2c1,10.4,2.2,20,3,27.1
	c0.4,3.5,0.8,6.4,1.1,8.4c0.1,1,0.2,1.8,0.3,2.3c0,0,0,0.1,0,0.1c-0.4,0.2-0.9,0.5-1.8,0.9c-1.8,0.8-5,1.9-10,3
	c-5,1.1-6.7,0.2-7.4-0.4c-0.3-0.3-0.4-0.7-0.5-0.9c0-0.1,0-0.3,0-0.3c0,0,0-0.1,0-0.1v0c0,0,0,0,0,0c0,0,0,0,0,0l0-0.1l0-0.1l-1.1,0
	c1.1,0,1.1,0,1.1,0v0v0l0-0.1l0-0.2l0-1l0-3.7c0-3.2-0.1-7.7-0.2-13.1c-0.1-10.9-0.3-25.5-0.5-40.3c-0.4-29.6-0.8-60.2-1-64
	c-0.1-1.1-0.4-2.5-0.8-4.3c-0.5-1.8-1.1-3.8-1.8-6.1c-1.5-4.5-3.4-9.9-5.3-15c-1.9-5.1-3.8-9.9-5.2-13.5c-0.7-1.7-1.2-3-1.6-4.1
	c11.4,1.8,22.6,7.9,32.2,15c10.1,7.5,18.3,15.9,22.9,21.2c2.9,3.4,7.7,4.4,11.7,2.5c5.6-2.6,13.5-6.4,17-7.9l0,0
	c3.1-1.4,8.9-4.5,13.9-7.2c2.5-1.4,4.8-2.6,6.5-3.6C645.2,238.9,645.7,238.6,646.1,238.3z M577,382.1C577,382.1,577,382.1,577,382.1
	L577,382.1L577,382.1z"/>
<path class="st17" d="M490.7,471.4c0.6,4.2,1.3,9.4,2.1,15.1c1.5,10.8,3.2,23.4,5,35.1c1.4,8.9,2.8,17.3,4.1,23.7
	c0.7,3.2,1.3,5.9,1.9,8c0.3,1,0.6,1.9,0.9,2.6c0.3,0.7,0.5,1.1,0.7,1.3c2.2,2.6,3.6,3.4,4.6,3.7c0.5,0.1,1.1,0.2,1.7,0.1
	c0.2,0,0.4,0,0.6,0c0.5,0,1.1-0.1,1.7-0.1c1.6,0,3.4-0.1,4.9-0.7c1.5-0.5,2.4-1.3,2.7-2.5c0-0.1,0.1-0.5,0.2-1.2
	c0.1-0.6,0.1-1.5,0.2-2.5c0.2-2.1,0.3-4.9,0.5-8.3c0.4-6.7,0.8-15.6,1.2-25c0.8-18.8,1.5-39.7,1.4-50h0c0-5.5,1.3-24.1,2.7-44.2
	c0.1-1.8,0.3-3.7,0.4-5.5c1.6-22.2,3.1-44.9,3.1-53.1c0-1.7-0.7-2.8-1.8-3.6c-1.2-0.8-3.1-1.3-5.6-1.5c-4.9-0.3-11.5,0.9-18.3,2.6
	c-6.7,1.7-13.4,3.9-18.5,5.7c-2.5,0.9-4.6,1.7-6.1,2.2c-0.7,0.3-1.2,0.5-1.6,0.6c0,1.2,0,2.5,0,3.8 M479.6,382.4
	c0.5,10.4,1.8,22.7,3.8,37.5l0,0c1.4,10.6,3.1,22.3,5,35.5c0.7,5.1,1.5,10.5,2.3,16L479.6,382.4z M479.6,382.4
	c-0.1-1.6-0.1-3.2-0.2-4.8L479.6,382.4z"/>
<path class="st18" d="M498.4,393L498.4,393c-6.5-0.9-14.4-3.2-20.7-5.4c-3.2-1.1-5.9-2.1-7.9-2.9c-0.9-0.3-1.6-0.6-2.1-0.9
	c0.2-0.5,0.4-1.2,0.7-2.1c0.6-2,1.6-5,2.7-8.7c2.3-7.4,5.4-17.7,9-29.4c0-0.1,0.1-0.3,0.1-0.5c0-0.1,0.1-0.2,0.1-0.3l0,0
	c8.3-27.6,18.4-62.8,23.4-85.8c0.1-0.3,0.1-0.6,0.2-0.9c0-0.2,0.1-0.4,0.1-0.6l0,0c1.4-6.3,2.3-11.7,2.7-15.6l9.9-18.9
	c0.4,1,1,2.2,1.6,3.7c1.5,3.6,3.6,8.4,5.6,13.6c2.1,5.1,4.2,10.6,5.8,15.3c1.6,4.7,2.8,8.6,3,10.8c0.1,1-0.1,3.6-0.5,7.5
	c-0.4,3.8-1.1,8.8-2,14.6c-1.7,11.5-4,25.9-6.4,40.1c-2.4,14.2-4.8,28-6.6,38.3c-0.9,5.2-1.7,9.4-2.2,12.4c-0.3,1.5-0.5,2.7-0.6,3.5
	l-0.2,0.9l0,0.2l0,0c0,0,0,0,0,0.1c0,0.1-0.1,0.2-0.1,0.4c-0.1,0.3-0.3,0.8-0.6,1.4c-0.5,1.2-1.4,2.8-2.6,4.3
	C508.4,391,504.5,393.8,498.4,393z"/>
<path class="st18" d="M551.2,291c0.3,0,0.6,0,0.8,0v7.6c-20.6,7-37.4,9.2-49,9.7c-5.9,0.2-10.5,0-13.5-0.2c-1.5-0.1-2.7-0.3-3.5-0.4
	c-0.3,0-0.5-0.1-0.6-0.1c-1.8-3.5-3.1-8.5-3.9-14.2c-0.8-5.9-1.1-12.3-1.2-18.3c-0.1-6,0.2-11.6,0.4-15.6c0.1-2,0.2-3.7,0.3-4.8
	c0-0.6,0.1-1,0.1-1.3c0-0.2,0-0.3,0-0.3l0,0c1.8-8.4,4-14.4,5.9-18.3c0.9-1.9,1.7-3.4,2.3-4.3c0.3-0.5,0.5-0.8,0.7-1
	c0,0,0.1-0.1,0.1-0.1c4.5-2.2,11.2-4.7,16.8-6.6c2.9-1,5.4-1.8,7.3-2.4c0.3-0.1,0.6-0.2,0.9-0.3l-14,42.4l0.7,0.2l-0.8-0.1
	l-4.6,30.4l-0.2,1.5l1.5-0.2c4.7-0.5,18.6-1.4,31.3-2.2c6.4-0.4,12.4-0.7,16.9-1C548.1,291.2,549.9,291.1,551.2,291z"/>
<path class="st18" d="M512.3,283.6L512.3,283.6c-0.6,14.2-3.8,41-31.2,56.6c7.8-26.1,17-58.2,22-80.4c2.2,3.6,4.4,7.4,6,11.2
	C511.2,275.5,512.4,279.9,512.3,283.6z"/>
<path class="st18" d="M515.3,219.7c-0.1,0.3-0.2,0.7-0.3,1.2c-0.4,1.7-1,4.2-1.7,7.2c-1.4,6-3.2,14-5.1,22.2
	c-3.8,16.4-7.8,33.5-8.7,36.2c-0.3,1-0.2,1.9,0.2,2.7c0.4,0.8,1.2,1.3,1.9,1.7c1.5,0.8,3.6,1.2,5.7,1.5c2.1,0.2,4.2,0.3,5.7,0.3
	c0.8,0,1.5,0,1.9,0c0.1,0,0.3,0,0.4,0c0.8,0.6,1.3,1.6,1.5,3.2c0.2,1.7,0,3.8-0.5,5.9c-0.4,2.1-1,4.1-1.5,5.6
	c-0.2,0.7-0.5,1.4-0.6,1.8c0,0,0,0,0,0.1c0,0-0.1,0-0.1,0l0,0c-9.9,1.9-17.6,2-22.9,1.6c-2.6-0.2-4.6-0.4-5.9-0.7
	c-0.7-0.1-1.2-0.2-1.5-0.3c0,0,0,0,0,0c-1.8-3.3-3.1-8.6-3.9-15c-0.9-6.6-1.2-14.3-1-22c0.1-7.7,0.7-15.4,1.7-22.1
	c1-6.7,2.3-12.2,3.8-15.7c3-6.7,10.9-10.6,18.4-12.9c3.7-1.1,7.2-1.8,9.8-2.2C513.7,219.9,514.6,219.8,515.3,219.7z"/>
<path class="st18" d="M554,283.5L554,283.5c0.4-2.1,1.1-3.9,2.4-5.2c1.3-1.3,3.2-2.3,6.2-2.7c3.2-0.4,5.4-0.6,6.7-0.5
	c0.7,0,1,0.2,1.1,0.2c0,0,0,0,0,0c0,0,0,0,0,0c0,0,0,0.1,0,0.2c0,0.2-0.1,0.3-0.2,0.6c-0.1,0.5-0.4,1.1-0.7,1.9
	c-0.6,1.5-1.5,3.4-2.7,5.5c-2.4,4.2-5.9,9.1-10.3,12.7c-2.2,1.8-3.6,2.2-4.4,2.1c-0.7-0.1-1.2-0.5-1.7-1.4c-0.4-0.9-0.7-2-0.8-3
	c-0.1-0.5-0.1-0.9-0.1-1.2c0,0,0-0.1,0-0.1c0.1-0.1,0.2-0.3,0.4-0.5c0.4-0.5,0.9-1.2,1.4-2.1C552.4,288.4,553.6,286,554,283.5z
	 M570.3,275.4C570.3,275.4,570.3,275.4,570.3,275.4L570.3,275.4z"/>
<path class="st20" d="M81.4,557.8c0,5.5-4.4,9.9-9.9,9.9c-5.5,0-9.9-4.4-9.9-9.9c0-5.5,4.4-9.9,9.9-9.9S81.4,552.3,81.4,557.8z"/>
<path class="st19" d="M85.7,557.8c0,5.5-4.4,9.9-9.9,9.9c-5.5,0-9.9-4.4-9.9-9.9c0-5.5,4.4-9.9,9.9-9.9
	C81.3,547.8,85.7,552.3,85.7,557.8z"/>
<path class="st20" d="M155.2,587.3c0,5.5-4.4,9.9-9.9,9.9c-5.5,0-9.9-4.4-9.9-9.9c0-5.5,4.4-9.9,9.9-9.9
	C150.7,577.3,155.2,581.8,155.2,587.3z"/>
<path class="st19" d="M159.5,587.3c0,5.5-4.4,9.9-9.9,9.9c-5.5,0-9.9-4.4-9.9-9.9c0-5.5,4.4-9.9,9.9-9.9
	C155.1,577.3,159.5,581.8,159.5,587.3z"/>
<path class="st20" d="M67.3,548.5l107.3,35.1l-13,9.3l-82-34.1c0,0,0,0,0,0c-1.4-0.6-2.8-1.4-3.9-2.5c0,0,0,0,0,0L67.3,548.5z"/>
<path class="st21" d="M263.2,380.8c-12.1,18-24,35.3-27,39.7l-2-1.4c9-13.1,21.9-32,33-48.8c5.7-8.6,10.9-16.6,14.9-22.9
	c2-3.2,3.7-5.9,4.9-8.2c1.3-2.2,2.2-3.9,2.6-5c1.9-5.1,2-9.6,0-13.2l0,0c-1.6-2.8-4.2-4.6-6.4-5.6c-1.1-0.5-2.1-0.9-2.8-1.1
	c-0.4-0.1-0.7-0.2-0.9-0.2c-0.1,0-0.2,0-0.3-0.1c0,0-0.1,0-0.1,0c0,0,0,0,0,0l-0.2-0.1l-18.3-5.6c-10.8-4.3-18.7-2.2-23.9,1.1
	c-5,3.2-7.5,7.6-7.8,8.2l-0.1,0.2l-48.3,73l-2.1-1.4l48.3-72.9l0,0l0,0c0.4-0.8,3.1-5.3,8.3-8.8l-0.6-0.8l0.6,0.8
	c5.1-3.5,13.9-6.6,26.5-1.6l0,0l0,0l17.9,5.5l0,0l0,0c0.5,0.1,2.7,0.6,5.1,1.9c2.4,1.3,5.1,3.3,6.8,6.3l0,0
	c2.3,4.1,2.5,9.2,0.2,15.3c-0.4,1.2-1.6,3.4-3.3,6.4c-1.7,3-4,6.7-6.7,10.9C276.6,360.6,269.9,370.8,263.2,380.8z"/>
<path class="st20" d="M200.4,589.7L200.4,589.7C200.4,589.7,200.4,589.7,200.4,589.7c0,0.1-0.1,0.1-0.1,0.2
	c-0.1,0.1-0.2,0.3-0.4,0.6c-0.4,0.5-1,1.2-1.9,2c-1.7,1.5-4.5,3.4-8.8,4.4c-8.3,2-22.5,0.8-45.2-12.7l87.4-179l39.4,27c0,0,0,0,0,0
	c0.1,0.1,0.2,0.2,0.3,0.3c0.2,0.3,0.6,0.8,1,1.4c0.8,1.3,1.7,3.2,2.2,5.7c1.1,5.1,0.7,12.9-5.3,23.5c-5.4,9.5-22.6,41.2-38.3,70.4
	c-7.9,14.6-15.5,28.7-21,39.1c-2.8,5.2-5.1,9.5-6.7,12.5c-0.8,1.5-1.4,2.7-1.9,3.4l-0.5,0.9L200.4,589.7L200.4,589.7L200.4,589.7
	L200.4,589.7L200.4,589.7L200.4,589.7z"/>
<path class="st5" d="M241.4,444.2c6.7-12.2,3.8-26.8-5.6-35.7l-1.1-1c0,0,0,0,0,0c-0.2-0.1-0.3-0.3-0.5-0.4
	c-2.8-2.3-6.1-4.1-9.8-5.3l0.3-1.1l-0.3,1.1l-24.4-7.8l0,0l-3.1-1l0,0l-25.3-8.1l0,0l-1.5-0.5l0,0l-1.8-0.6h0l-7.6-2.4c0,0,0,0,0,0
	c-12.9-4.1-27,1-34.2,12.5 M241.4,444.2L241.4,444.2l-65.6,120.2L241.4,444.2z M175.9,564.3c-2.6,4.7-6.2,8.4-10.5,11h0
	c-7.9,4.9-17.9,5.9-27.1,2.1l0,0l-41.2-17.3l0,0l-1-0.4h0l-25.8-10.9h0c-2.5-1-4.8-2.4-6.8-4c-0.5-0.4-0.9-0.8-1.4-1.1
	c-7.4-6.5-11-16.3-9.8-26c0.5-4.1,1.9-8.2,4.3-11.9c0,0,0,0,0,0l70-111.9"/>
<path class="st22" d="M164.8,575.7c0-2.5-0.1-5.4-1-8.2c-1-3-3-6.1-7.2-8.7c-8.4-5.2-34.4-16.9-58.5-27.2c-12-5.2-23.5-10-31.9-13.6
	c-4.2-1.8-7.7-3.2-10.1-4.2c-1.1-0.5-2.1-0.9-2.7-1.1c-1.8,5.2-1.5,11.1,0.1,16.7c1.7,5.9,5,11.2,8.6,14.4c0.5,0.4,0.9,0.8,1.4,1.1
	L164.8,575.7z M164.8,575.7c-7.8,4.6-17.6,5.5-26.5,1.8l0,0l-41.2-17.3h0l-1-0.4l0,0l-25.8-10.9h0"/>
<path class="st3" d="M172,383.8c-0.2,0-24.3,3.5-31.2,12.6c-7.1,9.4-76.7,124.3-77.4,125.5c-0.1,0.1-5.6,11.7,0.4,24.7l-1.2-0.9
	c-0.5-0.4-1-0.8-1.4-1.2C56,531.5,61.7,521.5,62,521c2.9-4.7,70.3-116.2,77.5-125.6c6.2-8.3,23.6-11.8,29.2-12.7l1.8,0.6L172,383.8
	L172,383.8z"/>
<defs>
	
		<filter id="Adobe_OpacityMaskFilter_00000088815969915587461580000017961865866849656732_" filterUnits="userSpaceOnUse" x="56.7" y="380.4" width="115.9" height="168.1">
		<feColorMatrix  type="matrix" values="1 0 0 0 0  0 1 0 0 0  0 0 1 0 0  0 0 0 1 0"/>
	</filter>
</defs>
<mask maskUnits="userSpaceOnUse" x="56.7" y="380.4" width="115.9" height="168.1" id="path-83-inside-2_1411_18565_00000067218664910147336690000012408483970210082702_">
	<path style="fill:#FFFFFF;filter:url(#Adobe_OpacityMaskFilter_00000088815969915587461580000017961865866849656732_);" d="
		M172,383.8c-0.2,0-24.3,3.5-31.2,12.6c-7.1,9.4-76.7,124.3-77.4,125.5c-0.1,0.1-5.6,11.7,0.4,24.7l-1.2-0.9c-0.5-0.4-1-0.8-1.4-1.2
		C56,531.5,61.7,521.5,62,521c2.9-4.7,70.3-116.2,77.5-125.6c6.2-8.3,23.6-11.8,29.2-12.7l1.8,0.6L172,383.8L172,383.8z"/>
</mask>
<path class="st24" d="M172,383.8l0.3,2.3l-0.3-4.6V383.8z M140.8,396.4L139,395l0,0L140.8,396.4z M63.4,521.9l-2-1.2l0,0l0,0
	L63.4,521.9z M63.9,546.6l-1.4,1.8l3.5-2.8L63.9,546.6z M62.7,545.8l-1.4,1.8l0,0l0,0L62.7,545.8z M61.3,544.6l-2.1,0.9l0.2,0.5
	l0.4,0.4L61.3,544.6z M62,521l-2-1.2l0,0l0,0L62,521z M139.4,395.4l-1.8-1.4v0L139.4,395.4z M168.6,382.7l0.7-2.2l-0.5-0.2l-0.6,0.1
	L168.6,382.7z M170.4,383.3l-0.7,2.2l0,0L170.4,383.3z M171.9,383.8l-0.7,2.2l0.3,0.1h0.4V383.8z M171.6,381.5
	C171.7,381.5,171.5,381.5,171.6,381.5c-0.1,0-0.2,0-0.3,0c-0.2,0-0.5,0.1-0.8,0.1c-0.7,0.1-1.7,0.3-2.9,0.5
	c-2.4,0.5-5.8,1.2-9.3,2.2c-3.5,1-7.3,2.4-10.7,4.1c-3.4,1.7-6.5,3.8-8.6,6.5l3.7,2.8c1.4-1.9,3.8-3.6,6.9-5.1
	c3.1-1.5,6.6-2.8,10-3.8c6.7-2,12.7-2.8,12.8-2.8L171.6,381.5z M139,395c-1.8,2.5-7.6,11.5-15.1,23.6c-7.5,12.1-16.9,27.4-26.1,42.4
	c-18.4,30.1-35.9,59.1-36.3,59.7l3.9,2.4c0.4-0.6,17.9-29.6,36.3-59.7c9.2-15,18.6-30.3,26.1-42.4c7.6-12.2,13.2-21,14.9-23.2
	L139,395z M61.5,520.8c-0.2,0.3-1.7,3.6-2.3,8.3c-0.7,4.9-0.5,11.5,2.7,18.5l4.2-1.9c-2.8-6-2.9-11.7-2.3-15.9
	c0.6-4.3,1.9-6.9,1.8-6.7L61.5,520.8z M65.3,544.8l-1.2-0.9l-2.7,3.7l1.2,0.9L65.3,544.8z M64.1,543.9c-0.5-0.4-0.9-0.7-1.3-1.1
	l-3,3.5c0.5,0.4,1,0.9,1.5,1.3L64.1,543.9z M63.4,543.7c-2.5-6.1-2.3-11.4-1.6-15.2c0.4-1.9,0.9-3.5,1.3-4.6c0.2-0.5,0.4-1,0.6-1.3
	c0.1-0.1,0.1-0.3,0.2-0.3c0,0,0-0.1,0-0.1c0,0,0,0,0,0c0,0,0,0,0,0l-4-2.4c-0.4,0.7-6.6,11.5-0.9,25.6L63.4,543.7z M64,522.2
	c1.4-2.4,19-31.4,37.1-61c9.1-14.8,18.2-29.8,25.6-41.6c7.4-11.9,12.9-20.5,14.6-22.8l-3.7-2.8c-1.9,2.5-7.5,11.3-14.8,23.1
	c-7.4,11.9-16.6,26.8-25.6,41.6C79,488.4,61.5,517.5,60,519.9L64,522.2z M141.3,396.8c2.7-3.6,8-6.3,13.8-8.3c5.6-2,11.2-3,14-3.5
	l-0.8-4.5c-2.8,0.5-8.7,1.6-14.7,3.7c-5.9,2-12.4,5.2-15.9,9.9L141.3,396.8z M167.9,384.9l1.8,0.6l1.4-4.4l-1.8-0.6L167.9,384.9z
	 M169.7,385.5l1.5,0.5l1.4-4.4l-1.5-0.5L169.7,385.5z M171.9,386.1L171.9,386.1l0-4.6h0V386.1z"/>
<path class="st3" d="M200.3,392.8c-3.5,0.7-17.4,4.2-25.9,17.9c-10,16.1-73.8,136.9-74.5,138.1l0,0.1l-0.1,0.1
	c0,0.1-4.4,6.2-2.2,12.6l-1-0.4l-1-0.4c-1.9-6.6,2.3-12,2.9-12.7c2-3.7,64.6-122.2,74.5-138.1c7.4-11.8,18.5-16.4,24.3-18
	L200.3,392.8L200.3,392.8z"/>
<path class="st3" d="M236.6,407.6c-0.1,0-5,0.6-10.1,3c-5.1,2.4-11.3,6.8-16.2,14.7c-10,16.1-71.5,137.4-72.1,138.6l0,0.1l-0.1,0.1
	c0,0.1-3.7,7.5-1.4,13.9l-2.6-1.1c-1.4-5.6,2-13.1,2.7-13.9c2-3.9,62.2-122.7,72.2-138.7c9.3-15,23.2-17.8,26-18.3
	c0.2,0.2,0.4,0.3,0.6,0.5L236.6,407.6L236.6,407.6z"/>
<path class="st19" d="M258.7,557.9L258.7,557.9L258.7,557.9l0.4-0.3v-0.1l2.3-3l13.1,3.1c0,0.2,0.1,0.6,0.1,0.9
	c0.1,1.1,0.2,2.6,0.3,4.4c0.2,3.5,0.4,8,0.2,11.8l0,0c-0.2,4,0.3,8.2,1.9,11.6c1.6,3.5,4.2,6.2,8.1,7.1c1.6,0.3,2.5,0.9,3,1.3
	c0.5,0.5,0.7,1,0.7,1.5c0.1,0.5,0,1-0.2,1.4c0,0,0,0,0,0h-17.7c-3.1,0-7.1-3.2-8.1-10c-0.6-3.9-3.1-6.9-5.4-9.5
	c-0.2-0.3-0.5-0.5-0.7-0.8c-0.9-1-1.8-2-2.6-2.9c-1-1.2-1.7-2.4-2.1-3.7v0c-0.3-1.1-0.2-2.4,0.4-3.9c0.5-1.4,1.4-2.9,2.4-4.2
	c1-1.3,2-2.5,2.7-3.3c0.4-0.4,0.7-0.7,0.9-1C258.5,558.1,258.6,558,258.7,557.9C258.7,557.9,258.7,557.9,258.7,557.9L258.7,557.9
	L258.7,557.9L258.7,557.9z M288.2,598.1L288.2,598.1C288.2,598.1,288.2,598.1,288.2,598.1z"/>
<path class="st19" d="M368.7,597.5L368.7,597.5L368.7,597.5C368.7,597.5,368.7,597.5,368.7,597.5L368.7,597.5L368.7,597.5
	L368.7,597.5l0.1,0l0.4,0c0.3,0,0.8,0.1,1.5,0.1c1.3,0.1,3.1,0.2,5.3,0.3c4.4,0.3,10.3,0.6,16.2,0.8c6,0.2,12,0.3,16.6,0.2
	c2.3-0.1,4.3-0.2,5.7-0.4c0.7-0.1,1.3-0.2,1.7-0.4c0.3-0.1,0.4-0.2,0.4-0.2c0.4-0.5,0.5-1.1,0.3-1.8c-0.2-0.7-0.7-1.6-1.6-2.5
	c-1.7-1.8-4.8-3.5-8.6-4.5c-1-0.2-2-0.3-3.1-0.4c-3-0.4-6.4-0.8-9.4-1.9c-4.2-1.4-8-4.1-9.6-9.5l0,0l0,0c-0.1-0.3-0.2-0.7-0.3-1
	 M368.7,597.5 M368.7,597.5L368.7,597.5c-0.2,0-0.3-0.1-0.5-0.2c-1.1-0.5-1.7-1.5-2.1-2.8c-0.4-1.3-0.5-3-0.4-4.7
	c0.1-1.8,0.4-3.6,0.6-5.2c0.1-0.4,0.1-0.8,0.2-1.2c0.2-1.1,0.4-2.1,0.5-2.9c0-0.3,0.1-0.5,0.1-0.6l0.3-0.3c0.5-0.3,1.1-0.8,1.9-1.4
	c1.6-1.1,3.8-2.5,6-3.5c2.3-1,4.4-1.7,6-1.5c0.8,0.1,1.4,0.3,1.9,0.8c0.5,0.4,0.9,1.1,1.2,2.3"/>
<path class="st18" d="M336,313.9l70.4,4.4l0,0.3c-0.1,1-0.2,2.4-0.3,4.2c-0.3,3.7-0.7,8.9-1.2,15.5c-1,13-2.5,30.9-4,50.5
	c-4.2,53.1-9.2,118.4-9.7,130.7v0c-0.1,1.7-0.1,3.4-0.2,5.1c-0.4,9.5-0.8,19.9-1.3,28.8c-0.3,5.3-0.7,10.1-1.2,13.8
	c-0.2,1.9-0.5,3.5-0.7,4.8c-0.3,1.3-0.5,2.2-0.8,2.8c-0.5,1-1.8,2.2-3.8,3.4c-2,1.1-4.5,2.1-7.1,2.8c-2.6,0.6-5.1,0.9-7.2,0.7
	c-2.1-0.3-3.6-1-4.3-2.2c-0.4-0.7-1-2-1.7-3.9c-0.7-1.9-1.4-4.2-2.2-7.1c-1.6-5.7-3.4-13.2-5.2-22.1c-3.6-17.9-7.3-41.4-9.4-67.3
	c-0.1-0.8-0.1-1.7-0.2-2.6c-1.9-26.4-4.4-67.4-6.4-101.7c-1-17.2-1.9-32.7-2.5-44c-0.3-5.6-0.6-10.2-0.7-13.3
	C336.1,315.9,336,314.7,336,313.9z"/>
<path class="st18" d="M316.8,493.6l1,0.6L316.8,493.6c-13.5,24.2-20.1,41.5-24.4,52.9c-0.6,1.7-1.2,3.3-1.8,4.7
	c-2.2,5.7-3.8,9.2-5.7,11.1c-0.9,0.9-1.9,1.5-3,1.7c-1.1,0.2-2.5,0.2-4.4-0.2c-1.7-0.4-3.3-0.8-4.8-1.1c-1.7-0.4-3.3-0.7-4.7-1.1
	c-2.5-0.6-4.4-1.2-5.7-1.8c-1.3-0.7-2.1-1.4-2.6-2.4c-0.5-1-0.7-2.4-0.7-4.5c0-0.4,0.1-1.3,0.3-2.6c0.2-1.3,0.5-2.9,1-4.9
	c0.8-3.9,2-9.1,3.4-15.1c2.9-12,6.7-27.3,10.6-42.7c3.4-13.3,6.8-26.7,9.7-38c3.8-14.9,6.7-26.2,7.5-29.4c0.6-2.7,2.5-7.7,5-14
	c1.3-3.1,2.7-6.6,4.1-10.1c1.5-3.6,3-7.4,4.6-11.3c3.1-7.6,6.1-15.4,8.4-22.3c2.3-6.8,3.9-12.8,4-16.9c0.3-7.7,1.4-19.2,2.3-28.7
	c0.5-4.8,0.9-9.1,1.3-12.2c0.2-1.6,0.3-2.8,0.4-3.7l72.5,20.5c0,0,0,0.1-0.1,0.1c-0.4,0.9-0.9,2.2-1.5,3.8
	c-1.3,3.3-3.3,8.1-5.7,14.1c-4.9,11.9-11.7,28.4-19.5,46.5C351.7,422.8,332.2,466,316.8,493.6z"/>
<path class="st25" d="M443.3,288.5l2.7,5.4c0,0,13.7,1.9,9.9,16.1c0,0-2,5.9-5.8,4c-3.8-1.9-1.9-1.7-7.3-4.2
	c-5.4-2.5-8.5-7.3-7.3-11.7l-0.9-4.7L443.3,288.5L443.3,288.5z"/>
<defs>
	
		<filter id="Adobe_OpacityMaskFilter_00000171719056882834827690000013442618965890048436_" filterUnits="userSpaceOnUse" x="432" y="286.5" width="26.8" height="30.2">
		<feColorMatrix  type="matrix" values="1 0 0 0 0  0 1 0 0 0  0 0 1 0 0  0 0 0 1 0"/>
	</filter>
</defs>
<mask maskUnits="userSpaceOnUse" x="432" y="286.5" width="26.8" height="30.2" id="path-94-inside-5_1411_18565_00000022519190432578179030000013972520237148488326_">
	<path style="fill:#FFFFFF;filter:url(#Adobe_OpacityMaskFilter_00000171719056882834827690000013442618965890048436_);" d="
		M443.3,288.5l2.7,5.4c0,0,13.7,1.9,9.9,16.1c0,0-2,5.9-5.8,4c-3.8-1.9-1.9-1.7-7.3-4.2c-5.4-2.5-8.5-7.3-7.3-11.7l-0.9-4.7
		L443.3,288.5L443.3,288.5z"/>
</mask>
<path class="st27" d="M443.3,288.5l-1.6-1.6l-1.2,1.2l0.7,1.5L443.3,288.5z M446,293.9l-2.1,1l0.5,1.1l1.2,0.2L446,293.9z
	 M455.9,310l2.2,0.8l0-0.1l0-0.1L455.9,310z M442.8,309.8l1-2.1l0,0L442.8,309.8z M435.5,298.1l2.2,0.6l0.1-0.5l-0.1-0.5
	L435.5,298.1z M434.6,293.5l-1.1-2l-1.4,0.8l0.3,1.6L434.6,293.5z M443.3,288.5l1.6,1.6l-2.8-3.6L443.3,288.5z M441.2,289.6l2.7,5.4
	l4.1-2.1l-2.7-5.4L441.2,289.6z M446,293.9c-0.3,2.3-0.3,2.3-0.3,2.3c0,0,0,0,0,0c0,0,0,0,0,0c0,0,0,0,0,0s0,0,0,0c0,0,0,0,0.1,0
	c0.1,0,0.2,0,0.3,0.1c0.3,0.1,0.7,0.2,1.3,0.3c1.1,0.4,2.4,0.9,3.6,1.9c1.2,0.9,2.2,2.1,2.8,3.8c0.6,1.7,0.8,4-0.1,7.2l4.4,1.2
	c1-3.9,0.9-7.2,0-9.9c-0.9-2.7-2.6-4.6-4.4-6c-1.7-1.3-3.6-2.1-5-2.6c-0.7-0.2-1.3-0.4-1.7-0.5c-0.2,0-0.4-0.1-0.5-0.1
	c-0.1,0-0.1,0-0.2,0c0,0,0,0,0,0c0,0,0,0,0,0c0,0,0,0,0,0c0,0,0,0,0,0C446.3,291.6,446.3,291.6,446,293.9z M455.9,310
	c-2.2-0.8-2.2-0.8-2.2-0.8c0,0,0,0,0,0c0,0,0,0,0,0c0,0,0,0,0,0c0,0,0,0,0,0c0,0,0,0,0,0c0,0,0,0.1,0,0.1c0,0.1-0.1,0.3-0.2,0.5
	c-0.2,0.4-0.5,0.9-0.8,1.4c-0.4,0.5-0.7,0.7-0.9,0.8c-0.1,0-0.3,0.1-0.6-0.1l-2,4.1c1.5,0.7,3,0.8,4.4,0.2c1.2-0.5,2.1-1.4,2.8-2.2
	c0.6-0.8,1.1-1.6,1.4-2.2c0.1-0.3,0.3-0.6,0.3-0.8c0-0.1,0.1-0.2,0.1-0.2c0,0,0-0.1,0-0.1c0,0,0,0,0,0c0,0,0,0,0,0c0,0,0,0,0,0l0,0
	C458,310.8,458,310.8,455.9,310z M451.1,312c-1.7-0.8-2-1.2-2.7-1.6c-0.9-0.6-1.9-1.3-4.7-2.6l-1.9,4.2c2.6,1.2,3.4,1.7,3.9,2.1
	c0.7,0.5,1.3,1,3.4,2.1L451.1,312z M443.7,307.7c-4.9-2.3-6.8-6.1-6.1-9l-4.4-1.2c-1.6,5.9,2.7,11.7,8.6,14.4L443.7,307.7z
	 M437.7,297.7l-0.9-4.7l-4.5,0.8l0.9,4.7L437.7,297.7z M435.7,295.5l8.7-5l-2.3-4l-8.7,5L435.7,295.5z M441.7,286.9L441.7,286.9
	l3.2,3.3l0,0L441.7,286.9z"/>
<path class="st18" d="M370.4,139.8l0.7,0.4c3.8,2.1,6.9,4.6,8.9,6.5c0.8,0.8,1.5,1.4,2,2c-4,0.9-8.6,0.9-13.4,0.4
	c-5.5-0.6-11.1-2-16.2-3.6c-5.1-1.6-9.6-3.3-12.8-4.7c-1.5-0.6-2.7-1.2-3.6-1.6c0.4-0.4,0.8-0.8,1.4-1.3c1.6-1.7,3.8-4.1,5.9-7.4
	c4-6.2,7.8-15.4,7.9-27.7l21.5,17.3c0,0.2,0,0.4,0,0.7c0,0.9-0.1,2.1-0.2,3.8c-0.3,3.3-0.8,8.2-1.8,14.3L370.4,139.8z"/>
<path class="st18" d="M381,116.5c-0.6,0.9-1.2,1.4-1.8,1.5l0,0c-0.1,0-0.1,0-0.2,0c-0.2,0-0.5,0.1-0.9,0.1c-0.8,0.1-2,0.2-3.4,0.3
	c-2.8,0.2-6.6,0.2-10.5-0.3c-3.9-0.5-7.7-1.7-10.8-3.7c-3-2-5.2-5-5.9-9.4c-0.4-2.9-0.9-5.7-1.4-8.3c-0.3-1.6-0.6-3.2-0.8-4.7
	c-0.6-3.9-1-7.1-0.7-9.9c0.3-2.7,1.2-4.9,3-6.7c1.9-1.8,4.9-3.2,9.6-4.2c9.5-2,15.2-1.3,18.8,0.5c3.6,1.7,5.3,4.6,6.5,7.6
	c0.5,1.3,1.1,4.3,1.4,8.3c0.3,3.9,0.5,8.5,0.3,13c-0.2,4.5-0.6,8.8-1.5,12C382.1,114.3,381.6,115.6,381,116.5z"/>
<path class="st28" d="M317.7,296.3c1-14.1,2.6-38.3,1-66.2c-0.3-5.2-0.4-10.4-0.5-15.4c6.3-15.2,11.4-26.3,11.4-26.3h15.8
	C345.5,188.4,357.1,267.7,317.7,296.3L317.7,296.3z"/>
<path class="st19" d="M345.6,103.5c-0.9-1.3-2.1-3.1-3.3-5.2c-2.2-3.8-4.4-8.5-5.5-13.2c-1.2-4.8-1.2-9.5,0.7-13.3
	c1.9-3.8,5.9-7,13.5-8.7l0,0c7.4-1.6,14.7-3.1,20.2-4.2c2.7-0.5,5-1,6.6-1.3c0.8-0.2,1.4-0.3,1.8-0.4c0.6,0.7,1.4,1.9,2.2,3.3
	c1.1,1.8,2,4,2.4,6.1c0.4,2.1,0.1,4-1.2,5.6c-1.3,1.6-3.8,3-8.4,3.7l0,0c-14.2,2.1-21.6,9.7-25.3,16.8c-1.9,3.5-2.8,7-3.3,9.5
	C345.7,102.7,345.7,103.2,345.6,103.5z"/>
<path class="st29" d="M439.6,294.9L439.6,294.9L439.6,294.9L439.6,294.9C439.6,294.9,439.6,294.9,439.6,294.9
	c0.1-0.1,0.2-0.1,0.3-0.2c0.2-0.1,0.5-0.3,0.9-0.5c0.8-0.5,1.7-1.1,2.7-1.9c1.9-1.7,3.2-3.6,2.6-5.6c-0.1-0.2-0.2-0.6-0.6-1.1
	c-0.3-0.5-0.7-1.2-1.3-2c-1-1.5-2.5-3.4-4.1-5.6c-3.3-4.3-7.7-9.6-12.1-14.9c-2.5-3-4.9-5.9-7.2-8.7c-1.8-2.2-3.5-4.2-5.1-6.1
	c-3.5-4.2-6.1-7.4-6.9-8.6v0c-0.2-0.4-0.5-1-0.8-1.8c-0.3-0.8-0.7-1.8-1.1-3c-0.8-2.4-1.9-5.5-3.1-9.2c-2.4-7.3-5.2-16.6-8-25.8
	c-2.8-9.2-5.5-18.2-7.5-25c-1-3.4-1.8-6.2-2.4-8.1c-0.3-1-0.5-1.7-0.7-2.3l0-0.1l-50.1-10.2c0.2,0.5,0.5,1.1,0.7,1.7
	c1,2.4,2.5,5.8,4.2,10c3.5,8.3,8.3,19.5,13.3,31c5,11.5,10.3,23.4,14.7,33.1c4.5,9.7,8.1,17.1,9.8,19.8l0,0c6,9,18.6,21.5,30.5,31.7
	c5.9,5.1,11.6,9.6,16.1,12.9c2.3,1.6,4.2,2.9,5.7,3.8c0.8,0.4,1.4,0.8,1.9,1c0.5,0.2,0.8,0.3,0.9,0.3c2.1,0,3.6-1,4.6-2
	c0.5-0.5,0.9-1,1.1-1.4c0.1-0.2,0.2-0.4,0.3-0.5c0,0,0-0.1,0-0.1c0,0,0,0,0,0l0,0v0h0v0v0l0,0l0.2-0.4L439.6,294.9z M439.6,294.9
	L439.6,294.9L439.6,294.9z"/>
<path class="st17" d="M408,237.5c0.5,10.7,0.8,21.4,0.9,31.6v0.4v0l0,0c0.1,1,0.1,2,0.1,3v0v0c0.2,13.1,0.2,24.8,0.1,33.3
	c-0.1,4.3-0.1,7.7-0.2,10.1c0,1.2-0.1,2.1-0.1,2.8c0,0.2,0,0.4,0,0.5c-0.3,0.2-0.6,0.3-0.9,0.3c-1.8,0-4.4,0.2-7.5,0.5
	c-0.9,0.1-1.9,0.2-3,0.3c-2.4,0.3-5,0.5-7.8,0.8c-8,0.7-17.2,1.2-25.6,0.4l0,0c-14.2-1.4-26.8-5.6-40.3-11.6c-0.9-0.4-2.3-1.1-3.5-2
	c-0.6-0.4-1.1-0.8-1.4-1.2c-0.3-0.4-0.4-0.7-0.4-0.8v0l0,0c0.1-2.1,0.3-5.2,0.5-9.1l0-0.3v0l0-0.3c1-14.1,2.6-38.2,1-66
	c-0.3-5.2-0.4-10.3-0.5-15.4c-0.1-18.9,1.7-36.6,5.4-51c3.7-14.4,9.2-25.2,16.3-30.6c0,0,0.1,0,0.1,0c0.2,0,0.6,0.1,1.1,0.2
	c1,0.3,2.3,0.8,3.8,1.5c2.7,1.2,6.1,2.8,9.3,4.5c0.4,0.2,0.8,0.4,1.2,0.6l0,0c3.6,1.8,7.2,1.8,10.2,1.7c0.5,0,1-0.1,1.5-0.1
	c1-0.1,1.9-0.1,2.8-0.1c1.3,0,2.4,0.1,3.4,0.5c2.1,0.8,4.1,2.2,5.6,3.5c0.7,0.6,1.3,1.2,1.7,1.6c0.2,0.2,0.4,0.4,0.5,0.5
	c0.1,0.1,0.1,0.1,0.1,0.1l0,0l0,0h0l0,0l0,0v0l0,0l0,0c7.6,7.1,15.9,16.7,19.5,31.2l0,0C405.1,191.3,407,213.9,408,237.5z
	 M408,237.5l1.1,0 M408,237.5L408,237.5l1.1,0 M410,269 M341.1,133.1C341.1,133.1,341.1,133.1,341.1,133.1
	C341.1,133.1,341.1,133.1,341.1,133.1z"/>
<path class="st18" d="M285.3,301.7l-2.4,4.1l-0.3,0.5l0.3,0.5v0l0,0l0,0l0,0l0,0c0,0,0,0,0,0.1c0,0.1,0.1,0.2,0.1,0.4
	c0.1,0.3,0.3,0.8,0.4,1.4c0.3,1.2,0.6,2.7,0.5,4.4c-0.1,1.7-0.6,3.4-1.9,5.1c-1.2,1.6-3.3,3.1-6.6,4.2l0,0c0,0-0.1,0-0.2,0
	c-0.1,0-0.4,0.1-0.6,0.1c-0.5,0.1-1.2,0.1-1.9,0.1c-0.7-0.1-1.3-0.2-1.7-0.5c-0.4-0.3-0.7-0.6-0.8-1.4c-0.2-1.7-0.2-2.4-0.1-3.1
	c0-0.1,0-0.2,0-0.3c0.1-1,0-2.1-0.4-5.1c-0.8-5.6,1.4-10.1,5-11.3l0.3-0.1l0.2-0.2l2.8-2.7L285.3,301.7z"/>
<path class="st17" d="M281.2,302c0.6,0.2,1.2,0.3,1.7,0.5c0.1,0,0.2,0.1,0.3,0.1c0.9,0.3,1.7,0.5,2.4,0.6c1.5,0.3,2.8,0.2,4.6-0.8
	c0,0,0,0,0,0s0,0,0.1-0.1c0.1-0.1,0.2-0.3,0.4-0.5c0.3-0.4,0.6-1,1-1.8c0.7-1.5,1.6-3.7,2.5-6.2c1.8-5.1,3.9-11.6,5.8-18.3
	c1.4-4.7,2.8-9.5,4-13.8c0.5-1.8,1-3.5,1.5-5.1c0.8-2.7,1.5-5.1,2-6.9c0.6-1.8,1-3.2,1.3-3.9 M281.2,302L281.2,302l-2.1-0.5
	c-1.2-0.2-2-0.3-2.7-0.4c-0.1,0-0.1,0-0.2,0c-0.6,0-0.9-0.1-1.2-0.2c-0.6-0.2-1.2-0.5-3.3-2.5c-0.1-0.1-0.2-0.2-0.3-0.7
	c-0.1-0.4-0.3-1-0.3-1.7c-0.2-1.5-0.2-3.4-0.1-5.7c0.2-4.7,1-10.8,2.2-17.4c2.4-13.3,6.3-28.6,10.6-38.6c2.6-6.1,14.5-30.6,27-53.8
	c6.2-11.6,12.6-22.8,18-31.1c2.7-4.2,5.1-7.6,7.2-10c1-1.2,1.9-2.1,2.7-2.7c0.8-0.6,1.3-0.8,1.5-0.8c4-0.3,7.8,2.8,10.1,9.9
	c2.3,7,2.9,17.5,0.8,30.9c-2.1,13.2-11.9,29.1-21.7,42.5c-4.9,6.7-9.7,12.6-13.4,17.2c-0.2,0.3-0.4,0.5-0.6,0.7
	c-1.6,2-3,3.7-4.1,5.1c-0.6,0.8-1.1,1.5-1.5,2c-0.4,0.5-0.7,1.1-0.9,1.5c0,0,0,0,0,0"/>
<path class="st30" d="M369,109.8c2.6,0.7,5.2-0.2,6-1.8"/>
<path class="st19" d="M241.4,444.2"/>
<polygon class="st5" points="104.8,430.9 113.5,436.4 137.6,398.1 127.8,394 "/>
<polygon class="st5" points="171,413.1 139.9,470.2 130.9,411.6 139.4,398.3 146,394.7 "/>
<path class="st5" d="M208.1,426.3L157,523.9L142.8,469l23.4-43.4c0,0,7.9-15,10.1-16.2C178.3,408.3,208.1,426.3,208.1,426.3z"/>
<path class="st5" d="M208.6,428.1l-60.9,115.8l28.1,20.4c0,0,22-40.1,26.8-49.6c6-11.8,36-61.7,38.8-70.5
	C245,432.5,208.6,428.1,208.6,428.1z"/>
<defs>
	
		<filter id="Adobe_OpacityMaskFilter_00000033345704463163716800000000873100972290297253_" filterUnits="userSpaceOnUse" x="131.4" y="403.7" width="106.8" height="178.4">
		<feColorMatrix  type="matrix" values="1 0 0 0 0  0 1 0 0 0  0 0 1 0 0  0 0 0 1 0"/>
	</filter>
</defs>
<mask maskUnits="userSpaceOnUse" x="131.4" y="403.7" width="106.8" height="178.4" id="path-87-inside-4_1411_18565_00000065793505594317828860000000245536380503798915_">
	<path style="fill:#FFFFFF;filter:url(#Adobe_OpacityMaskFilter_00000033345704463163716800000000873100972290297253_);" d="
		M236.6,407.6c-0.1,0-5,0.6-10.1,3c-5.1,2.4-11.3,6.8-16.2,14.7c-10,16.1-71.5,137.4-72.1,138.6l0,0.1l-0.1,0.1
		c0,0.1-3.7,7.5-1.4,13.9l-2.6-1.1c-1.4-5.6,2-13.1,2.7-13.9c2-3.9,62.2-122.7,72.2-138.7c9.3-15,23.2-17.8,26-18.3
		c0.2,0.2,0.4,0.3,0.6,0.5L236.6,407.6L236.6,407.6z"/>
</mask>
<path class="st32" d="M226.5,410.6l1,2.1l0,0L226.5,410.6z M210.3,425.3l-2-1.2l0,0L210.3,425.3z M138.1,563.9l-2.1-1l0,0l0,0
	L138.1,563.9z M138.1,564l1.7,1.5l0.2-0.2l0.1-0.3L138.1,564z M138,564.1l1.7,1.5l0,0l0,0L138,564.1z M136.6,578l-0.9,2.1l4.8,2
	l-1.7-4.9L136.6,578z M134,576.9l-2.2,0.6l0.3,1.1l1.1,0.4L134,576.9z M136.7,563l1.8,1.5l0.2-0.2l0.1-0.2L136.7,563z M208.8,424.4
	l2,1.2l0,0L208.8,424.4z M234.9,406.1l1.5-1.8l-0.8-0.6l-1,0.1L234.9,406.1z M235.4,406.6l1.5-1.7l0,0L235.4,406.6z M236.3,405.4
	c0.1,0-0.4,0-1,0.1c-0.6,0.1-1.4,0.3-2.4,0.5c-2,0.5-4.6,1.2-7.4,2.5l2,4.2c4.7-2.2,9.3-2.8,9.4-2.8L236.3,405.4z M225.5,408.5
	c-5.4,2.6-12,7.2-17.2,15.5l3.9,2.4c4.6-7.4,10.5-11.5,15.3-13.8L225.5,408.5z M208.3,424.1c-5.1,8.2-23,42.6-39.7,75.1
	c-16.7,32.5-32.2,63.1-32.6,63.7l4.1,2.1c0.3-0.6,15.8-31.2,32.6-63.7c16.7-32.5,34.6-66.8,39.5-74.7L208.3,424.1z M136.1,562.9
	L136.1,562.9l4.1,2.2l0-0.1L136.1,562.9z M136.4,562.5L136.4,562.5l3.4,3.1l0.1-0.1L136.4,562.5z M136.3,562.5
	c-0.1,0.1-0.2,0.2-0.2,0.2c0,0-0.1,0.1-0.1,0.1c0,0,0,0.1-0.1,0.1c0,0,0,0.1,0,0.1c0,0,0,0.1-0.1,0.1c0,0.1-0.1,0.2-0.1,0.3
	c-0.1,0.3-0.3,0.6-0.4,1.1c-0.3,0.9-0.8,2.1-1.1,3.6c-0.7,2.9-1.1,6.8,0.2,10.6l4.3-1.5c-0.9-2.6-0.7-5.6-0.1-8
	c0.3-1.2,0.6-2.3,0.9-3c0.1-0.4,0.3-0.6,0.3-0.8c0-0.1,0.1-0.2,0.1-0.2c0,0,0,0,0,0c0,0,0,0,0,0c0,0,0,0,0,0.1c0,0,0,0.1-0.1,0.1
	c0,0-0.1,0.1-0.2,0.2L136.3,562.5z M137.5,575.9l-2.6-1.1l-1.8,4.2l2.6,1.1L137.5,575.9z M136.2,576.3c-0.6-2.2-0.2-5,0.5-7.5
	c0.4-1.2,0.8-2.3,1.1-3.1c0.2-0.4,0.3-0.7,0.5-1c0.2-0.3,0.2-0.3,0.1-0.2l-3.5-2.9c-0.2,0.3-0.5,0.7-0.6,1c-0.2,0.4-0.4,0.8-0.6,1.3
	c-0.4,1-0.9,2.3-1.3,3.7c-0.8,2.8-1.4,6.5-0.6,9.9L136.2,576.3z M138.7,564.1c2-4,62.2-122.6,72.1-138.5l-3.9-2.4
	c-10,16.1-70.3,135-72.3,138.8L138.7,564.1z M233.4,407.9c0.2,0.2,0.3,0.3,0.5,0.4l3.1-3.4c-0.2-0.2-0.5-0.4-0.6-0.5L233.4,407.9z
	 M233.9,408.3l1.2,1l3.1-3.4l-1.2-1L233.9,408.3z M210.8,425.6c8.8-14.2,21.9-16.8,24.4-17.2l-0.7-4.6c-3.2,0.5-17.8,3.5-27.6,19.3
	L210.8,425.6z"/>
<defs>
	
		<filter id="Adobe_OpacityMaskFilter_00000000218707729871550900000010443588025250209719_" filterUnits="userSpaceOnUse" x="92.8" y="389.5" width="108.2" height="176.3">
		<feColorMatrix  type="matrix" values="1 0 0 0 0  0 1 0 0 0  0 0 1 0 0  0 0 0 1 0"/>
	</filter>
</defs>
<mask maskUnits="userSpaceOnUse" x="92.8" y="389.5" width="108.2" height="176.3" id="path-85-inside-3_1411_18565_00000116203464603757325280000007171010781562821291_">
	<path style="fill:#FFFFFF;filter:url(#Adobe_OpacityMaskFilter_00000000218707729871550900000010443588025250209719_);" d="
		M200.3,392.8c-3.5,0.7-17.4,4.2-25.9,17.9c-10,16.1-73.8,136.9-74.5,138.1l0,0.1l-0.1,0.1c0,0.1-4.4,6.2-2.2,12.6l-1-0.4l-1-0.4
		c-1.9-6.6,2.3-12,2.9-12.7c2-3.7,64.6-122.2,74.5-138.1c7.4-11.8,18.5-16.4,24.3-18L200.3,392.8L200.3,392.8z"/>
</mask>
<path class="st34" d="M174.4,410.7l2,1.2l0,0L174.4,410.7z M99.9,548.9l-2-1.1l0,0l0,0L99.9,548.9z M99.9,549l1.7,1.5l0.2-0.2
	l0.1-0.3L99.9,549z M99.8,549l-1.7-1.5l0,0l0,0L99.8,549z M97.7,561.6l-0.9,2.1l4.8,2l-1.7-4.9L97.7,561.6z M96.6,561.2l-0.9,2.1
	l0,0L96.6,561.2z M95.6,560.7l-2.2,0.6l0.3,1.1l1,0.4L95.6,560.7z M98.5,548l1.8,1.5l0.1-0.2l0.1-0.2L98.5,548z M173,409.9l2,1.2
	l0,0L173,409.9z M197.2,391.9l0.7-2.2l-0.7-0.2l-0.7,0.2L197.2,391.9z M199.9,390.6c-3.8,0.7-18.4,4.4-27.5,18.9l3.9,2.4
	c8-12.9,21.1-16.2,24.4-16.9L199.9,390.6z M172.4,409.5c-10.1,16.2-73.9,137.1-74.5,138.3l4.1,2.1c0.7-1.3,64.4-122,74.4-138
	L172.4,409.5z M97.9,547.8L97.9,547.8l4.1,2.1l0-0.1L97.9,547.8z M98.2,547.5L98.2,547.5l3.4,3.1l0.1-0.1L98.2,547.5z M98,547.6
	c-0.2,0.2-1.4,2-2.3,4.6c-0.9,2.6-1.6,6.3-0.2,10.2l4.3-1.5c-0.9-2.5-0.5-5.1,0.2-7.1c0.7-2.1,1.7-3.4,1.5-3.2L98,547.6z
	 M98.6,559.5l-1-0.4l-1.8,4.2l1,0.4L98.6,559.5z M97.5,559.1l-1-0.4l-1.8,4.2l1,0.4L97.5,559.1z M97.8,560.1
	c-1.6-5.4,1.9-10,2.4-10.6l-3.6-2.9c-0.7,0.8-5.6,7-3.3,14.8L97.8,560.1z M100.5,549.1c2-3.8,64.5-122.1,74.4-138l-3.9-2.4
	c-10,16.1-72.6,134.6-74.6,138.3L100.5,549.1z M174.9,411.1c6.9-11.2,17.5-15.5,23-17l-1.3-4.4c-6,1.7-17.8,6.5-25.6,19L174.9,411.1
	z M196.5,394l3.1,1l1.4-4.4l-3.1-1L196.5,394z"/>
</svg>
