<svg width="844" height="611" viewBox="0 0 844 611" fill="none" xmlns="http://www.w3.org/2000/svg">
<path d="M634.488 129.39C634.488 129.39 635.878 125.463 640.541 124.059C644.697 122.811 648.556 125.252 649.713 129.097C651.053 133.549 648.732 139.993 639.973 147.62C628.459 146.089 622.971 141.997 621.63 137.542C620.473 133.693 622.343 129.531 626.498 128.282C631.158 126.881 634.485 129.39 634.485 129.39H634.488Z" fill="#8870F9"/>
<path d="M600.659 141.482C604.892 140.925 608.268 140.258 611.556 139.45C612.638 139.182 614.596 139.041 615.118 137.926C615.39 137.348 615.305 136.744 614.748 136.36C613.729 135.654 612.183 136.413 611.09 136.681C607.76 137.499 603.954 138.268 600.063 138.819C599.332 138.921 598.877 139.768 599.029 140.448C599.202 141.221 599.925 141.581 600.659 141.482Z" fill="#8870F9"/>
<path d="M658.335 136.388C659.933 136.025 661.524 135.63 663.118 135.238C664.642 134.864 666.509 134.691 667.824 133.82C668.794 133.175 668.547 131.739 667.327 131.608C665.75 131.443 664.039 132.141 662.512 132.519C660.921 132.914 659.326 133.302 657.739 133.721C656.046 134.169 656.614 136.776 658.332 136.385L658.335 136.388Z" fill="#8870F9"/>
<path d="M620.442 158.764C621.627 154.922 623.811 153.296 625.359 151.557C626.188 150.625 625.278 149.288 624.107 149.779C620.893 151.116 618.787 154.799 617.846 157.98C617.348 159.656 619.93 160.443 620.445 158.767L620.442 158.764Z" fill="#8870F9"/>
<path d="M640.859 162.718C640.397 161.088 640.256 159.416 640.492 157.734C640.637 156.704 641.9 153.62 639.907 153.585C638.03 153.55 637.786 156.679 637.659 158.005C637.494 159.783 637.681 161.603 638.185 163.314C638.679 164.997 641.342 164.422 640.859 162.718Z" fill="#8870F9"/>
<path d="M651.942 149.408C652.983 149.839 654.027 150.266 655.068 150.696C656.108 151.123 657.181 151.853 658.288 151.331C658.913 151.038 659.008 150.319 658.789 149.744C658.394 148.699 656.825 148.407 655.872 148.022C654.828 147.599 653.784 147.179 652.74 146.756C652.045 146.474 651.212 147.01 651.011 147.68C650.778 148.453 651.24 149.123 651.935 149.408H651.942Z" fill="#8870F9"/>
<path d="M621.165 122.271C615.81 114.948 615.866 114.888 615.02 114.383C614.152 113.865 612.984 114.644 613.224 115.66C613.464 116.666 613.443 116.496 619.105 124.183C619.556 124.793 620.576 124.733 621.087 124.257C621.697 123.692 621.609 122.888 621.161 122.274L621.165 122.271Z" fill="#8870F9"/>
<path d="M635.685 118.666C635.889 117.184 635.932 115.699 635.815 114.207C635.706 112.821 635.727 110.683 634.267 110.055C633.953 109.921 633.455 110.044 633.229 110.295C632.284 111.335 632.958 113.096 633.053 114.373C633.155 115.766 633.109 117.174 632.972 118.563C632.901 119.294 633.575 119.946 634.277 119.971C635.071 119.999 635.586 119.392 635.685 118.666Z" fill="#8870F9"/>
<path d="M656.532 115.039C656.62 114.362 655.978 113.896 655.393 113.812C654.19 113.642 653.005 115.057 652.214 115.823C651.294 116.715 650.468 117.696 649.703 118.726C649.262 119.318 649.558 120.246 650.147 120.613C650.839 121.04 651.569 120.747 652.035 120.168C655.065 116.383 656.317 116.711 656.532 115.039Z" fill="#8870F9"/>
<path d="M578.212 35.3498C577.937 31.3742 580.935 27.9243 584.911 27.6491C588.886 27.374 592.333 30.3724 592.611 34.348C592.887 38.3235 589.888 41.77 585.913 42.0487C581.937 42.3238 578.491 39.3254 578.212 35.3498Z" fill="#F7CC7F"/>
<path d="M590.452 55.7286C590.022 53.6332 589.761 51.3932 589.045 49.3754C588.431 47.6399 585.722 48.169 585.86 50.0351C586.029 52.3174 586.741 54.6315 587.218 56.868C587.412 57.7746 588.608 58.1944 589.401 57.9157C590.371 57.577 590.636 56.6422 590.449 55.7321L590.452 55.7286Z" fill="#F7CC7F"/>
<path d="M602.82 46.7897C600.428 45.3786 598.343 43.6325 596.135 41.9639C594.41 40.6623 592.551 42.9023 593.969 44.4509C596.005 46.6768 598.679 48.4123 601.261 49.9362C602.076 50.4195 603.215 49.9468 603.614 49.1425C604.062 48.2395 603.638 47.2729 602.82 46.7897Z" fill="#F7CC7F"/>
<path d="M598.29 33.8681C597.747 34.302 597.641 34.9264 597.976 35.5332C598.784 37.0006 600.837 36.9266 602.298 36.8772C603.818 36.8243 605.342 36.5174 606.781 36.0235C608.908 35.2968 607.755 31.995 605.621 32.7252C601.444 34.1504 599.864 32.6053 598.294 33.8646L598.29 33.8681Z" fill="#F7CC7F"/>
<path d="M595.99 19.8354C593.888 22.9079 592.174 23.945 592.442 25.6383C592.597 26.626 593.38 27.0987 594.336 26.8835C595.465 26.626 596.079 25.4301 596.756 24.5906C597.405 23.7863 598.04 22.9785 598.622 22.1213C599.148 21.3417 599.222 20.3363 598.453 19.6661C597.807 19.1052 596.53 19.0558 595.998 19.8354H595.99Z" fill="#F7CC7F"/>
<path d="M587.807 19.3028C587.136 17.4403 586.988 16.763 586.117 15.8952C585.359 15.1438 583.761 15.6236 583.655 16.7312C583.531 18.0223 583.803 18.5056 584.508 20.4599C584.829 21.3488 585.842 21.8427 586.738 21.5287C587.627 21.2183 588.128 20.1918 587.807 19.2993V19.3028Z" fill="#F7CC7F"/>
<path d="M578.966 23.8111C575.939 21.5111 575.322 20.862 574.133 20.989C573.435 21.0631 572.652 21.7333 572.807 22.5165C573.089 23.9698 573.936 24.3649 576.719 26.3968C577.467 26.94 578.493 26.9682 579.135 26.2275C579.71 25.5643 579.707 24.372 578.966 23.8111Z" fill="#F7CC7F"/>
<path d="M566.803 34.355C565.611 34.9864 566.091 37.0501 567.382 37.2194C568.62 37.3817 569.1 37.1841 575.111 36.0835C576.039 35.9142 576.804 35.2369 576.734 34.2174C576.674 33.3532 575.802 32.4254 574.871 32.5948C568.627 33.72 568.003 33.7165 566.807 34.3515L566.803 34.355Z" fill="#F7CC7F"/>
<path d="M576.222 44.1898C572.927 47.3788 572.444 46.8143 571.142 48.7651C570.546 49.6576 571.526 51.0792 572.564 50.8887C573.893 50.6453 574.25 50.4195 575.982 49.0473C576.987 48.2501 577.95 47.3929 578.878 46.5039C579.562 45.8443 579.379 44.6026 578.705 44.017C577.936 43.3467 576.906 43.5266 576.218 44.1898H576.222Z" fill="#F7CC7F"/>
<path d="M324.773 28L321.828 33.2737L312.548 29.6169L307.259 36.8145L299.855 35.1805L299 38.8134L308.906 41L313.917 34.1811L323.57 37.9845L328 30.0467L324.773 28Z" fill="#50BFA5"/>
<path d="M639.1 36.9457L636.722 43.2357L641.952 46.3614L638.75 53.3784L645.999 54.8604L642.748 62.8433L649 65.0067L647.21 72.8103L643.918 73L645.251 67.163L638.657 64.8837L641.783 57.21L634.413 55.7033L637.944 47.9593L632.838 44.9074L635.04 39.0774L631 37.8272L632.81 35L639.1 36.9457Z" fill="#14C3AD"/>
<path d="M285.096 92.8037C289.203 100.072 286.446 109.184 278.939 113.158C271.431 117.133 262.013 114.462 257.904 107.196C253.797 99.928 256.554 90.8164 264.061 86.8419C271.569 82.8674 280.989 85.538 285.096 92.8037Z" fill="#8870F9"/>
<path d="M266 105.78C268.118 109.709 272.972 111.152 276.843 109.005C280.714 106.855 282.136 101.93 280.018 98L266 105.782V105.78Z" fill="#EFEFEF"/>
<path d="M739.71 110.202C742.492 115.048 740.625 121.122 735.539 123.772C730.453 126.422 724.074 124.641 721.29 119.798C718.508 114.952 720.375 108.878 725.461 106.228C730.547 103.578 736.928 105.359 739.71 110.202Z" fill="#0EE4CF"/>
<path d="M727 118.835C728.412 121.782 731.648 122.864 734.229 121.254C736.81 119.641 737.757 115.947 736.345 113L727 118.837V118.835Z" fill="#EFEFEF"/>
<path d="M544.172 86.2023L536.165 88.1328L531.525 76.0578L519.459 77.4859L514.455 69L510 71.4432L516.693 82.7956L528.126 81.4398L532.956 94L545 91.0991L544.172 86.2023Z" fill="#0EE4CF"/>
<path d="M173.879 36.014L179.711 34.2266C179.711 34.2266 185.442 26.633 185.085 24.6352C184.725 22.6374 182.275 18.8912 183.265 18.0495C184.255 17.2077 186.56 16.1036 188.868 18.2235C190.543 19.7615 191.672 26.8122 192.499 27.0694C193.017 27.2305 196.397 26.2952 198.857 25.5756C200.474 25.1002 202.232 25.5574 203.419 26.7577H203.422C204.225 27.5734 204.35 28.8256 203.721 29.7634L202.741 31.2235L204.182 32.2834C205.255 33.0732 205.49 34.5644 204.708 35.6217L203.913 36.6999L204.863 37.2948C206.084 38.0612 206.373 39.7004 205.479 40.8123L204.753 41.7138L204.967 41.9268C205.858 42.8101 205.924 44.2104 205.121 45.156L204.382 46.0263L188.849 50.7831C187.395 51.2299 185.858 51.3754 184.338 51.2118L178.585 51.9885C177.966 52.0717 177.377 51.695 177.195 51.1027L173.055 37.5572C172.855 36.9025 173.22 36.2166 173.879 36.014Z" fill="#FAE0B2"/>
<path d="M472.416 4.5429L465.525 4L464.586 10.2299L457.778 9.98525L456.129 15.8298L451 16.4631L451.329 19L458.186 18.1555L459.749 12.616L466.832 12.8673L467.757 6.74129L474 7.23391L472.416 4.5429Z" fill="#0EE4CF"/>
<path d="M273.869 158.294L270.323 162.357L271.569 167.662C271.671 168.089 271.249 168.453 270.856 168.274L265.998 166.064L261.471 168.921C261.104 169.15 260.641 168.851 260.685 168.413L261.229 162.985L257.183 159.446C256.855 159.16 256.99 158.615 257.409 158.521L262.603 157.375L264.63 152.329C264.794 151.923 265.34 151.883 265.556 152.265L268.223 156.985L273.521 157.404C273.95 157.439 274.153 157.963 273.867 158.289L273.869 158.294Z" fill="#FED333"/>
<path d="M446.59 99.1079L440.863 100.868L439.065 106.589C438.921 107.053 438.307 107.148 438.029 106.751L434.585 101.842L428.591 101.898C428.106 101.902 427.829 101.35 428.117 100.963L431.716 96.1667L429.809 90.4811C429.655 90.0208 430.094 89.585 430.554 89.7432L436.225 91.6864L441.039 88.1162C441.428 87.828 441.98 88.1092 441.969 88.5941L441.874 94.5889L446.755 98.0678C447.149 98.3489 447.05 98.9603 446.587 99.1044L446.59 99.1079Z" fill="#FED333"/>
<path d="M99 108.5C99 109.328 94.2999 110 88.5 110C82.7001 110 78 109.328 78 108.5C78 107.672 82.7001 107 88.5 107C94.2999 107 99 107.672 99 108.5Z" fill="#13A48F"/>
<path d="M405 9.19238L384 16L391.953 0L405 9.19238Z" fill="#50BFA5"/>
<path d="M88.5 75C83.8061 75 80 78.5781 80 82.9911C80 87.4041 88.5 109 88.5 109C88.5 109 97 87.4041 97 82.9911C97 78.5781 93.1939 75 88.5 75ZM88.5 87.6317C86.5082 87.6317 84.8946 85.9322 84.8946 83.8341C84.8946 81.736 86.5082 80.0364 88.5 80.0364C90.4918 80.0364 92.1054 81.736 92.1054 83.8341C92.1054 85.9322 90.4918 87.6317 88.5 87.6317Z" fill="#0EE4CF"/>
<path d="M192 106L165.687 131L155 112.744L192 106Z" fill="#14C3AD"/>
<path d="M154 105L154.293 113L192 106.628L154 105Z" fill="#0EE4CF"/>
<path d="M154 115.537L192 106L154.032 128L154 115.537Z" fill="#0EE4CF"/>
<path d="M126.007 144.921C126.06 144.408 126.518 144.035 127.029 144.085C127.086 144.09 132.972 144.632 141.033 141.598C148.974 138.608 152.897 131.603 153.155 130.735C153.265 130.24 153.749 129.919 154.249 130.018C154.755 130.12 155.083 130.612 154.982 131.118C154.718 132.442 150.227 140.133 141.689 143.347C133.185 146.548 127.094 145.969 126.839 145.943C126.325 145.891 125.953 145.432 126.005 144.919L126.007 144.921Z" fill="#F7CC7F"/>
<path d="M87.0039 146.995C98.192 146.984 109.274 145.057 119.946 141.266C128.736 138.143 136.493 132.247 145.295 129.877C145.801 129.741 146.103 129.217 145.968 128.709C145.833 128.2 145.311 127.897 144.806 128.032C135.693 130.487 127.986 136.383 119.313 139.466C108.845 143.185 97.9749 145.078 87.0012 145.089C82.9692 145.091 78.3176 144.455 73.1736 143.198C72.6627 143.073 72.1517 143.387 72.0273 143.901C71.9029 144.412 72.2153 144.929 72.7262 145.054C77.2931 146.172 82.2835 147.003 87.0039 147V146.995Z" fill="#F7CC7F"/>
<mask id="path-38-inside-1_882_14518" fill="white">
<path d="M827.329 600H0.67067C0.301009 600 0 599.776 0 599.501C0 599.226 0.30365 599 0.67067 599H827.329C827.699 599 828 599.226 828 599.501C828 599.776 827.699 600 827.329 600Z"/>
</mask>
<path d="M827.329 600H0.67067C0.301009 600 0 599.776 0 599.501C0 599.226 0.30365 599 0.67067 599H827.329C827.699 599 828 599.226 828 599.501C828 599.776 827.699 600 827.329 600Z" fill="#283250"/>
<path d="M827.329 598H0.67067V602H827.329V598ZM0.67067 598C0.874802 598 1.13533 598.059 1.39057 598.249C1.64475 598.438 2 598.859 2 599.501H-2C-2 600.419 -1.49424 601.088 -0.997148 601.458C-0.498987 601.829 0.0968769 602 0.67067 602V598ZM2 599.501C2 600.148 1.64136 600.566 1.3937 600.75C1.14252 600.938 0.882566 601 0.67067 601V597C0.091754 597 -0.503532 597.175 -0.998293 597.544C-1.48954 597.911 -2 598.579 -2 599.501H2ZM0.67067 601H827.329V597H0.67067V601ZM827.329 601C827.121 601 826.859 600.939 826.605 600.749C826.353 600.56 826 600.141 826 599.501H830C830 598.585 829.496 597.916 829.001 597.546C828.504 597.174 827.907 597 827.329 597V601ZM826 599.501C826 598.858 826.355 598.438 826.609 598.249C826.865 598.059 827.125 598 827.329 598V602C827.903 602 828.499 601.829 828.997 601.458C829.494 601.088 830 600.419 830 599.501H826Z" fill="black" mask="url(#path-38-inside-1_882_14518)"/>
<path d="M747.698 510.246C747.698 510.246 733.529 493.721 746.826 483.223C746.826 483.223 756.538 477.346 764.458 477.823C764.458 477.823 753.236 496.632 756.869 498.502C760.498 500.372 767.863 476.64 767.863 476.64C767.863 476.64 789.962 474.498 797.073 477.916C797.073 477.916 778.179 493.37 782.159 494.29C786.138 495.211 806.547 480.039 806.547 480.039C806.547 480.039 827.116 483.54 826.02 496.082C824.924 508.625 817.837 512.501 814.72 512.165C811.608 511.834 793.381 504.876 792.986 507.427C792.587 509.978 803.556 518.319 811.237 518.709C811.237 518.709 796.737 534.694 787.098 530.083C777.458 525.467 776.635 518.154 770.629 515.412C764.624 512.671 759.495 512.676 761.974 515.476C764.453 518.275 775.325 520.992 778.764 527.069C782.198 533.145 785.281 537.24 775.31 535.74C765.34 534.241 749.13 526.947 748.419 518.597L747.707 510.246H747.698Z" fill="#BAFBEE"/>
<path d="M815.904 496.423C815.904 496.423 760.036 494.271 747.698 510.241C747.698 510.241 744.97 518.412 736.573 525.851L735.263 529.416C735.263 529.416 744.946 519.21 748.409 518.597C748.409 518.597 742.993 498.809 815.904 496.423Z" fill="#BAFBEE"/>
<path d="M736.573 525.851C736.573 525.851 724.581 534.718 723.748 550.557L725.925 550.752C725.925 550.752 729.754 534.372 736.68 527.97C743.601 521.567 736.578 525.851 736.578 525.851H736.573Z" fill="#BAFBEE"/>
<path d="M698.156 489.465C698.156 489.465 720.699 476.85 710.178 459.725C710.178 459.725 701.761 449.213 692.745 446.506C692.745 446.506 697.553 472.044 692.745 472.643C687.938 473.242 689.438 443.803 689.438 443.803C689.438 443.803 665.697 432.386 656.38 433.286C656.38 433.286 671.104 458.221 666.297 457.622C661.489 457.023 644.957 431.787 644.957 431.787C644.957 431.787 620.613 427.278 616.707 441.7C612.8 456.122 619.113 463.328 622.717 464.234C626.322 465.135 649.463 464.833 648.864 467.837C648.26 470.841 632.634 475.647 623.92 472.945C623.92 472.945 633.54 496.676 646.161 495.478C658.786 494.276 662.692 486.466 670.505 485.867C678.318 485.268 684.031 487.367 680.12 489.47C676.213 491.573 662.989 490.161 656.677 495.522C650.364 500.883 645.255 504.189 656.979 506.594C668.703 509 689.735 507.495 693.943 498.483L698.152 489.47L698.156 489.465Z" fill="#0EE4CF"/>
<path d="M627.832 446.204C627.832 446.204 690.943 466.634 698.157 489.465C698.157 489.465 697.855 499.68 704.167 511.395V515.904C704.167 515.904 697.558 500.581 693.948 498.478C693.948 498.478 708.074 478.651 627.832 446.204Z" fill="#43FFE3"/>
<path d="M704.167 511.395C704.167 511.395 713.899 526.168 708.351 544.154L705.847 543.482C705.847 543.482 708.278 523.675 703.188 513.708C698.098 503.746 704.167 511.395 704.167 511.395Z" fill="#43FFE3"/>
<path d="M734.016 472.063C734.016 472.063 704.304 455.431 718.171 432.858C718.171 432.858 729.262 418.996 741.146 415.432C741.146 415.432 734.809 449.091 741.146 449.885C747.483 450.679 745.506 411.868 745.506 411.868C745.506 411.868 776.801 396.817 789.085 398.005C789.085 398.005 769.675 430.876 776.012 430.083C782.349 429.289 804.141 396.024 804.141 396.024C804.141 396.024 836.229 390.083 841.378 409.092C846.526 428.101 838.207 437.605 833.453 438.793C828.699 439.981 798.193 439.587 798.987 443.545C799.781 447.504 820.38 453.843 831.87 450.279C831.87 450.279 819.191 481.563 802.553 479.98C785.914 478.398 780.766 468.1 770.464 467.306C760.162 466.513 752.637 469.288 757.785 472.058C762.934 474.829 780.366 472.969 788.686 480.039C797.005 487.109 803.741 491.466 788.291 494.631C772.841 497.801 745.111 495.819 739.563 483.939L734.016 472.058V472.063Z" fill="#0EE4CF"/>
<path d="M826.717 415.037C826.717 415.037 743.523 441.968 734.016 472.063C734.016 472.063 734.41 485.526 726.091 500.971V506.911C726.091 506.911 734.805 486.714 739.559 483.944C739.559 483.944 720.938 457.807 826.712 415.037H826.717Z" fill="#8CFFEB"/>
<path d="M726.091 500.971C726.091 500.971 713.261 520.447 720.577 544.154L723.879 543.268C723.879 543.268 720.674 517.155 727.386 504.024C734.098 490.892 726.091 500.971 726.091 500.971Z" fill="#8CFFEB"/>
<path d="M790.103 538.481C789.516 569.497 764.18 594.461 733.012 594.461C701.844 594.461 676.507 569.497 675.921 538.481H790.103Z" fill="#8870F9" stroke="black" stroke-width="2.2"/>
<path d="M747.337 595.118C744.969 595.415 742.553 595.561 740.103 595.561C707.961 595.561 683.543 571.631 683.543 539.5H697.999C697.999 569.186 718.604 591.559 747.332 595.118H747.337Z" fill="#C9C2FB"/>
<path d="M792.017 598.522H674.007C674.007 594.558 677.222 591.345 681.186 591.345H784.832C788.797 591.345 792.012 594.558 792.012 598.522H792.017Z" fill="#8870F9" stroke="black" stroke-width="2.3"/>
<path d="M636.684 589.714C637.193 590.311 637.64 590.832 638.01 591.263L633.54 592.552L613.13 575.288L594.088 548.309L607.425 545.012L619.101 566.564L619.101 566.566C621.36 570.719 626.418 577.265 630.842 582.702C633.067 585.437 635.154 587.917 636.684 589.714Z" fill="white" stroke="black" stroke-width="2.3"/>
<path d="M549.351 208.146C548.789 211.451 547.952 214.452 546.817 217.021C547.35 214.483 547.809 211.384 548.127 207.596L545.84 207.354C545.788 207.764 545.386 210.715 544.471 214.332C543.569 217.9 542.197 221.997 540.241 224.96C531.327 230.871 518.539 243.383 508.067 255.293C502.782 261.304 498.054 267.198 494.682 272.063C492.998 274.493 491.634 276.691 490.709 278.533C490.29 279.365 489.952 280.144 489.714 280.851C489.421 280.578 489.089 280.269 488.723 279.928C487.175 278.488 484.999 276.473 482.426 274.108L481.244 267.001L480.652 263.441L479.075 266.687C478.652 267.559 478.456 268.71 478.358 269.775C478.341 269.962 478.327 270.15 478.315 270.338C468.672 261.531 455.907 250.087 448.48 244.341C449.437 241.559 451.263 237.592 451.72 236.6C451.774 236.481 451.809 236.404 451.821 236.378L452.794 234.163L450.462 234.807C449.661 235.028 448.918 235.528 448.272 236.088C447.613 236.659 446.978 237.36 446.396 238.085C446.373 238.114 446.35 238.142 446.327 238.171C446.969 236.533 447.914 234.522 449.298 232.281C453.041 226.217 460.014 218.422 472.938 211.73L472.938 211.73C475.075 210.622 477.091 209.625 478.993 208.684C480.148 208.112 481.262 207.561 482.335 207.018C485.148 205.597 487.657 204.25 489.727 202.825C491.799 201.4 493.497 199.855 494.634 198.008C495.786 196.138 496.323 194.023 496.172 191.542L496.172 191.542C495.903 187.164 496.788 175.382 500.965 166.014C503.05 161.337 505.896 157.397 509.694 155.213C513.436 153.061 518.276 152.514 524.615 154.955L525.034 155.117L525.449 154.952L525.45 154.952L525.45 154.952L525.451 154.952L525.451 154.952L525.463 154.947C525.475 154.943 525.495 154.935 525.522 154.925C525.576 154.905 525.659 154.876 525.766 154.841C525.898 154.798 526.065 154.746 526.257 154.694L528.895 154.538C529.121 154.525 529.353 154.514 529.591 154.506L529.732 154.527L529.748 154.501C532.585 154.423 536.19 154.768 539.218 156.439L539.221 156.442L539.356 156.518C540.309 157.059 541.378 158.229 542.475 160.069C543.557 161.882 544.601 164.236 545.555 166.996C547.463 172.512 548.972 179.534 549.722 186.829C550.473 194.125 550.458 201.639 549.351 208.146Z" fill="#8870F9" stroke="black" stroke-width="2.3"/>
<path d="M525.4 227.98L525.4 227.98C528.304 228.773 531.801 228.18 534.679 227.301C536.096 226.869 537.317 226.381 538.176 226.001C538.235 225.975 538.293 225.949 538.349 225.924C538.31 225.821 538.274 225.717 538.241 225.612C538.025 224.929 537.874 224.069 537.765 223.128C537.546 221.236 537.475 218.817 537.483 216.373C537.483 216.373 537.483 216.373 537.483 216.373L538.633 216.376C538.647 210.592 539.091 204.447 539.091 204.447L525.4 227.98ZM525.4 227.98C522.722 227.249 520.405 225.102 518.717 222.99C517.886 221.952 517.239 220.962 516.806 220.233C516.782 220.193 516.759 220.154 516.736 220.116C517.097 219.865 517.421 219.534 517.704 219.113C518.267 218.276 518.633 217.126 518.893 215.649C519.38 212.878 519.558 208.513 519.557 201.752L537.876 205.379L525.4 227.98Z" fill="white" stroke="black" stroke-width="2.3"/>
<path d="M534.343 159.811C531.405 159.74 527.279 159.813 521.925 160.302C522.712 159.848 523.626 159.407 524.648 159.055C527.425 158.101 531.066 157.783 535.228 159.837C534.946 159.827 534.651 159.818 534.343 159.811Z" fill="#E37970" stroke="black" stroke-width="2.3"/>
<path d="M532.713 159.781L532.688 159.777C527.74 159.069 523.951 159.778 521.052 161.246C518.148 162.716 516.049 164.993 514.561 167.561C513.069 170.134 512.204 172.98 511.774 175.527C511.341 178.088 511.362 180.264 511.578 181.478L532.713 159.781ZM532.713 159.781L532.737 159.783M532.713 159.781L532.737 159.783M532.737 159.783L532.737 159.783M532.737 159.783L532.737 159.783M532.737 159.783L532.738 159.783M532.737 159.783L532.738 159.783M532.738 159.783L532.738 159.783M532.738 159.783L532.738 159.783M532.738 159.783L532.738 159.784M532.738 159.783L532.738 159.784M532.738 159.784L532.746 159.784L532.787 159.789C532.825 159.793 532.885 159.801 532.965 159.811C533.125 159.833 533.365 159.869 533.673 159.923C534.288 160.032 535.172 160.216 536.228 160.514C538.345 161.113 541.122 162.165 543.8 163.974L543.8 163.974C545.92 165.405 548.41 167.596 549.573 171.478C550.742 175.38 550.63 181.193 547.084 189.979L547.066 190.023L547.052 190.069L545.414 195.35L518.166 197.267C518.022 197.027 517.84 196.718 517.627 196.349C517.077 195.396 516.33 194.045 515.541 192.457C513.953 189.259 512.236 185.182 511.578 181.479L532.738 159.784Z" fill="#8870F9" stroke="black" stroke-width="2.3"/>
<path d="M577.441 402.852C584.672 443.77 596.586 499.088 615.361 557.108L606.535 557.378L606.343 557.384L606.165 557.452L606.164 557.452L606.164 557.452L606.164 557.452L606.163 557.452L606.157 557.455L606.117 557.469C606.08 557.482 606.022 557.502 605.945 557.528C605.791 557.58 605.559 557.653 605.263 557.737C604.669 557.904 603.82 558.11 602.812 558.261C600.779 558.565 598.186 558.632 595.746 557.782C595.307 557.629 594.543 557.14 593.461 556.154C592.41 555.196 591.149 553.853 589.719 552.125C586.86 548.672 583.372 543.738 579.588 537.406C572.022 524.746 563.302 506.552 556.071 483.55L556.07 483.546C555.727 482.469 555.369 481.376 554.991 480.267L554.99 480.265C551.23 469.304 545.577 457.041 539.769 444.443C539.405 443.654 539.041 442.865 538.677 442.073C532.478 428.616 526.219 414.83 521.902 401.745L521.902 401.745C520.523 397.563 519.289 393.63 518.177 389.907C518.137 389.774 518.098 389.642 518.059 389.511C517.744 388.449 517.436 387.415 517.148 386.396L517.147 386.391C510.953 364.879 509.041 350.56 507.371 335.484L567.717 335.967C567.724 336.03 567.73 336.097 567.738 336.167C567.821 336.978 567.949 338.181 568.125 339.754C568.476 342.898 569.021 347.519 569.794 353.429C571.338 365.247 573.795 382.221 577.441 402.852Z" fill="#8870F9" stroke="black" stroke-width="2.3"/>
<path d="M506.744 344.171C506.743 344.013 506.742 343.832 506.742 343.626C506.742 342.726 506.753 341.402 506.778 339.712C506.828 336.334 506.929 331.508 507.09 325.706C507.411 314.102 507.969 298.607 508.82 283.012C509.672 267.412 510.816 251.733 512.31 239.753C513.057 233.757 513.887 228.725 514.802 225.103C515.261 223.287 515.729 221.873 516.198 220.883C516.374 220.509 516.542 220.215 516.696 219.992C517.991 221.175 519.878 222.234 521.955 223.031C524.558 224.031 527.628 224.685 530.562 224.62L530.563 224.62C533.871 224.546 536.275 223.802 537.824 222.496C538.821 221.657 539.405 220.635 539.656 219.545C542.377 221.092 544.803 222.557 546.637 223.693C547.73 224.369 548.612 224.929 549.219 225.318C549.521 225.512 549.755 225.663 549.914 225.767C550.172 226.287 550.466 227.101 550.783 228.23C551.145 229.519 551.517 231.143 551.896 233.061C552.653 236.895 553.427 241.848 554.196 247.532C555.734 258.897 557.247 273.126 558.582 287.055C559.917 300.981 561.072 314.597 561.894 324.732C562.305 329.799 562.632 333.996 562.857 336.925C562.969 338.39 563.056 339.538 563.114 340.32C563.126 340.471 563.136 340.609 563.145 340.732C563.007 340.796 562.848 340.868 562.669 340.947C561.892 341.291 560.741 341.775 559.258 342.327C556.291 343.43 551.999 344.802 546.72 345.865C536.333 347.957 522.157 348.846 506.744 344.171Z" fill="#0EE4CF" stroke="black" stroke-width="2.3"/>
<path d="M492.579 326.332C490.905 328.226 489.066 329.727 487.036 330.655C489.838 323.871 492.321 318.747 494.283 314.7C494.392 314.474 494.5 314.251 494.606 314.031C496.796 309.511 498.374 306.201 498.805 303.411L498.806 303.409C500.285 293.784 500.334 283.849 499.617 274.484C501.726 270.794 503.566 267.684 504.889 265.479C505.568 264.346 506.111 263.453 506.484 262.843C506.67 262.538 506.814 262.304 506.911 262.147L507.021 261.969L507.049 261.924L507.056 261.913L507.057 261.91L507.058 261.91L507.058 261.909L506.081 261.303L507.058 261.909L507.146 261.768L507.19 261.607C507.262 261.345 507.725 259.875 508.416 258.096C509.111 256.307 510 254.303 510.91 252.92C511.374 252.213 511.774 251.78 512.072 251.584C512.154 251.53 512.208 251.508 512.236 251.499C512.236 251.499 512.236 251.499 512.237 251.5C512.369 251.59 512.705 251.968 513.072 253.103C513.423 254.187 513.747 255.78 514.008 258.027C515.042 266.96 513.573 276.786 511.443 284.953C510.38 289.029 509.158 292.669 508.017 295.55C506.864 298.459 505.824 300.519 505.141 301.486L504.931 301.784V301.813C504.579 302.39 504.225 303.155 503.867 304.004C503.449 304.991 502.988 306.185 502.483 307.494L502.4 307.707C501.318 310.509 500.012 313.867 498.391 317.189C496.769 320.516 494.855 323.756 492.579 326.332Z" fill="#8870F9" stroke="black" stroke-width="2.3"/>
<path d="M542.625 208.776C542.582 208.776 542.524 208.776 542.453 208.776C542.273 208.775 542.004 208.772 541.66 208.762C540.972 208.743 539.985 208.698 538.799 208.594C536.421 208.387 533.27 207.947 530.135 207.023C526.989 206.096 523.941 204.705 521.695 202.646C519.483 200.617 518.023 197.923 518.02 194.25L518.02 194.25C518.017 191.789 517.935 189.408 517.859 187.194C517.811 185.797 517.766 184.466 517.744 183.224C517.685 179.943 517.786 177.189 518.358 174.935C518.919 172.722 519.92 171.048 521.648 169.845C523.412 168.618 526.059 167.794 530.078 167.563L530.078 167.563C538.214 167.093 542.843 168.389 545.572 170.268C548.264 172.122 549.297 174.674 549.927 177.245C550.21 178.4 550.29 180.938 550.099 184.244C549.91 187.498 549.467 191.351 548.777 195.051C548.084 198.764 547.154 202.263 546.01 204.838C545.437 206.129 544.837 207.129 544.229 207.804C543.621 208.481 543.093 208.739 542.654 208.773L542.625 208.776Z" fill="white" stroke="black" stroke-width="2.3"/>
<path d="M523.558 186.584L523.558 186.584C518.262 187.946 514.523 187.904 512.153 187.55C511.456 187.446 510.876 187.315 510.406 187.183C510.406 187.183 510.406 187.183 510.406 187.183C511.249 186.349 512.384 185.117 513.574 183.514C515.884 180.402 518.419 175.863 519.387 170.094C519.486 170.03 519.603 169.955 519.736 169.871C520.229 169.558 520.942 169.118 521.816 168.618C523.567 167.615 525.941 166.379 528.463 165.422C531.003 164.458 533.597 163.814 535.818 163.908C537.8 163.991 539.405 164.649 540.496 166.152C540.465 166.228 540.432 166.31 540.395 166.4C540.185 166.909 539.872 167.644 539.463 168.535C538.643 170.32 537.441 172.725 535.908 175.209C534.373 177.698 532.525 180.238 530.422 182.315C528.313 184.397 526.006 185.955 523.558 186.584Z" fill="#8870F9" stroke="black" stroke-width="2.3"/>
<path d="M541.641 167.418C541.615 167.395 541.589 167.372 541.564 167.35C541.582 167.327 541.602 167.304 541.621 167.28C542.026 166.794 542.585 166.264 543.265 165.939C543.915 165.627 544.693 165.491 545.639 165.796C546.618 166.111 547.882 166.931 549.387 168.754C552.067 172.002 552.286 176.608 551.715 180.634C551.433 182.617 550.971 184.387 550.577 185.663C550.508 185.886 550.441 186.094 550.378 186.284C550.045 185.603 549.742 184.601 549.451 183.375C549.215 182.381 549.002 181.306 548.787 180.222C548.728 179.924 548.668 179.626 548.608 179.328C548.335 177.969 548.046 176.616 547.703 175.525C546.975 173.213 545.175 170.975 543.669 169.385C542.9 168.572 542.175 167.894 541.641 167.418ZM550.877 186.986C550.877 186.987 550.871 186.986 550.86 186.98C550.872 186.982 550.877 186.985 550.877 186.986Z" fill="#8870F9" stroke="black" stroke-width="2.3"/>
<path d="M648.352 245.603L645.974 237.653C645.992 237.6 646.013 237.54 646.036 237.474C646.154 237.149 646.338 236.677 646.605 236.114C647.138 234.983 647.989 233.499 649.255 232.076C651.742 229.283 655.873 226.664 662.606 227.497C663.414 227.76 664.692 228.29 665.467 229.188C665.845 229.625 666.086 230.131 666.117 230.751C666.148 231.383 665.964 232.251 665.272 233.409C664.745 234.293 664.321 234.792 663.952 235.133C663.604 235.453 663.279 235.661 662.83 235.947C662.788 235.973 662.746 236 662.703 236.028C661.606 236.729 660.348 237.622 658.459 240.322C656.753 242.76 655.038 244.169 653.302 244.919C651.773 245.579 650.144 245.765 648.352 245.603Z" fill="white" stroke="black" stroke-width="2.3"/>
<path d="M509.648 586.9C509.64 586.945 509.627 587.015 509.614 587.106C509.586 587.293 509.553 587.566 509.534 587.896C509.497 588.564 509.524 589.423 509.75 590.259C509.975 591.089 510.382 591.854 511.08 592.424C511.771 592.988 512.855 593.449 514.597 593.482C516.532 593.518 518.053 593.498 519.241 593.382C520.446 593.263 521.19 593.054 521.646 592.792C522.037 592.567 522.24 592.294 522.344 591.853C522.464 591.34 522.452 590.575 522.241 589.414L509.648 586.9ZM509.648 586.9C511.594 581.268 511.216 575.997 511.067 574.609L511.06 574.537L511.043 574.466L504.633 547.476H520.044L519.67 575.992L519.668 576.114L519.692 576.233L520.82 576.007L519.692 576.233L519.692 576.233L519.692 576.234L519.693 576.239L519.697 576.257L519.711 576.327L519.766 576.601C519.813 576.839 519.882 577.184 519.967 577.614C520.137 578.473 520.373 579.668 520.637 581.015C521.165 583.71 521.801 587.004 522.241 589.413L509.648 586.9Z" fill="white" stroke="black" stroke-width="2.3"/>
<path d="M509.345 588.852C511.061 590.194 512.695 590.964 514.234 591.297C516.26 591.736 518.024 591.395 519.455 590.748C520.645 590.211 521.599 589.466 522.3 588.795C522.556 590.132 522.721 591.733 522.82 593.299C522.92 594.876 522.95 596.346 522.956 597.343H508.936C508.742 595.498 508.866 593.151 509.077 591.084C509.161 590.261 509.256 589.498 509.345 588.852Z" fill="#0EE4CF" stroke="black" stroke-width="2.3"/>
<path d="M614.641 585.195V597.396H612.544L608.982 584.051L608.949 583.924L608.887 583.808C606.789 579.86 608.103 576.293 609.763 572.712C611.997 573.051 617.517 575.144 626.831 585.89L626.832 585.891C630.435 590.042 634.488 591.664 638.573 591.61C642.731 593.54 644.777 595.745 645.784 597.396H628.154C627.507 596.711 626.826 595.735 626.081 594.46C625.222 592.992 624.321 591.201 623.313 589.132L623.312 589.13C621.912 586.273 618.867 584.834 616.091 584.085L614.641 583.694V585.195Z" fill="#0EE4CF" stroke="black" stroke-width="2.3"/>
<path d="M646.071 238.346L648.195 245.442C648.149 245.505 648.099 245.575 648.045 245.65C647.737 246.077 647.292 246.694 646.743 247.448C645.644 248.957 644.13 251.018 642.47 253.225C639.127 257.666 635.256 262.611 632.962 264.9C630.679 267.177 624.809 271.808 618.534 275.922C615.406 277.973 612.208 279.874 609.337 281.279C606.425 282.705 603.992 283.546 602.346 283.617C598.779 283.773 594.522 282.824 589.241 280.662C583.967 278.503 577.747 275.165 570.277 270.623L568.056 269.273L568.55 271.824C569.629 277.393 570.088 282.728 569.583 287.429L569.583 287.429C568.248 299.882 570.025 323.863 572.112 344.609C573.157 355.009 574.286 364.636 575.153 371.664C575.586 375.178 575.954 378.043 576.214 380.029C576.344 381.022 576.447 381.796 576.517 382.321C576.521 382.35 576.525 382.378 576.528 382.405C576.163 382.616 575.584 382.919 574.728 383.286C572.884 384.075 569.767 385.154 564.764 386.243C559.802 387.322 558.02 386.45 557.41 385.84C557.099 385.528 556.975 385.18 556.928 384.894C556.905 384.75 556.902 384.628 556.905 384.547C556.906 384.513 556.908 384.488 556.909 384.474L556.91 384.468C556.91 384.466 556.909 384.467 556.91 384.466C556.91 384.462 556.911 384.459 556.91 384.461L556.924 384.378L556.923 384.276L555.773 384.289C556.923 384.276 556.923 384.276 556.923 384.275L556.923 384.271L556.923 384.255L556.922 384.193L556.919 383.947L556.908 382.985L556.866 379.33C556.829 376.177 556.775 371.664 556.71 366.226C556.579 355.35 556.401 340.77 556.208 325.956C555.824 296.357 555.384 265.752 555.163 261.98C555.101 260.925 554.793 259.436 554.34 257.703C553.881 255.947 553.254 253.868 552.518 251.6C551.047 247.064 549.129 241.728 547.23 236.638C545.329 231.545 543.443 226.687 542.032 223.104C541.379 221.445 540.828 220.059 540.424 219.048C551.776 220.868 562.985 226.985 572.581 234.058C582.707 241.521 590.931 249.967 595.488 255.287C598.386 258.674 603.181 259.711 607.216 257.815C612.821 255.184 620.765 251.464 624.208 249.91L624.209 249.91C627.287 248.521 633.084 245.444 638.075 242.736C640.579 241.378 642.892 240.105 644.58 239.172C645.155 238.854 645.658 238.575 646.071 238.346ZM577.041 382.076C577.042 382.076 577.04 382.077 577.036 382.08L577.037 382.079L577.041 382.076Z" fill="white" stroke="black" stroke-width="2.3"/>
<path d="M525.076 470.718C525.036 465.198 526.355 446.575 527.778 426.49C527.907 424.657 528.038 422.812 528.169 420.964C529.736 398.786 531.291 376.107 531.233 367.821C531.221 366.107 530.548 364.984 529.383 364.204C528.143 363.374 526.264 362.884 523.808 362.745C518.91 362.468 512.287 363.611 505.546 365.309C498.833 366.999 492.113 369.211 487.063 371.003C484.54 371.898 482.439 372.688 480.969 373.253C480.302 373.509 479.766 373.719 479.379 373.872C479.374 375.091 479.384 376.339 479.408 377.621L525.076 470.718ZM525.076 470.718C525.154 480.951 524.474 501.868 523.669 520.683C523.267 530.087 522.834 538.956 522.45 545.687C522.258 549.053 522.078 551.881 521.921 553.972C521.843 555.018 521.77 555.874 521.705 556.518C521.637 557.191 521.583 557.562 521.552 557.69C521.266 558.883 520.331 559.677 518.862 560.19C517.385 560.705 515.577 560.85 514 560.85C513.421 560.85 512.844 560.89 512.347 560.925C512.122 560.941 511.914 560.955 511.73 560.964C511.089 560.996 510.562 560.98 510.025 560.843C508.974 560.575 507.608 559.764 505.402 557.14C505.233 556.939 504.995 556.531 504.708 555.846C504.429 555.181 504.134 554.326 503.826 553.292C503.209 551.225 502.56 548.51 501.892 545.298C500.556 538.879 499.157 530.555 497.788 521.623C495.999 509.95 494.268 497.289 492.796 486.528C492.015 480.813 491.307 475.634 490.702 471.423L525.076 470.718ZM479.568 382.387C480.053 392.78 481.411 405.098 483.373 419.852L483.373 419.852C484.776 430.411 486.482 442.201 488.392 455.402C489.133 460.526 489.905 465.863 490.702 471.423L479.568 382.387ZM479.568 382.387C479.495 380.747 479.437 379.161 479.408 377.622L479.568 382.387Z" fill="#8870F9" stroke="black" stroke-width="2.3"/>
<path d="M498.449 392.975L498.449 392.975C491.971 392.115 484.071 389.728 477.745 387.534C474.592 386.44 471.848 385.401 469.893 384.635C469.002 384.286 468.276 383.994 467.749 383.78C467.914 383.256 468.141 382.536 468.423 381.636C469.062 379.599 469.986 376.64 471.13 372.95C473.416 365.57 476.579 355.265 480.084 343.561C480.121 343.444 480.173 343.267 480.22 343.108C480.255 342.988 480.287 342.879 480.308 342.813L480.31 342.804C488.585 315.176 498.708 279.959 503.746 257.026C503.811 256.729 503.876 256.425 503.939 256.129C503.98 255.941 504.019 255.756 504.058 255.577L504.058 255.575C505.422 249.233 506.378 243.873 506.752 239.959L516.68 221.063C517.096 222.024 517.631 223.266 518.252 224.722C519.775 228.294 521.815 233.151 523.881 238.294C525.949 243.44 528.039 248.862 529.665 253.567C531.307 258.316 532.431 262.208 532.636 264.358C532.732 265.366 532.546 267.937 532.096 271.832C531.653 275.669 530.971 280.655 530.126 286.392C528.437 297.862 526.102 312.296 523.738 326.448C521.374 340.598 518.983 354.46 517.183 364.786C516.283 369.948 515.531 374.226 515.003 377.213C514.74 378.707 514.532 379.878 514.391 380.675L514.229 381.585L514.188 381.818L514.185 381.837C514.179 381.856 514.171 381.881 514.162 381.912C514.134 382.001 514.091 382.135 514.031 382.309C513.91 382.656 513.721 383.156 513.454 383.755C512.919 384.956 512.078 386.53 510.857 388.044C508.435 391.043 504.55 393.788 498.449 392.975Z" fill="white" stroke="black" stroke-width="2.3"/>
<path d="M551.196 291.007C551.49 290.991 551.755 290.977 551.988 290.965V298.605C531.343 305.612 514.573 307.851 502.946 308.335C497.059 308.58 492.489 308.375 489.4 308.111C487.856 307.979 486.682 307.832 485.899 307.719C485.647 307.683 485.436 307.65 485.265 307.622C483.426 304.094 482.195 299.105 481.412 293.47C480.598 287.603 480.283 281.146 480.229 275.129C480.175 269.117 480.38 263.566 480.6 259.517C480.709 257.494 480.822 255.847 480.908 254.707C480.95 254.137 480.986 253.694 481.011 253.394C481.024 253.244 481.034 253.13 481.04 253.054L481.045 253.004C482.795 244.617 485.076 238.623 486.908 234.741C487.826 232.795 488.632 231.378 489.202 230.456C489.487 229.995 489.713 229.657 489.865 229.439C489.892 229.401 489.916 229.366 489.938 229.335C494.435 227.098 501.115 224.673 506.763 222.782C509.628 221.823 512.211 221.007 514.079 220.429C514.409 220.328 514.716 220.233 514.998 220.147L501.039 262.515L501.768 262.756L500.994 262.697L496.357 293.094L496.13 294.584L497.626 294.41C502.312 293.867 516.18 292.99 528.928 292.247C535.291 291.876 541.358 291.54 545.836 291.296C548.074 291.174 549.915 291.075 551.196 291.007Z" fill="white" stroke="black" stroke-width="2.3"/>
<path d="M512.302 283.552L512.302 283.552C511.737 297.795 508.51 324.525 481.11 340.137C488.904 314.025 498.104 281.906 503.141 259.738C505.355 263.296 507.495 267.128 509.152 270.894C511.187 275.518 512.441 279.925 512.302 283.552Z" fill="white" stroke="black" stroke-width="2.3"/>
<path d="M515.3 219.71C515.223 220.046 515.134 220.432 515.035 220.866C514.638 222.595 514.07 225.071 513.382 228.06C512.007 234.038 510.155 242.067 508.248 250.27C504.424 266.717 500.405 283.751 499.543 286.48C499.236 287.453 499.319 288.386 499.787 289.2C500.23 289.97 500.953 290.522 501.723 290.927C503.252 291.73 505.371 292.16 507.397 292.401C509.456 292.646 511.557 292.711 513.134 292.716C513.924 292.718 514.589 292.705 515.056 292.691C515.207 292.687 515.337 292.683 515.445 292.679C516.241 293.234 516.738 294.274 516.911 295.858C517.098 297.58 516.864 299.684 516.433 301.782C516.006 303.864 515.403 305.863 514.904 307.349C514.654 308.089 514.433 308.698 514.273 309.12C514.264 309.145 514.255 309.169 514.246 309.193C514.211 309.199 514.177 309.205 514.143 309.212L514.135 309.213C504.236 311.064 496.506 311.19 491.271 310.859C488.653 310.693 486.658 310.413 485.326 310.177C484.66 310.059 484.16 309.951 483.831 309.875C483.823 309.873 483.814 309.871 483.806 309.869C481.996 306.53 480.683 301.272 479.861 294.892C479.008 288.279 478.697 280.596 478.843 272.886C478.988 265.177 479.59 257.466 480.554 250.799C481.521 244.106 482.842 238.556 484.388 235.116C487.391 228.432 495.291 224.496 502.808 222.243C506.519 221.132 510.038 220.459 512.633 220.065C513.696 219.903 514.602 219.789 515.3 219.71Z" fill="white" stroke="black" stroke-width="2.3"/>
<path d="M554.003 283.517L554.003 283.516C554.37 281.384 555.103 279.65 556.385 278.355C557.662 277.065 559.597 276.094 562.59 275.701C565.793 275.281 567.945 275.07 569.285 275.158C569.954 275.202 570.25 275.313 570.354 275.379C570.355 275.389 570.356 275.402 570.356 275.418C570.356 275.418 570.356 275.418 570.356 275.419C570.355 275.426 570.35 275.493 570.318 275.645C570.286 275.796 570.234 275.993 570.16 276.236C570.013 276.721 569.787 277.35 569.482 278.097C568.872 279.589 567.961 281.507 566.768 283.606C564.374 287.815 560.886 292.674 556.476 296.283C554.268 298.09 552.878 298.484 552.081 298.417C551.389 298.36 550.855 297.92 550.42 297.04C549.978 296.148 549.752 295.001 549.644 294.014C549.592 293.532 549.57 293.112 549.562 292.814C549.561 292.781 549.56 292.749 549.56 292.719C549.658 292.591 549.779 292.43 549.919 292.238C550.292 291.728 550.795 291 551.325 290.125C552.372 288.393 553.573 285.997 554.003 283.517ZM570.35 275.349C570.35 275.349 570.35 275.35 570.351 275.351L570.35 275.349Z" fill="white" stroke="black" stroke-width="2.3"/>
<path d="M81.3569 557.763C81.3569 563.243 76.9134 567.69 71.4258 567.69C65.9379 567.69 61.4947 563.248 61.4947 557.763C61.4947 552.278 65.9379 547.836 71.4258 547.836C76.9137 547.836 81.3569 552.278 81.3569 557.763Z" fill="#14C3AD" stroke="black" stroke-width="2.3"/>
<path d="M85.7163 557.763C85.7163 563.245 81.2704 567.69 75.7852 567.69C70.3 567.69 65.8541 563.245 65.8541 557.763C65.8541 552.281 70.3 547.836 75.7852 547.836C81.2704 547.836 85.7163 552.281 85.7163 557.763Z" fill="#0EE4CF" stroke="black" stroke-width="2.3"/>
<path d="M155.174 587.269C155.174 592.75 150.731 597.196 145.243 597.196C139.755 597.196 135.312 592.754 135.312 587.269C135.312 581.785 139.755 577.342 145.243 577.342C150.731 577.342 155.174 581.785 155.174 587.269Z" fill="#14C3AD" stroke="black" stroke-width="2.3"/>
<path d="M159.534 587.269C159.534 592.75 155.09 597.196 149.603 597.196C144.115 597.196 139.671 592.754 139.671 587.269C139.671 581.785 144.115 577.342 149.603 577.342C155.09 577.342 159.534 581.785 159.534 587.269Z" fill="#0EE4CF" stroke="black" stroke-width="2.3"/>
<path d="M67.3423 548.477L174.597 583.549L161.619 592.885L79.662 558.815C79.6617 558.815 79.6613 558.815 79.661 558.815C78.2228 558.214 76.9064 557.368 75.7646 556.307C75.7645 556.307 75.7644 556.307 75.7643 556.307L67.3423 548.477Z" fill="#14C3AD" stroke="black" stroke-width="2.3"/>
<path d="M228.931 317.704L180.593 390.716L178.527 389.35L226.819 316.412L226.845 316.372L226.868 316.331C227.294 315.555 229.928 311.026 235.133 307.524L234.494 306.575L235.133 307.524C240.266 304.071 249.037 300.906 261.627 305.891L261.668 305.908L261.711 305.921L279.66 311.457L279.709 311.472L279.76 311.483C280.306 311.599 282.445 312.108 284.886 313.377C287.329 314.646 290.006 316.64 291.735 319.694L291.736 319.694C294.053 323.784 294.214 328.879 291.964 334.987C291.528 336.168 290.374 338.357 288.616 341.365C286.875 344.344 284.588 348.049 281.937 352.226C276.636 360.578 269.898 370.785 263.208 380.773C251.142 398.787 239.244 416.069 236.236 420.427L234.201 419.02C243.228 405.945 256.143 387.013 267.246 370.267C272.932 361.691 278.148 353.683 282.123 347.326C284.111 344.148 285.793 341.376 287.07 339.149C288.334 336.947 289.243 335.207 289.641 334.127C291.522 329.029 291.618 324.532 289.598 320.94L289.598 320.94C287.999 318.094 285.369 316.342 283.22 315.31C282.135 314.789 281.146 314.438 280.421 314.215C280.058 314.103 279.759 314.023 279.546 313.97C279.439 313.944 279.354 313.924 279.292 313.91C279.256 313.902 279.227 313.896 279.21 313.892L279.008 313.841L260.752 308.206C249.93 303.909 242.061 305.979 236.846 309.334C231.8 312.579 229.343 316.952 229.028 317.542L228.931 317.704Z" fill="#431879" stroke="black" stroke-width="2.3"/>
<path d="M200.396 589.654L200.395 589.655C200.392 589.66 200.387 589.67 200.378 589.685C200.361 589.715 200.332 589.764 200.29 589.83C200.206 589.962 200.071 590.163 199.881 590.416C199.5 590.92 198.897 591.629 198.03 592.404C196.299 593.95 193.5 595.775 189.272 596.774C180.928 598.747 166.79 597.547 144.033 584.12L231.45 405.125L270.802 432.133C270.807 432.138 270.811 432.143 270.816 432.148C270.877 432.217 270.972 432.327 271.092 432.478C271.332 432.779 271.672 433.244 272.049 433.871C272.802 435.125 273.701 437.029 274.24 439.583C275.313 444.666 274.989 452.469 268.979 463.037C263.577 472.537 246.426 504.201 230.635 533.471C222.738 548.11 215.178 562.157 209.592 572.543C206.799 577.736 204.5 582.015 202.898 584.995C202.098 586.485 201.472 587.65 201.046 588.443L200.561 589.347L200.436 589.578L200.405 589.637L200.397 589.652L200.397 589.652L200.396 589.653L200.396 589.654Z" fill="#14C3AD" stroke="black" stroke-width="2.3"/>
<path d="M241.406 444.154C248.082 431.911 245.165 417.388 235.813 408.485L234.674 407.456C234.673 407.456 234.672 407.455 234.672 407.455C234.509 407.309 234.339 407.17 234.147 407.012C231.349 404.731 228.077 402.912 224.389 401.735L224.739 400.64L224.389 401.735L199.991 393.945L199.991 393.944L196.889 392.951L196.888 392.951L171.605 384.883L171.602 384.883L170.087 384.396L170.087 384.396L168.287 383.817L168.285 383.816L160.724 381.402C160.723 381.402 160.723 381.402 160.723 381.402C147.814 377.287 133.752 382.438 126.564 393.922L241.406 444.154ZM241.406 444.154L241.406 444.154L175.855 564.321L241.406 444.154ZM56.5755 505.787L126.564 393.922L175.854 564.321C173.298 569.001 169.651 572.74 165.381 575.364L165.38 575.364C157.472 580.231 147.434 581.284 138.329 577.45L138.329 577.45L97.0826 560.111L97.0812 560.111L96.0597 559.683L96.0584 559.682L70.2298 548.825L70.2289 548.824C67.7246 547.774 65.4554 546.425 63.4298 544.845C62.9553 544.474 62.4954 544.094 62.0451 543.7C54.6821 537.182 51.0658 527.371 52.294 517.735C52.8189 513.635 54.2154 509.563 56.5753 505.788C56.5754 505.787 56.5755 505.787 56.5755 505.787Z" fill="#0EE4CF" stroke="black" stroke-width="2.3"/>
<path opacity="0.4" d="M164.827 575.698C164.82 573.158 164.737 570.305 163.791 567.46C162.778 564.414 160.754 561.33 156.606 558.744C148.205 553.507 122.185 541.879 98.142 531.515C86.1468 526.345 74.6817 521.505 66.215 517.958C61.9818 516.184 58.4985 514.734 56.0736 513.727C54.9266 513.25 54.0164 512.873 53.3757 512.608C51.5662 517.81 51.8374 523.758 53.4521 529.285C55.1799 535.199 58.4054 540.487 62.0391 543.705C62.4893 544.098 62.9491 544.478 63.4236 544.849L164.827 575.698ZM164.827 575.698C157.007 580.281 147.22 581.201 138.324 577.455L138.323 577.455L97.0775 560.116L97.0761 560.116L96.0546 559.688L96.0533 559.687L70.2247 548.83L70.2238 548.829C67.719 547.779 65.4495 546.429 63.4236 544.849L164.827 575.698Z" fill="#14C3AD" stroke="black" stroke-width="2.3"/>
<path d="M63.4429 521.912C64.1443 520.754 133.729 405.81 140.796 396.418C146.357 389.034 163.125 385.36 169.481 384.202L63.4429 521.912ZM63.4429 521.912C63.3922 522 58.4431 532.39 63.0044 544.511L63.4429 521.912Z" fill="#14C3AD" stroke="black" stroke-width="2.3"/>
<mask id="path-84-inside-2_882_14518" fill="white">
<path d="M200.347 392.844C196.806 393.526 182.924 397.002 174.4 410.743C164.4 426.854 100.573 547.655 99.935 548.872L99.8911 548.96L99.8278 549.033C99.784 549.086 95.4295 555.221 97.6749 561.61L96.6374 561.176L95.6146 560.748C93.6857 554.102 97.8697 548.746 98.4786 548.001C100.456 544.266 163.041 425.837 172.963 409.857C180.313 398.015 191.477 393.482 197.244 391.851L200.347 392.844Z"/>
</mask>
<path d="M200.347 392.844C196.806 393.526 182.924 397.002 174.4 410.743C164.4 426.854 100.573 547.655 99.935 548.872L99.8911 548.96L99.8278 549.033C99.784 549.086 95.4295 555.221 97.6749 561.61L96.6374 561.176L95.6146 560.748C93.6857 554.102 97.8697 548.746 98.4786 548.001C100.456 544.266 163.041 425.837 172.963 409.857C180.313 398.015 191.477 393.482 197.244 391.851L200.347 392.844Z" fill="#14C3AD"/>
<path d="M174.4 410.743L176.354 411.956L176.354 411.955L174.4 410.743ZM99.935 548.872L97.8979 547.804L97.8876 547.824L97.8778 547.844L99.935 548.872ZM99.8911 548.96L101.629 550.466L101.819 550.248L101.948 549.988L99.8911 548.96ZM99.8278 549.033L98.0899 547.526L98.0686 547.551L98.048 547.576L99.8278 549.033ZM97.6749 561.61L96.7884 563.732L101.559 565.725L99.8448 560.847L97.6749 561.61ZM96.6374 561.176L95.7488 563.298L95.7509 563.299L96.6374 561.176ZM95.6146 560.748L93.4057 561.389L93.7121 562.444L94.7259 562.869L95.6146 560.748ZM98.4786 548.001L100.259 549.456L100.404 549.279L100.511 549.077L98.4786 548.001ZM172.963 409.857L174.917 411.07L174.917 411.07L172.963 409.857ZM197.244 391.851L197.945 389.66L197.285 389.449L196.618 389.638L197.244 391.851ZM199.912 390.586C196.148 391.31 181.477 394.971 172.445 409.53L176.354 411.955C184.37 399.034 197.463 395.742 200.781 395.103L199.912 390.586ZM172.446 409.53C162.388 425.734 98.5051 546.646 97.8979 547.804L101.972 549.94C102.641 548.664 166.412 427.975 176.354 411.956L172.446 409.53ZM97.8778 547.844L97.834 547.931L101.948 549.988L101.992 549.901L97.8778 547.844ZM98.1532 547.453L98.0899 547.526L101.566 550.539L101.629 550.466L98.1532 547.453ZM98.048 547.576C97.8491 547.819 96.6195 549.605 95.7205 552.19C94.8115 554.804 94.1464 558.507 95.505 562.372L99.8448 560.847C98.958 558.324 99.3474 555.765 100.065 553.701C100.793 551.608 101.763 550.3 101.608 550.49L98.048 547.576ZM98.5614 559.487L97.5239 559.054L95.7509 563.299L96.7884 563.732L98.5614 559.487ZM97.5261 559.055L96.5032 558.626L94.7259 562.869L95.7488 563.298L97.5261 559.055ZM97.8234 560.107C96.2423 554.659 99.6987 550.142 100.259 549.456L96.6977 546.545C96.0408 547.349 91.1292 553.545 93.4057 561.389L97.8234 560.107ZM100.511 549.077C102.528 545.269 165.05 426.961 174.917 411.07L171.009 408.643C161.032 424.712 98.3845 543.263 96.446 546.924L100.511 549.077ZM174.917 411.07C181.842 399.914 192.379 395.617 197.87 394.064L196.618 389.638C190.575 391.347 178.784 396.117 171.009 408.644L174.917 411.07ZM196.543 394.041L199.645 395.035L201.048 390.654L197.945 389.66L196.543 394.041Z" fill="black" mask="url(#path-84-inside-2_882_14518)"/>
<mask id="path-86-inside-3_882_14518" fill="white">
<path d="M236.595 407.636C236.493 407.651 231.573 408.191 226.503 410.606C221.427 413.022 215.163 417.404 210.283 425.267C200.288 441.374 138.76 562.661 138.141 563.879L138.093 563.976L138.024 564.054C137.976 564.107 134.352 571.591 136.602 577.979L134.006 576.889C132.579 571.319 136.027 563.815 136.68 563.031C138.648 559.156 198.929 440.356 208.846 424.376C218.173 409.345 232.007 406.541 234.875 406.117C235.065 406.273 235.255 406.429 235.44 406.594L236.595 407.636Z"/>
</mask>
<path d="M236.595 407.636C236.493 407.651 231.573 408.191 226.503 410.606C221.427 413.022 215.163 417.404 210.283 425.267C200.288 441.374 138.76 562.661 138.141 563.879L138.093 563.976L138.024 564.054C137.976 564.107 134.352 571.591 136.602 577.979L134.006 576.889C132.579 571.319 136.027 563.815 136.68 563.031C138.648 559.156 198.929 440.356 208.846 424.376C218.173 409.345 232.007 406.541 234.875 406.117C235.065 406.273 235.255 406.429 235.44 406.594L236.595 407.636Z" fill="#14C3AD"/>
<path d="M226.503 410.606L227.491 412.683L227.492 412.683L226.503 410.606ZM210.283 425.267L208.329 424.054L208.328 424.054L210.283 425.267ZM138.141 563.879L136.091 562.837L136.087 562.843L136.084 562.85L138.141 563.879ZM138.093 563.976L139.823 565.491L140.018 565.269L140.15 565.004L138.093 563.976ZM138.024 564.054L139.726 565.601L139.74 565.585L139.754 565.569L138.024 564.054ZM136.602 577.979L135.711 580.1L140.496 582.11L138.771 577.215L136.602 577.979ZM134.006 576.889L131.778 577.46L132.062 578.567L133.115 579.009L134.006 576.889ZM136.68 563.031L138.448 564.503L138.613 564.304L138.731 564.073L136.68 563.031ZM208.846 424.376L210.8 425.589L210.8 425.589L208.846 424.376ZM234.875 406.117L236.334 404.339L235.547 403.693L234.54 403.842L234.875 406.117ZM235.44 406.594L236.982 404.887L236.974 404.88L235.44 406.594ZM236.27 405.359C236.326 405.351 235.895 405.403 235.318 405.497C234.719 405.595 233.884 405.749 232.888 405.982C230.904 406.446 228.24 407.231 225.514 408.53L227.492 412.683C232.212 410.435 236.813 409.929 236.92 409.913L236.27 405.359ZM225.514 408.53C220.122 411.095 213.485 415.746 208.329 424.054L212.237 426.48C216.842 419.061 222.732 414.948 227.491 412.683L225.514 408.53ZM208.328 424.054C203.268 432.21 185.327 466.679 168.651 499.104C151.939 531.598 136.4 562.229 136.091 562.837L140.192 564.921C140.501 564.311 156.036 533.69 172.741 501.208C189.482 468.659 207.303 434.431 212.237 426.48L208.328 424.054ZM136.084 562.85L136.035 562.948L140.15 565.004L140.199 564.907L136.084 562.85ZM136.362 562.461L136.294 562.538L139.754 565.569L139.823 565.491L136.362 562.461ZM136.323 562.506C136.216 562.624 136.145 562.727 136.127 562.754C136.098 562.796 136.076 562.832 136.063 562.852C136.038 562.892 136.019 562.926 136.01 562.942C135.991 562.977 135.975 563.008 135.966 563.026C135.945 563.066 135.924 563.108 135.905 563.148C135.865 563.231 135.815 563.338 135.757 563.467C135.642 563.725 135.489 564.084 135.319 564.528C134.978 565.413 134.556 566.654 134.212 568.113C133.537 570.98 133.097 574.952 134.433 578.744L138.771 577.215C137.857 574.619 138.104 571.655 138.69 569.169C138.976 567.952 139.329 566.913 139.612 566.18C139.752 565.815 139.873 565.531 139.957 565.344C139.999 565.251 140.029 565.185 140.046 565.15C140.056 565.131 140.058 565.127 140.054 565.135C140.052 565.137 140.043 565.155 140.028 565.182C140.022 565.193 140.005 565.223 139.982 565.261C139.97 565.28 139.949 565.314 139.92 565.356C139.902 565.382 139.832 565.484 139.726 565.601L136.323 562.506ZM137.493 575.859L134.897 574.768L133.115 579.009L135.711 580.1L137.493 575.859ZM136.234 576.318C135.672 574.126 136.047 571.334 136.774 568.799C137.126 567.569 137.539 566.479 137.894 565.663C138.072 565.255 138.23 564.93 138.352 564.699C138.504 564.413 138.534 564.4 138.448 564.503L134.912 561.56C134.663 561.859 134.443 562.252 134.286 562.548C134.1 562.899 133.893 563.332 133.678 563.825C133.248 564.81 132.765 566.091 132.352 567.531C131.548 570.337 130.912 574.082 131.778 577.46L136.234 576.318ZM138.731 564.073C140.744 560.108 200.952 441.458 210.8 425.589L206.892 423.163C196.906 439.254 136.552 558.203 134.629 561.99L138.731 564.073ZM210.8 425.589C219.619 411.378 232.663 408.769 235.211 408.393L234.54 403.842C231.35 404.313 216.728 407.313 206.892 423.163L210.8 425.589ZM233.417 407.896C233.613 408.056 233.765 408.181 233.907 408.309L236.974 404.88C236.746 404.676 236.518 404.49 236.334 404.339L233.417 407.896ZM233.899 408.302L235.054 409.344L238.136 405.929L236.982 404.887L233.899 408.302Z" fill="black" mask="url(#path-86-inside-3_882_14518)"/>
<path d="M258.73 557.891L258.73 557.891L258.73 557.891L259.098 557.55V557.437L261.408 554.47L274.481 557.545C274.504 557.794 274.532 558.095 274.562 558.443C274.655 559.521 274.774 561.04 274.881 562.798C275.094 566.323 275.252 570.776 275.041 574.571L275.041 574.571C274.82 578.566 275.373 582.771 276.92 586.215C278.473 589.673 281.083 592.456 284.975 593.306C286.554 593.652 287.445 594.17 287.945 594.655C288.429 595.125 288.614 595.628 288.663 596.107C288.715 596.611 288.616 597.112 288.487 597.511C288.486 597.513 288.485 597.515 288.484 597.518H270.827C267.758 597.518 263.759 594.329 262.734 587.555C262.141 583.636 259.651 580.671 257.324 578.105C257.076 577.832 256.831 577.563 256.589 577.299C255.664 576.289 254.79 575.334 254.023 574.349C253.063 573.117 252.34 571.92 251.969 570.666L251.969 570.665C251.636 569.545 251.789 568.221 252.326 566.767C252.86 565.322 253.736 563.854 254.696 562.518C255.652 561.189 256.664 560.027 257.44 559.196C257.828 558.782 258.154 558.452 258.381 558.227C258.495 558.115 258.584 558.029 258.644 557.972C258.674 557.944 258.696 557.923 258.711 557.909L258.726 557.894L258.73 557.891L258.73 557.891ZM288.241 598.103L288.242 598.102C288.241 598.104 288.241 598.104 288.241 598.103Z" fill="#0EE4CF" stroke="black" stroke-width="2.3"/>
<path d="M368.662 597.511L368.655 597.605C368.655 597.605 368.655 597.605 368.655 597.605C368.662 597.511 368.662 597.511 368.662 597.511L368.664 597.511L368.67 597.512L368.695 597.513L368.793 597.52L369.181 597.548C369.52 597.571 370.019 597.605 370.655 597.648C371.927 597.732 373.747 597.85 375.94 597.98C380.325 598.241 386.196 598.554 392.141 598.762C398.092 598.971 404.097 599.074 408.76 598.919C411.095 598.841 413.061 598.699 414.502 598.481C415.226 598.371 415.78 598.247 416.168 598.118C416.471 598.017 416.58 597.942 416.597 597.933C416.974 597.407 417.076 596.818 416.911 596.134C416.732 595.397 416.231 594.532 415.354 593.626C413.609 591.825 410.589 590.091 406.768 589.127C405.794 588.971 404.742 588.833 403.646 588.69C400.601 588.292 397.213 587.85 394.202 586.827C389.971 585.391 386.213 582.742 384.589 577.367L384.587 577.36L384.585 577.353C384.49 577.023 384.395 576.676 384.315 576.317L368.662 597.511ZM368.662 597.511L368.636 597.596C368.483 597.518 368.32 597.435 368.147 597.346C367.09 596.807 366.409 595.865 366.006 594.558C365.595 593.227 365.498 591.588 365.59 589.824C365.682 588.07 365.956 586.27 366.238 584.641C366.312 584.218 366.387 583.8 366.46 583.396C366.659 582.289 366.841 581.281 366.917 580.535C366.945 580.281 366.969 580.065 366.989 579.893M368.662 597.511L366.989 579.893M366.989 579.893C367.087 579.818 367.203 579.73 367.337 579.631C367.8 579.284 368.466 578.799 369.273 578.248C370.894 577.143 373.056 575.794 375.269 574.773C377.522 573.732 379.655 573.115 381.277 573.275C382.056 573.352 382.671 573.603 383.148 574.036C383.627 574.471 384.058 575.174 384.315 576.317L366.989 579.893Z" fill="#0EE4CF" stroke="black" stroke-width="2.3"/>
<path d="M336.003 313.898L406.413 318.25L406.388 318.557C406.311 319.523 406.197 320.946 406.051 322.776C405.759 326.436 405.337 331.724 404.82 338.233C403.785 351.251 402.366 369.156 400.832 388.703C396.669 441.791 391.653 507.06 391.155 519.451L391.155 519.451C391.089 521.112 391.022 522.817 390.954 524.553C390.582 534.04 390.175 544.434 389.622 553.385C389.294 558.679 388.917 563.45 388.468 567.219C388.244 569.104 388.003 570.723 387.745 572.025C387.483 573.349 387.217 574.265 386.968 574.791C386.503 575.778 385.18 576.992 383.132 578.163C381.137 579.304 378.635 580.301 376.077 580.944C373.511 581.588 370.961 581.859 368.857 581.606C366.738 581.351 365.268 580.597 364.519 579.393C364.081 578.688 363.508 577.408 362.83 575.536C362.161 573.684 361.411 571.315 360.607 568.478C358.999 562.803 357.185 555.29 355.364 546.351C351.724 528.476 348.068 504.936 345.995 479.064C345.932 478.215 345.868 477.362 345.8 476.504C343.87 450.124 341.403 409.154 339.419 374.772C338.427 357.582 337.555 342.041 336.932 330.797C336.62 325.176 336.371 320.628 336.199 317.487C336.114 315.934 336.048 314.724 336.003 313.898ZM407.561 318.321C407.073 324.412 404.709 354.001 401.978 388.793C397.813 441.9 392.801 507.135 392.305 519.497L407.561 318.321Z" fill="white" stroke="black" stroke-width="2.3"/>
<path d="M336.204 317.487C336.119 315.934 336.053 314.724 336.008 313.898L406.413 318.25L406.388 318.557C406.311 319.523 406.197 320.946 406.051 322.776C405.759 326.436 405.337 331.724 404.82 338.233C403.79 351.188 402.38 368.983 400.854 388.419L345.739 475.599C343.818 449.194 341.385 408.763 339.424 374.772C338.432 357.582 337.56 342.041 336.937 330.797C336.625 325.176 336.376 320.628 336.204 317.487Z" fill="white" stroke="black" stroke-width="2.3"/>
<path d="M316.826 493.627L317.83 494.188L316.826 493.628C303.324 517.812 296.757 535.086 292.402 546.543C291.758 548.237 291.163 549.803 290.6 551.247C288.392 556.91 286.771 560.44 284.863 562.39C283.951 563.322 282.995 563.865 281.876 564.104C280.732 564.347 279.335 564.29 277.524 563.873C275.777 563.471 274.193 563.121 272.747 562.801C271.007 562.417 269.467 562.076 268.084 561.743C265.56 561.134 263.729 560.584 262.39 559.914C261.087 559.263 260.313 558.529 259.833 557.561C259.332 556.553 259.086 555.167 259.099 553.091C259.101 552.661 259.204 551.802 259.428 550.493C259.647 549.21 259.969 547.565 260.382 545.603C261.207 541.68 262.388 536.523 263.814 530.531C266.665 518.55 270.488 503.258 274.391 487.879C277.769 474.569 281.208 461.186 284.125 449.835C287.943 434.977 290.867 423.6 291.588 420.424C292.197 417.739 294.063 412.754 296.587 406.44C297.847 403.291 299.24 399.883 300.702 396.306C302.18 392.689 303.729 388.9 305.282 385.03C308.345 377.396 311.357 369.607 313.646 362.752C315.921 355.935 317.525 349.915 317.693 345.872C318.013 338.185 319.056 326.71 320.022 317.135C320.504 312.352 320.966 308.051 321.308 304.946C321.479 303.395 321.62 302.142 321.718 301.277L394.201 321.799C394.182 321.847 394.162 321.897 394.141 321.949C393.79 322.824 393.27 324.116 392.598 325.779C391.253 329.106 389.297 333.922 386.853 339.874C381.965 351.778 375.126 368.226 367.322 386.402C351.706 422.771 332.249 466.008 316.826 493.627Z" fill="white" stroke="black" stroke-width="2.3"/>
<path d="M435.863 294.08L442.793 290.119L444.938 294.392L445.209 294.932L445.805 295.015L445.805 295.015L445.806 295.015L445.807 295.015L445.807 295.015L445.827 295.018C445.846 295.021 445.877 295.026 445.919 295.034C446.004 295.049 446.134 295.073 446.3 295.11C446.634 295.183 447.115 295.303 447.683 295.49C448.826 295.865 450.289 296.497 451.628 297.523C452.959 298.543 454.156 299.941 454.82 301.868C455.481 303.785 455.648 306.321 454.769 309.68L454.767 309.687C454.754 309.721 454.734 309.774 454.707 309.842C454.652 309.979 454.568 310.178 454.456 310.412C454.228 310.887 453.9 311.479 453.484 312.004C453.06 312.539 452.604 312.929 452.143 313.114C451.731 313.279 451.239 313.315 450.585 312.993C449.016 312.219 448.506 311.836 447.955 311.421C447.878 311.363 447.8 311.305 447.719 311.244C446.952 310.678 445.991 310.056 443.249 308.788L443.248 308.788C438.103 306.414 435.563 302.079 436.559 298.451L436.629 298.196L436.581 297.936L435.863 294.08Z" fill="white" stroke="black" stroke-width="2.3"/>
<path d="M370.362 139.831L371.079 140.224C374.914 142.331 377.939 144.794 380.004 146.732C380.808 147.487 381.465 148.16 381.965 148.698C377.965 149.627 373.365 149.648 368.587 149.089C363.118 148.448 357.497 147.057 352.417 145.477C347.341 143.898 342.83 142.138 339.588 140.773C338.095 140.144 336.873 139.6 335.99 139.196C336.379 138.84 336.835 138.404 337.342 137.887C338.963 136.236 341.105 133.76 343.216 130.443C347.181 124.213 351.031 115.024 351.12 102.786L372.622 120.11C372.616 120.307 372.607 120.556 372.594 120.855C372.556 121.719 372.484 123.004 372.346 124.674C372.072 128.014 371.538 132.893 370.499 139.024L370.362 139.831Z" fill="white" stroke="black" stroke-width="2.3"/>
<path d="M379.182 118.008L379.143 118.014C379.09 118.023 379.008 118.035 378.901 118.051C378.686 118.082 378.368 118.125 377.96 118.175C377.144 118.273 375.971 118.394 374.552 118.48C371.709 118.654 367.909 118.69 364.04 118.15C360.158 117.609 356.292 116.501 353.249 114.447C350.244 112.419 348.015 109.454 347.355 105.069C346.919 102.176 346.407 99.3981 345.93 96.8115C345.627 95.1745 345.34 93.6141 345.094 92.1493C344.449 88.2982 344.08 85.0154 344.36 82.2325C344.635 79.4906 345.535 77.2921 347.403 75.5296C349.303 73.7377 352.316 72.2914 357.022 71.3092C366.531 69.3249 372.263 70.0284 375.867 71.7911C379.43 73.5337 381.123 76.4131 382.322 79.3487C382.872 80.6933 383.414 83.6964 383.769 87.6185C384.119 91.4881 384.275 96.1081 384.113 100.592C383.95 105.089 383.468 109.387 382.569 112.642C382.118 114.272 381.579 115.579 380.966 116.507C380.363 117.418 379.758 117.864 379.182 118.008Z" fill="white" stroke="black" stroke-width="2.3"/>
<path d="M345.589 103.547C344.666 102.23 343.512 100.459 342.325 98.381C340.171 94.6127 337.947 89.9071 336.777 85.145C335.604 80.3682 335.528 75.6844 337.468 71.8315C339.383 68.0271 343.391 64.7864 350.935 63.1317L350.935 63.1316C358.332 61.5074 365.646 60.0056 371.113 58.9096C373.846 58.3617 376.116 57.9154 377.703 57.6061C378.483 57.4541 379.097 57.3352 379.521 57.2536C380.084 57.9706 380.916 59.128 381.727 60.534C382.777 62.3546 383.749 64.5177 384.102 66.6347C384.453 68.7362 384.182 70.6818 382.901 72.2593C381.601 73.8611 379.092 75.2937 374.504 75.9695L374.504 75.9695C360.277 78.0671 352.919 85.6845 349.161 92.8186C347.293 96.3644 346.322 99.7724 345.817 102.293C345.727 102.739 345.652 103.159 345.589 103.547Z" fill="#0EE4CF" stroke="black" stroke-width="2.3"/>
<path d="M439.593 294.924L439.594 294.924L439.596 294.923L439.609 294.916C439.623 294.91 439.644 294.899 439.672 294.885C439.728 294.857 439.814 294.813 439.924 294.754C440.144 294.637 440.46 294.462 440.836 294.236C441.593 293.78 442.572 293.126 443.492 292.323C445.428 290.636 446.669 288.693 446.061 286.722C445.997 286.516 445.827 286.147 445.504 285.592C445.192 285.055 444.77 284.401 444.248 283.64C443.205 282.119 441.791 280.217 440.12 278.057C436.779 273.737 432.445 268.427 428.065 263.136C425.614 260.174 423.162 257.234 420.864 254.478C419.046 252.299 417.324 250.234 415.773 248.363C412.309 244.184 409.664 240.934 408.911 239.743L408.911 239.742C408.672 239.365 408.392 238.733 408.088 237.976C407.772 237.189 407.398 236.18 406.975 234.987C406.13 232.6 405.078 229.442 403.899 225.788C401.539 218.478 398.658 209.152 395.865 199.971C393.072 190.789 390.367 181.746 388.36 174.999C387.357 171.625 386.528 168.825 385.95 166.869C385.661 165.89 385.435 165.123 385.281 164.6L385.24 164.464L335.113 154.312C335.322 154.807 335.568 155.388 335.848 156.049C336.859 158.439 338.312 161.866 340.078 166.013C343.611 174.307 348.398 185.482 353.413 197.002C358.428 208.524 363.67 220.387 368.114 230.061C372.578 239.779 376.19 247.181 377.96 249.867L377.96 249.867C383.915 258.905 396.559 271.362 408.415 281.607C414.328 286.716 420.011 291.246 424.516 294.491C426.771 296.115 428.714 297.406 430.234 298.285C430.995 298.725 431.629 299.05 432.131 299.262C432.669 299.489 432.935 299.533 433.005 299.533C435.107 299.533 436.6 298.552 437.6 297.521C438.102 297.004 438.47 296.484 438.71 296.094C438.83 295.9 438.916 295.742 438.971 295.635C438.991 295.597 439.007 295.565 439.018 295.542C439.022 295.533 439.026 295.525 439.029 295.519L439.04 295.496L439.04 295.496L439.04 295.495L439.041 295.495L439.041 295.494L439.042 295.492L439.211 295.108L439.593 294.924ZM439.593 294.924L439.593 294.924L439.593 294.924Z" fill="#7060E1" stroke="black" stroke-width="2.3"/>
<path d="M407.98 237.46C408.437 248.116 408.807 258.86 408.899 269.045V269.405V269.454L408.903 269.504C408.986 270.458 408.987 271.512 408.987 272.535V272.544L408.987 272.552C409.172 285.645 409.172 297.381 409.068 305.885C409.017 310.139 408.939 313.578 408.847 315.973C408.8 317.172 408.75 318.097 408.699 318.727C408.683 318.925 408.667 319.085 408.653 319.211C408.366 319.385 408.07 319.471 407.757 319.472C405.955 319.449 403.34 319.678 400.237 319.995C399.296 320.091 398.306 320.195 397.274 320.304C394.866 320.558 392.227 320.837 389.426 321.091C381.425 321.816 372.231 322.327 363.836 321.464L363.828 321.464C349.648 320.102 337.077 315.907 323.503 309.825C322.635 309.436 321.217 308.714 320.049 307.868C319.462 307.443 318.984 307.02 318.669 306.626C318.341 306.217 318.292 305.972 318.297 305.87L318.297 305.859L318.298 305.848C318.359 303.719 318.566 300.645 318.829 296.742L318.851 296.419L318.851 296.417L318.873 296.102C319.84 281.982 321.494 257.868 319.86 230.074C319.564 224.895 319.413 219.76 319.394 214.702C319.324 195.847 321.128 178.12 324.81 163.734C328.484 149.38 333.973 138.564 341.129 133.144C341.16 133.143 341.203 133.145 341.258 133.149C341.505 133.17 341.869 133.243 342.36 133.386C343.336 133.671 344.635 134.179 346.163 134.847C348.889 136.04 352.213 137.681 355.494 139.301C355.882 139.492 356.268 139.683 356.653 139.873L356.653 139.873C360.282 141.662 363.818 141.71 366.892 141.569C367.395 141.545 367.878 141.518 368.344 141.491C369.335 141.435 370.253 141.382 371.149 141.385C372.444 141.389 373.552 141.514 374.515 141.872C376.626 142.657 378.597 144.072 380.069 145.331C380.798 145.955 381.389 146.527 381.797 146.942C382 147.149 382.157 147.317 382.261 147.43C382.314 147.487 382.353 147.53 382.378 147.559L382.406 147.59L382.411 147.596L382.412 147.597L382.412 147.597L382.412 147.597L382.412 147.597L382.452 147.643L382.497 147.684C390.144 154.784 398.43 164.347 402.031 178.84L402.031 178.841C405.131 191.308 406.966 213.909 407.98 237.46ZM407.98 237.46L409.129 237.41M407.98 237.46C407.98 237.46 407.98 237.46 407.98 237.46L409.129 237.41M409.129 237.41C409.586 248.073 409.957 258.834 410.049 269.039L403.147 178.563C406.279 191.159 408.115 213.873 409.129 237.41ZM341.063 133.147C341.061 133.147 341.06 133.148 341.06 133.148C341.06 133.148 341.061 133.147 341.063 133.147Z" fill="#8870F9" stroke="black" stroke-width="2.3"/>
<path d="M317.703 296.34C318.668 282.269 320.353 258.065 318.711 230.141C318.414 224.941 318.263 219.784 318.244 214.706C324.527 199.471 329.661 188.418 329.661 188.418H345.501C345.501 188.418 357.113 267.7 317.703 296.335V296.34Z" fill="#7060E1"/>
<path d="M285.284 301.746L282.891 305.871L282.588 306.393L282.845 306.937L282.845 306.938L282.846 306.938L282.846 306.939L282.846 306.94L282.854 306.957C282.862 306.975 282.875 307.004 282.892 307.043C282.926 307.122 282.976 307.244 283.037 307.403C283.159 307.723 283.322 308.19 283.477 308.768C283.789 309.929 284.061 311.499 283.937 313.18C283.813 314.852 283.298 316.619 282.05 318.231C280.808 319.835 278.777 321.365 275.484 322.471L275.476 322.472C275.441 322.481 275.386 322.493 275.313 322.507C275.168 322.537 274.956 322.575 274.699 322.61C274.177 322.681 273.502 322.731 272.834 322.671C272.154 322.609 271.577 322.442 271.169 322.158C270.805 321.904 270.504 321.511 270.415 320.787C270.199 319.047 270.241 318.412 270.286 317.723C270.292 317.628 270.298 317.532 270.304 317.432C270.358 316.481 270.352 315.338 269.909 312.351C269.079 306.749 271.315 302.248 274.891 301.096L275.143 301.015L275.334 300.832L278.168 298.12L285.284 301.746Z" fill="white" stroke="black" stroke-width="2.3"/>
<path d="M281.206 302.021C281.818 302.176 282.381 302.332 282.903 302.479C283.004 302.508 283.102 302.536 283.199 302.563C284.14 302.83 284.907 303.047 285.633 303.181C287.118 303.455 288.389 303.378 290.241 302.343C290.238 302.344 290.236 302.345 290.236 302.345C290.236 302.345 290.28 302.315 290.366 302.22C290.462 302.114 290.581 301.958 290.722 301.742C291.006 301.309 291.333 300.703 291.699 299.926C292.43 298.377 293.265 296.256 294.17 293.725C295.977 288.669 298.023 282.082 300.012 275.397C301.418 270.675 302.791 265.917 304.029 261.627C304.543 259.846 305.034 258.146 305.494 256.562C306.277 253.866 306.973 251.506 307.541 249.669C308.1 247.863 308.559 246.483 308.869 245.805L281.206 302.021ZM281.206 302.021L281.263 301.963L279.142 301.551C277.965 301.322 277.124 301.241 276.476 301.187C276.424 301.182 276.374 301.178 276.326 301.174C275.748 301.126 275.447 301.101 275.153 301.021C274.587 300.867 273.949 300.475 271.869 298.513C271.816 298.462 271.681 298.283 271.537 297.844C271.399 297.423 271.283 296.854 271.198 296.128C271.03 294.678 271.004 292.737 271.117 290.397C271.344 285.726 272.114 279.613 273.289 272.965C275.641 259.655 279.583 244.362 283.899 234.391C286.523 228.329 298.421 203.752 310.875 180.6C317.101 169.026 323.452 157.835 328.841 149.505C331.538 145.337 333.975 141.916 336.019 139.528C337.043 138.332 337.943 137.426 338.705 136.818C339.504 136.182 340.005 135.994 340.247 135.977C344.272 135.698 348.026 138.797 350.299 145.865C352.554 152.874 353.165 163.38 351.075 176.794C349.017 190.001 339.154 205.931 329.373 219.292C324.503 225.943 319.694 231.904 315.957 236.513C315.753 236.765 315.552 237.012 315.355 237.256C313.746 239.24 312.353 240.956 311.278 242.333C310.675 243.106 310.162 243.784 309.763 244.35C309.376 244.898 309.053 245.4 308.869 245.804C308.869 245.804 308.869 245.804 308.869 245.804L281.206 302.021Z" fill="#8870F9" stroke="black" stroke-width="2.3"/>
<path d="M369 109.776C371.57 110.429 374.223 109.597 375 108" stroke="black" stroke-width="2" stroke-miterlimit="10"/>
</svg>
