<svg width="844" height="611" viewBox="0 0 844 611" fill="none" xmlns="http://www.w3.org/2000/svg">
<path d="M634.488 129.39C634.488 129.39 635.878 125.463 640.541 124.059C644.697 122.811 648.556 125.252 649.713 129.097C651.053 133.549 648.732 139.994 639.973 147.62C628.459 146.089 622.971 141.997 621.63 137.542C620.473 133.693 622.343 129.531 626.498 128.282C631.158 126.882 634.485 129.39 634.485 129.39H634.488Z" fill="#8870F9"/>
<path d="M600.659 141.483C604.892 140.926 608.268 140.259 611.556 139.451C612.638 139.183 614.596 139.042 615.118 137.927C615.39 137.349 615.305 136.745 614.748 136.361C613.729 135.655 612.183 136.414 611.09 136.682C607.76 137.5 603.954 138.269 600.063 138.82C599.332 138.922 598.877 139.768 599.029 140.449C599.202 141.222 599.925 141.582 600.659 141.483Z" fill="#8870F9"/>
<path d="M658.335 136.389C659.933 136.026 661.524 135.63 663.118 135.239C664.642 134.865 666.509 134.692 667.824 133.821C668.794 133.175 668.547 131.74 667.327 131.609C665.75 131.443 664.039 132.142 662.512 132.519C660.921 132.914 659.326 133.302 657.739 133.722C656.046 134.17 656.614 136.777 658.332 136.385L658.335 136.389Z" fill="#8870F9"/>
<path d="M620.442 158.763C621.627 154.922 623.811 153.296 625.359 151.557C626.188 150.625 625.278 149.288 624.107 149.779C620.893 151.116 618.787 154.798 617.846 157.98C617.348 159.656 619.93 160.443 620.445 158.767L620.442 158.763Z" fill="#8870F9"/>
<path d="M640.859 162.717C640.397 161.087 640.256 159.415 640.492 157.733C640.637 156.703 641.9 153.62 639.907 153.584C638.03 153.549 637.786 156.678 637.659 158.004C637.494 159.782 637.681 161.602 638.185 163.313C638.679 164.996 641.342 164.421 640.859 162.717Z" fill="#8870F9"/>
<path d="M651.942 149.409C652.983 149.84 654.027 150.267 655.068 150.697C656.108 151.124 657.181 151.854 658.288 151.332C658.913 151.039 659.008 150.319 658.789 149.744C658.394 148.7 656.825 148.408 655.872 148.023C654.828 147.6 653.784 147.18 652.74 146.757C652.045 146.474 651.212 147.011 651.011 147.681C650.778 148.453 651.24 149.124 651.935 149.409H651.942Z" fill="#8870F9"/>
<path d="M621.165 122.271C615.81 114.948 615.866 114.888 615.02 114.384C614.152 113.865 612.984 114.645 613.224 115.661C613.464 116.666 613.443 116.497 619.105 124.183C619.556 124.794 620.576 124.734 621.087 124.257C621.697 123.693 621.609 122.889 621.161 122.275L621.165 122.271Z" fill="#8870F9"/>
<path d="M635.685 118.666C635.889 117.184 635.932 115.699 635.815 114.207C635.706 112.821 635.727 110.683 634.267 110.055C633.953 109.921 633.455 110.044 633.229 110.295C632.284 111.335 632.958 113.096 633.053 114.373C633.155 115.766 633.109 117.174 632.972 118.563C632.901 119.294 633.575 119.946 634.277 119.971C635.071 119.999 635.586 119.392 635.685 118.666Z" fill="#8870F9"/>
<path d="M656.532 115.038C656.62 114.361 655.978 113.895 655.393 113.811C654.19 113.641 653.005 115.056 652.214 115.822C651.294 116.714 650.468 117.695 649.703 118.725C649.262 119.317 649.558 120.245 650.147 120.612C650.839 121.039 651.569 120.746 652.035 120.167C655.065 116.382 656.317 116.71 656.532 115.038Z" fill="#8870F9"/>
<path d="M578.212 35.3491C577.937 31.3735 580.935 27.9235 584.911 27.6484C588.886 27.3732 592.333 30.3717 592.611 34.3472C592.887 38.3228 589.888 41.7692 585.913 42.0479C581.937 42.3231 578.491 39.3246 578.212 35.3491Z" fill="#F7CC7F"/>
<path d="M590.452 55.7286C590.022 53.6332 589.761 51.3932 589.045 49.3754C588.431 47.6399 585.722 48.169 585.86 50.0351C586.029 52.3174 586.741 54.6315 587.218 56.868C587.412 57.7746 588.608 58.1944 589.401 57.9157C590.371 57.577 590.636 56.6422 590.449 55.7321L590.452 55.7286Z" fill="#F7CC7F"/>
<path d="M602.82 46.7887C600.428 45.3776 598.343 43.6315 596.135 41.963C594.41 40.6613 592.551 42.9013 593.969 44.4499C596.005 46.6758 598.679 48.4114 601.261 49.9353C602.076 50.4185 603.215 49.9458 603.614 49.1416C604.062 48.2385 603.638 47.272 602.82 46.7887Z" fill="#F7CC7F"/>
<path d="M598.29 33.8668C597.747 34.3007 597.641 34.9251 597.976 35.5318C598.784 36.9993 600.837 36.9252 602.298 36.8758C603.818 36.8229 605.342 36.516 606.781 36.0222C608.908 35.2955 607.755 31.9937 605.621 32.7239C601.444 34.149 599.864 32.6039 598.294 33.8633L598.29 33.8668Z" fill="#F7CC7F"/>
<path d="M595.99 19.8344C593.888 22.907 592.174 23.9441 592.442 25.6373C592.597 26.625 593.38 27.0977 594.336 26.8825C595.465 26.625 596.079 25.4292 596.756 24.5896C597.405 23.7853 598.04 22.9775 598.622 22.1203C599.148 21.3407 599.222 20.3354 598.453 19.6651C597.807 19.1042 596.53 19.0549 595.998 19.8344H595.99Z" fill="#F7CC7F"/>
<path d="M587.807 19.3022C587.136 17.4397 586.988 16.7624 586.117 15.8946C585.359 15.1432 583.761 15.623 583.655 16.7306C583.531 18.0217 583.803 18.505 584.508 20.4593C584.829 21.3482 585.842 21.8421 586.738 21.5281C587.627 21.2177 588.128 20.1912 587.807 19.2987V19.3022Z" fill="#F7CC7F"/>
<path d="M578.966 23.8098C575.939 21.5099 575.322 20.8608 574.133 20.9878C573.435 21.0619 572.652 21.7321 572.807 22.5152C573.089 23.9686 573.936 24.3637 576.719 26.3956C577.467 26.9388 578.493 26.967 579.135 26.2262C579.71 25.5631 579.707 24.3707 578.966 23.8098Z" fill="#F7CC7F"/>
<path d="M566.803 34.3546C565.611 34.9861 566.091 37.0497 567.382 37.219C568.62 37.3813 569.1 37.1838 575.111 36.0832C576.039 35.9138 576.804 35.2365 576.734 34.2171C576.674 33.3528 575.802 32.4251 574.871 32.5944C568.627 33.7197 568.003 33.7162 566.807 34.3511L566.803 34.3546Z" fill="#F7CC7F"/>
<path d="M576.222 44.1889C572.927 47.3778 572.444 46.8134 571.142 48.7641C570.546 49.6566 571.526 51.0782 572.564 50.8877C573.893 50.6443 574.25 50.4185 575.982 49.0463C576.987 48.2491 577.95 47.3919 578.878 46.5029C579.562 45.8433 579.379 44.6016 578.705 44.016C577.936 43.3458 576.906 43.5257 576.218 44.1889H576.222Z" fill="#F7CC7F"/>
<path d="M324.773 28L321.828 33.2737L312.548 29.6169L307.259 36.8145L299.855 35.1805L299 38.8134L308.906 41L313.917 34.1811L323.57 37.9845L328 30.0467L324.773 28Z" fill="#50BFA5"/>
<path d="M639.1 36.9457L636.722 43.2357L641.952 46.3614L638.75 53.3784L645.999 54.8604L642.748 62.8433L649 65.0067L647.21 72.8103L643.918 73L645.251 67.163L638.657 64.8837L641.783 57.21L634.413 55.7033L637.944 47.9593L632.838 44.9074L635.04 39.0774L631 37.8272L632.81 35L639.1 36.9457Z" fill="#14C3AD"/>
<path d="M285.096 92.8037C289.203 100.072 286.446 109.184 278.939 113.158C271.431 117.133 262.013 114.462 257.904 107.196C253.797 99.928 256.554 90.8164 264.061 86.8419C271.569 82.8674 280.989 85.538 285.096 92.8037Z" fill="#8870F9"/>
<path d="M266 105.78C268.118 109.709 272.972 111.152 276.843 109.005C280.714 106.855 282.136 101.93 280.018 98L266 105.782V105.78Z" fill="white"/>
<path d="M739.71 110.202C742.492 115.048 740.625 121.122 735.539 123.772C730.453 126.422 724.074 124.641 721.29 119.798C718.508 114.952 720.375 108.878 725.461 106.228C730.547 103.578 736.928 105.359 739.71 110.202Z" fill="#0EE4CF"/>
<path d="M727 118.835C728.412 121.782 731.648 122.864 734.229 121.254C736.81 119.641 737.757 115.947 736.345 113L727 118.837V118.835Z" fill="white"/>
<path d="M544.172 86.2023L536.165 88.1328L531.525 76.0578L519.459 77.4859L514.455 69L510 71.4432L516.693 82.7956L528.126 81.4398L532.956 94L545 91.0991L544.172 86.2023Z" fill="#0EE4CF"/>
<path d="M173.879 36.014L179.711 34.2266C179.711 34.2266 185.442 26.633 185.085 24.6352C184.725 22.6374 182.275 18.8912 183.265 18.0495C184.255 17.2077 186.56 16.1036 188.868 18.2235C190.543 19.7615 191.672 26.8122 192.499 27.0694C193.017 27.2305 196.397 26.2952 198.857 25.5756C200.474 25.1002 202.232 25.5574 203.419 26.7577H203.422C204.225 27.5734 204.35 28.8256 203.721 29.7634L202.741 31.2235L204.182 32.2834C205.255 33.0732 205.49 34.5644 204.708 35.6217L203.913 36.6999L204.863 37.2948C206.084 38.0612 206.373 39.7004 205.479 40.8123L204.753 41.7138L204.967 41.9268C205.858 42.8101 205.924 44.2104 205.121 45.156L204.382 46.0263L188.849 50.7831C187.395 51.2299 185.858 51.3754 184.338 51.2118L178.585 51.9885C177.966 52.0717 177.377 51.695 177.195 51.1027L173.055 37.5572C172.855 36.9025 173.22 36.2166 173.879 36.014Z" fill="#FAE0B2"/>
<path d="M472.416 4.5429L465.525 4L464.586 10.2299L457.778 9.98525L456.129 15.8298L451 16.4631L451.329 19L458.186 18.1555L459.749 12.616L466.832 12.8673L467.757 6.74129L474 7.23391L472.416 4.5429Z" fill="#0EE4CF"/>
<path d="M273.869 158.294L270.323 162.357L271.569 167.662C271.671 168.089 271.249 168.453 270.856 168.274L265.998 166.064L261.471 168.921C261.104 169.15 260.641 168.851 260.685 168.413L261.229 162.985L257.183 159.446C256.855 159.16 256.99 158.615 257.409 158.521L262.603 157.375L264.63 152.329C264.794 151.923 265.34 151.883 265.556 152.265L268.223 156.985L273.521 157.404C273.95 157.439 274.153 157.963 273.867 158.289L273.869 158.294Z" fill="#FED333"/>
<path d="M446.59 99.1079L440.863 100.868L439.065 106.589C438.921 107.053 438.307 107.148 438.029 106.751L434.585 101.842L428.591 101.898C428.106 101.902 427.829 101.35 428.117 100.963L431.716 96.1667L429.809 90.4811C429.655 90.0208 430.094 89.585 430.554 89.7432L436.225 91.6864L441.039 88.1162C441.428 87.828 441.98 88.1092 441.969 88.5941L441.874 94.5889L446.755 98.0678C447.149 98.3489 447.05 98.9603 446.587 99.1044L446.59 99.1079Z" fill="#FED333"/>
<path d="M99 108.5C99 109.328 94.2999 110 88.5 110C82.7001 110 78 109.328 78 108.5C78 107.672 82.7001 107 88.5 107C94.2999 107 99 107.672 99 108.5Z" fill="#13A48F"/>
<path d="M405 9.19238L384 16L391.953 0L405 9.19238Z" fill="#50BFA5"/>
<path d="M88.5 75C83.8061 75 80 78.5781 80 82.9911C80 87.4041 88.5 109 88.5 109C88.5 109 97 87.4041 97 82.9911C97 78.5781 93.1939 75 88.5 75ZM88.5 87.6317C86.5082 87.6317 84.8946 85.9322 84.8946 83.8341C84.8946 81.736 86.5082 80.0364 88.5 80.0364C90.4918 80.0364 92.1054 81.736 92.1054 83.8341C92.1054 85.9322 90.4918 87.6317 88.5 87.6317Z" fill="#0EE4CF"/>
<path d="M192 106L165.687 131L155 112.744L192 106Z" fill="#14C3AD"/>
<path d="M154 105L154.293 113L192 106.628L154 105Z" fill="#0EE4CF"/>
<path d="M154 115.537L192 106L154.032 128L154 115.537Z" fill="#0EE4CF"/>
<path d="M126.007 144.921C126.06 144.408 126.518 144.035 127.029 144.085C127.086 144.09 132.972 144.632 141.033 141.598C148.974 138.608 152.897 131.603 153.155 130.735C153.265 130.24 153.749 129.919 154.249 130.018C154.755 130.12 155.083 130.612 154.982 131.118C154.718 132.442 150.227 140.133 141.689 143.347C133.185 146.548 127.094 145.969 126.839 145.943C126.325 145.891 125.953 145.432 126.005 144.919L126.007 144.921Z" fill="#F7CC7F"/>
<path d="M87.0039 146.995C98.192 146.984 109.274 145.057 119.946 141.266C128.736 138.143 136.493 132.247 145.295 129.877C145.801 129.741 146.103 129.217 145.968 128.709C145.833 128.2 145.311 127.897 144.806 128.032C135.693 130.487 127.986 136.383 119.313 139.466C108.845 143.185 97.9749 145.078 87.0012 145.089C82.9692 145.091 78.3176 144.455 73.1736 143.198C72.6627 143.073 72.1517 143.387 72.0273 143.901C71.9029 144.412 72.2153 144.929 72.7262 145.054C77.2931 146.172 82.2835 147.003 87.0039 147V146.995Z" fill="#F7CC7F"/>
<mask id="path-38-inside-1_1074_18793" fill="white">
<path d="M827.329 600.001H0.67067C0.301009 600.001 0 599.777 0 599.502C0 599.227 0.30365 599.001 0.67067 599.001H827.329C827.699 599.001 828 599.227 828 599.502C828 599.777 827.699 600.001 827.329 600.001Z"/>
</mask>
<path d="M827.329 600.001H0.67067C0.301009 600.001 0 599.777 0 599.502C0 599.227 0.30365 599.001 0.67067 599.001H827.329C827.699 599.001 828 599.227 828 599.502C828 599.777 827.699 600.001 827.329 600.001Z" fill="#283250"/>
<path d="M827.329 598.001H0.67067V602.001H827.329V598.001ZM0.67067 598.001C0.874802 598.001 1.13533 598.06 1.39057 598.25C1.64475 598.439 2 598.859 2 599.502H-2C-2 600.419 -1.49424 601.089 -0.997148 601.459C-0.498987 601.83 0.0968769 602.001 0.67067 602.001V598.001ZM2 599.502C2 600.149 1.64136 600.567 1.3937 600.751C1.14252 600.939 0.882566 601.001 0.67067 601.001V597.001C0.091754 597.001 -0.503532 597.176 -0.998293 597.545C-1.48954 597.912 -2 598.58 -2 599.502H2ZM0.67067 601.001H827.329V597.001H0.67067V601.001ZM827.329 601.001C827.121 601.001 826.859 600.94 826.605 600.75C826.353 600.561 826 600.142 826 599.502H830C830 598.586 829.496 597.917 829.001 597.547C828.504 597.175 827.907 597.001 827.329 597.001V601.001ZM826 599.502C826 598.859 826.355 598.439 826.609 598.25C826.865 598.06 827.125 598.001 827.329 598.001V602.001C827.903 602.001 828.499 601.83 828.997 601.459C829.494 601.089 830 600.42 830 599.502H826Z" fill="black" mask="url(#path-38-inside-1_1074_18793)"/>
<path d="M747.697 510.247C747.697 510.247 733.528 493.722 746.825 483.224C746.825 483.224 756.538 477.347 764.458 477.825C764.458 477.825 753.235 496.634 756.869 498.503C760.498 500.373 767.862 476.641 767.862 476.641C767.862 476.641 789.961 474.499 797.073 477.917C797.073 477.917 778.179 493.371 782.158 494.292C786.138 495.212 806.546 480.04 806.546 480.04C806.546 480.04 827.116 483.541 826.02 496.083C824.924 508.626 817.837 512.502 814.719 512.166C811.607 511.835 793.381 504.877 792.986 507.428C792.587 509.98 803.556 518.32 811.237 518.71C811.237 518.71 796.736 534.695 787.097 530.084C777.458 525.468 776.635 518.155 770.629 515.413C764.623 512.672 759.494 512.677 761.974 515.477C764.453 518.276 775.324 520.993 778.763 527.07C782.197 533.146 785.28 537.241 775.31 535.742C765.339 534.242 749.129 526.948 748.418 518.598L747.707 510.247H747.697Z" fill="#BAFBEE"/>
<path d="M815.903 496.424C815.903 496.424 760.035 494.272 747.697 510.242C747.697 510.242 744.97 518.413 736.572 525.853L735.262 529.417C735.262 529.417 744.945 519.211 748.409 518.598C748.409 518.598 742.992 498.81 815.903 496.424Z" fill="#BAFBEE"/>
<path d="M736.572 525.853C736.572 525.853 724.58 534.719 723.748 550.558L725.925 550.753C725.925 550.753 729.753 534.374 736.68 527.971C743.601 521.568 736.577 525.853 736.577 525.853H736.572Z" fill="#BAFBEE"/>
<path d="M698.156 489.467C698.156 489.467 720.699 476.851 710.178 459.727C710.178 459.727 701.761 449.215 692.745 446.507C692.745 446.507 697.553 472.046 692.745 472.644C687.938 473.243 689.438 443.805 689.438 443.805C689.438 443.805 665.697 432.387 656.38 433.288C656.38 433.288 671.104 458.222 666.297 457.623C661.489 457.025 644.957 431.788 644.957 431.788C644.957 431.788 620.613 427.28 616.707 441.702C612.8 456.124 619.113 463.33 622.717 464.236C626.322 465.136 649.463 464.835 648.864 467.839C648.26 470.843 632.634 475.649 623.92 472.946C623.92 472.946 633.54 496.678 646.161 495.48C658.786 494.277 662.692 486.468 670.505 485.869C678.318 485.27 684.031 487.368 680.12 489.472C676.213 491.575 662.989 490.163 656.677 495.524C650.364 500.885 645.255 504.191 656.979 506.596C668.703 509.001 689.735 507.497 693.943 498.484L698.152 489.472L698.156 489.467Z" fill="#0EE4CF"/>
<path d="M627.832 446.206C627.832 446.206 690.943 466.636 698.156 489.467C698.156 489.467 697.854 499.683 704.167 511.397V515.906C704.167 515.906 697.557 500.583 693.948 498.48C693.948 498.48 708.073 478.653 627.832 446.206Z" fill="#43FFE3"/>
<path d="M704.167 511.397C704.167 511.397 713.899 526.17 708.351 544.156L705.847 543.484C705.847 543.484 708.278 523.677 703.188 513.71C698.098 503.748 704.167 511.397 704.167 511.397Z" fill="#43FFE3"/>
<path d="M734.015 472.065C734.015 472.065 704.303 455.432 718.17 432.859C718.17 432.859 729.261 418.997 741.146 415.433C741.146 415.433 734.809 449.093 741.146 449.886C747.483 450.68 745.505 411.869 745.505 411.869C745.505 411.869 776.8 396.819 789.084 398.007C789.084 398.007 769.674 430.878 776.011 430.084C782.348 429.29 804.14 396.025 804.14 396.025C804.14 396.025 836.229 390.085 841.377 409.094C846.526 428.102 838.206 437.607 833.453 438.795C828.699 439.983 798.193 439.588 798.987 443.547C799.781 447.505 820.379 453.845 831.87 450.281C831.87 450.281 819.191 481.564 802.552 479.982C785.914 478.399 780.765 468.101 770.463 467.308C760.162 466.514 752.636 469.289 757.785 472.06C762.933 474.83 780.366 472.97 788.685 480.04C797.004 487.11 803.741 491.468 788.29 494.633C772.84 497.802 745.111 495.821 739.563 483.94L734.015 472.06V472.065Z" fill="#0EE4CF"/>
<path d="M826.716 415.039C826.716 415.039 743.523 441.97 734.015 472.065C734.015 472.065 734.41 485.528 726.09 500.973V506.913C726.09 506.913 734.804 486.716 739.558 483.946C739.558 483.946 720.937 457.809 826.711 415.039H826.716Z" fill="#8CFFEB"/>
<path d="M726.09 500.973C726.09 500.973 713.26 520.449 720.576 544.156L723.879 543.27C723.879 543.27 720.674 517.158 727.386 504.026C734.098 490.894 726.09 500.973 726.09 500.973Z" fill="#8CFFEB"/>
<path d="M790.103 538.483C789.516 569.498 764.18 594.463 733.012 594.463C701.844 594.463 676.507 569.498 675.921 538.483H790.103Z" fill="#8870F9" stroke="black" stroke-width="2.2"/>
<path d="M747.337 595.12C744.97 595.417 742.554 595.563 740.104 595.563C707.961 595.563 683.543 571.633 683.543 539.502H698C698 569.188 718.604 591.561 747.332 595.12H747.337Z" fill="#C9C2FB"/>
<path d="M792.017 598.524H674.007C674.007 594.56 677.222 591.347 681.186 591.347H784.832C788.797 591.347 792.012 594.56 792.012 598.524H792.017Z" fill="#8870F9" stroke="black" stroke-width="2.3"/>
<path d="M636.684 589.715C637.192 590.312 637.639 590.833 638.01 591.264L633.54 592.553L613.129 575.288L594.088 548.31L607.425 545.012L619.1 566.565L619.101 566.566C621.36 570.72 626.417 577.265 630.842 582.703C633.067 585.438 635.153 587.918 636.684 589.715Z" fill="white" stroke="black" stroke-width="2.3"/>
<path d="M549.351 208.146C548.789 211.451 547.952 214.452 546.817 217.022C547.35 214.483 547.809 211.384 548.127 207.597L545.84 207.355C545.788 207.765 545.386 210.716 544.471 214.333C543.569 217.901 542.197 221.997 540.241 224.961C531.327 230.872 518.539 243.384 508.067 255.294C502.782 261.304 498.054 267.199 494.682 272.064C492.998 274.494 491.634 276.692 490.709 278.533C490.29 279.366 489.952 280.144 489.714 280.852C489.421 280.578 489.089 280.27 488.723 279.929C487.175 278.489 484.999 276.474 482.426 274.109L481.244 267.001L480.652 263.441L479.075 266.687C478.652 267.559 478.456 268.711 478.358 269.776C478.341 269.962 478.327 270.15 478.315 270.339C468.672 261.532 455.907 250.088 448.48 244.341C449.437 241.56 451.263 237.593 451.72 236.6C451.774 236.481 451.809 236.405 451.821 236.379L452.794 234.163L450.462 234.808C449.661 235.029 448.918 235.528 448.272 236.088C447.613 236.659 446.978 237.361 446.396 238.086C446.373 238.114 446.35 238.143 446.327 238.172C446.969 236.533 447.914 234.523 449.298 232.282C453.041 226.218 460.014 218.423 472.938 211.73L472.938 211.73C475.075 210.623 477.091 209.626 478.993 208.684C480.148 208.112 481.262 207.561 482.335 207.019C485.148 205.598 487.657 204.251 489.727 202.826C491.799 201.401 493.497 199.855 494.634 198.009C495.786 196.139 496.323 194.024 496.172 191.543L496.172 191.542C495.903 187.164 496.788 175.383 500.965 166.015C503.05 161.338 505.896 157.398 509.694 155.214C513.436 153.062 518.276 152.514 524.615 154.956L525.034 155.117L525.449 154.953L525.45 154.953L525.45 154.952L525.451 154.952L525.451 154.952L525.463 154.948C525.475 154.943 525.495 154.936 525.522 154.926C525.576 154.906 525.659 154.877 525.766 154.842C525.898 154.798 526.065 154.747 526.257 154.694L528.895 154.539C529.121 154.526 529.353 154.515 529.591 154.507L529.732 154.528L529.748 154.502C532.585 154.423 536.19 154.769 539.218 156.44L539.221 156.442L539.356 156.519C540.309 157.06 541.378 158.23 542.475 160.069C543.557 161.883 544.601 164.237 545.555 166.996C547.463 172.512 548.972 179.535 549.722 186.829C550.473 194.125 550.458 201.639 549.351 208.146Z" fill="#8870F9" stroke="black" stroke-width="2.3"/>
<path d="M525.399 227.981L525.4 227.981C528.304 228.775 531.801 228.182 534.679 227.303C536.096 226.87 537.317 226.383 538.175 226.003C538.235 225.976 538.293 225.95 538.348 225.925C538.31 225.822 538.274 225.718 538.241 225.614C538.025 224.931 537.874 224.07 537.765 223.13C537.545 221.238 537.475 218.818 537.482 216.375C537.482 216.374 537.482 216.374 537.482 216.374L538.632 216.377C538.647 210.593 539.09 204.448 539.09 204.448L525.399 227.981ZM525.399 227.981C522.721 227.25 520.405 225.103 518.716 222.992C517.886 221.954 517.238 220.963 516.805 220.235C516.781 220.195 516.758 220.155 516.736 220.117C517.096 219.866 517.421 219.536 517.704 219.115C518.266 218.277 518.633 217.127 518.892 215.65C519.379 212.879 519.558 208.514 519.557 201.753L537.876 205.38L525.399 227.981Z" fill="white" stroke="black" stroke-width="2.3"/>
<path d="M534.343 159.811C531.405 159.74 527.279 159.814 521.925 160.302C522.712 159.848 523.626 159.407 524.648 159.056C527.425 158.102 531.066 157.784 535.228 159.838C534.946 159.827 534.651 159.818 534.343 159.811Z" fill="#E37970" stroke="black" stroke-width="2.3"/>
<path d="M532.713 159.782L532.688 159.778C527.74 159.07 523.951 159.779 521.052 161.247C518.148 162.717 516.049 164.994 514.561 167.562C513.069 170.135 512.204 172.981 511.774 175.528C511.341 178.089 511.362 180.265 511.578 181.479L532.713 159.782ZM532.713 159.782L532.737 159.784M532.713 159.782L532.737 159.784M532.737 159.784L532.737 159.784M532.737 159.784L532.737 159.784M532.737 159.784L532.738 159.784M532.737 159.784L532.738 159.784M532.738 159.784L532.738 159.784M532.738 159.784L532.738 159.784M532.738 159.784L532.738 159.784M532.738 159.784L532.738 159.784M532.738 159.784L532.746 159.785L532.787 159.79C532.825 159.794 532.885 159.802 532.965 159.812C533.125 159.834 533.365 159.869 533.673 159.924C534.288 160.032 535.172 160.216 536.228 160.515C538.345 161.114 541.122 162.166 543.8 163.975L543.8 163.975C545.92 165.406 548.41 167.596 549.573 171.479C550.742 175.381 550.63 181.193 547.084 189.98L547.066 190.024L547.052 190.07L545.414 195.351L518.166 197.268C518.022 197.028 517.84 196.719 517.627 196.35C517.077 195.397 516.33 194.046 515.541 192.457C513.953 189.26 512.236 185.182 511.578 181.479L532.738 159.784Z" fill="#8870F9" stroke="black" stroke-width="2.3"/>
<path d="M577.441 402.853C584.672 443.771 596.586 499.088 615.361 557.109L606.535 557.379L606.343 557.385L606.165 557.452L606.164 557.452L606.164 557.453L606.164 557.453L606.163 557.453L606.157 557.455L606.117 557.47C606.08 557.483 606.022 557.503 605.945 557.529C605.791 557.58 605.559 557.654 605.263 557.737C604.669 557.905 603.82 558.111 602.812 558.262C600.779 558.566 598.186 558.633 595.746 557.783C595.307 557.63 594.543 557.141 593.461 556.155C592.41 555.197 591.149 553.854 589.719 552.126C586.86 548.672 583.372 543.738 579.588 537.407C572.022 524.747 563.302 506.553 556.071 483.551L556.07 483.547C555.727 482.47 555.369 481.376 554.991 480.268L554.99 480.265C551.23 469.305 545.577 457.042 539.769 444.444C539.405 443.655 539.041 442.865 538.677 442.074C532.478 428.617 526.219 414.83 521.902 401.746L521.902 401.746C520.523 397.564 519.289 393.631 518.177 389.908C518.137 389.775 518.098 389.643 518.059 389.511C517.744 388.45 517.436 387.416 517.148 386.397L517.147 386.392C510.953 364.88 509.041 350.561 507.371 335.485L567.717 335.967C567.724 336.031 567.73 336.098 567.738 336.167C567.821 336.979 567.949 338.182 568.125 339.754C568.476 342.899 569.021 347.52 569.794 353.429C571.338 365.248 573.795 382.222 577.441 402.853Z" fill="#8870F9" stroke="black" stroke-width="2.3"/>
<path d="M506.744 344.172C506.743 344.014 506.742 343.832 506.742 343.627C506.742 342.726 506.753 341.403 506.778 339.713C506.828 336.335 506.929 331.508 507.09 325.706C507.411 314.103 507.969 298.608 508.82 283.013C509.672 267.412 510.816 251.734 512.31 239.754C513.057 233.758 513.887 228.726 514.802 225.104C515.261 223.288 515.729 221.874 516.198 220.884C516.374 220.51 516.542 220.216 516.696 219.993C517.991 221.175 519.878 222.234 521.955 223.032C524.558 224.031 527.628 224.685 530.562 224.621L530.563 224.621C533.871 224.547 536.275 223.802 537.824 222.497C538.821 221.657 539.405 220.635 539.656 219.546C542.377 221.093 544.803 222.557 546.637 223.693C547.73 224.37 548.612 224.929 549.219 225.319C549.521 225.512 549.755 225.664 549.914 225.767C550.172 226.287 550.466 227.101 550.783 228.231C551.145 229.52 551.517 231.144 551.896 233.061C552.653 236.896 553.427 241.849 554.196 247.533C555.734 258.898 557.247 273.127 558.582 287.056C559.917 300.982 561.072 314.598 561.894 324.733C562.305 329.8 562.632 333.996 562.857 336.926C562.969 338.391 563.056 339.539 563.114 340.32C563.126 340.472 563.136 340.609 563.145 340.733C563.007 340.796 562.848 340.868 562.669 340.947C561.892 341.292 560.741 341.776 559.258 342.328C556.291 343.431 551.999 344.803 546.72 345.866C536.333 347.957 522.157 348.846 506.744 344.172Z" fill="#0EE4CF" stroke="black" stroke-width="2.3"/>
<path d="M492.579 326.332C490.905 328.227 489.066 329.728 487.036 330.655C489.838 323.871 492.321 318.747 494.283 314.7C494.392 314.474 494.5 314.251 494.606 314.032C496.796 309.511 498.374 306.201 498.805 303.411L498.806 303.41C500.285 293.784 500.334 283.849 499.617 274.484C501.726 270.795 503.566 267.684 504.889 265.479C505.568 264.347 506.111 263.453 506.484 262.843C506.67 262.538 506.814 262.304 506.911 262.147L507.021 261.969L507.049 261.924L507.056 261.913L507.057 261.91L507.058 261.91L507.058 261.91L506.081 261.303L507.058 261.91L507.146 261.768L507.19 261.607C507.262 261.345 507.725 259.875 508.416 258.096C509.111 256.307 510 254.303 510.91 252.92C511.374 252.214 511.774 251.78 512.072 251.584C512.154 251.53 512.208 251.508 512.236 251.499C512.236 251.499 512.236 251.5 512.237 251.5C512.369 251.59 512.705 251.969 513.072 253.104C513.423 254.187 513.747 255.78 514.008 258.027C515.042 266.96 513.573 276.786 511.443 284.954C510.38 289.029 509.158 292.669 508.017 295.55C506.864 298.459 505.824 300.519 505.141 301.486L504.931 301.784V301.813C504.579 302.39 504.225 303.155 503.867 304.004C503.449 304.992 502.988 306.185 502.483 307.494L502.4 307.707C501.318 310.509 500.012 313.867 498.391 317.189C496.769 320.516 494.855 323.756 492.579 326.332Z" fill="#8870F9" stroke="black" stroke-width="2.3"/>
<path d="M542.624 208.776C542.581 208.776 542.524 208.776 542.453 208.776C542.272 208.775 542.003 208.772 541.66 208.762C540.972 208.743 539.985 208.698 538.798 208.595C536.42 208.387 533.269 207.947 530.135 207.023C526.988 206.096 523.941 204.705 521.695 202.646C519.482 200.617 518.023 197.923 518.02 194.25L518.02 194.25C518.017 191.789 517.935 189.408 517.859 187.195C517.811 185.797 517.765 184.466 517.743 183.224C517.685 179.944 517.786 177.189 518.358 174.936C518.919 172.722 519.919 171.048 521.648 169.846C523.411 168.618 526.058 167.794 530.077 167.563L530.077 167.563C538.213 167.093 542.843 168.389 545.572 170.269C548.263 172.122 549.297 174.674 549.926 177.245C550.209 178.4 550.29 180.939 550.098 184.245C549.91 187.498 549.467 191.351 548.777 195.052C548.084 198.764 547.153 202.263 546.01 204.839C545.437 206.129 544.836 207.129 544.229 207.805C543.62 208.481 543.093 208.739 542.654 208.773L542.624 208.776Z" fill="white" stroke="black" stroke-width="2.3"/>
<path d="M523.559 186.585L523.558 186.585C518.262 187.948 514.524 187.905 512.153 187.551C511.457 187.447 510.876 187.316 510.406 187.184C510.407 187.184 510.407 187.184 510.407 187.184C511.249 186.35 512.385 185.118 513.575 183.515C515.884 180.404 518.42 175.864 519.388 170.096C519.487 170.031 519.604 169.956 519.736 169.872C520.23 169.559 520.943 169.119 521.816 168.619C523.568 167.616 525.942 166.38 528.464 165.423C531.004 164.459 533.598 163.815 535.819 163.909C537.801 163.992 539.406 164.65 540.496 166.153C540.466 166.229 540.432 166.311 540.395 166.401C540.186 166.911 539.873 167.645 539.463 168.536C538.644 170.321 537.441 172.726 535.909 175.21C534.374 177.699 532.526 180.239 530.422 182.316C528.313 184.398 526.006 185.956 523.559 186.585Z" fill="#8870F9" stroke="black" stroke-width="2.3"/>
<path d="M541.641 167.418C541.615 167.395 541.589 167.372 541.564 167.35C541.582 167.327 541.602 167.303 541.621 167.28C542.026 166.794 542.585 166.264 543.265 165.938C543.915 165.627 544.693 165.491 545.639 165.796C546.618 166.11 547.882 166.931 549.387 168.753C552.067 172.001 552.286 176.608 551.715 180.634C551.433 182.616 550.971 184.387 550.577 185.663C550.508 185.886 550.441 186.093 550.378 186.284C550.045 185.603 549.742 184.6 549.451 183.375C549.215 182.381 549.002 181.306 548.787 180.221C548.728 179.924 548.668 179.625 548.608 179.328C548.335 177.969 548.046 176.616 547.703 175.525C546.975 173.213 545.175 170.975 543.669 169.384C542.9 168.572 542.175 167.894 541.641 167.418ZM550.877 186.986C550.877 186.987 550.871 186.986 550.86 186.979C550.872 186.982 550.877 186.985 550.877 186.986Z" fill="#8870F9" stroke="black" stroke-width="2.3"/>
<path d="M648.352 245.602L645.974 237.653C645.992 237.6 646.013 237.54 646.036 237.474C646.154 237.149 646.338 236.677 646.605 236.114C647.138 234.983 647.989 233.499 649.255 232.076C651.742 229.283 655.873 226.664 662.606 227.497C663.414 227.76 664.692 228.29 665.467 229.188C665.845 229.625 666.086 230.131 666.117 230.75C666.148 231.383 665.964 232.251 665.272 233.409C664.745 234.293 664.321 234.792 663.952 235.133C663.604 235.453 663.279 235.661 662.83 235.947C662.788 235.973 662.746 236 662.703 236.028C661.606 236.728 660.348 237.622 658.459 240.322C656.753 242.76 655.038 244.169 653.302 244.918C651.773 245.579 650.144 245.765 648.352 245.602Z" fill="white" stroke="black" stroke-width="2.3"/>
<path d="M509.648 586.9C509.64 586.945 509.627 587.015 509.614 587.107C509.586 587.294 509.553 587.566 509.534 587.896C509.497 588.565 509.524 589.423 509.75 590.26C509.975 591.09 510.382 591.855 511.08 592.424C511.771 592.989 512.855 593.449 514.597 593.482C516.532 593.518 518.053 593.499 519.241 593.382C520.446 593.264 521.19 593.055 521.646 592.793C522.037 592.568 522.24 592.294 522.344 591.854C522.464 591.341 522.452 590.576 522.241 589.414L509.648 586.9ZM509.648 586.9C511.594 581.268 511.216 575.997 511.067 574.61L511.06 574.537L511.043 574.466L504.633 547.476H520.044L519.67 575.993L519.668 576.114L519.692 576.233L520.82 576.008L519.692 576.233L519.692 576.233L519.692 576.234L519.693 576.239L519.697 576.257L519.711 576.328L519.766 576.601C519.813 576.839 519.882 577.184 519.967 577.614C520.137 578.473 520.373 579.669 520.637 581.016C521.165 583.711 521.801 587.004 522.241 589.414L509.648 586.9Z" fill="white" stroke="black" stroke-width="2.3"/>
<path d="M509.346 588.853C511.062 590.195 512.696 590.965 514.234 591.298C516.261 591.736 518.025 591.395 519.456 590.749C520.646 590.211 521.599 589.467 522.3 588.795C522.557 590.133 522.722 591.733 522.821 593.3C522.921 594.877 522.951 596.346 522.957 597.343H508.936C508.743 595.498 508.867 593.152 509.077 591.084C509.161 590.261 509.257 589.499 509.346 588.853Z" fill="#0EE4CF" stroke="black" stroke-width="2.3"/>
<path d="M614.641 585.196V597.397H612.544L608.982 584.052L608.948 583.925L608.886 583.809C606.789 579.861 608.102 576.294 609.763 572.712C611.996 573.051 617.517 575.145 626.831 585.89L626.831 585.891C630.434 590.042 634.488 591.664 638.572 591.611C642.73 593.54 644.777 595.745 645.783 597.397H628.154C627.506 596.711 626.825 595.735 626.08 594.46C625.222 592.992 624.32 591.201 623.312 589.132L623.311 589.13C621.912 586.274 618.867 584.835 616.09 584.085L614.641 583.694V585.196Z" fill="#0EE4CF" stroke="black" stroke-width="2.3"/>
<path d="M646.071 238.347L648.194 245.444C648.149 245.507 648.099 245.576 648.045 245.652C647.737 246.079 647.291 246.695 646.742 247.45C645.643 248.959 644.13 251.019 642.469 253.226C639.127 257.668 635.256 262.613 632.962 264.901C630.678 267.179 624.808 271.81 618.534 275.923C615.405 277.974 612.207 279.876 609.336 281.281C606.424 282.706 603.992 283.547 602.346 283.619C598.778 283.775 594.521 282.826 589.24 280.664C583.966 278.504 577.747 275.167 570.276 270.624L568.056 269.274L568.55 271.826C569.628 277.395 570.087 282.73 569.583 287.43L569.583 287.43C568.247 299.884 570.025 323.865 572.111 344.611C573.157 355.01 574.285 364.638 575.152 371.666C575.586 375.18 575.954 378.044 576.213 380.03C576.343 381.024 576.446 381.797 576.517 382.323C576.52 382.351 576.524 382.379 576.528 382.406C576.163 382.618 575.583 382.921 574.727 383.287C572.883 384.077 569.766 385.156 564.763 386.244C559.801 387.324 558.02 386.452 557.41 385.842C557.098 385.53 556.975 385.181 556.928 384.895C556.904 384.751 556.902 384.629 556.904 384.549C556.905 384.515 556.907 384.49 556.908 384.475L556.909 384.469C556.909 384.468 556.909 384.469 556.909 384.468C556.909 384.464 556.91 384.461 556.91 384.462L556.924 384.38L556.923 384.278L555.773 384.291C556.923 384.278 556.923 384.277 556.923 384.276L556.923 384.272L556.922 384.257L556.922 384.194L556.919 383.948L556.908 382.987L556.865 379.331C556.828 376.178 556.775 371.666 556.71 366.228C556.579 355.351 556.4 340.771 556.208 325.958C555.823 296.358 555.384 265.753 555.162 261.982C555.1 260.926 554.793 259.438 554.34 257.704C553.881 255.949 553.253 253.87 552.518 251.602C551.046 247.065 549.129 241.73 547.229 236.639C545.329 231.546 543.443 226.689 542.032 223.106C541.379 221.447 540.827 220.06 540.423 219.049C551.776 220.869 562.984 226.987 572.581 234.059C582.706 241.522 590.93 249.969 595.487 255.289C598.385 258.676 603.18 259.712 607.215 257.817C612.82 255.186 620.764 251.466 624.208 249.912L624.208 249.912C627.286 248.523 633.084 245.446 638.075 242.738C640.578 241.379 642.892 240.107 644.579 239.174C645.155 238.855 645.658 238.577 646.071 238.347ZM577.04 382.078C577.041 382.077 577.04 382.079 577.035 382.082L577.037 382.081L577.04 382.078Z" fill="white" stroke="black" stroke-width="2.3"/>
<path d="M525.076 470.719C525.036 465.199 526.355 446.575 527.778 426.49C527.907 424.658 528.038 422.813 528.169 420.965C529.736 398.786 531.291 376.107 531.233 367.821C531.221 366.107 530.548 364.984 529.383 364.204C528.143 363.375 526.264 362.885 523.808 362.746C518.91 362.469 512.287 363.612 505.546 365.31C498.833 367 492.113 369.211 487.063 371.004C484.54 371.899 482.439 372.688 480.969 373.253C480.302 373.51 479.766 373.72 479.379 373.872C479.374 375.092 479.384 376.339 479.408 377.622L525.076 470.719ZM525.076 470.719C525.154 480.951 524.474 501.869 523.669 520.684C523.267 530.088 522.834 538.956 522.45 545.688C522.258 549.054 522.078 551.881 521.921 553.972C521.843 555.018 521.77 555.874 521.705 556.518C521.637 557.192 521.583 557.563 521.552 557.69C521.266 558.884 520.331 559.678 518.862 560.19C517.385 560.705 515.577 560.851 514 560.851C513.421 560.851 512.844 560.891 512.347 560.925C512.122 560.941 511.914 560.956 511.73 560.965C511.089 560.996 510.562 560.981 510.025 560.844C508.974 560.575 507.608 559.765 505.402 557.141C505.233 556.939 504.995 556.532 504.708 555.847C504.429 555.181 504.134 554.327 503.826 553.293C503.209 551.225 502.56 548.511 501.892 545.299C500.556 538.879 499.157 530.555 497.788 521.624C495.999 509.951 494.268 497.29 492.796 486.528C492.015 480.813 491.307 475.634 490.702 471.424L525.076 470.719ZM479.568 382.387C480.053 392.781 481.411 405.098 483.373 419.853L483.373 419.853C484.776 430.412 486.482 442.201 488.392 455.402C489.133 460.526 489.905 465.863 490.702 471.423L479.568 382.387ZM479.568 382.387C479.495 380.747 479.437 379.161 479.408 377.622L479.568 382.387Z" fill="#8870F9" stroke="black" stroke-width="2.3"/>
<path d="M498.449 392.975L498.449 392.975C491.971 392.114 484.071 389.728 477.745 387.534C474.592 386.44 471.848 385.4 469.893 384.635C469.002 384.286 468.276 383.994 467.749 383.779C467.914 383.256 468.141 382.536 468.423 381.636C469.062 379.599 469.986 376.64 471.13 372.949C473.416 365.57 476.579 355.265 480.084 343.561C480.121 343.444 480.173 343.267 480.22 343.107C480.255 342.988 480.287 342.879 480.308 342.812L480.31 342.804C488.585 315.175 498.708 279.958 503.746 257.026C503.811 256.728 503.876 256.425 503.939 256.129C503.98 255.941 504.019 255.755 504.058 255.576L504.058 255.575C505.422 249.233 506.378 243.873 506.752 239.959L516.68 221.063C517.096 222.023 517.631 223.266 518.252 224.722C519.775 228.294 521.815 233.151 523.881 238.294C525.949 243.44 528.039 248.862 529.665 253.567C531.307 258.315 532.431 262.208 532.636 264.357C532.732 265.366 532.546 267.937 532.096 271.832C531.653 275.668 530.971 280.655 530.126 286.391C528.437 297.862 526.102 312.296 523.738 326.447C521.374 340.598 518.983 354.46 517.183 364.785C516.283 369.948 515.531 374.226 515.003 377.213C514.74 378.707 514.532 379.878 514.391 380.675L514.229 381.585L514.188 381.818L514.185 381.836C514.179 381.856 514.171 381.881 514.162 381.912C514.134 382.001 514.091 382.135 514.031 382.308C513.91 382.655 513.721 383.156 513.454 383.755C512.919 384.956 512.078 386.53 510.857 388.043C508.435 391.043 504.55 393.787 498.449 392.975Z" fill="white" stroke="black" stroke-width="2.3"/>
<path d="M551.196 291.007C551.49 290.991 551.755 290.977 551.988 290.964V298.604C531.343 305.612 514.573 307.851 502.946 308.335C497.059 308.58 492.489 308.375 489.4 308.111C487.856 307.979 486.682 307.832 485.899 307.719C485.647 307.682 485.436 307.65 485.265 307.622C483.426 304.094 482.195 299.105 481.412 293.47C480.598 287.602 480.283 281.145 480.229 275.129C480.175 269.117 480.38 263.566 480.6 259.517C480.709 257.493 480.822 255.846 480.908 254.706C480.95 254.137 480.986 253.694 481.011 253.394C481.024 253.244 481.034 253.13 481.04 253.053L481.045 253.004C482.795 244.617 485.076 238.623 486.908 234.741C487.826 232.794 488.632 231.378 489.202 230.456C489.487 229.995 489.713 229.657 489.865 229.439C489.892 229.401 489.916 229.366 489.938 229.335C494.435 227.097 501.115 224.673 506.763 222.782C509.628 221.823 512.211 221.007 514.079 220.429C514.409 220.327 514.716 220.233 514.998 220.147L501.039 262.515L501.768 262.755L500.994 262.697L496.357 293.094L496.13 294.583L497.626 294.41C502.312 293.867 516.18 292.99 528.928 292.247C535.291 291.876 541.358 291.54 545.836 291.296C548.074 291.174 549.915 291.075 551.196 291.007Z" fill="white" stroke="black" stroke-width="2.3"/>
<path d="M512.301 283.553L512.301 283.553C511.737 297.796 508.509 324.526 481.109 340.137C488.903 314.026 498.104 281.907 503.141 259.739C505.355 263.297 507.495 267.129 509.152 270.895C511.187 275.519 512.441 279.926 512.301 283.553Z" fill="white" stroke="black" stroke-width="2.3"/>
<path d="M515.3 219.711C515.223 220.046 515.135 220.433 515.035 220.866C514.639 222.595 514.07 225.072 513.383 228.061C512.007 234.039 510.155 242.068 508.248 250.27C504.424 266.718 500.405 283.751 499.544 286.481C499.237 287.454 499.319 288.387 499.788 289.201C500.231 289.971 500.953 290.523 501.724 290.927C503.252 291.731 505.371 292.161 507.397 292.402C509.456 292.647 511.557 292.712 513.134 292.716C513.925 292.719 514.589 292.706 515.057 292.692C515.207 292.688 515.338 292.683 515.445 292.679C516.241 293.235 516.739 294.275 516.911 295.858C517.099 297.58 516.864 299.684 516.434 301.782C516.007 303.864 515.404 305.864 514.904 307.349C514.655 308.09 514.433 308.699 514.274 309.121C514.265 309.146 514.255 309.17 514.246 309.194C514.212 309.2 514.177 309.206 514.143 309.212L514.135 309.214C504.236 311.065 496.507 311.191 491.272 310.859C488.654 310.694 486.658 310.413 485.327 310.177C484.661 310.059 484.161 309.952 483.832 309.876C483.823 309.874 483.815 309.872 483.807 309.87C481.996 306.531 480.684 301.272 479.861 294.892C479.008 288.279 478.698 280.597 478.843 272.887C478.989 265.178 479.59 257.467 480.554 250.8C481.522 244.107 482.842 238.557 484.388 235.117C487.391 228.433 495.291 224.496 502.809 222.244C506.519 221.132 510.039 220.46 512.633 220.066C513.697 219.904 514.603 219.789 515.3 219.711Z" fill="white" stroke="black" stroke-width="2.3"/>
<path d="M554.003 283.517L554.003 283.516C554.37 281.384 555.103 279.65 556.385 278.355C557.662 277.065 559.597 276.094 562.59 275.701C565.793 275.281 567.945 275.07 569.285 275.158C569.954 275.202 570.25 275.313 570.354 275.379C570.355 275.389 570.356 275.402 570.356 275.418C570.356 275.418 570.356 275.418 570.356 275.419C570.355 275.426 570.35 275.493 570.318 275.645C570.286 275.796 570.234 275.993 570.16 276.236C570.013 276.721 569.787 277.35 569.482 278.097C568.872 279.589 567.961 281.507 566.768 283.606C564.374 287.815 560.886 292.674 556.476 296.283C554.268 298.09 552.878 298.484 552.081 298.417C551.389 298.36 550.855 297.92 550.42 297.04C549.978 296.148 549.752 295.001 549.644 294.014C549.592 293.532 549.57 293.112 549.562 292.814C549.561 292.781 549.56 292.749 549.56 292.719C549.658 292.591 549.779 292.43 549.919 292.238C550.292 291.728 550.795 291 551.325 290.125C552.372 288.393 553.573 285.997 554.003 283.517ZM570.35 275.349C570.35 275.349 570.35 275.35 570.351 275.351L570.35 275.349Z" fill="white" stroke="black" stroke-width="2.3"/>
<path d="M81.3569 557.765C81.3569 563.245 76.9134 567.692 71.4258 567.692C65.9379 567.692 61.4947 563.249 61.4947 557.765C61.4947 552.28 65.9379 547.837 71.4258 547.837C76.9137 547.837 81.3569 552.28 81.3569 557.765Z" fill="#14C3AD" stroke="black" stroke-width="2.3"/>
<path d="M85.7163 557.765C85.7163 563.247 81.2704 567.692 75.7852 567.692C70.3 567.692 65.8541 563.247 65.8541 557.765C65.8541 552.282 70.3 547.837 75.7852 547.837C81.2704 547.837 85.7163 552.282 85.7163 557.765Z" fill="#0EE4CF" stroke="black" stroke-width="2.3"/>
<path d="M155.174 587.271C155.174 592.752 150.73 597.198 145.243 597.198C139.755 597.198 135.312 592.756 135.312 587.271C135.312 581.787 139.755 577.344 145.243 577.344C150.731 577.344 155.174 581.787 155.174 587.271Z" fill="#14C3AD" stroke="black" stroke-width="2.3"/>
<path d="M159.533 587.271C159.533 592.752 155.09 597.198 149.602 597.198C144.114 597.198 139.671 592.756 139.671 587.271C139.671 581.787 144.114 577.344 149.602 577.344C155.09 577.344 159.533 581.787 159.533 587.271Z" fill="#0EE4CF" stroke="black" stroke-width="2.3"/>
<path d="M67.3423 548.479L174.597 583.551L161.619 592.887L79.662 558.817C79.6617 558.817 79.6613 558.816 79.661 558.816C78.2228 558.216 76.9064 557.37 75.7646 556.309C75.7645 556.309 75.7644 556.309 75.7643 556.309L67.3423 548.479Z" fill="#14C3AD" stroke="black" stroke-width="2.3"/>
<path d="M228.93 317.705L180.592 390.717L178.526 389.352L226.818 316.414L226.845 316.374L226.868 316.332C227.293 315.557 229.927 311.027 235.132 307.526L234.494 306.576L235.132 307.526C240.265 304.073 249.036 300.908 261.626 305.893L261.668 305.91L261.711 305.923L279.66 311.459L279.709 311.474L279.759 311.485C280.306 311.601 282.444 312.11 284.885 313.378C287.329 314.648 290.005 316.642 291.735 319.696L291.735 319.696C294.053 323.786 294.214 328.881 291.963 334.989C291.528 336.17 290.374 338.359 288.616 341.367C286.875 344.346 284.588 348.051 281.937 352.228C276.636 360.58 269.898 370.787 263.208 380.775C251.142 398.789 239.243 416.07 236.236 420.429L234.2 419.022C243.228 405.946 256.143 387.014 267.246 370.269C272.932 361.693 278.147 353.685 282.123 347.328C284.11 344.15 285.792 341.378 287.07 339.151C288.333 336.948 289.243 335.209 289.64 334.129C291.522 329.031 291.617 324.534 289.598 320.942L289.598 320.942C287.998 318.096 285.368 316.344 283.219 315.312C282.135 314.791 281.145 314.439 280.42 314.217C280.057 314.105 279.759 314.025 279.545 313.972C279.438 313.946 279.353 313.926 279.291 313.912C279.256 313.904 279.227 313.897 279.209 313.894L279.007 313.843L260.752 308.208C249.929 303.911 242.061 305.981 236.845 309.335C231.8 312.58 229.343 316.954 229.028 317.544L228.93 317.705Z" fill="#431879" stroke="black" stroke-width="2.3"/>
<path d="M200.396 589.656L200.396 589.657C200.393 589.662 200.387 589.672 200.379 589.687C200.361 589.717 200.332 589.766 200.29 589.832C200.206 589.964 200.072 590.165 199.881 590.418C199.501 590.922 198.898 591.631 198.03 592.406C196.299 593.952 193.501 595.777 189.273 596.777C180.929 598.749 166.791 597.549 144.033 584.122L231.45 405.127L270.803 432.135C270.807 432.14 270.812 432.145 270.817 432.15C270.878 432.219 270.973 432.329 271.092 432.48C271.332 432.781 271.672 433.246 272.049 433.873C272.802 435.127 273.701 437.031 274.241 439.585C275.313 444.668 274.989 452.471 268.98 463.039C263.577 472.539 246.426 504.203 230.636 533.473C222.738 548.112 215.178 562.159 209.592 572.545C206.799 577.738 204.5 582.017 202.899 584.997C202.098 586.487 201.472 587.652 201.047 588.445L200.561 589.349L200.437 589.581L200.405 589.639L200.398 589.654L200.397 589.654L200.397 589.655L200.396 589.656Z" fill="#14C3AD" stroke="black" stroke-width="2.3"/>
<path d="M241.406 444.156C248.082 431.914 245.165 417.39 235.813 408.487L234.674 407.459C234.673 407.458 234.672 407.458 234.672 407.457C234.509 407.312 234.339 407.172 234.147 407.015C231.349 404.733 228.077 402.914 224.389 401.737L224.739 400.642L224.389 401.737L199.991 393.947L199.991 393.947L196.889 392.954L196.888 392.953L171.605 384.886L171.602 384.885L170.087 384.398L170.087 384.398L168.287 383.819L168.285 383.819L160.724 381.404C160.723 381.404 160.723 381.404 160.723 381.404C147.814 377.289 133.752 382.441 126.564 393.924L241.406 444.156ZM241.406 444.156L241.406 444.156L175.855 564.323L241.406 444.156ZM56.5755 505.789L126.564 393.924L175.854 564.323C173.298 569.003 169.651 572.742 165.381 575.366L165.38 575.366C157.472 580.233 147.434 581.286 138.329 577.452L138.329 577.452L97.0826 560.114L97.0812 560.113L96.0597 559.685L96.0584 559.685L70.2298 548.827L70.2289 548.827C67.7246 547.777 65.4554 546.427 63.4298 544.848C62.9553 544.477 62.4954 544.097 62.0451 543.703C54.6821 537.185 51.0658 527.373 52.294 517.737C52.8189 513.638 54.2154 509.565 56.5753 505.79C56.5754 505.79 56.5755 505.79 56.5755 505.789Z" fill="#0EE4CF" stroke="black" stroke-width="2.3"/>
<path opacity="0.4" d="M164.827 575.7C164.82 573.16 164.738 570.307 163.791 567.462C162.778 564.417 160.754 561.332 156.607 558.746C148.205 553.509 122.186 541.881 98.1425 531.518C86.1473 526.347 74.6822 521.507 66.2155 517.96C61.9823 516.186 58.499 514.736 56.0741 513.729C54.927 513.253 54.0169 512.876 53.3762 512.61C51.5667 517.812 51.8379 523.76 53.4526 529.287C55.1804 535.201 58.4059 540.49 62.0396 543.707C62.4898 544.101 62.9496 544.48 63.424 544.851L164.827 575.7ZM164.827 575.7C157.007 580.283 147.22 581.203 138.325 577.457L138.324 577.457L97.078 560.118L97.0766 560.118L96.0551 559.69L96.0538 559.689L70.2252 548.832L70.2242 548.832C67.7195 547.781 65.45 546.431 63.4241 544.851L164.827 575.7Z" fill="#14C3AD" stroke="black" stroke-width="2.3"/>
<path d="M63.4424 521.914C64.1438 520.755 133.728 405.812 140.796 396.419C146.356 389.035 163.124 385.361 169.481 384.203L63.4424 521.914ZM63.4424 521.914C63.3917 522.001 58.4426 532.391 63.0039 544.512L63.4424 521.914Z" fill="#14C3AD" stroke="black" stroke-width="2.3"/>
<mask id="path-84-inside-2_1074_18793" fill="white">
<path d="M200.346 392.845C196.805 393.526 182.923 397.003 174.399 410.743C164.4 426.855 100.573 547.656 99.9345 548.873L99.8907 548.96L99.8273 549.034C99.7835 549.087 95.429 555.222 97.6744 561.61L96.6369 561.177L95.6141 560.748C93.6852 554.102 97.8693 548.746 98.4781 548.001C100.456 544.267 163.041 425.837 172.963 409.857C180.313 398.016 191.476 393.483 197.243 391.852L200.346 392.845Z"/>
</mask>
<path d="M200.346 392.845C196.805 393.526 182.923 397.003 174.399 410.743C164.4 426.855 100.573 547.656 99.9345 548.873L99.8907 548.96L99.8273 549.034C99.7835 549.087 95.429 555.222 97.6744 561.61L96.6369 561.177L95.6141 560.748C93.6852 554.102 97.8693 548.746 98.4781 548.001C100.456 544.267 163.041 425.837 172.963 409.857C180.313 398.016 191.476 393.483 197.243 391.852L200.346 392.845Z" fill="#14C3AD"/>
<path d="M174.399 410.743L176.354 411.956L176.354 411.956L174.399 410.743ZM99.9345 548.873L97.8974 547.805L97.8872 547.825L97.8773 547.844L99.9345 548.873ZM99.8907 548.96L101.629 550.467L101.818 550.248L101.948 549.989L99.8907 548.96ZM99.8273 549.034L98.0894 547.527L98.0681 547.552L98.0475 547.577L99.8273 549.034ZM97.6744 561.61L96.7879 563.733L101.559 565.725L99.8443 560.848L97.6744 561.61ZM96.6369 561.177L95.7483 563.298L95.7505 563.299L96.6369 561.177ZM95.6141 560.748L93.4052 561.389L93.7116 562.445L94.7254 562.87L95.6141 560.748ZM98.4781 548.001L100.259 549.457L100.404 549.28L100.511 549.078L98.4781 548.001ZM172.963 409.857L174.917 411.07L174.917 411.07L172.963 409.857ZM197.243 391.852L197.945 389.661L197.285 389.45L196.618 389.638L197.243 391.852ZM199.911 390.586C196.147 391.311 181.477 394.971 172.445 409.531L176.354 411.956C184.37 399.035 197.463 395.742 200.781 395.103L199.911 390.586ZM172.445 409.53C162.388 425.735 98.5046 546.647 97.8974 547.805L101.972 549.941C102.641 548.664 166.411 427.975 176.354 411.956L172.445 409.53ZM97.8773 547.844L97.8335 547.932L101.948 549.989L101.992 549.901L97.8773 547.844ZM98.1527 547.454L98.0894 547.527L101.565 550.54L101.629 550.467L98.1527 547.454ZM98.0475 547.577C97.8486 547.82 96.619 549.606 95.72 552.191C94.811 554.805 94.1459 558.508 95.5046 562.373L99.8443 560.848C98.9575 558.325 99.3469 555.766 100.065 553.702C100.793 551.609 101.762 550.301 101.607 550.49L98.0475 547.577ZM98.5609 559.488L97.5234 559.055L95.7505 563.299L96.7879 563.733L98.5609 559.488ZM97.5256 559.055L96.5027 558.627L94.7254 562.87L95.7483 563.298L97.5256 559.055ZM97.8229 560.107C96.2418 554.659 99.6982 550.143 100.259 549.457L96.6972 546.546C96.0403 547.35 91.1287 553.545 93.4052 561.389L97.8229 560.107ZM100.511 549.078C102.527 545.269 165.05 426.962 174.917 411.07L171.009 408.644C161.031 424.713 98.384 543.264 96.4455 546.925L100.511 549.078ZM174.917 411.07C181.841 399.914 192.379 395.618 197.869 394.065L196.618 389.638C190.574 391.348 178.784 396.117 171.008 408.644L174.917 411.07ZM196.542 394.042L199.645 395.035L201.047 390.654L197.945 389.661L196.542 394.042Z" fill="black" mask="url(#path-84-inside-2_1074_18793)"/>
<mask id="path-86-inside-3_1074_18793" fill="white">
<path d="M236.595 407.638C236.493 407.653 231.573 408.193 226.503 410.608C221.427 413.023 215.163 417.406 210.283 425.269C200.288 441.376 138.76 562.663 138.141 563.88L138.093 563.978L138.024 564.056C137.976 564.109 134.352 571.593 136.602 577.981L134.006 576.891C132.579 571.32 136.027 563.817 136.68 563.033C138.648 559.158 198.929 440.358 208.846 424.378C218.173 409.347 232.007 406.543 234.875 406.119C235.065 406.275 235.255 406.431 235.44 406.596L236.595 407.638Z"/>
</mask>
<path d="M236.595 407.638C236.493 407.653 231.573 408.193 226.503 410.608C221.427 413.023 215.163 417.406 210.283 425.269C200.288 441.376 138.76 562.663 138.141 563.88L138.093 563.978L138.024 564.056C137.976 564.109 134.352 571.593 136.602 577.981L134.006 576.891C132.579 571.32 136.027 563.817 136.68 563.033C138.648 559.158 198.929 440.358 208.846 424.378C218.173 409.347 232.007 406.543 234.875 406.119C235.065 406.275 235.255 406.431 235.44 406.596L236.595 407.638Z" fill="#14C3AD"/>
<path d="M226.503 410.608L227.491 412.685L227.492 412.685L226.503 410.608ZM210.283 425.269L208.329 424.056L208.328 424.056L210.283 425.269ZM138.141 563.88L136.091 562.838L136.087 562.845L136.084 562.852L138.141 563.88ZM138.093 563.978L139.823 565.493L140.018 565.271L140.15 565.006L138.093 563.978ZM138.024 564.056L139.726 565.603L139.74 565.587L139.754 565.571L138.024 564.056ZM136.602 577.981L135.711 580.102L140.496 582.112L138.771 577.217L136.602 577.981ZM134.006 576.891L131.778 577.461L132.062 578.568L133.115 579.011L134.006 576.891ZM136.68 563.033L138.448 564.505L138.613 564.306L138.731 564.075L136.68 563.033ZM208.846 424.378L210.8 425.591L210.8 425.591L208.846 424.378ZM234.875 406.119L236.334 404.341L235.547 403.695L234.54 403.844L234.875 406.119ZM235.44 406.596L236.982 404.889L236.974 404.882L235.44 406.596ZM236.27 405.361C236.326 405.353 235.895 405.405 235.318 405.499C234.719 405.596 233.884 405.751 232.888 405.984C230.904 406.447 228.24 407.233 225.514 408.532L227.492 412.685C232.212 410.437 236.813 409.931 236.92 409.915L236.27 405.361ZM225.514 408.532C220.122 411.097 213.485 415.748 208.329 424.056L212.237 426.482C216.842 419.063 222.732 414.95 227.491 412.685L225.514 408.532ZM208.328 424.056C203.268 432.212 185.327 466.681 168.651 499.106C151.939 531.6 136.4 562.231 136.091 562.838L140.192 564.922C140.501 564.313 156.036 533.692 172.741 501.21C189.482 468.661 207.303 434.433 212.237 426.482L208.328 424.056ZM136.084 562.852L136.035 562.95L140.15 565.006L140.199 564.909L136.084 562.852ZM136.362 562.462L136.294 562.54L139.754 565.571L139.823 565.493L136.362 562.462ZM136.323 562.508C136.216 562.626 136.145 562.729 136.127 562.755C136.098 562.798 136.076 562.834 136.063 562.854C136.038 562.894 136.019 562.928 136.01 562.944C135.991 562.979 135.975 563.01 135.966 563.028C135.945 563.067 135.924 563.11 135.905 563.15C135.865 563.233 135.815 563.34 135.757 563.469C135.642 563.727 135.489 564.086 135.319 564.53C134.978 565.415 134.556 566.656 134.212 568.115C133.537 570.982 133.097 574.954 134.433 578.745L138.771 577.217C137.857 574.621 138.104 571.657 138.69 569.171C138.976 567.954 139.329 566.915 139.612 566.182C139.752 565.817 139.873 565.533 139.957 565.346C139.999 565.252 140.029 565.187 140.046 565.152C140.056 565.133 140.058 565.129 140.054 565.137C140.052 565.139 140.043 565.157 140.028 565.184C140.022 565.195 140.005 565.225 139.982 565.263C139.97 565.282 139.949 565.316 139.92 565.358C139.902 565.384 139.832 565.486 139.726 565.603L136.323 562.508ZM137.493 575.861L134.897 574.77L133.115 579.011L135.711 580.102L137.493 575.861ZM136.234 576.32C135.672 574.128 136.047 571.335 136.774 568.801C137.126 567.571 137.539 566.481 137.894 565.665C138.072 565.257 138.23 564.931 138.352 564.701C138.504 564.414 138.534 564.401 138.448 564.505L134.912 561.562C134.663 561.861 134.443 562.254 134.286 562.55C134.1 562.901 133.893 563.334 133.678 563.827C133.248 564.812 132.765 566.093 132.352 567.533C131.548 570.339 130.912 574.083 131.778 577.461L136.234 576.32ZM138.731 564.075C140.744 560.11 200.952 441.46 210.8 425.591L206.892 423.165C196.906 439.256 136.552 558.205 134.629 561.992L138.731 564.075ZM210.8 425.591C219.619 411.379 232.663 408.771 235.211 408.394L234.54 403.844C231.35 404.315 216.728 407.315 206.892 423.165L210.8 425.591ZM233.417 407.897C233.613 408.058 233.765 408.183 233.907 408.311L236.974 404.882C236.746 404.678 236.518 404.492 236.334 404.341L233.417 407.897ZM233.899 408.304L235.054 409.346L238.136 405.931L236.982 404.889L233.899 408.304Z" fill="black" mask="url(#path-86-inside-3_1074_18793)"/>
<path d="M258.73 557.891L258.73 557.891L258.73 557.891L259.098 557.55V557.438L261.408 554.47L274.481 557.545C274.504 557.794 274.532 558.096 274.562 558.443C274.655 559.521 274.774 561.04 274.881 562.798C275.094 566.324 275.252 570.776 275.041 574.571L275.041 574.571C274.82 578.566 275.373 582.772 276.92 586.215C278.473 589.674 281.083 592.456 284.975 593.306C286.554 593.652 287.445 594.17 287.945 594.656C288.429 595.125 288.614 595.628 288.663 596.107C288.715 596.611 288.616 597.112 288.487 597.511C288.486 597.513 288.485 597.516 288.484 597.518H270.827C267.758 597.518 263.759 594.329 262.734 587.555C262.141 583.636 259.651 580.671 257.324 578.105C257.076 577.832 256.831 577.564 256.589 577.299C255.664 576.289 254.79 575.334 254.023 574.35C253.063 573.117 252.34 571.92 251.969 570.666L251.969 570.665C251.636 569.546 251.789 568.222 252.326 566.768C252.86 565.322 253.736 563.854 254.696 562.519C255.652 561.189 256.664 560.028 257.44 559.197C257.828 558.782 258.154 558.452 258.381 558.228C258.495 558.115 258.584 558.03 258.644 557.973C258.674 557.944 258.696 557.923 258.711 557.909L258.726 557.895L258.73 557.892L258.73 557.891ZM288.241 598.104L288.242 598.103C288.241 598.104 288.241 598.104 288.241 598.104Z" fill="#0EE4CF" stroke="black" stroke-width="2.3"/>
<path d="M368.662 597.512L368.655 597.606C368.655 597.606 368.655 597.606 368.655 597.606C368.662 597.512 368.662 597.512 368.662 597.512L368.664 597.512L368.67 597.513L368.695 597.515L368.793 597.522L369.181 597.549C369.52 597.572 370.019 597.607 370.655 597.649C371.927 597.734 373.747 597.851 375.94 597.981C380.325 598.242 386.196 598.555 392.141 598.763C398.092 598.972 404.097 599.075 408.76 598.92C411.095 598.842 413.061 598.7 414.502 598.482C415.226 598.372 415.78 598.249 416.168 598.119C416.471 598.018 416.58 597.943 416.597 597.934C416.974 597.408 417.076 596.819 416.911 596.136C416.732 595.398 416.231 594.533 415.354 593.627C413.609 591.826 410.589 590.092 406.768 589.129C405.794 588.972 404.742 588.835 403.646 588.691C400.601 588.294 397.213 587.851 394.202 586.828C389.971 585.392 386.213 582.743 384.589 577.368L384.587 577.361L384.585 577.354C384.49 577.024 384.395 576.677 384.315 576.318L368.662 597.512ZM368.662 597.512L368.636 597.597C368.483 597.519 368.32 597.436 368.147 597.348C367.09 596.808 366.409 595.867 366.006 594.559C365.595 593.228 365.498 591.589 365.59 589.825C365.682 588.072 365.956 586.271 366.238 584.642C366.312 584.219 366.387 583.802 366.46 583.397C366.659 582.29 366.841 581.282 366.917 580.536C366.945 580.282 366.969 580.066 366.989 579.894M368.662 597.512L366.989 579.894M366.989 579.894C367.087 579.82 367.203 579.731 367.337 579.632C367.8 579.285 368.466 578.8 369.273 578.25C370.894 577.145 373.056 575.796 375.269 574.774C377.522 573.734 379.655 573.116 381.277 573.277C382.056 573.353 382.671 573.605 383.148 574.037C383.627 574.472 384.058 575.176 384.315 576.318L366.989 579.894Z" fill="#0EE4CF" stroke="black" stroke-width="2.3"/>
<path d="M336.003 313.899L406.413 318.252L406.388 318.558C406.311 319.524 406.197 320.947 406.051 322.777C405.759 326.437 405.337 331.725 404.82 338.234C403.785 351.252 402.366 369.157 400.832 388.704C396.669 441.792 391.653 507.061 391.155 519.452L391.155 519.453C391.089 521.113 391.022 522.818 390.954 524.554C390.582 534.041 390.175 544.436 389.622 553.386C389.294 558.68 388.917 563.451 388.468 567.22C388.244 569.105 388.003 570.724 387.745 572.026C387.483 573.35 387.217 574.266 386.968 574.792C386.503 575.779 385.18 576.993 383.132 578.164C381.137 579.305 378.635 580.302 376.077 580.945C373.511 581.589 370.961 581.86 368.857 581.607C366.738 581.352 365.268 580.598 364.519 579.394C364.081 578.689 363.508 577.41 362.83 575.537C362.161 573.685 361.411 571.317 360.607 568.479C358.999 562.804 357.185 555.291 355.364 546.352C351.724 528.477 348.068 504.937 345.995 479.065C345.932 478.216 345.868 477.363 345.8 476.505C343.87 450.125 341.403 409.155 339.419 374.773C338.427 357.583 337.555 342.042 336.932 330.799C336.62 325.177 336.371 320.63 336.199 317.488C336.114 315.935 336.048 314.726 336.003 313.899ZM407.561 318.323C407.073 324.413 404.709 354.002 401.978 388.794C397.813 441.901 392.801 507.136 392.305 519.498L407.561 318.323Z" fill="white" stroke="black" stroke-width="2.3"/>
<path d="M336.204 317.488C336.119 315.935 336.053 314.726 336.008 313.899L406.413 318.251L406.388 318.558C406.311 319.524 406.197 320.947 406.051 322.777C405.759 326.437 405.337 331.725 404.82 338.234C403.79 351.189 402.38 368.984 400.854 388.42L345.739 475.6C343.818 449.195 341.385 408.764 339.424 374.773C338.432 357.583 337.56 342.042 336.937 330.799C336.625 325.177 336.376 320.63 336.204 317.488Z" fill="white" stroke="black" stroke-width="2.3"/>
<path d="M316.826 493.628L317.83 494.189L316.826 493.628C303.324 517.812 296.757 535.087 292.402 546.543C291.758 548.237 291.163 549.804 290.6 551.247C288.392 556.911 286.771 560.441 284.863 562.39C283.951 563.323 282.995 563.866 281.876 564.104C280.732 564.348 279.335 564.29 277.524 563.874C275.777 563.471 274.193 563.121 272.747 562.802C271.007 562.417 269.467 562.077 268.084 561.743C265.56 561.135 263.729 560.585 262.39 559.915C261.087 559.263 260.313 558.53 259.833 557.562C259.332 556.554 259.086 555.167 259.099 553.092C259.101 552.661 259.204 551.803 259.428 550.494C259.647 549.211 259.969 547.566 260.382 545.604C261.207 541.681 262.388 536.524 263.814 530.532C266.665 518.55 270.488 503.258 274.391 487.88C277.769 474.57 281.208 461.187 284.125 449.835C287.943 434.978 290.867 423.601 291.588 420.424C292.197 417.739 294.063 412.755 296.587 406.441C297.847 403.292 299.24 399.884 300.702 396.306C302.18 392.69 303.729 388.9 305.282 385.031C308.345 377.396 311.357 369.607 313.646 362.752C315.921 355.936 317.525 349.916 317.693 345.873C318.013 338.186 319.056 326.711 320.022 317.136C320.504 312.353 320.966 308.052 321.308 304.947C321.479 303.396 321.62 302.143 321.718 301.278L394.201 321.8C394.182 321.848 394.162 321.898 394.141 321.949C393.79 322.825 393.27 324.116 392.598 325.78C391.253 329.107 389.297 333.923 386.853 339.874C381.965 351.778 375.126 368.226 367.322 386.403C351.706 422.772 332.249 466.008 316.826 493.628Z" fill="white" stroke="black" stroke-width="2.3"/>
<path d="M435.864 294.08L442.794 290.12L444.939 294.392L445.21 294.932L445.805 295.015L445.806 295.015L445.806 295.015L445.807 295.015L445.808 295.015L445.827 295.018C445.846 295.021 445.877 295.026 445.92 295.034C446.005 295.049 446.134 295.073 446.301 295.11C446.635 295.183 447.115 295.303 447.684 295.49C448.827 295.865 450.289 296.497 451.628 297.523C452.959 298.543 454.156 299.941 454.821 301.868C455.482 303.785 455.649 306.321 454.77 309.68L454.767 309.687C454.755 309.721 454.735 309.774 454.707 309.842C454.652 309.979 454.568 310.178 454.456 310.412C454.229 310.887 453.901 311.479 453.484 312.004C453.06 312.539 452.604 312.929 452.143 313.114C451.732 313.279 451.24 313.315 450.586 312.993C449.016 312.219 448.507 311.836 447.956 311.421C447.879 311.363 447.801 311.305 447.719 311.245C446.953 310.678 445.991 310.056 443.249 308.788L443.248 308.788C438.104 306.414 435.564 302.079 436.56 298.451L436.629 298.196L436.581 297.936L435.864 294.08Z" fill="white" stroke="black" stroke-width="2.3"/>
<path d="M370.363 139.831L371.079 140.225C374.915 142.332 377.939 144.795 380.004 146.733C380.808 147.487 381.465 148.16 381.966 148.699C377.966 149.628 373.365 149.649 368.588 149.089C363.119 148.449 357.497 147.057 352.418 145.477C347.342 143.898 342.831 142.139 339.588 140.773C338.096 140.145 336.874 139.6 335.991 139.197C336.38 138.84 336.836 138.404 337.342 137.888C338.963 136.236 341.105 133.761 343.216 130.443C347.181 124.214 351.031 115.024 351.12 102.787L372.623 120.11C372.617 120.307 372.608 120.556 372.594 120.856C372.556 121.72 372.484 123.005 372.347 124.675C372.072 128.014 371.538 132.893 370.499 139.025L370.363 139.831Z" fill="white" stroke="black" stroke-width="2.3"/>
<path d="M379.182 118.008L379.143 118.015C379.089 118.023 379.008 118.035 378.901 118.051C378.686 118.082 378.368 118.126 377.96 118.175C377.144 118.273 375.97 118.394 374.551 118.481C371.708 118.654 367.909 118.69 364.039 118.151C360.158 117.61 356.291 116.501 353.248 114.447C350.243 112.419 348.014 109.454 347.354 105.07C346.919 102.176 346.406 99.3984 345.929 96.8117C345.627 95.1747 345.339 93.6143 345.094 92.1495C344.449 88.2985 344.079 85.0157 344.359 82.2327C344.635 79.4909 345.534 77.2923 347.403 75.5298C349.303 73.7379 352.315 72.2917 357.022 71.3095C366.531 69.3251 372.262 70.0287 375.866 71.7914C379.43 73.5339 381.122 76.4133 382.322 79.3489C382.871 80.6935 383.414 83.6967 383.769 87.6188C384.119 91.4883 384.275 96.1084 384.112 100.592C383.949 105.089 383.468 109.388 382.568 112.642C382.118 114.272 381.579 115.579 380.965 116.507C380.362 117.419 379.757 117.864 379.182 118.008Z" fill="white" stroke="black" stroke-width="2.3"/>
<path d="M345.59 103.548C344.666 102.231 343.513 100.46 342.325 98.382C340.171 94.6137 337.947 89.9081 336.778 85.146C335.605 80.3692 335.529 75.6854 337.468 71.8325C339.384 68.0281 343.392 64.7874 350.935 63.1326L350.935 63.1326C358.332 61.5084 365.647 60.0065 371.113 58.9106C373.846 58.3627 376.117 57.9163 377.703 57.607C378.483 57.4551 379.098 57.3362 379.521 57.2546C380.085 57.9715 380.916 59.129 381.727 60.5349C382.777 62.3556 383.749 64.5187 384.103 66.6357C384.454 68.7372 384.182 70.6828 382.902 72.2602C381.602 73.8621 379.092 75.2946 374.505 75.9705L374.505 75.9705C360.278 78.0681 352.92 85.6855 349.162 92.8195C347.294 96.3654 346.322 99.7734 345.817 102.294C345.728 102.74 345.653 103.16 345.59 103.548Z" fill="#0EE4CF" stroke="black" stroke-width="2.3"/>
<path d="M439.593 294.925L439.594 294.925L439.596 294.924L439.609 294.918C439.623 294.911 439.644 294.901 439.672 294.887C439.728 294.858 439.814 294.814 439.924 294.756C440.144 294.639 440.46 294.464 440.836 294.237C441.593 293.782 442.572 293.128 443.492 292.325C445.428 290.637 446.669 288.695 446.061 286.723C445.997 286.517 445.827 286.148 445.504 285.594C445.192 285.057 444.77 284.402 444.248 283.641C443.205 282.12 441.791 280.219 440.12 278.058C436.779 273.739 432.445 268.429 428.065 263.137C425.614 260.175 423.162 257.236 420.864 254.48C419.046 252.3 417.324 250.235 415.773 248.364C412.309 244.186 409.664 240.936 408.911 239.745L408.911 239.744C408.672 239.366 408.392 238.735 408.088 237.977C407.772 237.191 407.398 236.182 406.975 234.989C406.13 232.601 405.078 229.443 403.899 225.789C401.539 218.479 398.658 209.154 395.865 199.972C393.072 190.79 390.367 181.747 388.36 175C387.357 171.626 386.528 168.827 385.95 166.87C385.661 165.892 385.435 165.124 385.281 164.601L385.24 164.465L335.113 154.313C335.322 154.809 335.568 155.39 335.848 156.05C336.859 158.44 338.312 161.867 340.078 166.014C343.611 174.309 348.398 185.483 353.413 197.004C358.428 208.526 363.67 220.389 368.114 230.063C372.578 239.781 376.19 247.183 377.96 249.869L377.96 249.869C383.915 258.906 396.559 271.364 408.415 281.608C414.328 286.718 420.011 291.247 424.516 294.492C426.771 296.117 428.714 297.407 430.234 298.286C430.995 298.726 431.629 299.051 432.131 299.263C432.669 299.49 432.935 299.535 433.005 299.535C435.107 299.535 436.6 298.553 437.6 297.522C438.102 297.005 438.47 296.485 438.71 296.096C438.83 295.902 438.916 295.743 438.971 295.637C438.991 295.598 439.007 295.567 439.018 295.543C439.022 295.534 439.026 295.527 439.029 295.52L439.04 295.498L439.04 295.497L439.04 295.497L439.041 295.496L439.041 295.495L439.042 295.494L439.211 295.109L439.593 294.925ZM439.593 294.925L439.593 294.926L439.593 294.925Z" fill="#7060E1" stroke="black" stroke-width="2.3"/>
<path d="M407.98 237.46C408.437 248.116 408.807 258.86 408.899 269.045V269.405V269.455L408.903 269.504C408.986 270.459 408.987 271.513 408.987 272.536V272.544L408.987 272.552C409.172 285.646 409.172 297.381 409.068 305.886C409.017 310.139 408.939 313.578 408.847 315.973C408.8 317.173 408.75 318.098 408.699 318.728C408.683 318.925 408.667 319.086 408.653 319.212C408.366 319.386 408.07 319.471 407.757 319.472C405.955 319.449 403.34 319.679 400.237 319.996C399.296 320.092 398.306 320.196 397.274 320.305C394.866 320.559 392.227 320.837 389.426 321.091C381.425 321.816 372.231 322.327 363.836 321.465L363.828 321.464C349.648 320.103 337.077 315.907 323.503 309.825C322.635 309.436 321.217 308.715 320.049 307.868C319.462 307.444 318.984 307.02 318.669 306.627C318.341 306.218 318.292 305.973 318.297 305.871L318.297 305.86L318.298 305.849C318.359 303.72 318.566 300.646 318.829 296.742L318.851 296.419L318.851 296.418L318.873 296.102C319.84 281.983 321.494 257.869 319.86 230.075C319.564 224.896 319.413 219.76 319.394 214.702C319.324 195.848 321.128 178.121 324.81 163.735C328.484 149.38 333.973 138.564 341.129 133.144C341.16 133.144 341.203 133.145 341.258 133.15C341.505 133.17 341.869 133.243 342.36 133.387C343.336 133.672 344.635 134.18 346.163 134.848C348.889 136.04 352.213 137.681 355.494 139.302C355.882 139.493 356.268 139.684 356.653 139.874L356.653 139.874C360.282 141.662 363.818 141.71 366.892 141.569C367.395 141.546 367.878 141.518 368.344 141.492C369.335 141.435 370.253 141.383 371.149 141.385C372.444 141.39 373.552 141.514 374.515 141.872C376.626 142.658 378.597 144.073 380.069 145.332C380.798 145.955 381.389 146.528 381.797 146.943C382 147.15 382.157 147.317 382.261 147.431C382.314 147.488 382.353 147.531 382.378 147.559L382.406 147.59L382.411 147.597L382.412 147.597L382.412 147.597L382.412 147.597L382.412 147.598L382.452 147.643L382.497 147.685C390.144 154.785 398.43 164.348 402.031 178.841L402.031 178.841C405.131 191.308 406.966 213.909 407.98 237.46ZM407.98 237.46L409.129 237.411M407.98 237.46C407.98 237.46 407.98 237.46 407.98 237.46L409.129 237.411M409.129 237.411C409.586 248.074 409.957 258.834 410.049 269.04L403.147 178.564C406.279 191.16 408.115 213.874 409.129 237.411ZM341.063 133.148C341.061 133.148 341.06 133.148 341.06 133.148C341.06 133.148 341.061 133.148 341.063 133.148Z" fill="#8870F9" stroke="black" stroke-width="2.3"/>
<path d="M317.704 296.342C318.668 282.27 320.353 258.066 318.712 230.143C318.415 224.943 318.264 219.786 318.244 214.708C324.528 199.473 329.661 188.42 329.661 188.42H345.501C345.501 188.42 357.113 267.702 317.704 296.337V296.342Z" fill="#7060E1"/>
<path d="M285.283 301.748L282.891 305.873L282.588 306.395L282.845 306.939L282.845 306.94L282.845 306.94L282.845 306.941L282.846 306.941L282.854 306.959C282.862 306.977 282.874 307.006 282.891 307.045C282.925 307.124 282.976 307.246 283.037 307.405C283.159 307.725 283.321 308.192 283.477 308.77C283.789 309.931 284.061 311.5 283.936 313.182C283.812 314.854 283.298 316.621 282.049 318.233C280.807 319.836 278.776 321.366 275.483 322.472L275.476 322.474C275.44 322.482 275.385 322.495 275.313 322.509C275.168 322.538 274.956 322.577 274.698 322.612C274.177 322.682 273.501 322.733 272.833 322.672C272.153 322.611 271.576 322.444 271.168 322.159C270.805 321.906 270.504 321.513 270.414 320.789C270.199 319.049 270.24 318.414 270.285 317.725C270.292 317.63 270.298 317.534 270.304 317.434C270.358 316.483 270.351 315.339 269.909 312.353C269.078 306.751 271.315 302.249 274.891 301.098L275.142 301.017L275.333 300.834L278.168 298.122L285.283 301.748Z" fill="white" stroke="black" stroke-width="2.3"/>
<path d="M281.205 302.022C281.818 302.177 282.381 302.334 282.902 302.481C283.003 302.51 283.102 302.538 283.199 302.565C284.14 302.831 284.907 303.048 285.633 303.182C287.118 303.457 288.389 303.38 290.241 302.344C290.237 302.346 290.236 302.347 290.236 302.347C290.236 302.347 290.28 302.317 290.365 302.222C290.461 302.115 290.58 301.96 290.722 301.743C291.005 301.31 291.332 300.704 291.698 299.928C292.429 298.379 293.265 296.257 294.169 293.726C295.976 288.671 298.022 282.084 300.012 275.399C301.417 270.676 302.791 265.919 304.029 261.629C304.543 259.848 305.034 258.148 305.494 256.564C306.277 253.868 306.972 251.508 307.541 249.67C308.099 247.864 308.559 246.485 308.868 245.806L281.205 302.022ZM281.205 302.022L281.262 301.965L279.141 301.552C277.965 301.323 277.124 301.243 276.476 301.188C276.423 301.184 276.374 301.18 276.325 301.176C275.748 301.128 275.446 301.103 275.153 301.023C274.586 300.869 273.949 300.476 271.869 298.514C271.815 298.463 271.68 298.285 271.537 297.846C271.399 297.425 271.282 296.855 271.198 296.13C271.029 294.679 271.004 292.738 271.117 290.399C271.343 285.728 272.114 279.615 273.289 272.966C275.641 259.656 279.582 244.364 283.898 234.392C286.523 228.33 298.42 203.754 310.874 180.602C317.101 169.027 323.451 157.837 328.84 149.507C331.538 145.338 333.974 141.917 336.019 139.529C337.043 138.333 337.942 137.427 338.705 136.82C339.503 136.184 340.004 135.995 340.247 135.978C344.272 135.699 348.026 138.799 350.299 145.866C352.553 152.875 353.164 163.381 351.074 176.795C349.017 190.003 339.154 205.933 329.372 219.293C324.503 225.944 319.694 231.906 315.957 236.515C315.753 236.766 315.552 237.014 315.354 237.257C313.745 239.241 312.353 240.957 311.278 242.335C310.674 243.108 310.162 243.786 309.763 244.352C309.376 244.9 309.053 245.402 308.868 245.806C308.869 245.806 308.869 245.806 308.869 245.805L281.205 302.022Z" fill="#8870F9" stroke="black" stroke-width="2.3"/>
<path d="M369 109.776C371.57 110.429 374.223 109.597 375 108" stroke="black" stroke-width="2" stroke-miterlimit="10"/>
</svg>
